<svg width="150" height="36" viewBox="0 0 150 36" fill="none" xmlns="http://www.w3.org/2000/svg">
<g clip-path="url(#clip0_2218_1926)">
<path fill-rule="evenodd" clip-rule="evenodd" d="M15.3444 19.8046H20.2473V34.6067C20.2473 34.6067 8.40976 37.0697 2.27929 25.5933H7.92337C7.92337 25.5933 10.397 29.3922 15.3444 29.7627V19.8046ZM3.65326 8.03935C8.30414 0.278844 18.7038 0.834908 18.7038 0.834908C32.4666 1.7784 34.516 14.1991 34.516 14.1991H5.87175C3.65326 18.4901 6.84586 24.2598 6.84586 24.2598H1.51864C-1.69349 15.7373 2.47012 9.2744 2.47012 9.2744H26.5473C18.4944 1.49038 10.145 8.03935 10.145 8.03935H3.65281H3.65326ZM21.7908 29.496C29.274 27.0103 30.0333 19.6195 30.0333 19.6195H35.0037C32.8682 32.4303 21.7917 34.422 21.7917 34.422V29.496H21.7908ZM17.7746 19.4145C16.4006 19.4145 15.28 18.3459 15.28 17.0127C15.28 15.6769 16.4006 14.5874 17.7741 14.5874C19.1277 14.5874 20.2473 15.6774 20.2473 17.0127C20.2473 18.3459 19.1277 19.4145 17.7746 19.4145ZM38.6672 28.8356C41.2234 28.2822 41.1173 26.599 41.1173 26.599C41.2655 25.3075 41.1599 18.9041 41.1599 18.9041H42.7438V26.9895C42.237 30.0064 38.6672 30.3135 38.6672 30.3135V28.8361V28.8356ZM43.4414 30.0241C43.9899 24.8753 45.7873 22.1056 47.3911 20.6291V23.3367C46.8806 24 46.4814 24.7419 46.2093 25.5334H47.3907V27.2362H45.5325C45.0044 28.9377 45.0462 30.0241 45.0462 30.0241H43.4414ZM47.3911 20.6291C48.9559 19.2143 50.3707 18.9862 50.3707 18.9862V30.025H48.5743V27.2371H47.3907V25.5334L48.5743 25.5339V22.1256C48.5743 22.1256 48.0257 22.5365 47.3907 23.3371V20.63L47.3911 20.6291ZM51.5969 18.8012H53.3703C53.7306 18.8238 54.047 18.8629 54.3422 18.9459V20.689C54.047 20.5661 53.6862 20.4836 53.2238 20.4663V24.775C53.2238 24.775 53.7728 24.775 54.3422 24.5065V28.2627C53.6862 27.5238 53.4133 26.824 53.4133 26.824C53.2447 26.8879 53.2012 26.847 53.2012 26.847V29.9655H51.5969V18.8016V18.8012ZM54.3422 18.9459C56.834 19.6248 57.0679 22.1855 57.0679 22.1855C57.2357 24.8962 54.9333 26.0642 54.9333 26.0642C55.5044 27.913 57.3839 28.4243 57.3839 28.4243V29.9655C55.9478 29.7356 54.9564 28.979 54.3422 28.2627V24.5065C54.9133 24.2176 55.5044 23.6234 55.4414 22.3528C55.4414 22.3528 55.3975 21.2016 54.3422 20.689V18.9459ZM60.0262 18.8012V30.025H58.3158V18.8016H60.0262V18.8012ZM61.4197 18.8012H63.2139C63.5738 18.8238 63.8916 18.8629 64.1654 18.9459V20.689C63.8689 20.5444 63.5108 20.4663 63.0444 20.445V24.775C63.0444 24.775 63.616 24.775 64.1654 24.5065V28.2822C63.5108 27.5234 63.2352 26.804 63.2352 26.804C63.0675 26.8879 63.0253 26.847 63.0253 26.847V29.9655H61.4201V18.8016L61.4197 18.8012ZM64.1654 18.9459C66.6586 19.6035 66.8902 22.1855 66.8902 22.1855C67.0593 24.8762 64.7565 26.0442 64.7565 26.0442C65.3272 27.8913 67.2075 28.4056 67.2075 28.4056V29.9655C65.771 29.7356 64.7978 28.979 64.1654 28.2822V24.5065C64.7565 24.2176 65.3485 23.6038 65.2837 22.3328C65.2837 22.3328 65.2447 21.2016 64.1654 20.689V18.9459ZM93.3399 24.4244C93.3399 26.7214 95.2633 28.6102 97.6291 28.6102H97.6482V30.1919C94.3966 30.1919 91.7769 27.6055 91.7769 24.4661C91.7769 21.2855 94.3966 18.7 97.6482 18.7V20.2177H97.6291C95.2638 20.2177 93.3404 22.1069 93.3404 24.4248L93.3399 24.4244ZM97.6482 20.2177V18.7C100.902 18.7 103.543 21.2855 103.543 24.4661C103.543 27.6241 100.902 30.1919 97.6482 30.1919V28.6102C100.014 28.6102 101.94 26.7214 101.94 24.4244C101.94 22.1069 100.014 20.239 97.6482 20.2177ZM81.0879 24.3627C81.0879 26.6598 83.0104 28.5498 85.3979 28.5498V30.1288C82.1645 30.1288 79.524 27.5407 79.524 24.384C79.524 21.2021 82.1645 18.6379 85.3979 18.6379V20.1374C83.0104 20.1569 81.0879 22.0231 81.0879 24.3627ZM85.3979 20.1374V18.6374C88.6509 18.6374 91.2905 21.2016 91.2905 24.384C91.2905 27.5407 88.6513 30.1288 85.3979 30.1288V28.5498C87.7624 28.5498 89.6831 26.6598 89.6831 24.3627C89.6831 22.0226 87.7624 20.1374 85.3979 20.1374ZM106.311 26.2706V29.883H104.686V18.905H106.143V23.5213C106.143 23.5213 108.699 23.3993 109.458 18.905H110.938C110.938 18.905 111.424 22.1478 107.581 24.8367C107.581 24.8367 109.311 28.3643 111.254 28.4247V29.9673C111.254 29.9673 108.317 29.8204 106.543 26.2714H106.311V26.2706ZM112.626 27.6672C114.19 28.5498 115.206 28.221 115.206 28.221C116.409 27.7888 116.472 26.5781 116.472 26.5781C116.621 25.245 115.46 24.9365 115.46 24.9365C114.191 24.4448 113.303 23.7507 113.303 23.7507C112.099 22.5361 112.31 21.3037 112.31 21.3037C112.585 19.2933 114.36 18.7817 114.36 18.7817C116.346 18.1271 117.107 19.1109 117.107 19.1109L116.896 20.6895C116.241 20.0553 115.141 20.259 115.141 20.259C112.987 21.3037 114.466 22.5356 114.466 22.5356C115.354 23.1516 116.874 23.8089 116.874 23.8089C118.354 24.9973 118.185 26.7214 118.185 26.7214C117.868 29.7583 114.848 30.0059 114.848 30.0059C113.62 30.1688 112.481 29.3092 112.481 29.3092L112.626 27.6672H112.626ZM118.419 21.0392L117.634 19.5183C119.577 18.3512 121.352 18.3698 121.352 18.3698C124.5 18.5571 124.966 19.5827 124.966 19.5827L124.5 21.08C123.233 20.0948 122.303 20.1987 122.303 20.1987V29.7791H120.529V20.2395C119.429 20.2612 118.419 21.0401 118.419 21.0401V21.0392ZM137.177 29.7583V18.6587C137.177 18.6587 138.552 18.4342 139.925 18.846V20.5453C139.648 20.4024 139.289 20.3398 138.846 20.3629V24.6729C138.846 24.6729 139.396 24.5886 139.925 24.2811V28.2006C139.57 27.7945 139.264 27.3476 139.015 26.8692H138.846V29.7587L137.177 29.7583ZM139.925 18.846C141.17 19.2343 142.439 20.1374 142.731 22.2104C142.731 22.2104 142.882 24.5065 140.536 25.9027C140.536 25.9027 140.324 27.0321 142.943 28.3222V29.7769C142.943 29.7769 141.297 29.6966 139.925 28.2006V24.2806C140.473 23.9535 141.02 23.3788 141 22.3533C141 22.3533 141 21.021 139.925 20.5453V18.846ZM143.408 23.7672C144.105 18.3516 149.558 18.4959 149.558 18.4959L149.598 20.0322C145.607 20.0953 145.246 23.4787 145.246 23.4787H149.598V25.0604H145.246C145.733 28.4056 149.618 28.466 149.618 28.466V30.0246C143.155 29.82 143.409 23.7672 143.409 23.7672H143.408ZM126.297 24.3019C126.297 26.5981 128.219 28.4882 130.584 28.4882V30.0658C127.352 30.0658 124.733 27.4825 124.733 24.3432C124.733 21.1621 127.352 18.5762 130.584 18.5762V20.0948C128.219 20.0948 126.297 21.9822 126.297 24.3019ZM130.584 20.0948V18.5762H130.607C133.861 18.5762 136.481 21.1621 136.481 24.3432C136.481 27.4825 133.861 30.0658 130.607 30.0658H130.584V28.4882C132.951 28.4882 134.873 26.5976 134.873 24.3019C134.873 21.9822 132.951 20.0948 130.584 20.0948ZM76.3336 23.8697V24.6885C76.1198 24.554 75.8841 24.4579 75.6373 24.4044C75.6373 24.4044 75.9972 24.199 76.3336 23.8697ZM73.6522 19.0284C73.6522 19.0284 75.0457 18.862 76.3336 19.3359V21.0605C76.1028 20.8941 75.7629 20.7729 75.32 20.7334V28.4669C75.32 28.4669 75.8259 28.446 76.3336 28.1806V29.883C76.1223 29.9429 75.8907 29.9673 75.6373 29.9855C75.6373 29.9855 74.6228 30.1062 73.7148 30.0663L73.6527 19.0284H73.6522ZM76.3336 19.3359C77.1364 19.6244 77.9183 20.1561 78.3191 21.12C78.3191 21.12 78.9555 22.9262 78.0248 24.2398C78.0248 24.2398 78.8272 24.7923 78.8694 26.2714V26.6207C78.8694 26.9083 78.8272 27.1945 78.7629 27.5238C78.7629 27.5238 78.3404 29.3882 76.3336 29.883V28.1806C76.8852 27.913 77.4315 27.3374 77.3481 26.1694C77.3481 26.1694 77.2007 25.2263 76.3336 24.6885V23.8697C76.7152 23.5213 77.0947 23.0105 77.0312 22.4349C77.0312 22.4349 77.0534 21.5518 76.3336 21.0605V19.3359ZM39.849 14.1454C43.6536 15.4785 43.6536 12.7914 43.6536 12.7914V9.24112H45.892V10.3488H62.8771V7.08742H65.0743V12.8331H45.9346C45.257 15.684 43.0189 15.9929 43.0189 15.9929C40.3163 16.2379 39.849 14.1454 39.849 14.1454ZM55.6105 16.1984C54.8294 16.1984 54.2152 15.5819 54.2152 14.824C54.2152 14.0633 54.829 13.4478 55.6105 13.4478C56.3703 13.4478 57.004 14.0633 57.004 14.8235C57.004 15.5824 56.3703 16.1984 55.6105 16.1984ZM58.6087 16.1771C57.8481 16.1771 57.2152 15.582 57.2152 14.8226C57.2152 14.0846 57.8481 13.4473 58.6087 13.4473C59.3911 13.4473 60.0257 14.0846 60.0257 14.8226C60.0257 15.5815 59.3911 16.1771 58.6087 16.1771ZM92.2624 10.3484C92.4319 9.73506 91.7121 9.28328 91.7121 9.28328C90.5712 8.62337 88.5852 8.4818 88.5852 8.4818C85.8408 8.23772 85.7778 7.39186 85.7778 7.39186C84.5933 5.48668 85.6305 4.25651 85.6305 4.25651C86.3467 5.38461 87.193 5.73254 87.193 5.73254C88.65 6.39068 92.4936 7.00355 92.4936 7.00355C95.199 8.07219 94.8825 10.4527 94.8825 10.4527H95.7892V12.7914H73.3345C72.6595 15.6432 70.4392 15.7879 70.4392 15.7879C67.7365 16.0319 67.2692 13.5925 67.2692 13.5925C70.2062 15.4377 71.053 13.0981 71.053 13.0981V9.13861H73.2905V10.2911L92.2624 10.3484ZM89.7914 16.1771C89.0104 16.1771 88.3975 15.562 88.3975 14.8226C88.3975 14.0633 89.0108 13.4473 89.791 13.4473C90.5521 13.4473 91.184 14.0633 91.184 14.8226C91.184 15.562 90.5521 16.1771 89.7914 16.1771ZM98.5797 12.7919C98.5797 12.7919 98.5167 12.4852 98.5167 11.9904V11.9513C98.5167 10.5339 98.9175 7.63994 102.002 6.1639V8.82973C101.537 9.30369 101.073 9.96006 101.03 10.7425H102.002V12.7919H98.5797ZM102.002 6.1639C102.783 5.77337 103.735 5.48668 104.918 5.34467V10.6976H111.34V7.6821H113.451V10.5956H117.278V7.49704H119.388V10.5956H137.791C137.791 10.5956 138.339 10.0839 137.662 9.83668H123.844L123.951 7.72514C123.951 7.72514 126.149 6.22692 125.812 3.12751H127.755C127.755 3.12751 127.818 5.87766 126.759 7.72514H138.507C138.507 7.72514 140.853 7.90843 140.556 10.5743H144.634C144.634 10.5743 144.676 8.31982 147.126 8.41834H147.233V10.0839C147.189 10.0608 147.147 10.0608 147.126 10.0608C147.126 10.0608 146.98 10.1025 146.853 10.5339H147.233V12.7919H102.002V10.7425H102.995V8.03136C102.995 8.03136 102.488 8.31982 102.002 8.82973V6.1639ZM147.233 8.41834C147.632 8.41834 149.068 8.54526 149.471 10.1025V12.7919H147.233V10.5339H147.613C147.613 10.5339 147.525 10.1846 147.233 10.0839V8.41834ZM98.368 5.52929C97.5848 5.52929 96.9746 4.91109 96.9746 4.15355C96.9746 3.3929 97.5848 2.79867 98.368 2.79867C99.1287 2.79867 99.7607 3.39334 99.7607 4.15355C99.7607 4.91109 99.1287 5.52929 98.368 5.52929ZM101.812 5.52929C101.052 5.52929 100.417 4.91109 100.417 4.15355C100.417 3.3929 101.052 2.79867 101.812 2.79867C102.593 2.79867 103.208 3.39334 103.208 4.15355C103.208 4.91109 102.593 5.52929 101.812 5.52929ZM115.606 5.52929C114.826 5.52929 114.212 4.93106 114.212 4.15355C114.212 3.41331 114.826 2.79867 115.606 2.79867C116.366 2.79867 117.001 3.41331 117.001 4.15355C117.001 4.93106 116.366 5.52929 115.606 5.52929ZM119.43 5.52929C118.648 5.52929 118.014 4.93106 118.014 4.15355C118.014 3.41331 118.648 2.79867 119.43 2.79867C120.19 2.79867 120.824 3.41331 120.824 4.15355C120.824 4.93106 120.19 5.52929 119.43 5.52929ZM112.331 16.1771C111.549 16.1771 110.918 15.562 110.918 14.8226C110.918 14.0633 111.549 13.4473 112.331 13.4473C113.092 13.4473 113.726 14.0633 113.726 14.8226C113.726 15.562 113.092 16.1771 112.331 16.1771Z" fill="#E20714"/>
</g>
<defs>
<clipPath id="clip0_2218_1926">
<rect width="150" height="34.6154" fill="white" transform="translate(0 0.57959)"/>
</clipPath>
</defs>
</svg>
