<svg width="45" height="51" viewBox="0 0 45 51" fill="none" xmlns="http://www.w3.org/2000/svg">
<path d="M44.995 25.7556C44.9422 25.4791 44.8417 25.2137 44.698 24.9711L43.8901 23.7025L44.4096 23.4808C43.6827 19.1493 41.7077 15.1185 38.7222 11.8738L38.3493 11.4722C38.3493 11.3725 38.2909 10.9241 38.2797 10.8749C38.1162 10.1454 37.6483 9.51883 36.9921 9.15058C36.9449 9.12471 36.4564 8.91783 36.4514 8.9166C36.1241 8.83407 35.7921 8.77118 35.4571 8.72813C35.359 8.72197 35.2583 8.71828 35.1526 8.71828L34.9662 8.5877C33.6468 7.6692 32.2297 6.89687 30.7404 6.28456C30.7565 6.03084 30.8647 5.1071 30.8647 5.09971C30.8833 4.97655 30.9703 4.44941 30.9889 4.33487C30.9889 4.31023 31.2648 3.17096 31.3022 3.04533L31.4538 2.53297L31.1257 2.10805C30.9355 1.86173 30.7528 1.62525 28.4149 1.2459C26.8599 0.991639 25.2854 0.872128 23.7094 0.888725C15.7288 1.02667 9.96301 5.60469 9.72187 5.80299L8.77732 6.56661C8.77732 6.56661 10.0202 7.76498 10.3545 8.21945C8.41946 9.4788 6.69076 11.0248 5.22885 12.8036L3.18678 15.496C3.15322 15.5268 3.12091 15.5564 3.09108 15.5884L3.08362 15.5958C3.05504 15.6278 2.87358 15.8544 2.86612 15.8643C2.83256 15.9099 2.26207 16.7757 2.25338 16.7905C2.24467 16.8053 2.02095 17.256 2.0048 17.2831C1.98864 17.3102 1.7674 18.1367 1.75622 18.1662C1.74503 18.1958 1.7065 18.6219 1.70526 18.6293L1.38584 19.5063C0.465638 22.0341 -0.00330662 24.7015 1.75494e-05 27.3888C1.75494e-05 33.5754 2.40003 39.3604 6.75634 43.6773C7.78369 44.6968 8.90741 45.6161 10.1121 46.4226C9.63346 46.9623 9.51861 47.73 9.81861 48.3842C10.1187 49.0383 10.7778 49.4574 11.5029 49.4549C12.4789 49.4653 13.2882 48.7089 13.335 47.7429C16.1936 49.2739 19.445 49.6717 21.8587 49.7136C22.2067 50.464 22.9816 50.9281 23.8139 50.8844C24.6463 50.8406 25.3673 50.298 25.6334 49.5153C25.6334 49.4992 25.6334 49.4857 25.6334 49.4709C27.1129 49.1875 28.5617 48.7643 29.9598 48.2073C30.2252 48.7318 30.8195 49.007 31.3958 48.8721C31.9721 48.7371 32.3794 48.2275 32.3797 47.6407C32.3804 47.4519 32.3379 47.2653 32.2554 47.0951C32.6282 46.8878 32.981 46.647 33.3094 46.3758C33.5196 46.1842 33.68 45.945 33.7768 45.6787C34.4799 45.7683 35.1687 45.432 35.5256 44.825C35.8824 44.218 35.8378 43.4583 35.4124 42.8964C35.4124 42.8964 35.1302 42.5331 34.776 42.0811C34.9343 42.0459 35.0894 41.9978 35.2396 41.937C35.4675 42.1199 35.7317 42.2529 36.0152 42.3274C36.5384 42.4752 37.1164 42.3175 37.6024 42.102C38.1176 42.3962 38.6915 42.5749 39.284 42.6254C39.3766 42.6456 39.4713 42.6542 39.5661 42.6513C40.3887 42.7189 41.1955 42.3996 41.7449 41.7891C42.2118 41.2558 42.478 40.5786 42.4981 39.8727C42.499 39.7749 42.4911 39.6772 42.4745 39.5808C42.3958 39.1767 42.1794 38.8114 41.8617 38.5462C43.7551 35.1275 44.7449 31.2897 44.739 27.39L44.7278 26.651L44.9553 26.5278C44.9553 26.5278 45 25.7692 45 25.7667" fill="white"/>
<path fill-rule="evenodd" clip-rule="evenodd" d="M21.9364 19.0237C22.1714 19.3414 22.6238 18.9719 22.6238 18.9719L22.63 18.9682C22.651 18.9571 22.6734 18.945 22.6972 18.9321C22.9797 18.779 23.4692 18.5138 24.4757 18.4842C25.1128 18.4629 25.679 18.6393 26.1586 18.7888C26.4828 18.8898 26.7674 18.9785 27.0074 18.9855C27.742 19.004 27.6662 18.5975 27.2561 18.3401C26.3512 17.7723 24.9778 17.1762 24.0332 17.2316C23.2166 17.2821 22.3292 18.1258 22.0807 18.4497C22.0471 18.4923 22.0097 18.5286 21.9743 18.5629C21.8513 18.6823 21.754 18.7767 21.9364 19.0237ZM19.6943 20.9585C19.8422 21.1618 19.4581 21.4081 19.4581 21.4081V21.413C19.4261 21.4247 19.3965 21.4368 19.3683 21.4484C19.2219 21.5082 19.1174 21.551 18.9349 21.429C18.7174 21.2837 17.8846 21.1445 17.431 21.1076C16.9785 21.0708 16.2044 21.5204 16.0217 21.6265L16.0203 21.6273C15.8401 21.732 15.6213 21.8589 15.6052 21.7505C15.6015 21.7256 15.5799 21.6904 15.5531 21.6466C15.4636 21.5003 15.3162 21.2595 15.589 20.9967C16.5349 20.0828 17.0544 19.9265 17.6696 20.0115C18.2849 20.0964 19.5464 20.7553 19.6943 20.9585Z" fill="#E73B2A"/>
<path fill-rule="evenodd" clip-rule="evenodd" d="M34.5514 43.5288C34.782 43.8349 34.7186 44.2683 34.4097 44.4969C34.1008 44.7255 33.6634 44.6626 33.4328 44.3565L31.4106 41.7516C31.1803 41.4454 31.244 41.0123 31.5529 40.7841C31.8618 40.5559 32.2989 40.619 32.5292 40.9251L34.5514 43.5288ZM23.1317 50.2129C23.4432 50.2116 23.695 49.9609 23.6947 49.6522C23.6945 49.3435 23.4424 49.0931 23.1309 49.0922C22.8194 49.0913 22.5658 49.3402 22.5637 49.6488C22.5644 49.9581 22.8172 50.2086 23.1292 50.2092L23.1317 50.2129ZM24.351 48.9481C24.6633 48.9481 24.9165 49.199 24.9165 49.5085C24.9165 49.818 24.6633 50.0688 24.351 50.0688C24.201 50.0688 24.0571 50.0098 23.9511 49.9047C23.845 49.7996 23.7854 49.6571 23.7854 49.5085C23.7854 49.199 24.0386 48.9481 24.351 48.9481ZM31.0949 48.1943C31.4071 48.1936 31.6596 47.9424 31.6591 47.6331C31.6587 47.3237 31.4054 47.0733 31.0932 47.0735C30.781 47.0737 30.5281 47.3245 30.5281 47.6339C30.5281 47.7828 30.5879 47.9255 30.6942 48.0306C30.8005 48.1357 30.9447 48.1946 31.0949 48.1943ZM31.029 41.9967L32.7106 44.7186L32.7094 44.7173C32.8847 44.999 32.8324 45.3645 32.5851 45.5869C32.2234 45.9219 29.6345 47.6474 25.2135 48.4652C24.1272 48.6648 17.6381 49.3052 13.0258 46.3247C12.1123 45.7347 12.3558 45.0179 12.4466 44.7715C12.5373 44.5252 12.9885 43.6606 13.5031 43.6828C14.0176 43.705 14.2239 43.9981 14.1841 44.1976C14.13 44.3763 14.0204 44.5336 13.871 44.6472C13.7751 44.7298 13.3938 45.0586 13.7753 45.3553C14.1568 45.6522 17.2615 47.2644 21.4053 47.4627C21.5555 47.4465 21.6655 47.3151 21.6539 47.1659V44.5523C21.6697 44.1831 21.9764 43.8918 22.3493 43.8918C22.7222 43.8918 23.029 44.1831 23.0447 44.5523V47.1511C23.0447 47.3531 23.1665 47.406 23.2287 47.406C23.5232 47.3851 23.8451 47.3568 24.1857 47.3161C24.2478 47.3112 24.3671 47.2656 24.3311 47.0883C24.3037 46.9651 24.2565 46.7262 24.2565 46.7262C24.172 46.4902 24.2234 46.2272 24.3909 46.0397C24.5583 45.8521 24.8154 45.7694 25.0621 45.8238C25.3088 45.8782 25.5063 46.061 25.5777 46.3013C25.5777 46.3013 25.6672 46.6855 25.702 46.8789C25.7033 46.9367 25.7319 46.9906 25.7793 47.0245C25.8266 47.0584 25.8873 47.0683 25.9431 47.0513C26.9038 46.8707 27.8479 46.612 28.7657 46.2779C28.8243 46.2549 28.8702 46.2084 28.8923 46.15C28.9144 46.0915 28.9103 46.0266 28.8813 45.9712C28.8067 45.8024 28.6526 45.4847 28.6526 45.4847C28.4519 45.1605 28.5542 44.7365 28.8813 44.5375C29.2084 44.3385 29.6363 44.44 29.8371 44.7641L30.1578 45.4403C30.2248 45.5894 30.3467 45.5721 30.4573 45.5167C30.6984 45.3849 30.8886 45.2765 31.0998 45.1386C31.2739 45.0487 31.1322 44.8023 31.1322 44.8023L29.8445 42.7172C29.6438 42.393 29.7462 41.969 30.0732 41.77C30.4003 41.5711 30.8282 41.6725 31.029 41.9967Z" fill="#E73B2A"/>
<path fill-rule="evenodd" clip-rule="evenodd" d="M11.9371 48.6695C12.3571 48.4949 12.6294 48.0867 12.6268 47.6354C12.6292 47.3394 12.5111 47.055 12.2992 46.8464C12.0873 46.6378 11.7995 46.5226 11.5008 46.527C11.0454 46.5275 10.6352 46.8 10.4619 47.2173C10.2886 47.6346 10.3862 48.1144 10.7093 48.4323C11.0324 48.7504 11.5171 48.844 11.9371 48.6695ZM11.5102 48.5603C10.9886 48.5655 10.5607 48.1523 10.5525 47.6354H10.5537C10.5476 47.383 10.6451 47.139 10.8239 46.9591C11.0026 46.7792 11.2473 46.6789 11.5021 46.6809C12.0237 46.6816 12.4467 47.0997 12.449 47.6166C12.4512 48.1335 12.0318 48.5552 11.5102 48.5603Z" fill="#E73B2A"/>
<path fill-rule="evenodd" clip-rule="evenodd" d="M11.5762 47.0776H11.0455V48.191H11.1971V47.7131H11.5626C11.708 47.7131 11.7279 47.8055 11.7502 47.9151C11.7593 47.9594 11.7608 48.0056 11.7622 48.0477C11.7643 48.11 11.7661 48.1639 11.7912 48.191H11.959C11.9086 48.0965 11.8858 47.9899 11.8932 47.8831C11.882 47.776 11.8546 47.6787 11.7242 47.6528C11.8495 47.6172 11.9315 47.4982 11.9193 47.3695C11.9193 47.1922 11.7888 47.0776 11.5762 47.0776ZM11.7639 47.3929C11.7639 47.5568 11.6446 47.5925 11.5029 47.5925H11.1909V47.2033H11.5638C11.6172 47.1964 11.6708 47.2138 11.7097 47.2506C11.7486 47.2875 11.7685 47.3398 11.7639 47.3929Z" fill="#E73B2A"/>
<path d="M18.7943 45.346C18.7943 45.346 18.7943 45.1834 18.5532 45.1403C18.312 45.0972 17.5141 45.1883 17.0878 45.3645C16.6615 45.5406 16.3782 45.5406 16.1333 45.3571C15.8884 45.1736 15.9021 44.9236 16.0612 44.7758C16.2371 44.599 16.4794 44.503 16.7299 44.511C16.8542 44.511 16.8542 44.4851 16.8952 44.4087C16.9362 44.3324 16.9374 43.974 16.577 43.6833C16.5583 43.6697 17.4271 43.262 18.6476 43.6672C18.6476 43.6672 18.2686 44.0368 18.3456 44.4063C18.4028 44.6858 18.5706 44.6082 18.6762 44.5479C18.7819 44.4876 19.2554 44.3016 19.4431 44.4617C19.6307 44.6218 19.1088 45.1933 18.7943 45.3473" fill="#E73B2A"/>
<path d="M18.3399 44.6803C18.1315 44.547 17.8882 44.4772 17.6402 44.4795C16.7788 44.498 16.785 44.7937 16.8099 44.87C16.8584 45.0326 17.3779 45.1939 18.3399 44.6803Z" fill="#F8E931"/>
<path fill-rule="evenodd" clip-rule="evenodd" d="M21.7822 28.1974C21.8673 27.5522 22.3838 27.2109 22.5569 27.0964C22.5938 27.0721 22.6151 27.058 22.6133 27.0534C21.2076 23.643 22.489 20.511 22.5947 20.3152C22.7003 20.1193 22.8805 19.884 23.2087 19.9038C24.0961 19.9567 25.073 20.6957 25.6136 21.8387C26.4423 23.5869 27.0325 25.4367 27.3686 27.3392C27.3686 27.3392 26.1941 27.1015 25.6286 27.0534C23.0931 26.8416 22.2616 28.2063 22.4418 28.7778C23.0806 30.8088 25.8784 30.3949 26.2612 30.2311C26.644 30.0673 26.91 30.1215 26.8938 30.5711C26.8899 30.6702 26.8882 30.7772 26.8866 30.8864C26.8784 31.4298 26.8694 32.0254 26.5682 31.9505C26.2711 31.8778 26.2078 30.9652 26.2078 30.9652C26.2078 30.9652 24.5845 30.9874 24.5597 31.0194C22.6146 33.3373 20.2904 34.0849 20.2904 34.0849C20.2904 34.0849 20.6558 35.0518 22.8942 35.1601C27.6867 35.3984 30.6854 30.2775 30.8808 29.9439C30.8875 29.9326 30.8908 29.9268 30.8909 29.9269C31.0687 30.0661 31.3421 30.1585 31.362 29.784C31.3819 29.4096 31.3968 27.9723 31.3968 27.9723C31.5332 28.028 31.6726 28.0761 31.8144 28.1164C31.8517 27.1311 31.5956 25.3181 31.5956 25.3181C31.5956 25.3181 32.1562 25.6383 32.1599 25.5903C32.1567 24.5648 32.0099 23.5447 31.7237 22.5592C31.7237 22.5592 32.1898 22.5592 32.1562 22.5408C31.8517 22.3437 30.763 20.4087 30.763 20.4087C30.9299 20.3386 31.0929 20.2597 31.2514 20.1723C29.9153 18.8594 30.1328 17.9319 30.1328 17.9319C30.1328 17.9319 30.5541 18.012 30.5491 18.0058C30.1595 17.7072 29.8842 16.5242 29.7812 16.0809C29.7566 15.9756 29.7418 15.912 29.7375 15.912C25.7839 15.7803 23.333 16.4687 23.333 16.4687C23.333 16.4687 28.9147 12.5546 30.8909 11.318C33.9534 9.39663 35.7047 9.65279 36.4839 10.0863C37.2632 10.5199 37.661 11.6456 36.8469 12.7959C36.0328 13.9463 32.9082 16.5168 32.8845 16.5044C32.1421 16.2431 31.3697 16.0747 30.5852 16.0032C30.5516 17.491 32.2134 19.0527 32.2134 19.0527C32.2134 19.0527 31.3968 18.985 31.4005 18.9985C31.6205 19.9838 32.5925 21.202 32.5925 21.202L32.0158 21.2217L32.0319 21.2389C32.4485 21.9518 32.7655 22.7175 32.974 23.5149C32.974 23.5149 33.2823 23.5691 33.2823 23.5322C33.2823 23.1368 32.2345 21.4175 32.2345 21.4175L32.938 21.3978C32.938 21.3978 31.8803 19.4727 31.9437 19.4628C35.6723 18.9702 39.1363 20.5886 41.1199 22.2821C43.1632 24.0298 43.9661 25.8649 43.9388 25.8809C36.6305 29.9637 32.7492 34.9592 32.4169 35.387C32.4008 35.4078 32.393 35.4178 32.3936 35.4164C33.0784 34.3239 33.3357 31.5342 33.3183 31.5453C31.8604 32.4788 31.2054 32.4419 31.2054 32.4419C31.8569 31.882 32.3446 31.1588 32.6173 30.3481C32.9119 29.4096 32.8174 27.6594 32.8174 27.6594C32.9692 27.7497 33.1256 27.8319 33.286 27.9058C33.337 27.6508 33.3917 25.7738 33.3917 25.7738C33.4638 25.8085 33.5381 25.8385 33.6141 25.8637C33.3543 23.9978 32.8174 23.7699 32.8174 23.802C32.851 25.9278 32.6534 26.9759 32.6534 26.9759C32.6534 26.9759 32.329 26.8379 32.329 26.8527C32.3883 27.8855 32.3047 28.9215 32.0804 29.9318C32.001 29.867 31.918 29.8066 31.8318 29.7508C31.6566 30.6696 31.1619 31.9555 31.1619 31.9555L31.0177 31.528C31.0177 31.528 31.0352 31.1979 30.7803 31.5084C27.1362 35.994 23.7627 35.891 22.878 35.864L22.8594 35.8634C20.0926 35.778 18.8678 34.6699 18.686 34.5056C18.6715 34.4923 18.6636 34.4852 18.6622 34.4852C16.1764 34.4544 16.067 34.1662 16.0733 34.1601C18.0283 32.4936 18.0532 31.8138 18.0532 31.8138C14.2661 31.9136 12.6516 30.7767 12.6752 30.7546C14.0112 29.3779 15.1176 28.8747 15.4696 28.7147C15.5043 28.6988 15.5317 28.6864 15.5512 28.6768C15.7688 28.5696 15.6594 28.4083 15.6594 28.4083C15.6594 28.4083 15.5351 27.8688 15.4617 27.5831C15.4334 27.4046 15.3357 27.2441 15.1896 27.136C15.0454 26.9932 15.0988 26.2381 15.115 26.0608C15.1311 25.8834 15.115 25.8797 15.0093 25.8797C14.9037 25.8797 14.8291 25.807 14.7906 25.6334C14.7671 25.5272 14.7649 25.2434 14.763 25.0053C14.7618 24.8539 14.7608 24.7211 14.7545 24.6641C14.75 24.6227 14.7552 24.589 14.7598 24.5596C14.7715 24.4851 14.7788 24.4383 14.6104 24.3623C14.4256 24.279 14.4754 24.0493 14.5135 23.8735C14.5239 23.8259 14.5333 23.7822 14.537 23.7465C14.5545 23.579 14.4662 23.5297 14.3195 23.5125C14.195 23.4979 14.1924 23.4699 14.1723 23.263C14.1688 23.2261 14.1646 23.1835 14.1592 23.1344C14.1465 23.0196 14.1472 22.8985 14.148 22.7828C14.1493 22.5707 14.1505 22.3766 14.0684 22.2722C13.6695 21.7734 13.5626 21.3793 13.5962 21.3953C13.9405 21.5665 13.9777 21.4852 13.9777 21.4852C13.9777 21.4852 13.9578 21.4655 13.9777 21.1071C13.9976 20.7487 14.3506 19.7523 14.3506 19.7523C14.3506 19.7523 13.7515 19.5281 13.7378 19.5528C13.329 20.3665 12.0267 20.7997 11.8117 20.8712C11.7921 20.8777 11.7816 20.8812 11.7816 20.8817C11.6772 22.8302 10.7338 23.6233 10.7338 23.6233C10.8486 23.7321 10.9519 23.8522 11.0421 23.9817C11.2769 24.2872 10.878 24.6813 10.878 24.6813C10.878 24.6813 9.08946 26.115 8.47173 26.4389C7.85406 26.7628 7.40661 26.2221 7.40661 26.2221C7.40661 26.2221 6.80879 26.817 6.26559 26.6901C5.34588 26.4771 4.07814 25.6667 3.85939 25.4351C3.64064 25.2036 3.66177 24.7885 3.7699 24.5914C3.87804 24.3943 4.01848 23.802 3.95012 23.1221C3.92548 22.877 3.80106 22.5779 3.64104 22.1932C3.35709 21.5106 2.96108 20.5585 2.81164 19.1611C2.70848 18.2115 3.09999 17.4023 3.26281 17.2237C3.33613 17.1433 3.39837 17.0371 3.47278 16.9102C3.5636 16.7553 3.67257 16.5694 3.84199 16.3616C4.07772 16.0724 4.37015 16.0915 4.49969 16.1C4.53953 16.1026 4.56396 16.1042 4.56659 16.0955C4.97551 14.6176 5.88654 14.051 6.51918 13.8527C7.15178 13.6544 8.05787 13.9414 8.05787 13.9414C8.05787 13.9414 8.30642 13.4401 9.24978 13.4044C10.4082 13.3601 11.5479 14.7678 11.963 15.396C12.3781 16.0241 12.6043 17.1104 12.3781 17.5834C11.6794 19.0352 10.069 19.1025 9.71378 19.1174C9.67036 19.1192 9.64566 19.1203 9.64379 19.1229C8.86822 20.5603 7.49359 20.6268 7.49359 20.6268C7.49359 20.6268 7.10082 21.5468 6.10032 21.702C5.26442 21.8339 4.86656 21.2443 4.64044 20.9092C4.52865 20.7435 4.45883 20.6401 4.39881 20.7167C4.30874 20.8316 4.46114 21.2313 4.64345 21.7096C4.82848 22.1949 5.0443 22.7611 5.06872 23.1923C5.10476 23.8734 4.92455 24.5902 4.77913 24.7331C4.75046 24.7612 4.72468 24.784 4.70356 24.8026C4.61762 24.8785 4.60895 24.8862 4.79653 24.9129C5.38541 25 5.74609 25.2416 5.97729 25.3965C6.03053 25.4321 6.07701 25.4633 6.11772 25.4868C6.33521 25.6125 6.42474 25.4339 6.42474 25.4339C6.42474 25.4339 7.24006 24.7171 7.43765 24.4806C7.63531 24.2441 7.78195 24.4806 7.78195 24.4806C7.98253 24.6777 8.19369 24.864 8.41455 25.0385C8.4894 25.0897 8.58832 25.0897 8.66316 25.0385L9.8389 24.1961C9.8389 24.1961 9.10688 23.4854 9.15036 23.4571C10.8624 22.598 10.6024 20.2009 10.5636 19.8438C10.5605 19.8144 10.5588 19.7988 10.5598 19.7991C12.4875 20.1969 12.9847 19.3311 12.9685 19.3175C12.6904 19.0974 12.4237 18.8635 12.1693 18.6167C12.6285 18.1405 12.8706 17.4986 12.8393 16.8407C12.7696 15.5782 11.8188 14.5781 11.8188 14.5781C11.8188 14.5781 13.8075 13.1088 13.8174 13.1273C13.8921 13.2759 14.096 13.6838 14.3219 14.1359C14.7009 14.8941 15.1417 15.7763 15.1386 15.7655C12.8852 8.87564 10.3982 6.62419 10.3982 6.62419C10.3982 6.62419 16.026 2.08436 23.7307 1.94395C27.1673 1.88606 30.3006 2.67555 30.2782 2.75068C29.0055 7.06142 30.0296 11.1924 30.0296 11.1924L29.9961 11.2121C28.8521 12.1145 25.6567 14.3339 23.9846 15.4952L23.7232 15.6768C19.4703 18.6478 18.2601 19.1129 17.7242 19.3188C17.6604 19.3433 17.606 19.3643 17.5573 19.3853C16.4036 19.8687 15.165 19.7592 15.1164 19.7549L15.115 19.7548C14.598 20.8016 14.5358 21.5025 14.5358 21.5025C14.5909 21.5017 14.6458 21.4959 14.6999 21.4852C14.7807 21.468 14.8242 21.5665 14.8242 21.5665C14.8242 21.5665 14.7421 22.5961 14.7135 22.7476C14.6849 22.8992 14.7023 22.9078 14.9024 22.9078C15.1026 22.9078 15.1734 23.0457 15.1411 23.2576C15.1088 23.4694 15.0429 24.084 15.0429 24.084C15.1223 24.0785 15.1996 24.111 15.2507 24.1714C15.3019 24.2319 15.3207 24.3129 15.3014 24.3894C15.279 24.5606 15.279 25.3563 15.284 25.3563C15.483 25.3872 15.6335 25.5511 15.6457 25.7504C15.637 25.8859 15.637 26.8441 15.6457 26.8527C15.6876 26.8951 15.7286 26.9337 15.7668 26.9696C15.8883 27.0839 15.9818 27.1718 15.9875 27.2739C16.0266 27.5823 16.0868 27.8876 16.1677 28.1878C16.2298 28.3763 16.2783 28.3775 16.2783 28.3775C16.2783 28.3775 16.4673 28.2975 16.5505 28.2543C16.6235 28.2165 16.6029 28.1589 16.5473 28.0033C16.5395 27.9814 16.531 27.9576 16.5219 27.9317C16.2186 27.0695 16.0024 25.8378 16.0733 24.9079C16.1801 23.5273 16.8091 23.0851 17.1384 23.0789C17.8176 23.0706 18.2421 23.5241 18.5682 23.8725C18.6246 23.9328 18.678 23.9899 18.7293 24.0409C20.1772 25.4918 20.4482 27.6878 20.4482 27.6878C20.6909 27.7681 21.0835 27.9247 21.3812 28.0432C21.5886 28.1259 21.75 28.1902 21.7822 28.1974ZM31.9698 10.1627C31.3791 9.8165 30.77 9.50195 30.1452 9.22048C30.1452 9.22048 30.1216 8.58376 30.1452 8.17732C30.1688 7.77088 30.1912 7.20801 30.1912 7.20801C31.6627 7.79885 33.0613 8.55426 34.3598 9.45945C33.9852 9.50614 33.6146 9.58066 33.2512 9.68235C32.816 9.81674 32.3889 9.97589 31.9723 10.159L31.9698 10.1627ZM12.3396 10.4189C11.1627 11.1479 10.067 11.9984 9.07079 12.9561C8.79866 12.9632 8.52903 13.0097 8.2704 13.094C8.07393 13.1516 7.90296 13.2736 7.78568 13.4401C7.21648 13.2959 6.61847 13.3078 6.05558 13.4746C7.54211 11.668 9.31573 10.1134 11.3068 8.87194C11.3068 8.87194 11.6424 9.23403 12.3583 10.4226L12.3396 10.4189ZM18.6485 39.8527C18.4857 39.5116 18.3415 38.5078 18.4658 37.6456H18.467C18.5951 36.7847 18.83 36.4263 19.1196 36.0691C19.4091 35.7119 19.6838 35.2796 18.9766 35.2267C18.7732 35.2116 18.5375 35.2355 18.2844 35.2611C17.7903 35.3111 17.2299 35.3678 16.7146 35.1552C15.9353 34.8338 15.0143 34.2438 14.7061 33.4703C14.3979 32.6969 13.9616 32.4357 13.6198 32.4505C13.278 32.4653 13.278 32.8816 13.278 33.2043C13.278 33.2702 13.2825 33.375 13.288 33.5055C13.3097 34.0139 13.3481 34.914 13.2047 35.4422C13.1459 35.6587 13.0524 35.9397 12.9537 36.2364C12.7497 36.8499 12.5234 37.5301 12.536 37.8439C12.5546 38.3095 12.5311 39.3317 12.3172 39.7801C12.2505 39.9199 12.138 40.0616 12.0141 40.2175C11.7409 40.5615 11.4124 40.9749 11.3987 41.5918C11.3789 42.4884 11.574 42.9934 12.0463 42.8431C12.3888 42.7378 12.5971 42.4781 12.8487 42.1642C13.1002 41.8505 13.395 41.4827 13.9106 41.1607L13.9751 41.1205C14.6309 40.7109 15.3757 40.2457 17.1807 40.2111C17.6442 40.2033 17.9162 40.2758 18.1124 40.328C18.2556 40.3662 18.3583 40.3936 18.4658 40.3713C18.7206 40.3183 18.8113 40.1939 18.6485 39.8527ZM23.5989 36.1787C24.0202 36.2177 24.4442 36.2177 24.8654 36.1787L24.8617 36.1837C25.6487 36.1163 26.3299 35.6192 26.6251 35.4037C26.6483 35.3868 26.6692 35.3716 26.6875 35.3585C26.7195 35.3355 26.7539 35.3095 26.7911 35.2813C27.0458 35.0887 27.4297 34.7982 28.0435 34.7488C28.747 34.6921 30.6834 33.4666 31.1743 33.1477C31.2133 33.1223 31.253 33.0961 31.2931 33.0697C31.7572 32.7633 32.2737 32.4224 32.4247 32.9518C32.5439 33.3699 32.0387 33.8888 31.6923 34.2447C31.562 34.3784 31.4543 34.4891 31.4105 34.5628C31.3192 34.7164 31.2924 35.0379 31.2628 35.3924C31.2405 35.6606 31.2165 35.9475 31.1619 36.1947C31.0628 36.6436 30.7226 37.0804 30.5167 37.3449C30.4593 37.4187 30.4123 37.479 30.3839 37.5224L30.3555 37.5657C30.218 37.7744 29.9851 38.1282 30.0048 38.3279C30.0263 38.6637 29.9223 38.9956 29.7127 39.2603C29.5258 39.469 29.5248 39.872 29.5238 40.2927C29.5235 40.4454 29.5231 40.6004 29.5138 40.7494C29.479 41.3086 28.9197 41.5881 28.4475 41.5549C28.1809 41.5361 27.691 41.3608 27.1945 41.1831C26.8112 41.0459 26.4237 40.9072 26.1319 40.8381C25.8275 40.7659 25.3892 40.7885 24.9198 40.8127C24.3562 40.8419 23.748 40.8734 23.2733 40.7457C22.7911 40.6158 22.676 40.0923 22.569 39.6051C22.54 39.4733 22.5115 39.3438 22.4766 39.2258C22.3451 38.7408 22.4173 38.2237 22.6767 37.7922C22.8006 37.583 22.8337 37.3725 22.87 37.141C22.8928 36.9962 22.9168 36.8433 22.9651 36.6775C23.0906 36.2465 23.2534 36.159 23.5989 36.1787ZM30.8205 40.0652C30.9794 40.0325 30.9979 40.0287 31.0152 39.7973C31.0177 39.7647 31.0208 39.7339 31.0238 39.7048C31.042 39.5266 31.0532 39.4167 30.8512 39.3859C30.6467 39.3755 30.4417 39.3755 30.2372 39.3859C30.0371 39.4056 29.9662 39.6224 29.9662 39.764C29.9662 39.7692 29.9662 39.7745 29.9661 39.7797L29.9656 39.7935L29.9645 39.8191C29.9583 39.9513 29.9512 40.1015 30.2372 40.1187C30.4323 40.1366 30.6291 40.1187 30.8177 40.0658L30.8205 40.0652ZM22.315 36.1627C22.9141 36.1258 22.6568 36.7724 22.5127 37.1308C22.4962 37.1718 22.474 37.2227 22.4481 37.2819C22.2481 37.7406 21.8294 38.7009 22.1398 39.4623C22.4989 40.3552 22.395 40.3943 22.2483 40.4495C22.2356 40.4543 22.2225 40.4593 22.2094 40.4649C22.0453 40.535 21.7582 40.3947 21.5233 40.2493C21.2884 40.104 20.6533 40.2148 20.2928 40.4649C19.9324 40.7149 19.516 40.4649 19.3359 40.306C19.3214 40.2932 19.307 40.2807 19.2926 40.2682C19.1274 40.1247 18.9698 39.9879 18.9195 39.6581C18.8528 39.015 18.8279 38.3683 18.8449 37.722C18.861 37.0593 19.6242 35.9139 19.8044 35.6774C19.9846 35.441 20.3302 35.8006 20.3302 35.8006C20.8199 36.159 21.7209 36.1947 22.3187 36.159L22.315 36.1627ZM40.8241 21.2228C41.302 21.5397 41.7497 21.8992 42.1615 22.2969V22.3006C42.5871 22.7298 42.9856 23.1848 43.3546 23.6628C42.6668 19.5332 40.7873 15.6894 37.9431 12.5952C37.9431 12.5952 37.7306 12.8834 37.4223 13.2529C37.1922 13.5169 36.943 13.7638 36.6766 13.9919C38.5564 16.0867 39.9696 18.5506 40.8241 21.2228ZM2.96451 27.3799C2.9638 25.9654 3.11083 24.5546 3.40325 23.1701L3.40201 23.175C3.3929 23.0221 3.3505 22.8729 3.27772 22.7378C3.20662 22.6141 3.09811 22.2969 3.01147 22.0436C2.96787 21.9162 2.92982 21.8049 2.90485 21.7426C2.83028 21.5567 2.40148 19.8607 2.40148 19.8607C1.52402 22.2738 1.07656 24.8197 1.07905 27.3848C1.07905 33.2906 3.36845 38.8095 7.52469 42.9257C8.63933 44.0316 9.87355 45.0126 11.2049 45.8508V43.5883C6.21964 40.003 2.96451 34.08 2.96451 27.3799ZM9.59657 28.3295C9.57915 28.2975 8.30767 35.0543 8.36733 39.6224C8.36733 39.6224 8.36733 39.6593 8.37355 39.7234H11.3279V40.4808H8.81229L8.39222 39.9882V40.0128C5.36702 36.5273 3.71646 32.097 3.71646 27.3836C3.71646 26.8753 3.73594 26.3695 3.77488 25.8662C4.54736 26.4394 5.41635 26.8722 6.34143 27.1446C6.59352 27.2188 6.78757 27.0981 6.97198 26.9834C7.12123 26.8906 7.26414 26.8017 7.42646 26.8232C7.59469 26.8455 7.72341 26.8934 7.83477 26.9348C7.96362 26.9828 8.0692 27.0222 8.18591 27.003C8.33778 26.9781 8.74236 26.7663 9.2947 26.4773C9.53336 26.3524 9.79964 26.2131 10.085 26.0682C10.0987 26.0608 10.0142 26.6433 10.0142 26.6433C10.0142 26.6433 13.0344 24.5249 14.1766 24.2786C14.1766 24.2786 14.1232 25.0841 14.1766 25.211C14.2004 25.2674 14.2497 25.2876 14.297 25.3069C14.3557 25.3308 14.4115 25.3536 14.4115 25.4437C14.4312 25.7996 14.4794 26.1534 14.5557 26.5017C14.5817 26.571 14.6462 26.6365 14.7058 26.6971C14.769 26.7613 14.8267 26.8198 14.8267 26.8712C14.8267 26.8911 14.8239 26.9301 14.8202 26.9808C14.8054 27.1846 14.7771 27.5773 14.8627 27.6779C14.8994 27.7212 14.9427 27.7539 14.9845 27.7855C15.0641 27.8458 15.1384 27.9019 15.1523 28.0191C15.1734 28.1977 15.2057 28.5204 15.2057 28.5204C15.2057 28.5204 13.5601 29.4552 12.9685 30.0464C12.9685 30.0464 11.0321 29.0056 10.489 28.8271C10.413 28.8021 10.3444 28.7804 10.2822 28.7607C9.89962 28.6397 9.75652 28.5945 9.60155 28.3233L9.59657 28.3295ZM20.5452 31.3544C19.9448 32.2466 18.5441 33.1538 18.5441 33.1538C18.5441 33.1538 18.5416 33.1723 18.5976 33.1723C20.7188 33.1913 22.6964 31.5169 23.2748 31.0273L23.2757 31.0265C23.3357 30.9757 23.3805 30.9378 23.4088 30.9159C23.7096 30.6831 23.9333 30.8272 23.6574 31.129C21.8506 33.1099 20.2942 33.4903 19.5724 33.6667C19.4775 33.6899 19.3968 33.7097 19.3321 33.729C18.1737 34.064 17.2055 33.8349 17.2354 33.8176C17.9189 33.3903 18.9903 31.6007 18.9903 31.6007L20.5452 31.3544ZM22.0833 29.4719C22.1273 29.7263 22.1799 30.0302 21.3481 30.252C21.2517 30.2781 21.1351 30.3166 20.9973 30.3623L20.9964 30.3625C19.9724 30.7013 17.7768 31.428 13.9852 30.305C13.9852 30.305 16.297 28.2235 21.3841 28.4403C21.7458 28.4538 22.0354 29.1214 22.0702 29.3899C22.0736 29.4165 22.0784 29.444 22.0833 29.4719ZM25.4347 25.0324C25.4347 25.0324 25.1066 24.515 24.9997 24.3894C24.8928 24.2638 24.822 24.3193 24.7846 24.4978L24.7793 24.5233C24.7358 24.7275 24.618 25.2811 24.945 25.3353C25.0723 25.3551 25.2023 25.3505 25.3278 25.3218C25.3278 25.3218 25.6895 25.4117 25.4347 25.0324ZM23.4809 20.4087C23.7841 20.5036 24.2949 21.1638 24.2949 21.1638V21.1675C24.2949 21.1675 23.6884 21.3152 23.5753 21.7771C23.0704 23.8654 23.6961 25.6305 23.8617 26.0978C23.8795 26.1481 23.892 26.1834 23.8973 26.2024C23.9205 26.262 23.9157 26.3288 23.8843 26.3845C23.8528 26.4403 23.7978 26.4791 23.7344 26.4906C23.7132 26.4981 23.6916 26.514 23.6692 26.5305C23.5923 26.5872 23.506 26.6508 23.3914 26.4007C22.238 23.8488 22.9956 21.2815 23.1134 20.8821L23.1204 20.8583C23.1282 20.8319 23.1355 20.8061 23.1426 20.7811C23.2178 20.5166 23.2673 20.3423 23.4809 20.4087ZM17.8095 24.0002C17.6995 23.8485 17.5746 23.7078 17.4367 23.5802C17.1942 23.3535 17.1296 23.5274 17.0928 23.6267L17.0878 23.64L17.0837 23.6504C16.4903 25.102 16.8238 26.231 17.0542 27.0111C17.0844 27.1134 17.1129 27.2096 17.1372 27.2998C17.305 27.928 17.4007 27.9402 17.7163 27.8996C17.9562 27.8676 17.9053 27.7395 17.8406 27.6052C17.6173 27.209 17.4734 26.7736 17.4168 26.3231C17.1297 24.7626 17.8406 24.2786 17.8406 24.2786C17.9388 24.1443 17.7835 24.0175 17.7835 24.0175L17.8095 24.0002ZM18.6237 26.0029C18.7641 26.1261 19.0599 26.78 19.0599 26.78L19.0624 26.7874C19.0818 27.0407 18.8934 27.053 18.7469 27.0626L18.7355 27.0633C18.5876 27.0732 18.4298 27.0166 18.4298 26.8934C18.4298 26.8609 18.429 26.8052 18.428 26.738C18.4254 26.5504 18.4215 26.2722 18.4298 26.1543C18.441 25.9943 18.4832 25.8797 18.6237 26.0029ZM4.4826 18.7622C4.55022 18.5794 4.61527 18.4035 4.88105 18.3852C5.22189 18.3624 5.20517 19.0893 5.19645 19.4685C5.19529 19.5193 5.19426 19.5639 5.19426 19.5996C5.19426 19.9013 5.49752 20.49 5.92757 20.543C6.35761 20.596 6.2184 19.2991 6.17614 18.9136C6.10875 18.2559 5.39575 17.5982 5.2238 17.4396C5.20869 17.4257 5.1977 17.4156 5.19177 17.4097C4.5519 16.7756 4.32275 17.426 4.22315 17.7085C4.21344 17.7361 4.20497 17.7602 4.19746 17.7792C4.02595 18.2041 3.93397 19.1808 4.13408 19.272C4.30744 19.3486 4.35079 19.1877 4.39728 19.0151C4.41279 18.9576 4.42863 18.8988 4.44977 18.847L4.45225 18.8421C4.46284 18.8156 4.47275 18.7888 4.4826 18.7622ZM8.72034 17.3321C8.79587 17.5567 8.80283 17.7983 8.74018 18.0268L8.74267 18.028L8.73645 18.0457L8.7301 18.0639C8.64313 18.3139 8.31911 19.2452 7.69616 19.2941C7.44761 19.3126 7.0238 19.0552 6.82615 18.3802C6.78421 18.2401 6.6716 18.0355 6.54904 17.813C6.39923 17.541 6.23455 17.242 6.1662 17.0008C6.08168 16.7003 6.02451 16.0426 6.38616 15.8086C6.74788 15.5745 7.01509 15.5265 7.66262 15.5622C7.85033 15.5622 7.95348 15.7248 8.04916 15.9317C8.09122 16.0226 8.21173 16.2719 8.33983 16.5369C8.50333 16.875 8.67921 17.2389 8.72034 17.3321ZM11.3363 16.9696C11.3327 16.6413 11.3296 16.3527 10.8059 15.5179C10.6031 15.1976 10.3718 14.8959 10.1148 14.6163C10.0515 14.5424 9.51824 14.5129 9.28711 14.5326C9.05592 14.5523 8.80731 14.636 8.82722 15.0252C8.84197 15.4719 8.94151 15.9119 9.12056 16.3221C9.23031 16.5383 9.50555 16.8956 9.74844 17.2109C9.92077 17.4347 10.0768 17.6373 10.1459 17.7533C10.3125 18.0329 10.5536 18.0871 10.7425 17.9196C10.9314 17.7521 11.3503 17.3801 11.3391 17.1006V17.1055C11.3373 17.0585 11.3368 17.0137 11.3363 16.9696ZM39.6247 41.5869C41.1261 41.6768 41.4878 40.1458 41.417 39.7628L41.412 39.7603C41.2305 38.7775 39.2419 38.9869 39.2419 38.9869C39.3978 38.6117 39.5127 38.2211 39.585 37.8217C39.6782 37.3635 39.5079 37.1456 39.3637 37.0433C39.4196 36.914 39.5452 36.7428 39.6819 36.7157C39.8186 36.6886 40.1667 36.781 40.3158 37.3598C40.4339 37.8294 40.4899 38.3122 40.4823 38.796C42.577 35.3501 43.6764 31.4002 43.6604 27.3774C43.6604 27.2664 43.658 27.1598 43.6555 27.0517C43.653 26.9404 43.6504 26.8273 43.6504 26.7061L41.7699 27.8639C41.7044 30.8477 40.9722 33.78 39.626 36.4497L39.3041 37.0076C39.2669 36.9888 39.2283 36.9732 39.1885 36.9608C39.102 36.9367 39.0615 36.948 38.9919 36.9673C38.9584 36.9766 38.9181 36.9878 38.8628 36.9978L38.2837 37.1037C38.2529 36.4963 38.2084 36.471 37.9812 36.3419C37.9425 36.32 37.8987 36.295 37.8487 36.2637C37.3353 35.9435 35.8228 37.052 35.8228 37.052C35.8088 36.8318 35.8462 36.6113 35.9321 36.4078C36.2603 35.4866 35.3069 35.4102 35.0969 35.4743C32.7441 36.191 31.9164 38.2897 31.5708 39.2024C31.2253 40.115 31.4093 40.4415 32.0792 40.5671C32.7491 40.6927 33.5607 40.0092 33.5607 40.0092C33.5607 40.0092 33.5855 40.8689 34.1821 41.0486C34.6905 41.2014 35.7034 40.4402 35.7034 40.4402C35.7034 40.4402 35.4959 41.0794 36.2975 41.3024C36.7785 41.4341 37.7256 40.8184 37.7256 40.8184C37.7256 40.8184 38.1233 41.497 39.6247 41.5869ZM40.4339 40.5264C40.8887 40.0818 40.6824 39.5977 40.0013 39.5805C39.3202 39.5633 38.3582 40.2074 38.3582 40.2074C38.5919 40.5461 39.6931 41.2494 40.4339 40.5264ZM37.359 39.0226C37.7393 38.5915 38.5173 38.11 38.6627 38.2528C38.879 38.4684 38.1395 39.2935 37.8138 39.5977C37.783 39.6266 37.7503 39.6576 37.7162 39.6899C37.391 39.9984 36.9371 40.429 36.6729 40.2986C36.3808 40.1545 36.9787 39.4537 37.359 39.0226ZM37.4335 37.483C37.2372 37.3057 36.4181 37.323 35.476 38.27C35.1528 38.5952 34.5003 39.7197 34.7302 39.9722C34.9602 40.2247 35.9731 39.402 36.2528 39.1494C36.2841 39.1211 36.3285 39.0829 36.382 39.0369C36.805 38.6728 37.7971 37.8187 37.4285 37.483H37.4335ZM34.3381 38.2306C34.332 38.2387 34.3264 38.2461 34.3213 38.2528H34.3238C33.936 38.7652 32.9206 39.7948 32.4234 39.6002C32.0394 39.4512 32.6397 38.1999 33.4724 37.3931C33.8938 36.9842 34.7986 36.1529 35.067 36.3536C35.5027 36.6834 34.5645 37.9298 34.3381 38.2306Z" fill="#E73B2A"/>
<path fill-rule="evenodd" clip-rule="evenodd" d="M31.972 10.1647L31.9666 10.1615L31.9782 10.156L31.972 10.1647ZM31.9666 10.1615C31.4196 10.4192 30.3289 11.0773 30.3289 11.0773C30.1885 10.8322 30.1549 9.70033 30.1474 9.21875C30.7732 9.4948 31.3808 9.80965 31.9666 10.1615ZM20.6344 12.4986C23.2034 11.7092 27.4479 11.8299 27.4367 11.8348C22.92 14.585 15.5348 15.6529 15.5348 15.6529L15.3707 14.9693C15.3707 14.9693 16.4893 13.7709 20.6344 12.4962V12.4986ZM32.4294 35.3555C31.1231 37.4333 30.0977 39.4446 30.0977 39.4446L31.481 39.4926C31.5059 39.4039 31.5382 39.3091 31.578 39.2068C31.9235 38.2918 32.7513 36.1942 35.1041 35.4774C35.3141 35.4122 36.2674 35.4898 35.938 36.4098C35.8528 36.6139 35.8158 36.8347 35.8299 37.0551C35.8299 37.0551 37.3425 35.9467 37.8558 36.2681C37.9071 36.3001 37.952 36.3252 37.9913 36.3473C38.216 36.4732 38.2601 36.4979 38.2908 37.1069C38.2908 37.1069 38.3492 37.0983 38.4276 37.0835C40.0923 34.2114 40.987 30.9647 41.0264 27.6528C35.682 31.2245 32.7873 34.8936 32.4294 35.3555ZM30.5822 16.0028L30.5824 15.994L30.5812 16.0027L30.5822 16.0028ZM30.5822 16.0028C30.5553 17.488 32.2106 19.0436 32.2106 19.0436C32.2106 19.0436 31.3941 18.9771 31.3978 18.9894C31.4331 19.1417 31.48 19.2912 31.5382 19.4365L32.0354 19.4427C35.1811 19.0608 38.1255 20.1607 40.1377 21.5365C39.2598 18.732 37.7395 16.1667 35.6957 14.0407C34.4876 15.2058 32.8979 16.5039 32.8806 16.5039C32.1381 16.2442 31.3662 16.0758 30.5822 16.0028ZM13.8196 13.1211C13.7498 13.1529 12.2037 14.2777 11.8086 14.5801V14.5764C11.2668 14.0119 10.6425 13.5311 9.95672 13.1502C10.8258 12.3559 11.7688 11.645 12.7731 11.0268C13.1871 11.7537 13.5497 12.5409 13.7197 12.9101C13.775 13.0301 13.8099 13.1059 13.8196 13.1211ZM13.8196 13.1211C13.8206 13.1206 13.8213 13.1204 13.8217 13.1204C13.8217 13.1202 13.8219 13.1204 13.8217 13.1204C13.8226 13.1246 13.8221 13.125 13.8196 13.1211ZM18.6445 34.4736L18.6386 34.4736L18.6346 34.4699L18.6445 34.4736ZM18.6386 34.4736C16.1585 34.4424 16.0494 34.1547 16.0568 34.1485C18.0106 32.482 18.0355 31.8022 18.0355 31.8022C14.2484 31.902 12.6339 30.7651 12.6563 30.743C12.8278 30.5681 12.9935 30.4059 13.1534 30.2565L12.8974 30.0102L12.8773 29.9995C12.5033 29.8011 10.958 28.9812 10.4812 28.8241C10.4027 28.7981 10.3322 28.7756 10.2683 28.7553C9.89146 28.6353 9.7488 28.5899 9.59252 28.3204C9.5764 28.2896 8.30492 35.0451 8.36458 39.6133V39.6946H12.3356C12.5195 39.2142 12.5382 38.2782 12.5195 37.8385C12.5057 37.5344 12.7232 36.8835 12.9234 36.2839C13.029 35.9678 13.1298 35.666 13.1895 35.4368C13.3276 34.9059 13.2925 33.9984 13.2729 33.4918C13.268 33.365 13.2641 33.2633 13.2641 33.1989C13.2641 32.8775 13.2641 32.4599 13.6046 32.4451C13.9451 32.4304 14.3826 32.6915 14.6909 33.4649C14.9991 34.2384 15.9213 34.8283 16.6994 35.1498C17.2136 35.3623 17.7739 35.3052 18.2682 35.2549C18.5217 35.229 18.7579 35.205 18.9614 35.22C19.2771 35.2446 19.3952 35.3432 19.4052 35.4774L19.7159 35.1707C19.3222 34.9957 18.9586 34.7604 18.6386 34.4736ZM14.1788 24.2769C13.0366 24.5232 10.0127 26.6429 10.0127 26.6429C10.023 26.5706 10.095 26.0694 10.0823 26.0763C10.0734 26.0809 10.0645 26.0856 10.0557 26.0903C10.0227 26.1077 9.99032 26.1248 9.95797 26.1404L10.0823 25.2905C10.521 24.9493 10.864 24.6747 10.864 24.6747C10.864 24.6747 11.263 24.2806 11.0281 23.9751C10.9374 23.8456 10.8337 23.7255 10.7186 23.6167C10.7186 23.6167 11.6632 22.8235 11.7676 20.8738C11.7676 20.8733 11.7782 20.8698 11.7978 20.8633C12.0127 20.792 13.315 20.3599 13.7239 19.5461C13.7376 19.5227 14.3366 19.7456 14.3366 19.7456C14.3366 19.7456 13.9837 20.7408 13.9638 21.1005C13.9439 21.4601 13.9638 21.4798 13.9638 21.4798C13.9638 21.4798 13.9265 21.5599 13.5822 21.3886C13.5486 21.3714 13.6556 21.7667 14.0545 22.2656C14.1365 22.3708 14.1353 22.5646 14.134 22.7763C14.1333 22.8919 14.1325 23.0129 14.1453 23.1277C14.1507 23.1772 14.1549 23.2201 14.1585 23.2572C14.1784 23.464 14.1812 23.4935 14.3056 23.5071C14.4522 23.5231 14.5405 23.576 14.5231 23.7386C14.4934 23.8654 14.4738 23.9943 14.4647 24.1241C14.3677 24.1894 14.2745 24.251 14.1788 24.3126C14.1777 24.3007 14.1777 24.2888 14.1788 24.2769Z" fill="#F8E931"/>
</svg>
