<svg width="162" height="49" viewBox="0 0 162 49" fill="none" xmlns="http://www.w3.org/2000/svg">
<path d="M150.565 0.751953H11.4673C11.0138 0.751953 10.5927 0.751953 10.1392 0.751953C9.78284 0.751953 9.39411 0.751953 9.03778 0.751953C8.22794 0.783996 7.41812 0.816039 6.64067 0.976252C5.83083 1.10442 5.08578 1.36076 4.37313 1.71323C3.66047 2.0657 3.0126 2.54635 2.42951 3.12311C1.84643 3.69988 1.39291 4.34074 1.00419 5.04568C0.615469 5.78266 0.388718 6.51964 0.259144 7.28867C0.12957 8.08974 0.0647791 8.85876 0.0323856 9.65983C0.0323856 10.0123 0.0323935 10.3968 0 10.7493C0 11.1658 0 11.6144 0 12.031V37.4729C0 37.9215 0 38.3381 0 38.7546C0 39.1071 -7.90906e-06 39.4916 0.0323856 39.8441C0.0647791 40.6451 0.0971766 41.4462 0.259144 42.2152C0.388718 43.0163 0.647863 43.7533 1.00419 44.4582C1.36052 45.1632 1.84643 45.804 2.42951 46.3808C3.0126 46.9576 3.66047 47.4062 4.37313 47.7907C5.11818 48.1752 5.86323 48.3995 6.64067 48.5277C7.45051 48.6558 8.26034 48.7199 9.03778 48.752C9.39411 48.752 9.78284 48.752 10.1392 48.752C10.5927 48.752 11.0138 48.752 11.4673 48.752H150.565C150.986 48.752 151.44 48.752 151.861 48.752C152.217 48.752 152.606 48.752 152.962 48.752C153.772 48.7199 154.582 48.6879 155.359 48.5277C156.169 48.3995 156.914 48.1431 157.659 47.7907C158.372 47.4382 159.02 46.9576 159.603 46.3808C160.186 45.8361 160.639 45.1632 161.028 44.4582C161.385 43.7533 161.644 42.9843 161.773 42.2152C161.935 41.4142 161.968 40.6451 162 39.8441C162 39.4916 162 39.1071 162 38.7546C162 38.3381 162 37.8895 162 37.4729V12.063C162 11.6144 162 11.1979 162 10.7813C162 10.4289 162 10.0443 162 9.69187C161.968 8.89081 161.935 8.08974 161.773 7.32071C161.644 6.51964 161.385 5.78266 161.028 5.07772C160.672 4.37278 160.186 3.73193 159.603 3.15516C159.052 2.57839 158.372 2.12979 157.659 1.74528C156.914 1.39281 156.169 1.13647 155.359 1.00829C154.582 0.880124 153.772 0.816039 152.962 0.783996C152.606 0.783996 152.217 0.783996 151.861 0.783996C151.44 0.751953 151.019 0.751953 150.565 0.751953Z" fill="#B6B6B6"/>
<path d="M10.0762 47.752C9.71961 47.752 9.36305 47.752 9.00649 47.752C8.32577 47.7199 7.54781 47.6878 6.76985 47.5596C6.02431 47.4314 5.37602 47.207 4.79255 46.9185C4.17666 46.5979 3.59319 46.2133 3.10697 45.7004C2.62075 45.2195 2.19936 44.6746 1.87521 44.0335C1.55106 43.4244 1.35657 42.7833 1.22691 42.0781C1.06483 41.2767 1.03243 40.4753 1.03243 39.8662C1.03243 39.6098 1 38.7763 1 38.7763V10.7276C1 10.7276 1.00001 9.89411 1.03243 9.66972C1.03243 9.06066 1.09725 8.22722 1.22691 7.45788C1.35657 6.72059 1.58347 6.07948 1.87521 5.47042C2.19936 4.86136 2.58833 4.28436 3.10697 3.80352C3.59319 3.32268 4.17666 2.90596 4.79255 2.5854C5.40843 2.26485 6.05672 2.07251 6.76985 1.94429C7.58022 1.81606 8.3906 1.75195 9.00649 1.75195H10.0762H151.891H152.993C153.609 1.75195 154.42 1.81606 155.23 1.94429C155.943 2.07251 156.592 2.2969 157.24 2.5854C157.856 2.90596 158.407 3.29063 158.925 3.80352C159.412 4.28436 159.833 4.8293 160.157 5.47042C160.481 6.07948 160.676 6.72059 160.806 7.42582C160.935 8.1631 161 8.93244 161 9.66972C161 9.99028 161 10.375 161 10.7276C161 11.1763 161 11.5931 161 12.0098V37.4621C161 37.8788 161 38.3276 161 38.7443C161 39.129 161 39.4816 161 39.8342C160.968 40.5394 160.935 41.3088 160.806 42.046C160.676 42.7833 160.481 43.4244 160.157 44.0335C159.833 44.6425 159.412 45.2196 158.925 45.6683C158.439 46.1492 157.856 46.5659 157.24 46.8865C156.624 47.207 155.976 47.3993 155.23 47.5276C154.452 47.6558 153.674 47.6878 152.993 47.7199C152.637 47.7199 152.28 47.7199 151.924 47.7199H150.627L10.0762 47.752Z" fill="black"/>
<path d="M86.6596 10.5155C86.4544 10.8108 86.1722 11.1312 85.8131 11.4778C85.4236 11.17 85.1087 10.8855 84.8695 10.6247C85.3187 10.176 85.6241 9.85513 85.7874 9.66301C86.0649 9.96665 86.3554 10.2506 86.6596 10.5155ZM85.6139 17.6924C84.8648 17.6924 84.2818 17.4778 83.8625 17.0473C83.4437 16.6182 83.2338 16.0095 83.2338 15.2231C83.2338 14.9708 83.2501 14.733 83.2827 14.5077C83.3145 14.2838 83.3845 13.9559 83.4902 13.5235L83.9722 13.6391C83.8728 14.024 83.8237 14.3355 83.8237 14.5752C83.8237 15.2166 83.9847 15.7157 84.3056 16.0724C84.626 16.4297 85.0723 16.6084 85.6451 16.6084C86.2957 16.6084 86.9427 16.4502 87.5892 16.1341C88.2352 15.8174 88.6666 15.4284 88.8844 14.9667C88.3116 13.7138 88.0253 12.8779 88.0253 12.4592C88.0253 12.232 88.0892 12.0267 88.2174 11.8434C88.3456 11.6597 88.5687 11.4736 88.8844 11.2852C88.9226 11.5935 89.0229 12.1602 89.1853 12.9848L89.1922 13.0361C89.4828 13.1811 89.8009 13.2544 90.1484 13.2544L90.2566 13.3635V14.1458L90.1484 14.2549C89.8523 14.2549 89.5878 14.2012 89.3532 14.0944L89.3718 14.4727C89.3718 15.0114 89.2007 15.5268 88.8587 16.0184C88.5174 16.5099 88.0481 16.9121 87.4549 17.2241C86.8602 17.5361 86.2468 17.6924 85.6139 17.6924Z" fill="white"/>
<path d="M86.6596 10.5153L86.5617 10.4472C86.3625 10.7335 86.0855 11.0494 85.73 11.3917L85.8131 11.4775L85.8873 11.3838C85.501 11.0787 85.1909 10.7979 84.9576 10.5437L84.8695 10.6244L84.9539 10.7088C85.4045 10.2588 85.7104 9.93785 85.8783 9.73964L85.7875 9.66274L85.6992 9.74286C85.9801 10.0503 86.2734 10.3371 86.5812 10.6053L86.6596 10.5153L86.5617 10.4472L86.6596 10.5153L86.738 10.4253C86.4371 10.1632 86.1503 9.88232 85.8756 9.58203L85.7841 9.48221L85.6965 9.58525C85.5379 9.77236 85.2328 10.0922 84.7851 10.54L84.7044 10.6212L84.7818 10.7051C85.0267 10.9724 85.3461 11.2606 85.7389 11.5713L85.821 11.6356L85.8961 11.5634C86.259 11.2131 86.5463 10.8875 86.7576 10.5838L86.8186 10.4957L86.738 10.4253L86.6596 10.5153ZM85.614 17.6921V17.5727C84.8868 17.5718 84.342 17.367 83.9478 16.9635C83.5561 16.562 83.3537 15.9892 83.3532 15.2229C83.3532 14.9757 83.3691 14.7433 83.4007 14.5246L83.4012 14.5223L83.4007 14.5241C83.431 14.3082 83.5005 13.9817 83.606 13.5517L83.4903 13.5233L83.4623 13.6393L83.9441 13.755L83.9722 13.6389L83.8565 13.609C83.7557 13.9999 83.7044 14.3195 83.7044 14.575C83.7039 15.2354 83.8714 15.7681 84.2165 16.1519C84.5607 16.5377 85.0491 16.7289 85.6451 16.7276C86.3155 16.7276 86.9815 16.5642 87.6414 16.2405C88.3023 15.9168 88.7584 15.5116 88.9922 15.0171L89.016 14.9672L88.9931 14.9168C88.4217 13.6721 88.141 12.8311 88.1447 12.4589C88.1452 12.2546 88.2007 12.0764 88.3155 11.9113C88.4278 11.7494 88.6377 11.5703 88.9455 11.3875L88.8844 11.285L88.766 11.2999C88.8051 11.6141 88.9059 12.1813 89.0682 13.0078L89.1853 12.9845L89.0669 13.0009L89.0738 13.0521L89.0826 13.1147L89.1386 13.1426C89.446 13.2965 89.7841 13.3735 90.1484 13.3735V13.2541L90.0635 13.3381L90.1372 13.4122V14.0959L90.0635 14.1702L90.1484 14.2546V14.1352C89.8667 14.1352 89.6199 14.0844 89.4026 13.9855L89.2245 13.9043L89.2524 14.4785L89.3718 14.4724H89.2524C89.2519 14.9855 89.0906 15.4747 88.7608 15.95C88.431 16.4243 87.9781 16.8138 87.3994 17.1179C86.8201 17.4216 86.2272 17.5722 85.614 17.5727V17.6921V17.8115C86.2664 17.8115 86.9003 17.6496 87.5103 17.3297C88.1181 17.0102 88.6032 16.595 88.9568 16.0861C89.3103 15.5783 89.4917 15.0367 89.4912 14.4724V14.4696L89.4726 14.0881L89.3532 14.0941L89.3038 14.2028C89.5551 14.3176 89.8378 14.374 90.1484 14.374H90.1978L90.3415 14.2299L90.376 14.1949V13.3633V13.3138L90.2328 13.1697L90.1978 13.1347H90.1484C89.8178 13.1347 89.5193 13.0657 89.2455 12.929L89.1922 13.0359L89.3107 13.02L89.3038 12.9687L89.3033 12.965L89.3023 12.9616C89.1405 12.138 89.0407 11.5718 89.0029 11.2704L88.9801 11.089L88.8233 11.1823C88.4992 11.3763 88.2636 11.5694 88.1195 11.7746C87.9777 11.977 87.9054 12.2094 87.9059 12.4589C87.9091 12.9248 88.202 13.755 88.7758 15.0158L88.8844 14.9664L88.7767 14.9155C88.5738 15.3447 88.1675 15.7168 87.5365 16.0264C86.9045 16.3357 86.2762 16.4888 85.6451 16.4888C85.0962 16.4873 84.6913 16.3217 84.3943 15.9924C84.098 15.6631 83.9436 15.1977 83.9432 14.575C83.9432 14.3516 83.9898 14.0475 84.0873 13.6687L84.1176 13.5507L83.5183 13.4071L83.4026 13.3795L83.3742 13.4947C83.2678 13.929 83.1969 14.2593 83.1648 14.491V14.4901C83.1312 14.7215 83.1144 14.9654 83.1144 15.2229C83.1134 16.0293 83.3312 16.6743 83.7767 17.1306C84.2216 17.5876 84.8433 17.8124 85.614 17.8115V17.6921Z" fill="white"/>
<path d="M94.623 13.2544C94.6052 12.7115 94.5026 12.1918 94.3152 11.6956C94.1271 11.1998 93.9406 10.9521 93.7578 10.9521C93.5894 10.9521 93.4346 11.0012 93.289 11.0995C93.143 11.1979 92.9984 11.3496 92.853 11.5547C92.7069 11.76 92.511 12.1061 92.2624 12.5939C92.878 12.9312 93.6654 13.1517 94.623 13.2544ZM90.2107 14.2549L90.1011 14.1457V13.3635L90.2107 13.2544C90.5442 13.2544 90.8249 13.1737 91.0534 13.0142C91.282 12.8532 91.4802 12.6088 91.6472 12.2796L91.9107 11.7534C92.2475 11.0352 92.5777 10.5287 92.9005 10.2339C93.2232 9.93858 93.5782 9.79124 93.9626 9.79124C94.2195 9.79124 94.4747 9.94742 94.7288 10.2595C94.983 10.5711 95.1882 10.9736 95.3445 11.4647C95.5007 11.9564 95.5792 12.4311 95.5792 12.8887C95.5792 13.1578 95.5288 13.4032 95.4307 13.6229C95.3328 13.8429 95.1593 14.0533 94.9122 14.2549C94.3851 14.2549 93.8263 14.1816 93.234 14.0365C92.6416 13.8915 92.1472 13.7031 91.7493 13.4722C91.5447 13.7502 91.3208 13.9503 91.0759 14.0715C90.8333 14.1942 90.5442 14.2549 90.2107 14.2549Z" fill="white"/>
<path d="M94.6228 13.2541L94.7417 13.2503C94.7239 12.6949 94.6191 12.1617 94.4263 11.6533C94.2281 11.1543 94.0584 10.8544 93.7576 10.8324C93.5658 10.8321 93.3844 10.8894 93.2216 11.0004C93.0593 11.1105 92.9063 11.2723 92.7552 11.4854C92.6027 11.7005 92.4058 12.0494 92.1559 12.539L92.1036 12.6427L92.2048 12.6981C92.8391 13.0457 93.6414 13.2691 94.6096 13.3726L94.7464 13.3875L94.7417 13.2503L94.6228 13.2541L94.6353 13.1352C93.6889 13.034 92.9171 12.8162 92.3201 12.4888L92.2622 12.5936L92.369 12.6478C92.6157 12.1627 92.8112 11.8189 92.9497 11.6235C93.0901 11.4257 93.2262 11.285 93.3554 11.1981C93.4843 11.1113 93.613 11.0712 93.7576 11.0712C93.8224 11.0489 94.0258 11.2444 94.2029 11.7377C94.3858 12.2214 94.486 12.7276 94.5034 13.2578L94.6228 13.2541L94.6353 13.1352L94.6228 13.2541ZM90.2105 14.2546L90.2944 14.1697L90.2203 14.0959V13.4127L90.2944 13.3386L90.2105 13.2541V13.3735C90.5626 13.3735 90.8704 13.2872 91.1217 13.1118V13.1113C91.3708 12.9361 91.5803 12.6748 91.7534 12.3329L92.0169 11.8069L92.0177 11.8054L92.0182 11.804C92.3512 11.0932 92.6773 10.5979 92.981 10.3212C93.2874 10.0428 93.6088 9.91086 93.9623 9.91038C94.1665 9.90943 94.3923 10.0359 94.6358 10.3344C94.8783 10.6319 95.0775 11.02 95.2305 11.5008C95.3835 11.9821 95.4591 12.4444 95.4595 12.8884C95.4591 13.1431 95.4119 13.3702 95.3214 13.574C95.2338 13.7719 95.0733 13.9691 94.8364 14.1617L94.912 14.2546V14.1352C94.3955 14.1352 93.8466 14.0638 93.2622 13.9207C92.6783 13.7775 92.1941 13.5923 91.8093 13.3689L91.717 13.3152L91.6536 13.401C91.4562 13.6682 91.2463 13.8534 91.0224 13.9645L91.0216 13.9649C90.799 14.0768 90.5295 14.1352 90.2105 14.1352V14.2546L90.2944 14.1697L90.2105 14.2546V14.374C90.5579 14.374 90.8667 14.3105 91.1293 14.1781L91.1283 14.1786C91.3942 14.0465 91.6321 13.8321 91.8457 13.5429L91.7491 13.4719L91.6894 13.5755C92.0999 13.8133 92.6045 14.0051 93.2053 14.1524C93.8056 14.2994 94.3737 14.374 94.912 14.374H94.9539L94.9871 14.3469C95.2445 14.1375 95.4315 13.9136 95.5397 13.6711C95.6451 13.435 95.6983 13.1725 95.6983 12.8884C95.6983 12.4174 95.6176 11.9304 95.4581 11.4286C95.2986 10.9263 95.0872 10.5101 94.8215 10.1837C94.5565 9.85808 94.271 9.67253 93.9623 9.67158C93.5462 9.67062 93.1591 9.83384 92.8195 10.1455C92.4772 10.4589 92.1432 10.9765 91.8023 11.7029L91.9105 11.7531L91.8037 11.6995L91.5401 12.2256V12.2252C91.3798 12.5424 91.1927 12.7695 90.9847 12.916C90.7789 13.0596 90.5247 13.1343 90.2105 13.1347H90.161L90.0164 13.2784L89.9814 13.3134V14.1455V14.1949L90.126 14.339L90.161 14.374H90.2105V14.2546Z" fill="white"/>
<path d="M100.625 11.9204C100.976 12.2194 101.366 12.4181 101.794 12.5165C102.221 12.6154 102.693 12.6685 103.211 12.677L102.872 10.5608L102.864 10.5351C101.817 10.8943 101.071 11.356 100.625 11.9204ZM102.754 13.7418C102.276 13.6988 101.948 13.6574 101.768 13.6168C101.589 13.5762 101.401 13.5184 101.206 13.4433C101.011 13.3687 100.812 13.2735 100.607 13.1578C100.401 13.0426 100.246 12.9312 100.142 12.8243L99.9839 12.5295C99.9839 12.4144 100.044 12.2152 100.162 11.933C100.279 11.6508 100.376 11.4433 100.453 11.3108C100.586 11.0673 100.875 10.7866 101.322 10.4675C101.768 10.149 102.241 9.88963 102.743 9.68856L102.698 9.32951C103.001 9.0562 103.319 8.8267 103.653 8.64342L103.775 12.9078C104.172 13.1387 104.628 13.2544 105.141 13.2544L105.25 13.3635V14.1457L105.141 14.2549C104.611 14.2549 104.181 14.1555 103.852 13.9564C103.523 13.758 103.333 13.4764 103.281 13.113L103.236 12.8374L102.754 13.7418Z" fill="white"/>
<path d="M100.625 11.9202L100.548 12.0112C100.912 12.3212 101.32 12.5302 101.767 12.6329C102.203 12.7335 102.684 12.7873 103.209 12.7961L103.351 12.7984L102.988 10.5349L102.979 10.5032L102.946 10.3805L102.826 10.4215C101.766 10.7858 100.998 11.2555 100.531 11.846L100.46 11.9365L100.548 12.0112L100.625 11.9202L100.719 11.9938C101.143 11.4561 101.869 11.0022 102.903 10.6478L102.864 10.5349L102.749 10.5661L102.754 10.5857L103.092 12.6958L103.21 12.6767L103.212 12.5573C102.702 12.5488 102.237 12.4962 101.821 12.4001C101.411 12.3058 101.041 12.1169 100.703 11.8292L100.625 11.9202L100.719 11.9938L100.625 11.9202ZM102.754 13.7415L102.765 13.6226C102.29 13.5801 101.962 13.5382 101.794 13.4999C101.621 13.4607 101.439 13.4047 101.249 13.3315H101.249C101.06 13.2593 100.866 13.1669 100.665 13.0535C100.466 12.942 100.319 12.8353 100.226 12.7406L100.141 12.8241L100.247 12.7681L100.089 12.4734L99.9837 12.5292H100.103C100.101 12.4514 100.155 12.2541 100.271 11.9789C100.388 11.699 100.484 11.4943 100.556 11.3707L100.556 11.3697L100.557 11.3679C100.673 11.1529 100.951 10.8772 101.391 10.5642C101.83 10.2513 102.295 9.99659 102.787 9.79886L102.873 9.76483L102.816 9.31432L102.697 9.32925L102.777 9.41784C103.074 9.15014 103.385 8.92626 103.71 8.74763L103.653 8.64316L103.533 8.64638L103.657 12.9775L103.715 13.0112C104.132 13.2532 104.609 13.3735 105.141 13.3735V13.2541L105.056 13.3386L105.131 13.4127V14.0959L105.056 14.1697L105.141 14.2546V14.1352C104.625 14.1352 104.217 14.0381 103.914 13.8539L103.913 13.8534C103.611 13.6692 103.448 13.4267 103.4 13.0959V13.0946L103.354 12.8175L103.296 12.4695L102.649 13.6851L102.754 13.7415L102.765 13.6226L102.754 13.7415L102.86 13.7974L103.341 12.8931L103.236 12.8372L103.118 12.8568L103.164 13.1324L103.281 13.1128L103.163 13.1296C103.217 13.5255 103.435 13.8465 103.79 14.0582H103.79C104.144 14.2723 104.596 14.374 105.141 14.374H105.189L105.334 14.2303L105.37 14.1949V13.3633V13.3134L105.224 13.1692L105.189 13.1347H105.141C104.645 13.1343 104.213 13.0237 103.834 12.8045L103.775 12.9075L103.894 12.9043L103.766 8.44399L103.595 8.5382C103.252 8.72662 102.927 8.96125 102.618 9.24053L102.571 9.28208L102.624 9.70322L102.743 9.68829L102.698 9.57737C102.188 9.78214 101.706 10.0461 101.252 10.3697C100.799 10.6949 100.498 10.9808 100.348 11.2537L100.453 11.3105L100.349 11.2508C100.267 11.3922 100.17 11.6021 100.051 11.887C99.932 12.1762 99.8667 12.3763 99.8643 12.5292V12.5591L100.036 12.8805L100.044 12.8959L100.057 12.908C100.173 13.0269 100.337 13.1426 100.548 13.262C100.758 13.3795 100.962 13.4775 101.163 13.5544H101.163C101.362 13.6315 101.556 13.6907 101.742 13.7331C101.933 13.7761 102.263 13.8175 102.744 13.8605L102.823 13.8674L102.86 13.7974L102.754 13.7415Z" fill="white"/>
<path d="M109.522 15.7295C109.363 15.9772 109.1 16.2748 108.733 16.6209C108.353 16.3172 108.063 16.0505 107.867 15.8196C108.063 15.64 108.346 15.3448 108.713 14.9343C108.79 15.0202 109.06 15.2851 109.522 15.7295ZM107.54 15.9157C107.381 16.168 107.122 16.4674 106.763 16.8135C106.37 16.4968 106.08 16.2301 105.891 16.0117C106.122 15.7976 106.404 15.5029 106.738 15.1269C106.814 15.2076 107.083 15.4707 107.54 15.9157ZM108.713 11.2659C108.833 11.2659 108.94 11.3004 109.035 11.3686C108.876 11.7491 108.737 12.0677 108.618 12.3243C108.497 12.5808 108.425 12.7239 108.399 12.7538C108.694 12.9422 108.969 13.0723 109.223 13.1452C109.478 13.2179 109.755 13.2543 110.054 13.2543L110.163 13.3634V14.1457L110.054 14.2548C109.246 14.2548 108.553 14.0006 107.976 13.4912L107.763 13.7734C107.675 13.8722 107.357 13.9767 106.813 14.0877C106.266 14.1993 105.731 14.2548 105.206 14.2548L105.096 14.1457V13.3634L105.206 13.2543C105.749 13.2543 106.209 13.2309 106.587 13.1839C106.966 13.1362 107.233 13.0574 107.39 12.9465C107.546 12.835 107.775 12.487 108.078 11.9012L108.31 11.4777C108.386 11.3363 108.521 11.2659 108.713 11.2659Z" fill="white"/>
<path d="M109.522 15.7297L109.421 15.6653C109.272 15.8995 109.014 16.1919 108.65 16.5342L108.733 16.621L108.807 16.5282C108.431 16.2273 108.146 15.9638 107.957 15.7423L107.866 15.8197L107.947 15.9078C108.15 15.7227 108.433 15.426 108.802 15.0142L108.713 14.9344L108.624 15.0142C108.708 15.1079 108.976 15.3697 109.439 15.816L109.522 15.7297L109.421 15.6653L109.522 15.7297L109.605 15.6438C109.144 15.2004 108.871 14.9325 108.802 14.8547L108.713 14.7558L108.624 14.8547C108.258 15.2638 107.977 15.5571 107.786 15.7316L107.7 15.809L107.775 15.8972C107.98 16.1368 108.274 16.4079 108.658 16.7143L108.739 16.7791L108.815 16.7082C109.186 16.358 109.455 16.0558 109.622 15.794L109.676 15.712L109.605 15.6438L109.522 15.7297ZM107.539 15.9158L107.439 15.8524C107.289 16.0916 107.035 16.3854 106.68 16.7279L106.763 16.8136L106.838 16.7208C106.449 16.4069 106.162 16.1429 105.981 15.934L105.891 16.0118L105.972 16.0996C106.207 15.8813 106.491 15.5841 106.827 15.2063L106.738 15.127L106.651 15.2092C106.732 15.2946 106.998 15.5557 107.456 16.0012L107.539 15.9158L107.439 15.8524L107.539 15.9158L107.623 15.83C107.166 15.3859 106.897 15.1214 106.824 15.045L106.734 14.9503L106.648 15.0478C106.316 15.4219 106.036 15.7147 105.81 15.9242L105.725 16.003L105.801 16.0903C105.997 16.3174 106.292 16.5875 106.688 16.9065L106.77 16.9727L106.846 16.8995C107.209 16.5491 107.474 16.2451 107.641 15.9792L107.692 15.8976L107.623 15.83L107.539 15.9158ZM108.713 11.266V11.3854L108.965 11.4657L109.035 11.3687L108.924 11.323C108.766 11.7027 108.628 12.0198 108.509 12.274C108.45 12.4013 108.401 12.5007 108.366 12.5701L108.323 12.6518L108.31 12.6733L108.307 12.6775L108.325 12.6905L108.309 12.6761L108.307 12.6775L108.325 12.6905L108.309 12.6761L108.219 12.7805L108.335 12.8547C108.637 13.0478 108.922 13.183 109.191 13.2601C109.457 13.3365 109.745 13.3738 110.054 13.3738V13.2544L109.97 13.3389L110.044 13.413V14.0962L109.97 14.17L110.054 14.2549V14.1355C109.271 14.1346 108.612 13.8921 108.055 13.4018L107.958 13.3164L107.668 13.7022L107.763 13.7735L107.675 13.6937C107.649 13.7404 107.323 13.8682 106.788 13.9709C106.25 14.081 105.723 14.1355 105.206 14.1355V14.2549L105.29 14.17L105.215 14.0962V13.413L105.29 13.3389L105.206 13.2544V13.3738C105.752 13.3738 106.217 13.3504 106.602 13.302C106.99 13.2525 107.271 13.1756 107.459 13.0436C107.655 12.8976 107.875 12.5483 108.185 11.9559L108.078 11.9014L108.183 11.9582L108.414 11.5352C108.472 11.4353 108.549 11.3893 108.713 11.3854V11.266V11.1466C108.494 11.1429 108.301 11.2386 108.205 11.4204L107.974 11.8439L107.973 11.8454L107.972 11.8463C107.676 12.4256 107.436 12.7727 107.32 12.8491C107.195 12.9401 106.942 13.0203 106.572 13.0656C106.201 13.1116 105.745 13.135 105.206 13.135H105.156L105.012 13.2787L104.977 13.3137V14.1458V14.1952L105.121 14.3393L105.156 14.3743H105.206C105.74 14.3743 106.283 14.3178 106.836 14.205C107.39 14.0851 107.701 14.0039 107.853 13.8537L107.856 13.8496L108.071 13.5632L107.976 13.4913L107.897 13.5809C108.494 14.1094 109.221 14.3752 110.054 14.3743H110.103L110.248 14.2306L110.282 14.1952V13.3636V13.3137L110.138 13.1696L110.103 13.135H110.054C109.764 13.135 109.499 13.1001 109.257 13.0306C109.017 12.9619 108.751 12.837 108.463 12.6533L108.399 12.7539L108.49 12.8324L108.579 12.6783C108.616 12.6047 108.665 12.504 108.725 12.3752C108.846 12.1163 108.986 11.7964 109.144 11.4148L109.181 11.3272L109.105 11.2721C108.99 11.1896 108.856 11.1461 108.713 11.1466V11.266Z" fill="white"/>
<path d="M110.256 14.2549L110.147 14.1457V13.3635L110.256 13.2544C110.752 13.2544 111.232 13.141 111.694 12.9143C111.578 11.9909 111.439 10.3276 111.276 7.92509L111.148 6.17417C111.408 5.90456 111.703 5.66109 112.034 5.44282C112.089 6.64426 112.134 8.5319 112.168 11.1061L112.213 12.9078C112.61 13.1387 113.066 13.2544 113.579 13.2544L113.694 13.3635V14.1457L113.579 14.2549C112.938 14.2549 112.435 14.0986 112.071 13.7866C111.751 13.9662 111.462 14.0893 111.205 14.1555C110.95 14.2212 110.633 14.2549 110.256 14.2549Z" fill="white"/>
<path d="M110.256 14.2546L110.341 14.1697L110.267 14.0959V13.4127L110.341 13.3386L110.256 13.2541V13.3735C110.771 13.3735 111.269 13.2555 111.746 13.0213L111.823 12.9836L111.812 12.8992C111.697 11.9813 111.558 10.318 111.395 7.91647L111.266 6.16507L111.148 6.17391L111.233 6.25689C111.488 5.99385 111.776 5.75599 112.1 5.54238L112.034 5.44256L111.915 5.44817C111.97 6.64734 112.015 8.53391 112.048 11.1072L112.096 12.9775L112.154 13.0107C112.569 13.2532 113.048 13.3735 113.579 13.3735V13.2541L113.497 13.3408L113.574 13.4145V14.0941L113.497 14.1678L113.579 14.2546V14.1352C112.956 14.1347 112.486 13.9841 112.149 13.6958L112.086 13.6412L112.013 13.6823C111.7 13.8581 111.419 13.977 111.176 14.0401C110.933 14.102 110.626 14.1352 110.256 14.1352V14.2546L110.341 14.1697L110.256 14.2546V14.374C110.641 14.374 110.966 14.3404 111.235 14.2709C111.506 14.2009 111.804 14.0736 112.13 13.8903L112.071 13.7863L111.994 13.8768C112.384 14.2121 112.919 14.3745 113.579 14.374H113.626L113.776 14.2322L113.813 14.1967V13.3633V13.3115L113.66 13.1673L113.626 13.1347H113.579C113.084 13.1343 112.65 13.0237 112.273 12.8045L112.213 12.9075L112.333 12.9048L112.287 11.1025L112.168 11.1058L112.287 11.1039C112.254 8.52925 112.208 6.64125 112.154 5.43743L112.144 5.22704L111.968 5.34322C111.631 5.56567 111.33 5.81474 111.062 6.09092L111.024 6.12913L111.157 7.93319V7.93271C111.32 10.3362 111.459 12.0004 111.574 12.929L111.694 12.9141L111.64 12.8069C111.194 13.0261 110.734 13.1347 110.256 13.1347H110.207L110.063 13.2784L110.028 13.3134V14.1455V14.1949L110.173 14.339L110.207 14.374H110.256V14.2546Z" fill="white"/>
<path d="M113.646 14.2549L113.538 14.1457V13.3635L113.646 13.2544C114.211 13.2544 114.757 13.2413 115.281 13.2156C115.073 13.0785 114.889 12.8911 114.733 12.6513C114.578 12.4115 114.5 12.1573 114.5 11.8882C114.5 11.516 114.601 11.1252 114.804 10.7147C115.007 10.3043 115.27 9.97309 115.589 9.72032C115.911 9.46802 116.246 9.34205 116.597 9.34205C116.9 9.34205 117.191 9.41811 117.468 9.56963C117.747 9.72175 118.069 9.95769 118.437 10.2786L118.206 10.6951C117.861 10.5632 117.608 10.4796 117.45 10.4451C117.292 10.4106 117.118 10.3939 116.93 10.3939C116.391 10.3939 115.829 10.5542 115.244 10.8747C115.244 11.2511 115.333 11.5943 115.516 11.9041C115.698 12.2143 115.963 12.4634 116.308 12.6513C116.655 12.8397 117.064 12.9466 117.533 12.9721C117.866 12.9036 118.185 12.8216 118.488 12.725C118.793 12.6293 119.218 12.4741 119.764 12.2604C119.885 12.3714 119.945 12.5272 119.945 12.7282L119.932 12.863C119.88 13.1578 119.699 13.344 119.386 13.4209C118.344 13.6816 117.554 13.8607 117.019 13.9564C116.486 14.0529 115.936 14.1265 115.375 14.1779C114.813 14.2292 114.236 14.2549 113.646 14.2549Z" fill="white"/>
<path d="M113.646 14.2546L113.731 14.1697L113.656 14.0959V13.4127L113.731 13.3386L113.646 13.2541V13.3735C114.212 13.3735 114.76 13.3604 115.287 13.3347L115.653 13.3166L115.346 13.1156C115.153 12.9887 114.982 12.8138 114.833 12.5857C114.689 12.3633 114.619 12.1347 114.619 11.8879C114.619 11.5382 114.715 11.1651 114.912 10.7672C115.108 10.3707 115.358 10.0545 115.663 9.81379V9.81426C115.969 9.57498 116.275 9.46167 116.597 9.46119C116.88 9.46167 117.151 9.53164 117.412 9.67385H117.411C117.677 9.81988 117.995 10.0512 118.358 10.3684L118.437 10.2784L118.333 10.2205L118.101 10.6375L118.206 10.6949L118.248 10.5835C117.901 10.45 117.645 10.3655 117.475 10.3283C117.307 10.2919 117.126 10.2742 116.93 10.2742C116.367 10.2742 115.785 10.4421 115.186 10.77L115.124 10.804V10.8744C115.124 11.2695 115.22 11.6361 115.413 11.9645C115.606 12.2943 115.889 12.5591 116.25 12.756L116.252 12.7565L116.25 12.756C116.616 12.9542 117.042 13.0648 117.527 13.0909L117.542 13.0918L117.557 13.089C117.895 13.02 118.217 12.9365 118.524 12.8385C118.833 12.7415 119.261 12.5857 119.809 12.3712L119.764 12.2601L119.683 12.3474C119.775 12.4342 119.824 12.5493 119.825 12.7279H119.945L119.825 12.7168L119.812 12.8516L119.932 12.8627L119.813 12.8422C119.764 13.0959 119.637 13.2303 119.357 13.3049C118.316 13.5652 117.528 13.7438 116.999 13.8385C116.468 13.9346 115.922 14.0073 115.363 14.0587C114.806 14.1095 114.234 14.1352 113.646 14.1352V14.2546L113.731 14.1697L113.646 14.2546V14.374C114.24 14.374 114.82 14.3484 115.386 14.2965C115.951 14.2448 116.503 14.171 117.041 14.0736C117.581 13.977 118.371 13.7974 119.415 13.5368C119.761 13.457 119.996 13.2196 120.049 12.8833L120.05 12.8786L120.063 12.7392L120.064 12.7335V12.7279C120.065 12.5045 119.994 12.3087 119.846 12.1725L119.791 12.1216L119.721 12.1487C119.176 12.3623 118.752 12.5167 118.452 12.6104V12.6109C118.152 12.7061 117.838 12.7873 117.509 12.8549L117.533 12.9719L117.54 12.8525C117.084 12.8278 116.693 12.7247 116.364 12.5461H116.365C116.035 12.3665 115.789 12.1338 115.619 11.8432C115.448 11.5522 115.363 11.2317 115.363 10.8744H115.244L115.301 10.9794C115.873 10.666 116.415 10.513 116.93 10.513C117.111 10.513 117.276 10.5292 117.425 10.562C117.57 10.5932 117.821 10.6753 118.163 10.8069L118.26 10.8436L118.541 10.3362L118.588 10.2518L118.515 10.1884C118.144 9.8637 117.815 9.6231 117.527 9.46441H117.526C117.233 9.30406 116.92 9.22238 116.597 9.22238C116.217 9.2219 115.853 9.36089 115.516 9.62632L115.512 9.62823L115.515 9.6268C115.181 9.8908 114.907 10.2373 114.697 10.6613C114.488 11.0844 114.381 11.4939 114.381 11.8879C114.381 12.1805 114.465 12.4598 114.634 12.7164C114.797 12.9677 114.992 13.1683 115.216 13.3152L115.281 13.2153L115.276 13.0964C114.753 13.1216 114.209 13.1347 113.646 13.1347H113.597L113.453 13.2784L113.417 13.3134V14.1455V14.1949L113.563 14.339L113.597 14.374H113.646V14.2546Z" fill="white"/>
<path d="M129.686 14.9667L129.352 12.8439C128.981 10.6205 128.736 9.07149 128.618 8.19698C128.501 7.32343 128.443 6.74743 128.443 6.46898C128.443 6.17417 128.511 5.94564 128.648 5.78277C128.784 5.62003 129.003 5.50719 129.301 5.44283L129.34 5.59674C129.352 5.64379 129.496 6.11209 129.769 7.00164L129.461 7.27065L129.487 7.47591L129.916 11.3687C129.994 11.9372 130.052 12.4825 130.09 13.0039L130.096 13.0301C130.378 13.1798 130.7 13.2544 131.059 13.2544L131.167 13.3635V14.1458L131.059 14.2549C130.742 14.2549 130.444 14.1844 130.161 14.0431L130.173 14.4727C130.173 15.0156 130.004 15.5333 129.666 16.0249C129.329 16.516 128.864 16.9171 128.274 17.2268C127.684 17.537 127.075 17.6924 126.447 17.6924C125.699 17.6924 125.116 17.4778 124.697 17.0473C124.278 16.6182 124.068 16.0095 124.068 15.2231C124.068 14.9708 124.084 14.733 124.117 14.5077C124.148 14.2838 124.218 13.9559 124.324 13.5235L124.806 13.6391C124.708 14.024 124.657 14.3355 124.657 14.5753C124.657 15.2166 124.819 15.7157 125.139 16.0724C125.46 16.4297 125.906 16.6084 126.478 16.6084C126.894 16.6084 127.325 16.5356 127.775 16.3901C128.223 16.2451 128.619 16.0464 128.961 15.794C129.303 15.5412 129.546 15.2655 129.686 14.9667Z" fill="white"/>
<path d="M129.686 14.9664L129.804 14.9476L129.469 12.825V12.8241C129.099 10.6016 128.855 9.0526 128.736 8.18084C128.619 7.30967 128.562 6.73271 128.562 6.46871C128.562 6.19062 128.625 5.99385 128.739 5.85952V5.85904C128.852 5.72424 129.043 5.62024 129.326 5.55958L129.301 5.44256L129.185 5.47241L129.225 5.62633L129.34 5.59648L129.225 5.62537C129.239 5.68412 129.381 6.14454 129.656 7.03624L129.769 7.00137L129.69 6.91134L129.383 7.18047L129.336 7.22239L129.369 7.48961L129.798 11.3829V11.3847C129.874 11.951 129.933 12.4934 129.971 13.0125L129.972 13.0218L129.979 13.0559L129.991 13.1096L130.04 13.1352C130.341 13.2951 130.684 13.3736 131.059 13.3736V13.2541L130.974 13.3381L131.048 13.4122V14.0959L130.974 14.1702L131.059 14.2546V14.1352C130.76 14.1347 130.481 14.069 130.215 13.9361L130.037 13.847L130.053 14.4756L130.173 14.4724H130.053C130.053 14.9906 129.895 15.4822 129.569 15.957C129.241 16.4309 128.795 16.8189 128.219 17.1211C127.644 17.423 127.056 17.5722 126.447 17.5727C125.72 17.5718 125.176 17.367 124.783 16.964V16.9635C124.39 16.5615 124.187 15.9892 124.187 15.2229C124.187 14.9757 124.203 14.7433 124.235 14.5246V14.5218V14.5241C124.265 14.3082 124.334 13.9817 124.44 13.5517L124.324 13.5233L124.296 13.6393L124.778 13.755L124.806 13.6389L124.69 13.6095C124.591 13.9999 124.538 14.319 124.538 14.575C124.538 15.2354 124.705 15.7681 125.05 16.1519C125.394 16.5377 125.883 16.7289 126.478 16.7276C126.908 16.7276 127.352 16.652 127.812 16.5037C128.271 16.3548 128.679 16.1506 129.032 15.8899C129.386 15.6286 129.643 15.339 129.793 15.0167L129.809 14.9836L129.804 14.9476L129.686 14.9664L129.577 14.916C129.448 15.1921 129.221 15.4538 128.89 15.6977C128.56 15.9417 128.175 16.1347 127.738 16.2765C127.299 16.4183 126.88 16.4888 126.478 16.4888C125.93 16.4873 125.524 16.3217 125.228 15.9924C124.932 15.6631 124.777 15.1977 124.777 14.575C124.777 14.3521 124.825 14.0475 124.921 13.6682L124.951 13.5507L124.352 13.4071L124.236 13.3795L124.209 13.4947C124.101 13.929 124.031 14.2593 123.998 14.491V14.4901C123.965 14.7215 123.948 14.9654 123.948 15.2229C123.947 16.0293 124.166 16.6743 124.612 17.1306C125.055 17.5876 125.677 17.8124 126.447 17.8115C127.096 17.8115 127.725 17.6506 128.33 17.3325C128.935 17.0153 129.416 16.6007 129.766 16.0922C130.115 15.5838 130.292 15.0401 130.292 14.4724V14.471L130.28 14.0396L130.161 14.0428L130.108 14.1497C130.406 14.2989 130.724 14.374 131.059 14.374H131.109L131.252 14.2299L131.287 14.1949V13.3633V13.3138L131.143 13.1697L131.109 13.1347H131.059C130.716 13.1347 130.415 13.0638 130.152 12.9239L130.096 13.0298L130.212 13.0032L130.206 12.9775L130.09 13.0036L130.21 12.9953C130.17 12.4705 130.112 11.9229 130.034 11.3525L129.916 11.3684L130.035 11.3553L129.606 7.46167L129.588 7.31851L129.848 7.09092L129.906 7.04006L129.884 6.96591C129.61 6.0797 129.465 5.60304 129.456 5.56806V5.56662L129.416 5.41271L129.388 5.30167L129.276 5.32591C128.962 5.39361 128.716 5.51528 128.556 5.70609V5.70561C128.395 5.89689 128.323 6.15659 128.323 6.46871C128.323 6.76113 128.382 7.33618 128.5 8.21259C128.618 9.09045 128.863 10.6393 129.234 12.8632V12.8619L129.567 14.985L129.686 14.9664L129.577 14.916L129.686 14.9664Z" fill="white"/>
<path d="M136.458 13.2544C137.6 13.2544 138.769 12.8798 139.965 12.1317C139.701 11.6699 139.382 11.3099 139.01 11.0514C138.638 10.7927 138.271 10.6634 137.908 10.6634C137.492 10.6634 136.999 10.8649 136.425 11.2698C135.853 11.6733 135.231 12.2706 134.56 13.0617C135.244 13.19 135.875 13.2544 136.458 13.2544ZM141.448 14.2549C141.075 14.2549 140.705 14.1803 140.339 14.0305C139.97 13.8803 139.669 13.6839 139.434 13.44C139.044 13.6929 138.568 13.8915 138.007 14.0365C137.444 14.1816 136.883 14.2549 136.323 14.2549C135.69 14.2549 135.04 14.1862 134.373 14.0496C133.706 13.9124 133.177 13.7352 132.783 13.5175L132.558 13.7735C132.268 14.0944 131.79 14.2549 131.122 14.2549L131.012 14.1457V13.3635L131.122 13.2544C131.515 13.2544 131.828 13.1825 132.058 13.0398C132.29 12.8962 132.523 12.6191 132.757 12.2092L132.962 11.8434C133.053 11.6895 133.191 11.6126 133.38 11.6126C133.503 11.6126 133.606 11.6532 133.687 11.7343C133.503 12.1793 133.373 12.4825 133.295 12.6447C133.51 12.7479 133.729 12.8332 133.951 12.9018C135.627 10.6783 137.055 9.56688 138.235 9.56688C138.482 9.56688 138.788 9.66718 139.152 9.86814C139.515 10.0692 139.84 10.3276 140.126 10.6438C140.413 10.9606 140.555 11.238 140.555 11.4778C140.555 12.0076 140.388 12.4806 140.05 12.8952C140.447 13.135 140.913 13.2544 141.448 13.2544L141.563 13.3635V14.1457L141.448 14.2549Z" fill="white"/>
<path d="M136.458 13.2541V13.3735C137.626 13.3735 138.819 12.9901 140.028 12.2327L140.126 12.172L140.069 12.0722C139.797 11.5979 139.467 11.2233 139.079 10.9533C138.692 10.6841 138.301 10.5433 137.908 10.5437C137.453 10.5447 136.941 10.7602 136.357 11.1715C135.772 11.5838 135.145 12.1884 134.469 12.9845L134.335 13.1412L134.538 13.179C135.228 13.3082 135.867 13.3735 136.458 13.3735V13.2541V13.1347C135.885 13.1347 135.261 13.0712 134.581 12.9444L134.56 13.0614L134.65 13.1389C135.318 12.353 135.934 11.7621 136.494 11.367C137.056 10.9691 137.532 10.7812 137.908 10.7825C138.242 10.7825 138.585 10.9011 138.942 11.1492C139.298 11.3959 139.604 11.742 139.862 12.1911L139.965 12.1314L139.902 12.0303C138.72 12.7695 137.573 13.1347 136.458 13.1347V13.2541ZM141.448 14.2546V14.1352C141.091 14.1352 140.738 14.0638 140.384 13.9192C140.027 13.7746 139.742 13.5872 139.52 13.3567L139.452 13.2863L139.369 13.3399C138.993 13.5838 138.529 13.7783 137.977 13.9207C137.424 14.0633 136.874 14.1352 136.323 14.1352C135.699 14.1352 135.056 14.0675 134.397 13.9322C133.738 13.7971 133.219 13.6221 132.84 13.4127L132.755 13.3655L132.469 13.6949L132.558 13.7732L132.47 13.6934C132.213 13.9784 131.772 14.1347 131.122 14.1352V14.2546L131.207 14.1697L131.132 14.0959V13.4127L131.207 13.3386L131.122 13.2541V13.3735C131.529 13.3731 131.864 13.2999 132.121 13.1407C132.379 12.9794 132.621 12.6875 132.861 12.2681L132.862 12.2662L133.066 11.9015L132.962 11.8432L133.065 11.9038C133.14 11.7835 133.225 11.735 133.38 11.7318L133.603 11.8189L133.687 11.734L133.577 11.6883C133.393 12.1324 133.263 12.435 133.188 12.5936L133.136 12.7014L133.244 12.7523C133.464 12.8576 133.687 12.9454 133.916 13.0153L133.996 13.0401L134.046 12.9733C135.712 10.7565 137.134 9.67767 138.235 9.68603C138.45 9.68507 138.74 9.77606 139.093 9.97236C139.446 10.1669 139.76 10.4164 140.038 10.7238C140.316 11.0298 140.438 11.2872 140.435 11.4775C140.435 11.9821 140.279 12.4239 139.957 12.8194L139.869 12.9263L139.988 12.9971C140.406 13.2495 140.896 13.3735 141.448 13.3735V13.2541L141.366 13.3408L141.443 13.4145V14.0941L141.366 14.1678L141.448 14.2546V14.1352V14.2546L141.529 14.3413L141.645 14.2322L141.682 14.1967V13.3633V13.3115L141.529 13.1673L141.495 13.1347H141.448C140.931 13.1343 140.488 13.0195 140.111 12.7924L140.05 12.895L140.142 12.9706C140.496 12.5368 140.675 12.0325 140.674 11.4775C140.673 11.1888 140.511 10.8913 140.215 10.5638C139.92 10.2378 139.584 9.97104 139.209 9.7634C138.835 9.55731 138.514 9.4477 138.235 9.44722C136.976 9.4551 135.541 10.5997 133.855 12.8292L133.951 12.9015L133.985 12.7873C133.769 12.7205 133.557 12.6371 133.347 12.5372L133.295 12.6445L133.404 12.6958C133.483 12.5288 133.613 12.2256 133.798 11.7798L133.829 11.7056L133.772 11.6491C133.669 11.5461 133.529 11.4915 133.38 11.493C133.159 11.4891 132.966 11.595 132.859 11.7825L132.858 11.7835L132.653 12.1501V12.1497C132.425 12.5507 132.199 12.8128 131.995 12.9378H131.996C131.791 13.0648 131.501 13.1347 131.122 13.1347H131.073L130.929 13.2784L130.893 13.3134V14.1455V14.1949L131.038 14.339L131.073 14.374H131.122C131.806 14.374 132.323 14.2098 132.647 13.8534L132.648 13.853L132.872 13.5955L132.783 13.5172L132.724 13.6217C133.134 13.8478 133.675 14.0274 134.349 14.1659C135.023 14.3049 135.682 14.374 136.323 14.374C136.894 14.374 137.465 14.2999 138.037 14.1519C138.607 14.0046 139.096 13.8012 139.498 13.54L139.434 13.4397L139.348 13.5228C139.596 13.7802 139.912 13.986 140.293 14.1407C140.674 14.2956 141.06 14.374 141.448 14.374H141.495L141.529 14.3413L141.448 14.2546Z" fill="white"/>
<path d="M141.514 14.2549L141.404 14.1457V13.3635L141.514 13.2544C142.801 13.2544 143.812 13.1429 144.548 12.9209L145.278 12.6704C145.775 12.4825 146.216 12.3542 146.6 12.2856C146.258 12.1149 145.92 11.8972 145.585 11.6317C145.231 11.3537 144.944 11.1602 144.724 11.0514C144.504 10.9419 144.278 10.8877 144.046 10.8877C143.628 10.8877 143.251 10.9946 142.918 11.2087L142.61 11.4008C142.482 11.2726 142.419 11.1018 142.419 10.8877C142.419 10.5585 142.563 10.2936 142.855 10.0925C143.145 9.89154 143.528 9.79124 144.002 9.79124C144.28 9.79124 144.561 9.85142 144.845 9.97082C145.129 10.0902 145.46 10.287 145.836 10.5608C146.293 10.898 146.683 11.1517 147.004 11.321C147.324 11.4894 147.65 11.6102 147.978 11.6831C148.308 11.7558 148.786 11.7922 149.415 11.7922L148.914 12.7604C148.641 12.7259 148.396 12.7026 148.176 12.69L148.132 12.6834L147.864 12.69C147.56 12.69 147.269 12.7348 146.994 12.8243C146.718 12.9143 146.29 13.1093 145.708 13.4083C145.054 13.746 144.463 13.9713 143.935 14.0846C143.406 14.1979 142.599 14.2549 141.514 14.2549Z" fill="white"/>
<path d="M141.514 14.2546L141.598 14.1697L141.523 14.0959V13.4127L141.598 13.3386L141.514 13.2541V13.3735C142.808 13.3731 143.829 13.262 144.582 13.0349L144.585 13.0344L145.317 12.7835L145.319 12.7825L145.32 12.7821C145.812 12.5955 146.246 12.4695 146.62 12.4034L146.978 12.3399L146.654 12.1786C146.318 12.012 145.988 11.7984 145.66 11.5382L145.659 11.5377C145.301 11.2564 145.01 11.0596 144.777 10.9439V10.9444C144.542 10.8273 144.296 10.7681 144.046 10.7681C143.608 10.7676 143.206 10.881 142.853 11.1076L142.918 11.2084L142.855 11.1067L142.546 11.2994L142.61 11.4005L142.695 11.3161C142.591 11.2116 142.539 11.0792 142.538 10.8875C142.54 10.5941 142.657 10.3768 142.923 10.1906V10.1903C143.188 10.0069 143.543 9.91038 144.002 9.91038C144.262 9.91038 144.527 9.96638 144.798 10.0807C145.071 10.1944 145.394 10.387 145.767 10.6571L145.766 10.6567C146.225 10.9962 146.619 11.2527 146.948 11.4262C147.277 11.5992 147.613 11.7238 147.953 11.7993C148.297 11.8754 148.782 11.9109 149.415 11.9113V11.7919L149.308 11.7369L148.809 12.7051L148.914 12.7602L148.93 12.6417C148.654 12.6072 148.406 12.5835 148.183 12.5703L148.176 12.6897L148.194 12.5713L148.149 12.5652L148.139 12.5638L147.86 12.5703L147.863 12.6897V12.5703C147.548 12.5703 147.245 12.617 146.957 12.7107C146.668 12.805 146.238 13.0014 145.653 13.3017C145.006 13.6356 144.423 13.8571 143.91 13.9672C143.397 14.0778 142.595 14.1352 141.514 14.1352V14.2546L141.598 14.1697L141.514 14.2546V14.374C142.604 14.3735 143.416 14.318 143.96 14.2009C144.501 14.0848 145.102 13.8549 145.763 13.5138C146.341 13.2163 146.767 13.0232 147.031 12.9378C147.294 12.8521 147.571 12.8091 147.863 12.8091H147.865L148.125 12.8026L148.16 12.8077L148.164 12.8087H148.169C148.385 12.8213 148.628 12.8446 148.9 12.8786L148.982 12.8889L149.521 11.8465L149.612 11.6725H149.415C148.791 11.6725 148.317 11.6356 148.004 11.5661C147.687 11.4957 147.372 11.3792 147.059 11.215C146.747 11.0503 146.361 10.7998 145.908 10.4644L145.906 10.4641C145.526 10.1869 145.189 9.98549 144.892 9.86047C144.594 9.73546 144.297 9.67158 144.002 9.67158C143.511 9.67158 143.103 9.7751 142.786 9.99385C142.469 10.2098 142.297 10.5223 142.299 10.8875C142.298 11.124 142.372 11.333 142.525 11.485L142.593 11.5522L142.981 11.3097L142.982 11.3082V11.3087C143.296 11.1072 143.649 11.0073 144.046 11.0069C144.259 11.0069 144.465 11.0563 144.671 11.158V11.1585C144.878 11.2601 145.161 11.45 145.512 11.7252L145.511 11.7247C145.85 11.9948 146.195 12.2172 146.546 12.3927L146.6 12.2853L146.579 12.1678C146.185 12.2383 145.737 12.3684 145.235 12.5586L145.278 12.6701L145.239 12.5573L144.509 12.8077L144.548 12.9207L144.513 12.8064C143.795 13.0232 142.794 13.1347 141.514 13.1347H141.465L141.32 13.2784L141.284 13.3134V14.1455V14.1949L141.43 14.339L141.465 14.374H141.514V14.2546Z" fill="white"/>
<path d="M151.079 9.88079V10.7017C151.079 11.5483 151.049 12.6966 150.989 14.1457L150.386 14.2549C150.33 11.1854 150.211 8.63686 150.027 6.61023L150.021 6.4433C150.021 6.16533 150.09 5.9442 150.229 5.78002C150.367 5.61488 150.587 5.503 150.887 5.44282L150.925 5.59674C150.938 5.64378 151.081 6.11208 151.355 7.00163L151.001 7.30288L151.007 7.36677C151.055 8.30706 151.079 9.14575 151.079 9.88079Z" fill="white"/>
<path d="M151.079 9.88019H150.96V10.7011C150.96 11.5448 150.93 12.6918 150.87 14.1404L150.99 14.1451L150.968 14.0275L150.365 14.1367L150.387 14.2543L150.506 14.2519C150.45 11.1805 150.331 8.62968 150.147 6.59888L150.027 6.60962L150.147 6.60544L150.141 6.43851L150.021 6.44269H150.141C150.142 6.18335 150.204 5.99446 150.32 5.85643H150.321C150.436 5.71875 150.627 5.61619 150.91 5.55923L150.887 5.44222L150.771 5.47111L150.809 5.62502V5.62646V5.62741C150.825 5.68198 150.967 6.14514 151.242 7.03589L151.355 7.00102L151.277 6.91004L150.925 7.21129L150.877 7.25141L150.889 7.37738L151.008 7.36616L150.888 7.37225C150.936 8.31111 150.96 9.14741 150.96 9.88019H151.079H151.199C151.199 9.14228 151.175 8.30228 151.127 7.36007V7.3578V7.35314L151.433 7.09141L151.492 7.04066L151.47 6.96556C151.196 6.07792 151.052 5.60496 151.04 5.56485L150.925 5.59613L151.041 5.56723L151.003 5.41332L150.975 5.30275L150.863 5.32508C150.548 5.38861 150.301 5.50932 150.137 5.70251H150.138C149.977 5.89272 149.902 6.14598 149.902 6.44269V6.44449L149.908 6.6138V6.61714V6.62037C150.092 8.64281 150.211 11.1885 150.267 14.2561L150.27 14.3965L151.011 14.2626L151.104 14.2453L151.109 14.1503C151.168 12.6996 151.199 11.5504 151.199 10.7011V9.88019H151.079Z" fill="white"/>
<path d="M61.2576 33.1264H55.6181L54.2402 36.8753H51.7729L57.2843 22.8086H59.6234L65.2629 36.8753H62.6675L61.2576 33.1264ZM56.323 31.2038H60.5206L59.0146 27.1664C58.8223 26.6217 58.5981 25.9808 58.4058 25.3079C58.2135 25.9167 58.0213 26.5255 57.829 27.1344L56.323 31.2038Z" fill="white"/>
<path d="M66.2565 28.9606C66.2565 28.1915 66.2244 27.3264 66.1924 26.3972H68.4354C68.5315 26.8458 68.5635 27.2623 68.5956 27.7109C69.5248 26.6855 70.5822 26.1729 71.7999 26.1729C72.5048 26.1729 73.1456 26.3331 73.7545 26.6855C74.3633 27.038 74.8439 27.5827 75.1964 28.3518C75.5489 29.1208 75.7411 30.0821 75.7411 31.2356C75.7411 32.4532 75.5168 33.5106 75.1003 34.3758C74.6837 35.2409 74.1069 35.9138 73.3379 36.3304C72.6009 36.779 71.7358 37.0033 70.7425 37.0033C70.0375 37.0033 69.3326 36.8751 68.6276 36.6508V41.0407L66.2244 41.2329V28.9606H66.2565ZM72.5689 34.3117C73.0495 33.6708 73.3059 32.7096 73.3059 31.4279C73.3059 30.2423 73.1136 29.4092 72.6971 28.8965C72.2805 28.3838 71.7678 28.0954 71.0949 28.0954C70.6143 28.0954 70.1977 28.1915 69.8132 28.4158C69.4287 28.6401 69.0442 28.9285 68.6917 29.313V34.9205C68.916 35.0487 69.2044 35.1448 69.5248 35.2089C69.8453 35.273 70.1657 35.305 70.4541 35.305C71.3513 35.305 72.0562 34.9846 72.5689 34.3117Z" fill="white"/>
<path d="M77.1827 28.9606C77.1827 28.1915 77.1507 27.3264 77.1187 26.3972H79.3616C79.4578 26.8458 79.4898 27.2623 79.5219 27.7109C80.4511 26.6855 81.5085 26.1729 82.7261 26.1729C83.4311 26.1729 84.0719 26.3331 84.6807 26.6855C85.2896 27.038 85.7702 27.5827 86.1227 28.3518C86.4751 29.1208 86.6674 30.0821 86.6674 31.2356C86.6674 32.4532 86.4431 33.5106 86.0265 34.3758C85.61 35.2409 85.0332 35.9138 84.2642 36.3304C83.5272 36.779 82.662 37.0033 81.6687 37.0033C80.9638 37.0033 80.2589 36.8751 79.5539 36.6508V41.0407L77.1507 41.2329V28.9606H77.1827ZM83.4952 34.3117C83.9758 33.6708 84.2321 32.7096 84.2321 31.4279C84.2321 30.2423 84.0399 29.4092 83.6233 28.8965C83.2068 28.3838 82.6941 28.0954 82.0212 28.0954C81.5406 28.0954 81.124 28.1915 80.7395 28.4158C80.355 28.6401 79.9705 28.9285 79.618 29.313V34.9205C79.8423 35.0487 80.1307 35.1448 80.4511 35.2089C80.7715 35.273 81.092 35.305 81.3804 35.305C82.2775 35.305 83.0145 34.9846 83.4952 34.3117Z" fill="white"/>
<path d="M91.0574 36.2025C90.032 35.6257 89.2309 34.8247 88.6862 33.7352C88.1415 32.6778 87.8531 31.3961 87.8531 29.9542C87.8531 28.3841 88.1735 27.0383 88.8144 25.9488C89.4552 24.8594 90.3204 24.0263 91.4419 23.4815C92.5313 22.9368 93.781 22.6484 95.1588 22.6484C95.9599 22.6484 96.7289 22.7446 97.4659 22.9048C98.2029 23.097 98.8758 23.3213 99.5166 23.6418L98.9078 25.5002C97.6261 24.8914 96.4085 24.603 95.255 24.603C94.2937 24.603 93.4285 24.8273 92.6916 25.2439C91.9546 25.6605 91.3778 26.2693 90.9933 27.0703C90.5767 27.8714 90.3845 28.8647 90.3845 29.9862C90.3845 30.9795 90.5447 31.8767 90.8651 32.6458C91.1855 33.4148 91.6662 34.0236 92.3391 34.5042C93.012 34.9528 93.8771 35.1771 94.9025 35.1771C95.3831 35.1771 95.8317 35.1451 96.3124 35.049C96.793 34.9528 97.2096 34.8567 97.6261 34.6965V31.8447H94.3898V29.9862H99.9653V35.9141C99.1642 36.2986 98.3311 36.587 97.4339 36.7793C96.5367 36.9715 95.6715 37.0677 94.8064 37.0677C93.3324 37.0677 92.1148 36.7793 91.0574 36.2025Z" fill="white"/>
<path d="M108.392 36.8755C108.296 36.4589 108.264 36.0103 108.232 35.4976C107.848 35.9462 107.399 36.2987 106.79 36.6191C106.214 36.9396 105.541 37.0677 104.772 37.0677C104.163 37.0677 103.618 36.9396 103.137 36.7153C102.657 36.491 102.24 36.1385 101.952 35.6579C101.663 35.1772 101.503 34.6005 101.503 33.9276C101.503 32.9022 101.856 32.1011 102.593 31.4923C103.33 30.8835 104.547 30.5951 106.246 30.5951C106.886 30.5951 107.527 30.6272 108.136 30.7233V30.531C108.136 29.6018 107.944 28.9609 107.559 28.5764C107.175 28.1919 106.598 27.9997 105.861 27.9997C105.348 27.9997 104.804 28.0637 104.227 28.224C103.65 28.3842 103.137 28.5444 102.689 28.7687L102.304 27.0384C102.721 26.8461 103.298 26.6539 104.003 26.4936C104.708 26.3334 105.444 26.2373 106.214 26.2373C107.111 26.2373 107.88 26.3655 108.521 26.6539C109.161 26.9422 109.642 27.3908 109.995 28.0637C110.347 28.7366 110.539 29.6338 110.539 30.7553V34.9209C110.539 35.3695 110.571 36.0103 110.603 36.8755H108.392ZM106.983 34.9209C107.495 34.6966 107.88 34.3762 108.2 34.0237V32.0691C107.559 32.005 107.015 31.9729 106.598 31.9729C105.605 31.9729 104.932 32.1332 104.547 32.4536C104.163 32.774 103.971 33.1906 103.971 33.7353C103.971 34.248 104.099 34.6325 104.387 34.8888C104.675 35.1452 105.028 35.2734 105.509 35.2734C105.989 35.3054 106.47 35.1772 106.983 34.9209Z" fill="white"/>
<path d="M112.43 34.3762V22.0077L114.801 21.8154V33.9596C114.801 34.4082 114.865 34.7286 115.025 34.9209C115.185 35.1132 115.41 35.2093 115.762 35.2093C115.922 35.2093 116.115 35.1772 116.403 35.1132L116.691 36.8435C116.467 36.9396 116.179 37.0037 115.858 37.0678C115.538 37.1319 115.218 37.1639 114.929 37.1639C113.263 37.0678 112.43 36.1706 112.43 34.3762Z" fill="white"/>
<path d="M118.39 34.3762V22.0077L120.761 21.8154V33.9596C120.761 34.4082 120.825 34.7286 120.985 34.9209C121.145 35.1132 121.37 35.2093 121.722 35.2093C121.882 35.2093 122.075 35.1772 122.363 35.1132L122.651 36.8435C122.427 36.9396 122.139 37.0037 121.818 37.0678C121.498 37.1319 121.177 37.1639 120.889 37.1639C119.223 37.0678 118.39 36.1706 118.39 34.3762Z" fill="white"/>
<path d="M132.456 31.9405H125.599C125.695 34.1194 126.753 35.2409 128.74 35.2409C129.22 35.2409 129.733 35.1769 130.246 35.0487C130.758 34.9205 131.239 34.7603 131.719 34.568L132.232 36.2022C131.047 36.779 129.733 37.0674 128.291 37.0674C127.169 37.0674 126.24 36.8431 125.471 36.4265C124.702 36.01 124.125 35.4012 123.741 34.6001C123.356 33.799 123.164 32.8698 123.164 31.7483C123.164 30.5947 123.356 29.6014 123.773 28.7683C124.189 27.9352 124.734 27.2943 125.471 26.8457C126.208 26.3972 127.041 26.1729 128.003 26.1729C128.996 26.1729 129.829 26.3972 130.47 26.8778C131.143 27.3264 131.623 27.9672 131.944 28.7363C132.264 29.5053 132.424 30.3704 132.424 31.2997V31.9405H132.456ZM130.117 30.4345C130.085 29.6014 129.861 28.9606 129.476 28.544C129.092 28.1275 128.611 27.9032 127.97 27.9032C127.362 27.9032 126.849 28.1275 126.464 28.544C126.048 28.9606 125.792 29.6014 125.663 30.4025H130.117V30.4345Z" fill="white"/>
<path d="M134.251 29.025C134.251 28.4483 134.219 27.5831 134.187 26.3975H136.43C136.462 26.6859 136.494 27.0384 136.526 27.4549C136.558 27.8715 136.59 28.1919 136.59 28.4483C136.878 27.9997 137.135 27.6151 137.423 27.2947C137.68 26.9743 138 26.7179 138.352 26.5257C138.705 26.3334 139.121 26.2373 139.57 26.2373C139.955 26.2373 140.243 26.2693 140.531 26.3655L140.243 28.4483C140.019 28.3842 139.762 28.3521 139.474 28.3521C138.897 28.3521 138.416 28.4803 138 28.7687C137.583 29.0571 137.135 29.5377 136.654 30.1786V36.9075H134.283V29.025H134.251Z" fill="white"/>
<path d="M141.877 41.1692C141.525 41.1051 141.236 41.041 141.012 40.9449L141.461 39.2146C141.621 39.2466 141.813 39.3107 142.069 39.3427C142.326 39.3748 142.55 39.4068 142.774 39.4068C143.832 39.4068 144.633 38.7339 145.145 37.3561L145.306 36.9716L141.461 26.4295H144.024L145.979 32.3254C146.299 33.3187 146.491 34.1198 146.587 34.6324C146.78 33.8634 146.972 33.1264 147.228 32.3574L149.183 26.3975H151.586L147.741 37.0036C147.388 37.9969 146.972 38.83 146.555 39.4388C146.139 40.0477 145.626 40.4963 145.081 40.8167C144.505 41.1051 143.832 41.2653 142.999 41.2653C142.614 41.2653 142.23 41.2332 141.877 41.1692Z" fill="white"/>
<path fill-rule="evenodd" clip-rule="evenodd" d="M34.1495 9.47852H20.8518C14.5714 9.47852 12.2964 11.7856 12.2964 18.0339V31.3317C12.2964 37.612 14.6035 39.8871 20.8518 39.8871H34.1495C40.4299 39.8871 42.7049 37.58 42.7049 31.3317V18.0339C42.737 11.7856 40.4299 9.47852 34.1495 9.47852Z" fill="#C8102E"/>
<path d="M18.3204 24.6992H19.1215V28.6725H18.3204V27.0704H16.494V28.6725H15.6929V24.6992H16.494V26.3014H18.3204V24.6992ZM22.8705 26.9743C22.8705 27.6151 22.5501 27.9676 21.9733 27.9676C21.3965 27.9676 21.0761 27.6151 21.0761 26.9422V24.6992H20.275V26.9743C20.275 28.0957 20.8838 28.7366 21.9733 28.7366C23.0628 28.7366 23.7036 28.0957 23.7036 26.9422V24.6992H22.9025V26.9743H22.8705ZM32.1949 27.4229L31.2977 24.6992H30.6248L29.7276 27.4229L28.8625 24.6992H27.9973L29.3752 28.6725H30.0481L30.9453 26.045L31.8425 28.6725H32.5154L33.8932 24.6992H33.0601L32.1949 27.4229ZM35.3672 26.9743H36.8411V26.2373H35.3672V25.4362H37.514V24.6992H34.5981V28.6725H37.6101V27.9355H35.3992V26.9743H35.3672ZM38.5394 28.6725H39.3405V24.6992H38.5394V28.6725ZM25.2737 27.8394L24.9212 28.6725H24.0881L25.8184 24.6992H26.5234L28.2537 28.6725H27.4206L27.0681 27.8394H25.2737ZM25.5621 27.1345H26.7797L26.1709 25.7246L25.5621 27.1345Z" fill="white"/>
<path d="M27.5167 19.636C24.729 19.636 22.454 17.361 22.454 14.5732H23.1589C23.1589 16.9764 25.1135 18.9311 27.5167 18.9311C29.9199 18.9311 31.8745 16.9764 31.8745 14.5732H32.5795C32.5795 17.361 30.3044 19.636 27.5167 19.636Z" fill="white"/>
</svg>
