<svg width="162" height="49" viewBox="0 0 162 49" fill="none" xmlns="http://www.w3.org/2000/svg">
<g clip-path="url(#clip0_2218_1976)">
<path d="M12.908 0.667148C12.4115 0.667148 11.921 0.667148 11.4259 0.669548C11.0115 0.671948 10.6003 0.67892 10.1818 0.684788C9.27276 0.694273 8.36587 0.765163 7.46899 0.896839C6.57336 1.03139 5.70578 1.28505 4.8956 1.64924C4.08641 2.01651 3.34704 2.49374 2.70429 3.06362C2.05817 3.6319 1.51958 4.28876 1.10923 5.00893C0.697744 5.72766 0.412419 6.49786 0.263109 7.2929C0.112379 8.08695 0.0312704 8.89015 0.0205099 9.6953C0.00794675 10.0632 0.00662003 10.4324 0 10.8003V38.5373C0.00662003 38.9099 0.00794675 39.2709 0.0205099 39.6436C0.0312738 40.4487 0.112383 41.2519 0.263109 42.0459C0.412007 42.8414 0.697348 43.612 1.10923 44.331C1.51939 45.0489 2.05806 45.7031 2.70429 46.2682C3.3446 46.8406 4.08445 47.3182 4.8956 47.6826C5.70577 48.0478 6.57326 48.303 7.46899 48.4396C8.36604 48.5702 9.27286 48.6411 10.1819 48.6518C10.6003 48.6599 11.0115 48.6646 11.426 48.6646C11.921 48.667 12.4115 48.667 12.908 48.667H149.099C149.586 48.667 150.08 48.667 150.567 48.6646C150.979 48.6646 151.402 48.6599 151.815 48.6518C152.722 48.6417 153.627 48.5708 154.522 48.4396C155.421 48.302 156.292 48.0469 157.106 47.6826C157.916 47.318 158.655 46.8404 159.295 46.2682C159.94 45.7009 160.48 45.0472 160.895 44.331C161.304 43.6115 161.586 42.8409 161.733 42.0459C161.884 41.2518 161.968 40.4488 161.984 39.6436C161.989 39.2709 161.989 38.9099 161.989 38.5373C162 38.1014 162 37.6678 162 37.2248V12.1105C162 11.671 162 11.2351 161.989 10.8003C161.989 10.4324 161.989 10.0632 161.984 9.69525C161.968 8.89003 161.884 8.08701 161.733 7.29285C161.586 6.49827 161.303 5.72814 160.895 5.00888C160.059 3.56537 158.734 2.39037 157.106 1.64913C156.292 1.28583 155.421 1.03224 154.522 0.896731C153.627 0.764471 152.722 0.693557 151.815 0.68462C151.402 0.678764 150.979 0.671732 150.567 0.669392C150.08 0.666992 149.586 0.666992 149.099 0.666992" fill="#A6A6A6"/>
<path d="M150.719 1.66699L151.958 1.68226C152.803 1.69116 153.645 1.75652 154.479 1.87779C155.268 1.99646 156.032 2.2185 156.746 2.53661C158.155 3.17979 159.3 4.19736 160.023 5.4467C160.377 6.07143 160.622 6.73996 160.749 7.42961C160.89 8.18 160.969 8.93851 160.985 9.69908C160.989 10.0396 160.989 10.4055 160.989 10.7695C161 11.2205 161 11.6497 161 12.0824V37.2503C161 37.6871 161 38.1134 160.989 38.5432C160.989 38.9343 160.989 39.2925 160.984 39.6612C160.968 40.4082 160.891 41.1532 160.752 41.8902C160.625 42.5889 160.378 43.2663 160.019 43.8984C159.662 44.5146 159.197 45.077 158.641 45.5648C158.087 46.0624 157.446 46.4776 156.743 46.7944C156.03 47.1143 155.267 47.3372 154.479 47.4556C153.641 47.577 152.793 47.6426 151.943 47.6517C151.546 47.6599 151.129 47.6646 150.725 47.6646L149.254 47.667L11.274 47.6646C10.8606 47.6646 10.4572 47.6599 10.047 47.6517C9.19731 47.6419 8.3496 47.5764 7.51083 47.4556C6.72871 47.3362 5.97105 47.1141 5.26284 46.7967C4.56112 46.4819 3.92109 46.0691 3.36728 45.5742C2.80546 45.0851 2.33771 44.5178 1.98258 43.8948C1.62354 43.2678 1.37506 42.5957 1.2458 41.902C1.10621 41.1565 1.03068 40.4028 1.01988 39.6472C1.01128 39.3936 1 38.5491 1 38.5491V10.7695C1 10.7695 1.01201 9.93806 1.01995 9.69378C1.03029 8.9394 1.10538 8.18681 1.24455 7.44252C1.37405 6.74687 1.62272 6.07284 1.98196 5.44376C2.33578 4.8212 2.80093 4.25347 3.35937 3.76259C3.91719 3.26709 4.55926 2.85221 5.26217 2.53308C5.96876 2.21667 6.72499 1.99617 7.50552 1.87897C8.34705 1.75699 9.19771 1.69104 10.0504 1.68168L11.2747 1.66699" fill="black"/>
<path d="M147.072 25.0278C147.085 24.0262 147.352 23.0441 147.848 22.173C148.344 21.3018 149.052 20.5699 149.908 20.0453C149.364 19.2711 148.647 18.634 147.814 18.1845C146.98 17.7351 146.053 17.4856 145.105 17.4561C143.084 17.2446 141.125 18.6619 140.096 18.6619C139.046 18.6619 137.461 17.4771 135.753 17.5121C134.649 17.5477 133.573 17.8679 132.63 18.4416C131.686 19.0153 130.908 19.8228 130.371 20.7856C128.043 24.8036 129.779 30.7089 132.009 33.9568C133.124 35.5472 134.428 37.3238 136.134 37.2608C137.803 37.1917 138.426 36.1994 140.441 36.1994C142.437 36.1994 143.022 37.2608 144.762 37.2207C146.553 37.1917 147.682 35.6232 148.758 34.0177C149.559 32.8845 150.176 31.632 150.585 30.3067C149.545 29.8679 148.657 29.1333 148.032 28.1945C147.407 27.2558 147.073 26.1544 147.072 25.0278Z" fill="white"/>
<path d="M143.785 15.3196C144.762 14.1505 145.243 12.6479 145.126 11.1309C143.634 11.2871 142.256 11.9982 141.266 13.1224C140.782 13.6716 140.412 14.3105 140.176 15.0026C139.94 15.6947 139.842 16.4265 139.89 17.156C140.636 17.1637 141.375 17.0024 142.049 16.6843C142.724 16.3662 143.317 15.8996 143.785 15.3196Z" fill="white"/>
<path d="M38.6956 33.2342H32.9996L31.6317 37.2619H29.2191L34.6143 22.3604H37.1209L42.5161 37.2619H40.0623L38.6956 33.2342ZM33.5896 31.3756H38.1046L35.8788 24.8389H35.8165L33.5896 31.3756Z" fill="white"/>
<path d="M54.1679 31.8307C54.1679 35.2069 52.3558 37.376 49.6212 37.376C48.9284 37.4121 48.2395 37.253 47.6332 36.9168C47.027 36.5807 46.5279 36.0811 46.1932 35.4752H46.1415V40.8564H43.9052V26.3979H46.0698V28.2049H46.1109C46.461 27.602 46.9685 27.1049 47.5794 26.7667C48.1903 26.4285 48.8817 26.2618 49.58 26.2842C52.3452 26.2842 54.1679 28.4639 54.1679 31.8307ZM51.8692 31.8307C51.8692 29.6311 50.7293 28.185 48.9901 28.185C47.2814 28.185 46.1321 29.6616 46.1321 31.8307C46.1321 34.0198 47.2814 35.4858 48.9901 35.4858C50.7293 35.4858 51.8693 34.0502 51.8693 31.8307H51.8692Z" fill="white"/>
<path d="M66.1593 31.8307C66.1593 35.2069 64.3472 37.376 61.6125 37.376C60.9198 37.4121 60.2309 37.253 59.6246 36.9168C59.0184 36.5807 58.5193 36.0811 58.1846 35.4752H58.1329V40.8564H55.8965V26.3979H58.0611V28.2049H58.1023C58.4524 27.602 58.9599 27.1049 59.5707 26.7667C60.1816 26.4285 60.873 26.2618 61.5713 26.2842C64.3366 26.2842 66.1593 28.4639 66.1593 31.8307ZM63.8606 31.8307C63.8606 29.6311 62.7207 28.185 60.9815 28.185C59.2728 28.185 58.1235 29.6616 58.1235 31.8307C58.1235 34.0198 59.2728 35.4858 60.9815 35.4858C62.7207 35.4858 63.8606 34.0502 63.8606 31.8307Z" fill="white"/>
<path d="M74.0846 33.1103C74.2503 34.5881 75.6899 35.5583 77.6571 35.5583C79.542 35.5583 80.8982 34.588 80.8982 33.2556C80.8982 32.0989 80.0803 31.4064 78.1436 30.9318L76.207 30.4666C73.463 29.8056 72.1891 28.526 72.1891 26.4494C72.1891 23.8783 74.436 22.1123 77.6265 22.1123C80.7842 22.1123 82.9489 23.8783 83.0217 26.4494H80.7642C80.6291 24.9623 79.3963 24.0646 77.5948 24.0646C75.7933 24.0646 74.5605 24.9729 74.5605 26.2947C74.5605 27.3482 75.3479 27.9682 77.274 28.4427L78.9204 28.8458C81.9864 29.5689 83.2603 30.797 83.2603 32.9767C83.2603 35.7646 81.0333 37.5107 77.4914 37.5107C74.1774 37.5107 71.9399 35.8056 71.7953 33.1103L74.0846 33.1103Z" fill="white"/>
<path d="M88.0867 23.8271V26.3982H90.1585V28.1642H88.0867V34.1537C88.0867 35.0841 88.5016 35.5177 89.4123 35.5177C89.6583 35.5135 89.9038 35.4962 90.148 35.4661V37.2216C89.7385 37.2979 89.3223 37.3324 88.9058 37.3247C86.7 37.3247 85.8398 36.4986 85.8398 34.3915V28.1642H84.2557V26.3982H85.8399V23.8271H88.0867Z" fill="white"/>
<path d="M91.3583 31.831C91.3583 28.4127 93.3772 26.2646 96.5255 26.2646C99.6843 26.2646 101.694 28.4126 101.694 31.831C101.694 35.2588 99.6949 37.3974 96.5255 37.3974C93.3572 37.3974 91.3583 35.2588 91.3583 31.831ZM99.4152 31.831C99.4152 29.4861 98.3376 28.1021 96.5255 28.1021C94.7134 28.1021 93.6369 29.4967 93.6369 31.831C93.6369 34.1853 94.7134 35.5588 96.5255 35.5588C98.3376 35.5588 99.4152 34.1853 99.4152 31.831H99.4152Z" fill="white"/>
<path d="M103.538 26.3978H105.671V28.247H105.722C105.867 27.6695 106.206 27.1591 106.683 26.8016C107.16 26.4441 107.747 26.2614 108.343 26.2841C108.601 26.2832 108.858 26.3111 109.109 26.3673V28.4533C108.784 28.3541 108.444 28.3086 108.104 28.3185C107.78 28.3053 107.456 28.3625 107.155 28.4859C106.854 28.6094 106.584 28.7963 106.363 29.0337C106.141 29.2712 105.974 29.5536 105.872 29.8616C105.771 30.1696 105.737 30.4959 105.774 30.8181V37.2622H103.538L103.538 26.3978Z" fill="white"/>
<path d="M119.42 34.0717C119.119 36.0439 117.193 37.3974 114.729 37.3974C111.559 37.3974 109.592 35.2798 109.592 31.8826C109.592 28.4748 111.57 26.2646 114.635 26.2646C117.649 26.2646 119.545 28.3295 119.545 31.6236V32.3877H111.85V32.5224C111.814 32.9223 111.864 33.3251 111.997 33.7041C112.13 34.0831 112.341 34.4296 112.619 34.7207C112.896 35.0117 113.232 35.2407 113.605 35.3922C113.977 35.5438 114.378 35.6145 114.781 35.5998C115.309 35.6491 115.839 35.5271 116.293 35.2518C116.746 34.9764 117.098 34.5625 117.297 34.0716L119.42 34.0717ZM111.86 30.8291H117.307C117.326 30.4865 117.278 30.1435 117.164 29.8197C117.05 29.4959 116.873 29.1976 116.644 28.9419C116.415 28.6862 116.137 28.478 115.827 28.3293C115.517 28.1805 115.18 28.0942 114.837 28.0751C114.769 28.0714 114.702 28.0702 114.635 28.0717C114.273 28.0695 113.914 28.1385 113.578 28.2748C113.243 28.411 112.937 28.6118 112.68 28.8656C112.422 29.1195 112.217 29.4215 112.077 29.7544C111.936 30.0872 111.862 30.4444 111.86 30.8056C111.86 30.8135 111.86 30.8213 111.86 30.8291Z" fill="white"/>
<path d="M82.7339 19.9669H81.9477C80.417 19.9669 78.8024 19.6534 78.8024 17.5412C78.905 16.5913 79.1232 15.6575 79.4522 14.7603L80.4693 15.0322L80.3224 15.5027C80.1048 16.1644 79.9608 16.848 79.8928 17.5411C79.8928 18.9942 81.2872 18.9942 82.2308 18.9942H82.8913C83.3631 18.9942 84.013 18.8062 84.013 18.2103V14.0806H85.1353V17.1755C85.377 17.2778 85.6378 17.3275 85.9003 17.3214H86.2881V18.2835H85.9003C85.6411 18.2817 85.3835 18.2431 85.1353 18.1687V18.3151C85.1353 18.8583 84.7158 19.9669 82.7339 19.9669ZM82.0946 12.9515C81.9627 12.9445 81.8357 12.8992 81.7293 12.8211C81.6229 12.743 81.5418 12.6356 81.4958 12.5121C81.4499 12.3886 81.4413 12.2544 81.4709 12.126C81.5006 11.9976 81.5672 11.8807 81.6627 11.7897C81.7582 11.6987 81.8783 11.6375 82.0082 11.6137C82.1381 11.5898 82.2722 11.6045 82.3939 11.6557C82.5156 11.707 82.6196 11.7926 82.693 11.9021C82.7665 12.0116 82.8062 12.1401 82.8073 12.2718C82.8121 12.4477 82.7467 12.6182 82.6254 12.746C82.5041 12.8737 82.3369 12.9482 82.1606 12.953C82.1386 12.9536 82.1166 12.9531 82.0946 12.9515V12.9515Z" fill="white"/>
<path d="M87.5546 17.3217C87.4254 16.8626 87.3652 16.3869 87.3759 15.9102C87.3428 15.5949 87.3774 15.2762 87.4773 14.9753C87.5771 14.6743 87.7401 14.398 87.9552 14.1647C88.1704 13.9313 88.4329 13.7463 88.7253 13.6218C89.0176 13.4974 89.3332 13.4364 89.6511 13.4429C91.14 13.4429 91.717 14.6557 91.717 16.0989C91.717 17.1653 91.3391 18.6079 89.882 18.6079C89.4015 18.5616 88.9291 18.4527 88.4771 18.2839H86.0968V17.3218L87.5546 17.3217ZM88.6868 17.3639C89.043 17.5142 89.4224 17.6026 89.8085 17.6253C90.4583 17.6253 90.637 16.7991 90.637 16.0673C90.637 15.3671 90.4378 14.3634 89.5882 14.3634C88.8232 14.3634 88.4876 15.0741 88.4876 15.9735C88.4734 16.445 88.5408 16.9153 88.6868 17.3639V17.3639Z" fill="white"/>
<path d="M99.1162 19.9668H98.3301C96.7988 19.9668 95.1841 19.6533 95.1841 17.541C95.2871 16.5912 95.5053 15.6575 95.834 14.7602L96.8516 15.032L96.7048 15.5025C96.487 16.1643 96.3427 16.8478 96.2747 17.541C96.2747 18.9941 97.6696 18.9941 98.6132 18.9941H99.2737C99.7449 18.9941 100.395 18.806 100.395 18.2101V11.2363H101.517V17.1754C101.759 17.2776 102.02 17.3273 102.282 17.3213H102.67V18.2834H102.282C102.023 18.2815 101.765 18.2428 101.517 18.1685V18.3149C101.517 18.8582 101.098 19.9668 99.1162 19.9668Z" fill="white"/>
<path d="M106.442 13.4951V16.433C106.442 17.6769 105.697 18.2834 104.219 18.2834H102.478V17.3213H104.178C105.068 17.3213 105.309 16.9346 105.309 16.276V13.4951H106.442ZM103.632 20.6254C103.5 20.6183 103.374 20.5729 103.267 20.4947C103.161 20.4166 103.08 20.3091 103.034 20.1856C102.988 20.0621 102.98 19.9279 103.009 19.7995C103.039 19.6712 103.106 19.5543 103.201 19.4633C103.297 19.3724 103.417 19.3112 103.547 19.2874C103.677 19.2637 103.811 19.2783 103.932 19.3296C104.054 19.3809 104.158 19.4665 104.231 19.576C104.305 19.6855 104.345 19.814 104.346 19.9457C104.348 20.0383 104.331 20.1305 104.296 20.2162C104.26 20.3019 104.207 20.3793 104.14 20.4434C104.073 20.5074 103.993 20.5567 103.906 20.588C103.818 20.6194 103.725 20.6321 103.632 20.6254H103.632ZM105.394 20.6254C105.262 20.6185 105.135 20.5733 105.028 20.4952C104.922 20.4172 104.841 20.3098 104.795 20.1863C104.749 20.0628 104.74 19.9286 104.77 19.8002C104.799 19.6718 104.866 19.5548 104.961 19.4637C105.057 19.3726 105.177 19.3114 105.307 19.2875C105.437 19.2637 105.571 19.2783 105.692 19.3295C105.814 19.3808 105.918 19.4664 105.992 19.5759C106.065 19.6854 106.105 19.8139 106.106 19.9457C106.111 20.1215 106.045 20.2921 105.924 20.4198C105.803 20.5476 105.636 20.622 105.459 20.6268C105.437 20.6274 105.416 20.6269 105.394 20.6254H105.394Z" fill="white"/>
<path d="M107.279 19.8523C107.439 19.8718 107.6 19.8822 107.761 19.8833C108.684 19.8833 109.145 19.3501 109.145 18.2732V14.0703H110.278V17.3216H111.316V18.2837H110.267C110.28 18.9965 110.021 19.6876 109.544 20.2179C109.034 20.6431 108.383 20.8631 107.72 20.8349C107.481 20.8311 107.243 20.8137 107.006 20.7828L107.279 19.8523ZM109.659 13.056C109.527 13.0489 109.4 13.0035 109.294 12.9254C109.187 12.8472 109.106 12.7398 109.06 12.6162C109.014 12.4927 109.006 12.3585 109.036 12.2302C109.065 12.1019 109.132 11.985 109.228 11.894C109.323 11.803 109.443 11.7419 109.573 11.7181C109.703 11.6943 109.837 11.709 109.959 11.7603C110.08 11.8115 110.184 11.8972 110.258 12.0067C110.331 12.1161 110.371 12.2446 110.372 12.3763C110.375 12.469 110.358 12.5612 110.322 12.647C110.287 12.7327 110.234 12.8101 110.167 12.8742C110.1 12.9382 110.02 12.9875 109.932 13.0188C109.845 13.0502 109.751 13.0628 109.659 13.056Z" fill="white"/>
<path d="M115.036 18.2837C114.584 18.2697 114.142 18.1478 113.747 17.9281C113.204 18.2178 112.588 18.3415 111.975 18.2837H111.125V17.3216H112.038C112.898 17.3216 113.066 17.1857 113.066 16.5587V13.4955H114.188V17.1335C114.452 17.2604 114.743 17.3248 115.036 17.3216H115.739V18.2837L115.036 18.2837ZM113.579 12.4496C113.447 12.4425 113.32 12.3971 113.214 12.3189C113.108 12.2408 113.027 12.1333 112.981 12.0098C112.935 11.8863 112.926 11.7521 112.956 11.6237C112.986 11.4954 113.052 11.3785 113.148 11.2876C113.243 11.1966 113.363 11.1354 113.493 11.1117C113.623 11.0879 113.757 11.1026 113.879 11.1538C114.001 11.2051 114.105 11.2907 114.178 11.4002C114.252 11.5097 114.291 11.6382 114.292 11.7699C114.295 11.8626 114.278 11.9548 114.243 12.0405C114.207 12.1263 114.154 12.2037 114.087 12.2677C114.02 12.3318 113.94 12.3811 113.852 12.4124C113.765 12.4437 113.672 12.4564 113.579 12.4496Z" fill="white"/>
<path d="M118.422 13.4955V16.4334C118.422 17.6773 117.678 18.2837 116.2 18.2837H115.549V17.3216H116.157C117.048 17.3216 117.289 16.9349 117.289 16.2763V13.4955H118.422ZM116.754 12.4496C116.622 12.4425 116.495 12.3971 116.389 12.3189C116.283 12.2408 116.202 12.1333 116.156 12.0098C116.11 11.8863 116.102 11.7521 116.131 11.6237C116.161 11.4954 116.228 11.3785 116.323 11.2876C116.419 11.1966 116.539 11.1354 116.669 11.1117C116.799 11.0879 116.933 11.1026 117.054 11.1538C117.176 11.2051 117.28 11.2907 117.353 11.4002C117.427 11.5097 117.467 11.6382 117.468 11.7699C117.47 11.8626 117.453 11.9548 117.418 12.0405C117.383 12.1263 117.33 12.2037 117.262 12.2677C117.195 12.3318 117.115 12.3811 117.028 12.4124C116.94 12.4437 116.847 12.4564 116.754 12.4496ZM118.516 12.4496C118.384 12.4425 118.257 12.3971 118.151 12.3189C118.044 12.2408 117.963 12.1333 117.918 12.0098C117.872 11.8863 117.863 11.7521 117.893 11.6237C117.923 11.4954 117.989 11.3785 118.085 11.2876C118.18 11.1966 118.3 11.1354 118.43 11.1117C118.56 11.0879 118.694 11.1026 118.816 11.1538C118.937 11.2051 119.041 11.2907 119.115 11.4002C119.188 11.5097 119.228 11.6382 119.229 11.7699C119.232 11.8626 119.215 11.9548 119.179 12.0405C119.144 12.1263 119.091 12.2037 119.024 12.2677C118.957 12.3318 118.877 12.3811 118.789 12.4124C118.702 12.4437 118.609 12.4564 118.516 12.4496Z" fill="white"/>
</g>
<defs>
<clipPath id="clip0_2218_1976">
<rect width="162" height="48" fill="white" transform="translate(0 0.666992)"/>
</clipPath>
</defs>
</svg>
