<svg width="37" height="27" viewBox="0 0 37 27" fill="none" xmlns="http://www.w3.org/2000/svg">
<g clip-path="url(#clip0_3562_38472)">
<path d="M32.768 15.983H30.3914L30.4287 17.6436L32.3699 17.6166C33.1413 17.6031 33.6267 17.5627 33.6267 18.2916V18.4132C31.2873 18.4807 29.5576 19.1557 29.5576 20.9647C29.5576 22.4498 30.6776 23.1519 32.7556 23.1519C33.9875 23.1519 35.0204 22.9493 35.6052 22.6253V18.4537C35.6301 16.5366 34.3857 15.983 32.768 15.983ZM33.6391 21.4643C33.4525 21.5587 33.1788 21.6262 32.88 21.6262C32.0588 21.6262 31.586 21.4508 31.586 20.9242C31.586 19.7767 32.3823 19.9252 33.6516 19.8172V21.4643H33.6391Z" fill="white"/>
<path d="M25.4517 16.3881V23.0844H27.6292V17.7382C27.9278 17.6031 28.8363 17.5896 29.4335 17.6571V15.9831C27.6043 15.9155 26.1982 16.0236 25.4517 16.3881Z" fill="white"/>
<path d="M12.7718 20.2761C12.7718 17.4546 12.2243 15.8616 9.53647 15.8616C7.48331 15.8616 6.15186 17.306 6.15186 19.5201C6.15186 22.2202 7.5953 23.0708 9.8849 23.0843H12.1247L12.0874 21.4507H10.0093C9.2254 21.4507 8.39169 21.3697 8.46634 20.2761H12.7718ZM8.41656 18.5886C8.41656 17.9541 8.66543 17.306 9.61114 17.306C10.5071 17.306 10.7684 17.6571 10.7684 18.5886H8.41656Z" fill="white"/>
<path d="M23.2368 14.4711H21.0591V21.1403C21.0591 22.2203 21.8182 23.1923 23.3114 23.1923C23.7967 23.1923 24.17 23.0709 24.3442 22.9898V21.5452C24.17 21.5992 24.0704 21.6128 23.8962 21.6128C23.4234 21.6128 23.2243 21.3293 23.2243 20.7893V17.6436H24.705V15.9966H23.2368V14.4711Z" fill="white"/>
<path d="M29.6699 3.84619H31.7977V13.283H29.6699V3.84619Z" fill="white"/>
<path d="M0.216309 3.84619H2.3068V13.283H0.216309V3.84619Z" fill="white"/>
<path d="M7.45837 6.19536C8.00589 6.19536 8.4663 5.64183 8.4663 5.12882C8.4663 4.58879 8.00589 4.03528 7.45837 4.03528C6.88597 4.03528 6.45045 4.58879 6.45045 5.11531C6.43801 5.64183 6.88597 6.19536 7.45837 6.19536Z" fill="white"/>
<path d="M9.66052 6.19536C10.2205 6.19536 10.6684 5.64183 10.6684 5.12882C10.6684 4.58879 10.2205 4.03528 9.66052 4.03528C9.10055 4.03528 8.66504 4.58879 8.66504 5.11531C8.66504 5.64183 9.10055 6.19536 9.66052 6.19536Z" fill="white"/>
<path d="M28.6496 10.4615V9.85394C28.6496 8.13938 27.6416 7.09985 25.8125 7.09985C25.7876 7.09985 25.7005 7.11335 25.6631 7.11335L24.6178 8.7739H25.6134C26.2604 8.7739 26.5217 9.19243 26.5217 9.70544V10.448C26.5217 10.9745 26.2728 11.3795 25.6134 11.3795H21.1461V7.38336H18.981V11.3795H17.6371V7.38336H15.4969V11.3795H14.128V7.38336H12.0002V11.3795H9.7106V7.38336H7.55788V11.3795H5.99001V7.38336H3.8995V12.635C3.8995 14.0526 3.57597 14.5387 2.8667 14.7816V16.1452C4.34747 16.0777 5.61671 15.0516 5.91534 13.2966H25.8125C27.6416 13.2831 28.6496 12.176 28.6496 10.4615Z" fill="white"/>
<path d="M10.3325 26.6214H12.871L16.3053 21.3022L17.5497 23.0844H20.2376L17.6244 19.3042L20.8721 14.4305H18.3835L16.4173 17.3736L15.509 15.9831H12.9083L15.086 19.3717L10.3325 26.6214Z" fill="white"/>
<path d="M27.654 0.160522L22.0669 8.77382H24.6053L30.1427 0.160522H27.654Z" fill="white"/>
</g>
<defs>
<clipPath id="clip0_3562_38472">
<rect width="36.083" height="26.5438" fill="white" transform="translate(0.0380859 0.160645)"/>
</clipPath>
</defs>
</svg>
