<svg width="162" height="49" viewBox="0 0 162 49" fill="none" xmlns="http://www.w3.org/2000/svg">
<g clip-path="url(#clip0_2218_2002)">
<g clip-path="url(#clip1_2218_2002)">
<path d="M155.704 48.4268H6.04038C2.74778 48.4268 0.053833 45.7403 0.053833 42.4568V6.63676C0.053833 3.35326 2.74778 0.666756 6.04038 0.666756H155.704C158.997 0.666756 161.691 3.35326 161.691 6.63676V42.4568C161.691 45.7403 158.997 48.4268 155.704 48.4268Z" fill="#100F0D"/>
<path d="M155.704 0.666756H6.04038C2.74778 0.666756 0.053833 3.35326 0.053833 6.63676V42.4568C0.053833 45.7403 2.74778 48.4268 6.04038 48.4268H155.704C158.997 48.4268 161.691 45.7403 161.691 42.4568V6.63676C161.691 3.35326 158.997 0.666756 155.704 0.666756ZM155.704 1.62148C158.477 1.62148 160.733 3.87145 160.733 6.63676V42.4568C160.733 45.2221 158.477 47.472 155.704 47.472H6.04038C3.26739 47.472 1.01215 45.2221 1.01215 42.4568V6.63676C1.01215 3.87145 3.26739 1.62148 6.04038 1.62148H155.704Z" fill="#A2A2A1"/>
<path d="M24.8587 23.8594L12.1115 37.3516C12.112 37.3544 12.1129 37.3567 12.1134 37.3595C12.5043 38.8245 13.8462 39.9033 15.4387 39.9033C16.0753 39.9033 16.673 39.7317 17.1856 39.4304L17.2263 39.4066L31.5749 31.1498L24.8587 23.8594Z" fill="#EB3131"/>
<path d="M37.7551 21.5619L37.7429 21.5536L31.5483 17.9724L24.5693 24.1654L31.5726 31.1484L37.7345 27.6029C38.8149 27.0213 39.5482 25.8855 39.5482 24.5758C39.5482 23.2756 38.8247 22.1454 37.7551 21.5619Z" fill="#F6B60B"/>
<path d="M12.111 11.7439C12.0344 12.0257 11.9941 12.3209 11.9941 12.6274V36.4687C11.9941 36.7746 12.0339 37.0708 12.1115 37.3516L25.2974 24.2045L12.111 11.7439Z" fill="#5778C5"/>
<path d="M24.9527 24.5479L31.5506 17.9701L17.2183 9.68351C16.6974 9.37235 16.0894 9.19277 15.4388 9.19277C13.8462 9.19277 12.5026 10.2735 12.1116 11.7403C12.1111 11.7417 12.1111 11.7427 12.1111 11.744L24.9527 24.5479Z" fill="#3BAD49"/>
</g>
<path d="M128.278 36.6075H130.512V21.6807H128.278V36.6075ZM148.402 27.0577L145.841 33.5292H145.764L143.106 27.0577H140.699L144.685 36.1028L142.413 41.1341H144.744L150.886 27.0577H148.402ZM135.732 34.9121C134.999 34.9121 133.979 34.5473 133.979 33.6444C133.979 32.4923 135.25 32.0506 136.347 32.0506C137.33 32.0506 137.791 32.2618 138.388 32.5502C138.215 33.9326 137.021 34.9121 135.732 34.9121ZM136.001 26.7311C134.383 26.7311 132.708 27.4419 132.015 29.0166L133.998 29.8421C134.422 29.0166 135.211 28.7474 136.039 28.7474C137.195 28.7474 138.369 29.4391 138.388 30.6682V30.8216C137.984 30.5911 137.118 30.2456 136.058 30.2456C133.921 30.2456 131.744 31.4167 131.744 33.6061C131.744 35.6033 133.497 36.8901 135.461 36.8901C136.964 36.8901 137.791 36.218 138.312 35.4308H138.388V36.5828H140.545V30.8598C140.545 28.2101 138.562 26.7311 136.001 26.7311ZM122.193 28.8747H119.016V23.7582H122.193C123.864 23.7582 124.812 25.1373 124.812 26.3164C124.812 27.4732 123.864 28.8747 122.193 28.8747ZM122.136 21.6807H116.782V36.6075H119.016V30.9522H122.136C124.612 30.9522 127.046 29.1644 127.046 26.3164C127.046 23.4685 124.612 21.6807 122.136 21.6807ZM92.9435 34.9148C91.4 34.9148 90.1077 33.6261 90.1077 31.8561C90.1077 30.0674 91.4 28.7591 92.9435 28.7591C94.4673 28.7591 95.6632 30.0674 95.6632 31.8561C95.6632 33.6261 94.4673 34.9148 92.9435 34.9148ZM95.5089 27.8935H95.4317C94.9303 27.2973 93.9654 26.7587 92.7503 26.7587C90.2041 26.7587 87.8702 28.99 87.8702 31.8561C87.8702 34.7031 90.2041 36.9153 92.7503 36.9153C93.9654 36.9153 94.9303 36.3766 95.4317 35.7614H95.5089V36.4923C95.5089 38.4354 94.4673 39.4741 92.7891 39.4741C91.4196 39.4741 90.5708 38.4928 90.2232 37.6658L88.2753 38.4737C88.8347 39.8202 90.3201 41.4746 92.7891 41.4746C95.4125 41.4746 97.6308 39.9354 97.6308 36.1845V27.0665H95.5089V27.8935ZM99.1738 36.6075H101.411V21.6802H99.1738V36.6075ZM104.71 31.6831C104.652 29.7208 106.234 28.7208 107.372 28.7208C108.26 28.7208 109.012 29.163 109.262 29.7983L104.71 31.6831ZM111.654 29.9904C111.23 28.8551 109.937 26.7587 107.295 26.7587C104.671 26.7587 102.492 28.8169 102.492 31.837C102.492 34.684 104.652 36.9153 107.545 36.9153C109.88 36.9153 111.23 35.4918 111.79 34.6648L110.053 33.5104C109.475 34.357 108.684 34.9148 107.545 34.9148C106.407 34.9148 105.597 34.3953 105.076 33.3761L111.885 30.5674L111.654 29.9904ZM57.405 28.3169V30.4713H62.5745C62.4202 31.6831 62.0151 32.5679 61.3978 33.1835C60.6457 33.934 59.469 34.7609 57.405 34.7609C54.2221 34.7609 51.7339 32.2026 51.7339 29.0286C51.7339 25.8547 54.2221 23.296 57.405 23.296C59.1219 23.296 60.3754 23.9694 61.3014 24.8351L62.8252 23.3156C61.5329 22.0842 59.816 21.1416 57.405 21.1416C53.0454 21.1416 49.3804 24.6812 49.3804 29.0286C49.3804 33.3761 53.0454 36.9153 57.405 36.9153C59.7585 36.9153 61.5329 36.1463 62.9216 34.7031C64.3491 33.2796 64.7929 31.2791 64.7929 29.6635C64.7929 29.163 64.7545 28.7017 64.6769 28.3169H57.405ZM70.6702 34.9148C69.1267 34.9148 67.7956 33.6452 67.7956 31.837C67.7956 30.0095 69.1267 28.7591 70.6702 28.7591C72.2131 28.7591 73.5442 30.0095 73.5442 31.837C73.5442 33.6452 72.2131 34.9148 70.6702 34.9148ZM70.6702 26.7587C67.8536 26.7587 65.558 28.8938 65.558 31.837C65.558 34.7609 67.8536 36.9153 70.6702 36.9153C73.4862 36.9153 75.7818 34.7609 75.7818 31.837C75.7818 28.8938 73.4862 26.7587 70.6702 26.7587ZM81.8213 34.9148C80.2784 34.9148 78.9472 33.6452 78.9472 31.837C78.9472 30.0095 80.2784 28.7591 81.8213 28.7591C83.3643 28.7591 84.6954 30.0095 84.6954 31.837C84.6954 33.6452 83.3643 34.9148 81.8213 34.9148ZM81.8213 26.7587C79.0048 26.7587 76.7097 28.8938 76.7097 31.837C76.7097 34.7609 79.0048 36.9153 81.8213 36.9153C84.6374 36.9153 86.9329 34.7609 86.9329 31.837C86.9329 28.8938 84.6374 26.7587 81.8213 26.7587Z" fill="white"/>
<path d="M85.613 10.9296C85.4073 11.2249 85.1243 11.5452 84.7642 11.8919C84.3737 11.5841 84.0579 11.2995 83.818 11.0387C84.2684 10.59 84.5747 10.2692 84.7385 10.0771C85.0168 10.3807 85.3081 10.6647 85.613 10.9296ZM84.5645 18.1064C83.8133 18.1064 83.2286 17.8919 82.8083 17.4613C82.3882 17.0323 82.1777 16.4236 82.1777 15.6372C82.1777 15.3849 82.1941 15.147 82.2268 14.9217C82.2587 14.6978 82.3288 14.37 82.4349 13.9376L82.9182 14.0532C82.8186 14.438 82.7693 14.7496 82.7693 14.9893C82.7693 15.6306 82.9307 16.1297 83.2526 16.4865C83.5738 16.8438 84.0214 17.0225 84.5958 17.0225C85.2482 17.0225 85.8969 16.8643 86.5453 16.5481C87.193 16.2315 87.6256 15.8424 87.844 15.3807C87.2697 14.1278 86.9825 13.292 86.9825 12.8732C86.9825 12.646 87.0466 12.4408 87.1752 12.2575C87.3038 12.0737 87.5274 11.8877 87.844 11.6993C87.8823 12.0076 87.9829 12.5743 88.1458 13.3989L88.1527 13.4502C88.4441 13.5952 88.7631 13.6685 89.1115 13.6685L89.22 13.7776V14.5598L89.1115 14.669C88.8146 14.669 88.5494 14.6152 88.3141 14.5085L88.3328 14.8867C88.3328 15.4255 88.1612 15.9408 87.8183 16.4324C87.476 16.924 87.0054 17.3261 86.4106 17.6381C85.8142 17.9501 85.1991 18.1064 84.5645 18.1064Z" fill="white"/>
<path d="M85.6132 10.9293L85.515 10.8613C85.3153 11.1476 85.0375 11.4634 84.6811 11.8058L84.7644 11.8916L84.8388 11.7979C84.4514 11.4928 84.1405 11.212 83.9065 10.9578L83.8181 11.0385L83.9028 11.1229C84.3547 10.6729 84.6614 10.3519 84.8298 10.1537L84.7387 10.0768L84.6502 10.1569C84.9318 10.4644 85.226 10.7512 85.5346 11.0194L85.6132 10.9293L85.515 10.8613L85.6132 10.9293L85.6919 10.8393C85.3901 10.5772 85.1025 10.2964 84.827 9.99609L84.7353 9.89627L84.6474 9.99931C84.4884 10.1864 84.1825 10.5063 83.7335 10.9541L83.6525 11.0353L83.7303 11.1192C83.9758 11.3864 84.2961 11.6747 84.6899 11.9853L84.7723 12.0497L84.8476 11.9775C85.2115 11.6271 85.4996 11.3015 85.7115 10.9979L85.7727 10.9098L85.6919 10.8393L85.6132 10.9293ZM84.5647 18.1062V17.9868C83.8355 17.9858 83.2892 17.781 82.8939 17.3776C82.5011 16.976 82.2981 16.4033 82.2976 15.6369C82.2976 15.3898 82.3136 15.1574 82.3453 14.9387L82.3458 14.9364L82.3453 14.9382C82.3757 14.7223 82.4454 14.3957 82.5511 13.9658L82.4351 13.9373L82.4071 14.0534L82.8902 14.1691L82.9183 14.0529L82.8023 14.0231C82.7013 14.414 82.6498 14.7335 82.6498 14.989C82.6493 15.6495 82.8173 16.1821 83.1633 16.566C83.5085 16.9518 83.9982 17.143 84.5959 17.1416C85.2681 17.1416 85.936 16.9783 86.5978 16.6546C87.2605 16.3309 87.7179 15.9256 87.9523 15.4312L87.9761 15.3813L87.9532 15.3309C87.3802 14.0861 87.0987 13.2452 87.1024 12.873C87.1029 12.6687 87.1586 12.4904 87.2737 12.3254C87.3863 12.1635 87.5968 11.9844 87.9055 11.8016L87.8442 11.699L87.7254 11.7139C87.7647 12.0282 87.8657 12.5954 88.0285 13.4219L88.1459 13.3986L88.0271 13.415L88.0341 13.4662L88.043 13.5287L88.0991 13.5567C88.4073 13.7106 88.7464 13.7876 89.1117 13.7876V13.6682L89.0266 13.7522L89.1004 13.8263V14.51L89.0266 14.5843L89.1117 14.6687V14.5493C88.8292 14.5493 88.5818 14.4984 88.3638 14.3996L88.1852 14.3184L88.2132 14.8926L88.3329 14.8865H88.2132C88.2127 15.3996 88.051 15.8887 87.7203 16.3641C87.3896 16.8384 86.9354 17.2279 86.3551 17.532C85.7741 17.8356 85.1796 17.9863 84.5647 17.9868V18.1062V18.2256C85.2189 18.2256 85.8546 18.0637 86.4663 17.7438C87.0757 17.4243 87.5622 17.0091 87.9167 16.5002C88.2713 15.9924 88.4532 15.4508 88.4527 14.8865V14.8836L88.434 14.5021L88.3143 14.5082L88.2647 14.6169C88.5167 14.7316 88.8003 14.7881 89.1117 14.7881H89.1613L89.3053 14.644L89.3399 14.609V13.7773V13.7279L89.1963 13.5838L89.1613 13.5488H89.1117C88.7801 13.5488 88.4808 13.4798 88.2063 13.3431L88.1529 13.4499L88.2716 13.4341L88.2647 13.3827L88.2642 13.379L88.2633 13.3757C88.101 12.552 88.0009 11.9858 87.963 11.6844L87.9401 11.5031L87.7829 11.5963C87.4579 11.7904 87.2217 11.9834 87.0772 12.1887C86.9349 12.3911 86.8625 12.6234 86.863 12.873C86.8662 13.3389 87.1599 14.1691 87.7352 15.4299L87.8442 15.3804L87.7362 15.3296C87.5328 15.7587 87.1253 16.1309 86.4925 16.4405C85.8588 16.7498 85.2287 16.9028 84.5959 16.9028C84.0455 16.9014 83.6395 16.7358 83.3416 16.4065C83.0445 16.0772 82.8897 15.6117 82.8892 14.989C82.8892 14.7656 82.9361 14.4615 83.0338 14.0828L83.0642 13.9648L82.4632 13.8212L82.3472 13.7936L82.3187 13.9088C82.212 14.3431 82.1409 14.6733 82.1087 14.9051V14.9042C82.0751 15.1356 82.0582 15.3795 82.0582 15.6369C82.0572 16.4434 82.2756 17.0884 82.7223 17.5446C83.1685 18.0017 83.7919 18.2264 84.5647 18.2256V18.1062Z" fill="white"/>
<path d="M93.5983 13.6685C93.5804 13.1255 93.4776 12.6059 93.2896 12.1097C93.101 11.6139 92.914 11.3661 92.7307 11.3661C92.5619 11.3661 92.4066 11.4152 92.2606 11.5136C92.1142 11.612 91.9692 11.7636 91.8234 11.9688C91.6769 12.174 91.4804 12.5202 91.2311 13.0079C91.8485 13.3452 92.638 13.5658 93.5983 13.6685ZM89.1738 14.6689L89.0638 14.5598V13.7776L89.1738 13.6685C89.5082 13.6685 89.7897 13.5878 90.0188 13.4282C90.248 13.2673 90.4468 13.0229 90.6143 12.6937L90.8785 12.1675C91.2162 11.4492 91.5474 10.9427 91.871 10.6479C92.1946 10.3526 92.5506 10.2053 92.936 10.2053C93.1937 10.2053 93.4496 10.3615 93.7044 10.6736C93.9593 10.9851 94.1651 11.3876 94.3218 11.8787C94.4785 12.3704 94.5571 12.8452 94.5571 13.3027C94.5571 13.5719 94.5066 13.8172 94.4083 14.0369C94.3101 14.257 94.1361 14.4674 93.8883 14.6689C93.3598 14.6689 92.7994 14.5956 92.2054 14.4506C91.6114 14.3056 91.1156 14.1172 90.7166 13.8863C90.5114 14.1642 90.2869 14.3644 90.0414 14.4855C89.7981 14.6083 89.5082 14.6689 89.1738 14.6689Z" fill="white"/>
<path d="M93.5981 13.6682L93.7174 13.6644C93.6995 13.1089 93.5944 12.5758 93.4011 12.0674C93.2024 11.5684 93.0321 11.2684 92.7305 11.2465C92.5382 11.2461 92.3563 11.3034 92.193 11.4145C92.0303 11.5246 91.8769 11.6864 91.7253 11.8995C91.5724 12.1145 91.375 12.4634 91.1244 12.9531L91.0719 13.0567L91.1735 13.1121C91.8095 13.4597 92.614 13.6831 93.5849 13.7867L93.722 13.8016L93.7174 13.6644L93.5981 13.6682L93.6107 13.5493C92.6616 13.448 91.8877 13.2302 91.289 12.9028L91.2309 13.0077L91.3381 13.0619C91.5855 12.5767 91.7815 12.233 91.9204 12.0375C92.0612 11.8398 92.1977 11.699 92.3272 11.6122C92.4564 11.5254 92.5855 11.4853 92.7305 11.4853C92.7955 11.463 92.9994 11.6584 93.1771 12.1518C93.3604 12.6355 93.461 13.1416 93.4784 13.6719L93.5981 13.6682L93.6107 13.5493L93.5981 13.6682ZM89.1736 14.6687L89.2577 14.5838L89.1834 14.51V13.8268L89.2577 13.7526L89.1736 13.6682V13.7876C89.5267 13.7876 89.8353 13.7013 90.0874 13.5259V13.5254C90.3371 13.3501 90.5471 13.0889 90.7208 12.747L90.985 12.2209L90.9859 12.2195L90.9863 12.2181C91.3203 11.5073 91.6473 11.012 91.9517 10.7353C92.259 10.4569 92.5813 10.3249 92.9358 10.3244C93.1406 10.3235 93.367 10.4499 93.6111 10.7484C93.8543 11.046 94.054 11.4341 94.2075 11.9149C94.3609 12.3962 94.4367 12.8584 94.4372 13.3025C94.4367 13.5572 94.3894 13.7843 94.2987 13.9881C94.2108 14.1859 94.0499 14.3832 93.8123 14.5758L93.8881 14.6687V14.5493C93.3702 14.5493 92.8198 14.4779 92.2337 14.3347C91.6482 14.1915 91.1627 14.0064 90.7768 13.783L90.6842 13.7292L90.6207 13.8151C90.4227 14.0823 90.2122 14.2675 89.9877 14.3785L89.9869 14.379C89.7637 14.4909 89.4935 14.5493 89.1736 14.5493V14.6687L89.2577 14.5838L89.1736 14.6687V14.7881C89.522 14.7881 89.8316 14.7246 90.0949 14.5921L90.094 14.5926C90.3606 14.4606 90.5991 14.2461 90.8133 13.9569L90.7164 13.886L90.6566 13.9895C91.0682 14.2274 91.5742 14.4191 92.1767 14.5665C92.7786 14.7135 93.3483 14.7881 93.8881 14.7881H93.9301L93.9634 14.761C94.2216 14.5515 94.4091 14.3277 94.5175 14.0852C94.6233 13.8491 94.6767 13.5865 94.6767 13.3025C94.6767 12.8314 94.5957 12.3445 94.4358 11.8427C94.2758 11.3403 94.0639 10.9242 93.7973 10.5978C93.5316 10.2721 93.2454 10.0866 92.9358 10.0856C92.5186 10.0847 92.1304 10.2479 91.7899 10.5595C91.4466 10.873 91.1117 11.3906 90.7699 12.1169L90.8783 12.1672L90.7712 12.1136L90.5069 12.6397V12.6393C90.3461 12.9564 90.1585 13.1835 89.9499 13.3301C89.7436 13.4737 89.4887 13.5483 89.1736 13.5488H89.124L88.979 13.6924L88.9439 13.7274V14.5595V14.609L89.0889 14.7531L89.124 14.7881H89.1736V14.6687Z" fill="white"/>
<path d="M99.6172 12.3345C99.9695 12.6335 100.36 12.8322 100.789 12.9306C101.217 13.0294 101.691 13.0826 102.21 13.091L101.87 10.9749L101.862 10.9492C100.813 11.3084 100.064 11.7701 99.6172 12.3345ZM101.752 14.1559C101.273 14.1129 100.943 14.0715 100.764 14.0309C100.584 13.9903 100.395 13.9325 100.2 13.8574C100.005 13.7827 99.8048 13.6876 99.599 13.5719C99.3927 13.4566 99.2374 13.3452 99.1323 13.2384L98.9741 12.9436C98.9741 12.8285 99.034 12.6293 99.1523 12.347C99.2702 12.0649 99.367 11.8574 99.4447 11.7248C99.5775 11.4814 99.8675 11.2006 100.315 10.8816C100.764 10.563 101.238 10.3037 101.741 10.1026L101.695 9.74357C101.999 9.47026 102.319 9.24077 102.653 9.05748L102.776 13.3218C103.174 13.5528 103.631 13.6685 104.145 13.6685L104.255 13.7776V14.5598L104.145 14.6689C103.614 14.6689 103.183 14.5696 102.853 14.3704C102.523 14.1721 102.333 13.8904 102.281 13.5271L102.235 13.2515L101.752 14.1559Z" fill="white"/>
<path d="M99.6174 12.3342L99.5403 12.4252C99.9051 12.7353 100.314 12.9443 100.762 13.047C101.2 13.1476 101.682 13.2013 102.208 13.2102L102.351 13.2124L101.987 10.9489L101.978 10.9173L101.945 10.7945L101.824 10.8356C100.761 11.1999 99.9915 11.6695 99.5234 12.2601L99.4523 12.3506L99.5403 12.4252L99.6174 12.3342L99.7114 12.4079C100.137 11.8701 100.864 11.4163 101.902 11.0619L101.862 10.9489L101.747 10.9802L101.752 10.9998L102.092 13.1099L102.21 13.0908L102.212 12.9714C101.7 12.9629 101.234 12.9102 100.816 12.8141C100.406 12.7199 100.034 12.531 99.6956 12.2433L99.6174 12.3342L99.7114 12.4079L99.6174 12.3342ZM101.752 14.1556L101.763 14.0367C101.287 13.9942 100.958 13.9523 100.789 13.9139C100.616 13.8748 100.434 13.8188 100.243 13.7456H100.243C100.054 13.6733 99.8592 13.5809 99.6576 13.4676C99.4579 13.3561 99.3106 13.2493 99.2175 13.1547L99.1325 13.2381L99.2381 13.1821L99.08 12.8874L98.9743 12.9433H99.094C99.0922 12.8655 99.146 12.6682 99.2628 12.393C99.3798 12.1131 99.4762 11.9083 99.5482 11.7847L99.5487 11.7838L99.5496 11.782C99.6656 11.567 99.9444 11.2913 100.385 10.9783C100.825 10.6653 101.292 10.4107 101.786 10.2129L101.871 10.1789L101.814 9.72838L101.695 9.74331L101.775 9.83191C102.073 9.56421 102.385 9.34032 102.711 9.1617L102.653 9.05722L102.534 9.06044L102.658 13.3916L102.716 13.4252C103.134 13.6672 103.613 13.7876 104.145 13.7876V13.6682L104.061 13.7526L104.136 13.8268V14.51L104.061 14.5838L104.145 14.6687V14.5493C103.628 14.5493 103.22 14.4522 102.915 14.268L102.915 14.2675C102.611 14.0833 102.448 13.8407 102.4 13.51V13.5087L102.354 13.2316L102.296 12.8836L101.647 14.0991L101.752 14.1556L101.763 14.0367L101.752 14.1556L101.858 14.2115L102.341 13.3071L102.236 13.2512L102.117 13.2708L102.163 13.5464L102.281 13.5268L102.163 13.5437C102.217 13.9396 102.435 14.2606 102.791 14.4723H102.791C103.146 14.6864 103.6 14.7881 104.145 14.7881H104.194L104.339 14.6443L104.375 14.609V13.7773V13.7274L104.23 13.5833L104.194 13.5488H104.145C103.648 13.5483 103.215 13.4378 102.836 13.2185L102.776 13.3216L102.896 13.3184L102.767 8.85806L102.595 8.95226C102.252 9.14068 101.926 9.37531 101.616 9.65459L101.569 9.69615L101.622 10.1173L101.741 10.1024L101.696 9.99143C101.185 10.1962 100.702 10.4602 100.246 10.7838C99.7914 11.1089 99.4902 11.3949 99.3396 11.6677L99.4448 11.7246L99.341 11.6649C99.2587 11.8062 99.161 12.0161 99.0417 12.301C98.9224 12.5902 98.8569 12.7904 98.8546 12.9433V12.9732L99.0267 13.2946L99.0346 13.31L99.0473 13.3221C99.1642 13.441 99.3283 13.5567 99.5403 13.6761C99.7503 13.7936 99.9556 13.8916 100.157 13.9685H100.157C100.357 14.0455 100.55 14.1047 100.737 14.1471C100.929 14.1901 101.26 14.2315 101.742 14.2745L101.821 14.2815L101.858 14.2115L101.752 14.1556Z" fill="white"/>
<path d="M108.539 16.1436C108.38 16.3912 108.116 16.6889 107.748 17.0349C107.366 16.7313 107.076 16.4646 106.879 16.2336C107.076 16.054 107.359 15.7589 107.728 15.3484C107.804 15.4342 108.075 15.6992 108.539 16.1436ZM106.551 16.3297C106.392 16.582 106.132 16.8815 105.772 17.2275C105.378 16.9109 105.088 16.6441 104.898 16.4257C105.129 16.2117 105.413 15.917 105.747 15.541C105.824 15.6217 106.093 15.8847 106.551 16.3297ZM107.728 11.68C107.848 11.68 107.956 11.7145 108.05 11.7826C107.892 12.1632 107.752 12.4817 107.632 12.7383C107.511 12.9948 107.439 13.138 107.413 13.1678C107.709 13.3563 107.985 13.4864 108.239 13.5592C108.495 13.632 108.772 13.6684 109.073 13.6684L109.182 13.7775V14.5597L109.073 14.6688C108.262 14.6688 107.567 14.4146 106.989 13.9053L106.776 14.1874C106.687 14.2863 106.368 14.3908 105.822 14.5018C105.274 14.6133 104.738 14.6688 104.211 14.6688L104.101 14.5597V13.7775L104.211 13.6684C104.755 13.6684 105.217 13.645 105.596 13.5979C105.976 13.5503 106.244 13.4715 106.4 13.3606C106.557 13.249 106.787 12.9011 107.091 12.3153L107.323 11.8918C107.4 11.7504 107.536 11.68 107.728 11.68Z" fill="white"/>
<path d="M108.539 16.1437L108.438 16.0794C108.289 16.3135 108.03 16.6059 107.665 16.9483L107.747 17.0351L107.822 16.9423C107.445 16.6414 107.159 16.3779 106.97 16.1564L106.879 16.2338L106.959 16.3219C107.163 16.1368 107.447 15.8401 107.817 15.4283L107.728 15.3485L107.638 15.4283C107.723 15.522 107.992 15.7837 108.456 16.2301L108.539 16.1437L108.438 16.0794L108.539 16.1437L108.623 16.0579C108.16 15.6144 107.886 15.3466 107.817 15.2687L107.727 15.1699L107.638 15.2687C107.272 15.6778 106.99 15.9712 106.798 16.1456L106.712 16.223L106.788 16.3113C106.993 16.5509 107.288 16.8219 107.673 17.1283L107.754 17.1932L107.83 17.1222C108.202 16.772 108.472 16.4698 108.639 16.2081L108.693 16.1261L108.623 16.0579L108.539 16.1437ZM106.551 16.3299L106.45 16.2665C106.299 16.5056 106.045 16.7995 105.69 17.1419L105.772 17.2277L105.848 17.1349C105.457 16.821 105.17 16.557 104.988 16.348L104.898 16.4259L104.979 16.5136C105.215 16.2954 105.5 15.9982 105.836 15.6204L105.747 15.5411L105.66 15.6233C105.741 15.7086 106.008 15.9698 106.468 16.4153L106.551 16.3299L106.45 16.2665L106.551 16.3299L106.635 16.244C106.177 15.8 105.907 15.5355 105.834 15.4591L105.744 15.3644L105.657 15.4618C105.324 15.8359 105.044 16.1288 104.816 16.3382L104.732 16.417L104.807 16.5043C105.005 16.7314 105.3 17.0015 105.698 17.3206L105.78 17.3867L105.856 17.3135C106.22 16.9632 106.485 16.6592 106.653 16.3933L106.704 16.3116L106.635 16.244L106.551 16.3299ZM107.728 11.6801V11.7995L107.98 11.8797L108.05 11.7828L107.94 11.737C107.781 12.1167 107.643 12.4339 107.523 12.6881C107.464 12.8154 107.415 12.9147 107.38 12.9842L107.337 13.0659L107.324 13.0874L107.321 13.0916L107.339 13.1046L107.322 13.0901L107.321 13.0916L107.339 13.1046L107.322 13.0901L107.232 13.1946L107.349 13.2687C107.652 13.4618 107.937 13.5971 108.207 13.6741C108.474 13.7505 108.763 13.7879 109.073 13.7879V13.6685L108.988 13.7529L109.062 13.8271V14.5103L108.988 14.5841L109.073 14.669V14.5496C108.287 14.5486 107.626 14.3061 107.068 13.8159L106.971 13.7305L106.68 14.1163L106.775 14.1876L106.687 14.1078C106.661 14.1545 106.334 14.2822 105.797 14.3849C105.258 14.495 104.729 14.5496 104.211 14.5496V14.669L104.295 14.5841L104.22 14.5103V13.8271L104.295 13.7529L104.211 13.6685V13.7879C104.759 13.7879 105.225 13.7645 105.611 13.716C106 13.6666 106.282 13.5897 106.47 13.4576C106.667 13.3116 106.887 12.9624 107.198 12.37L107.091 12.3154L107.196 12.3723L107.428 11.9492C107.486 11.8494 107.563 11.8033 107.728 11.7995V11.6801V11.5607C107.509 11.557 107.314 11.6526 107.218 11.8345L106.986 12.258L106.986 12.2594L106.985 12.2604C106.688 12.8396 106.447 13.1867 106.331 13.2631C106.205 13.3541 105.952 13.4344 105.581 13.4796C105.209 13.5257 104.752 13.5491 104.211 13.5491H104.161L104.016 13.6927L103.981 13.7277V14.5599V14.6093L104.126 14.7534L104.161 14.7884H104.211C104.746 14.7884 105.291 14.7319 105.846 14.6191C106.401 14.4992 106.713 14.418 106.865 14.2678L106.868 14.2636L107.084 13.9773L106.989 13.9054L106.909 13.995C107.509 14.5234 108.237 14.7892 109.073 14.7884H109.122L109.267 14.6446L109.302 14.6093V13.7776V13.7277L109.157 13.5836L109.122 13.5491H109.073C108.782 13.5491 108.516 13.5141 108.273 13.4446C108.032 13.376 107.766 13.2511 107.478 13.0673L107.413 13.168L107.504 13.2464L107.594 13.0924C107.631 13.0187 107.68 12.9181 107.74 12.7892C107.862 12.5304 108.001 12.2105 108.16 11.8289L108.198 11.7412L108.121 11.6862C108.006 11.6037 107.871 11.5602 107.728 11.5607V11.6801Z" fill="white"/>
<path d="M109.275 14.6689L109.166 14.5598V13.7776L109.275 13.6685C109.772 13.6685 110.253 13.555 110.717 13.3284C110.601 12.4049 110.462 10.7417 110.298 8.33915L110.17 6.58823C110.431 6.31862 110.726 6.07515 111.058 5.85689C111.113 7.05832 111.159 8.94596 111.192 11.5202L111.238 13.3218C111.635 13.5528 112.092 13.6685 112.607 13.6685L112.722 13.7776V14.5598L112.607 14.6689C111.964 14.6689 111.46 14.5126 111.095 14.2006C110.774 14.3802 110.484 14.5033 110.227 14.5696C109.971 14.6353 109.654 14.6689 109.275 14.6689Z" fill="white"/>
<path d="M109.275 14.6687L109.36 14.5838L109.286 14.51V13.8268L109.36 13.7526L109.275 13.6682V13.7876C109.791 13.7876 110.29 13.6695 110.769 13.4354L110.846 13.3976L110.835 13.3132C110.72 12.3954 110.58 10.7321 110.417 8.33053L110.288 6.57913L110.17 6.58797L110.255 6.67095C110.511 6.40791 110.799 6.17006 111.124 5.95644L111.058 5.85662L110.938 5.86224C110.993 7.0614 111.039 8.94797 111.072 11.5212L111.12 13.3915L111.178 13.4247C111.594 13.6672 112.075 13.7876 112.607 13.7876V13.6682L112.525 13.7549L112.603 13.8286V14.5082L112.525 14.5819L112.607 14.6687V14.5493C111.982 14.5488 111.511 14.3981 111.173 14.1099L111.109 14.0553L111.036 14.0964C110.723 14.2721 110.441 14.3911 110.197 14.4541C109.954 14.5161 109.646 14.5493 109.275 14.5493V14.6687L109.36 14.5838L109.275 14.6687V14.7881C109.661 14.7881 109.986 14.7544 110.257 14.6849C110.529 14.615 110.827 14.4877 111.154 14.3044L111.095 14.2004L111.017 14.2909C111.409 14.6262 111.945 14.7886 112.607 14.7881H112.654L112.805 14.6462L112.842 14.6108V13.7773V13.7255L112.689 13.5814L112.654 13.5488H112.607C112.11 13.5483 111.676 13.4378 111.297 13.2185L111.238 13.3216L111.357 13.3188L111.312 11.5166L111.192 11.5199L111.312 11.518C111.278 8.94331 111.233 7.05531 111.178 5.85149L111.168 5.6411L110.992 5.75728C110.653 5.97973 110.352 6.2288 110.083 6.50498L110.045 6.54319L110.178 8.34725V8.34677C110.342 10.7502 110.481 12.4145 110.597 13.3431L110.717 13.3281L110.663 13.2209C110.215 13.4401 109.754 13.5488 109.275 13.5488H109.226L109.081 13.6924L109.046 13.7274V14.5595V14.609L109.191 14.7531L109.226 14.7881H109.275V14.6687Z" fill="white"/>
<path d="M112.674 14.6689L112.565 14.5598V13.7776L112.674 13.6685C113.241 13.6685 113.788 13.6553 114.314 13.6297C114.105 13.4926 113.921 13.3051 113.764 13.0654C113.608 12.8256 113.531 12.5714 113.531 12.3023C113.531 11.9301 113.632 11.5393 113.836 11.1288C114.039 10.7184 114.303 10.3872 114.623 10.1344C114.946 9.88208 115.281 9.75611 115.633 9.75611C115.937 9.75611 116.229 9.83217 116.507 9.98369C116.786 10.1358 117.109 10.3718 117.478 10.6927L117.247 11.1092C116.901 10.9772 116.647 10.8937 116.489 10.8592C116.33 10.8246 116.156 10.8079 115.967 10.8079C115.427 10.8079 114.863 10.9683 114.276 11.2888C114.276 11.6651 114.366 12.0084 114.549 12.3181C114.731 12.6283 114.997 12.8774 115.343 13.0654C115.692 13.2538 116.101 13.3606 116.572 13.3862C116.906 13.3177 117.226 13.2356 117.53 13.139C117.835 13.0434 118.261 12.8882 118.81 12.6744C118.931 12.7855 118.99 12.9413 118.99 13.1423L118.977 13.2771C118.926 13.5719 118.744 13.758 118.43 13.8349C117.385 14.0957 116.593 14.2748 116.057 14.3704C115.522 14.4669 114.971 14.5406 114.408 14.5919C113.844 14.6433 113.266 14.6689 112.674 14.6689Z" fill="white"/>
<path d="M112.674 14.6687L112.759 14.5838L112.684 14.51V13.8268L112.759 13.7526L112.674 13.6682V13.7876C113.242 13.7876 113.791 13.7745 114.319 13.7488L114.687 13.7307L114.379 13.5297C114.185 13.4028 114.014 13.2278 113.864 12.9998C113.72 12.7773 113.65 12.5488 113.65 12.302C113.65 11.9523 113.746 11.5791 113.943 11.1813C114.14 10.7847 114.391 10.4686 114.697 10.2278V10.2283C115.003 9.98904 115.311 9.87573 115.633 9.87525C115.917 9.87573 116.188 9.9457 116.451 10.0879H116.449C116.716 10.2339 117.035 10.4652 117.399 10.7825L117.478 10.6924L117.374 10.6345L117.142 11.0516L117.247 11.1089L117.289 10.9975C116.94 10.864 116.684 10.7796 116.514 10.7424C116.345 10.7059 116.163 10.6883 115.967 10.6883C115.403 10.6883 114.819 10.8561 114.219 11.184L114.157 11.2181V11.2885C114.157 11.6836 114.252 12.0502 114.446 12.3785C114.639 12.7083 114.923 12.9732 115.286 13.1701L115.287 13.1705L115.286 13.1701C115.652 13.3683 116.08 13.4788 116.566 13.505L116.581 13.5058L116.596 13.5031C116.934 13.4341 117.258 13.3506 117.565 13.2526C117.876 13.1556 118.304 12.9998 118.854 12.7852L118.809 12.6742L118.728 12.7615C118.82 12.8483 118.869 12.9634 118.871 13.142H118.99L118.871 13.1309L118.857 13.2657L118.977 13.2768L118.859 13.2563C118.809 13.51 118.681 13.6443 118.401 13.719C117.357 13.9793 116.567 14.1579 116.036 14.2526C115.504 14.3487 114.956 14.4214 114.396 14.4727C113.837 14.5236 113.263 14.5493 112.674 14.5493V14.6687L112.759 14.5838L112.674 14.6687V14.7881C113.269 14.7881 113.851 14.7624 114.419 14.7106C114.985 14.6589 115.54 14.5851 116.078 14.4877C116.62 14.3911 117.412 14.2115 118.459 13.9508C118.806 13.8711 119.042 13.6337 119.094 13.2973L119.096 13.2927L119.109 13.1532L119.11 13.1476V13.142C119.111 12.9186 119.039 12.7228 118.891 12.5865L118.836 12.5357L118.766 12.5628C118.219 12.7764 117.794 12.9308 117.494 13.0245V13.025C117.193 13.1201 116.878 13.2013 116.548 13.2689L116.572 13.3859L116.579 13.2665C116.121 13.2418 115.73 13.1388 115.399 12.9601H115.401C115.07 12.7806 114.824 12.5478 114.652 12.2572C114.481 11.9662 114.396 11.6458 114.396 11.2885H114.276L114.334 11.3935C114.907 11.08 115.451 10.9271 115.967 10.9271C116.149 10.9271 116.314 10.9433 116.464 10.976C116.609 11.0073 116.86 11.0893 117.204 11.2209L117.301 11.2577L117.582 10.7502L117.63 10.6658L117.557 10.6024C117.185 10.2778 116.854 10.0372 116.566 9.87848H116.564C116.271 9.71812 115.957 9.63644 115.633 9.63644C115.252 9.63597 114.887 9.77495 114.549 10.0404L114.546 10.0423L114.548 10.0409C114.213 10.3049 113.939 10.6514 113.728 11.0754C113.518 11.4984 113.411 11.908 113.411 12.302C113.411 12.5945 113.496 12.8738 113.664 13.1304C113.829 13.3818 114.024 13.5824 114.249 13.7292L114.313 13.6294L114.309 13.5105C113.784 13.5357 113.238 13.5488 112.674 13.5488H112.625L112.48 13.6924L112.444 13.7274V14.5595V14.609L112.59 14.7531L112.625 14.7881H112.674V14.6687Z" fill="white"/>
<path d="M128.759 15.3807L128.424 13.258C128.052 11.0346 127.807 9.48555 127.688 8.61104C127.571 7.73749 127.512 7.16149 127.512 6.88304C127.512 6.58824 127.58 6.3597 127.718 6.19684C127.855 6.03409 128.074 5.92125 128.373 5.85689L128.413 6.0108C128.424 6.05785 128.568 6.52615 128.842 7.4157L128.533 7.68472L128.56 7.88997L128.99 11.7827C129.067 12.3512 129.126 12.8965 129.164 13.418L129.17 13.4441C129.453 13.5938 129.776 13.6685 130.135 13.6685L130.244 13.7776V14.5598L130.135 14.669C129.818 14.669 129.519 14.5985 129.235 14.4571L129.247 14.8867C129.247 15.4297 129.078 15.9474 128.739 16.439C128.401 16.9301 127.935 17.3312 127.343 17.6409C126.752 17.9511 126.141 18.1064 125.511 18.1064C124.761 18.1064 124.176 17.8919 123.756 17.4613C123.336 17.0323 123.125 16.4236 123.125 15.6372C123.125 15.3849 123.142 15.147 123.174 14.9217C123.205 14.6978 123.276 14.37 123.382 13.9376L123.865 14.0532C123.767 14.438 123.717 14.7496 123.717 14.9893C123.717 15.6306 123.878 16.1297 124.199 16.4865C124.521 16.8438 124.969 17.0225 125.542 17.0225C125.959 17.0225 126.391 16.9497 126.843 16.8041C127.292 16.6592 127.689 16.4605 128.032 16.2081C128.375 15.9553 128.618 15.6796 128.759 15.3807Z" fill="white"/>
<path d="M128.758 15.3804L128.877 15.3617L128.541 13.2391V13.2381C128.17 11.0157 127.925 9.46666 127.806 8.5949C127.689 7.72373 127.631 7.14678 127.631 6.88278C127.631 6.60469 127.695 6.40791 127.809 6.27358V6.27311C127.922 6.1383 128.114 6.0343 128.398 5.97364L128.373 5.85663L128.256 5.88648L128.296 6.04039L128.412 6.01054L128.296 6.03943C128.31 6.09818 128.453 6.5586 128.728 7.4503L128.842 7.41543L128.763 7.3254L128.455 7.59454L128.407 7.63645L128.441 7.90367L128.871 11.7969V11.7987C128.947 12.365 129.006 12.9075 129.044 13.4265L129.046 13.4359L129.053 13.47L129.065 13.5236L129.114 13.5493C129.415 13.7092 129.759 13.7876 130.135 13.7876V13.6682L130.05 13.7522L130.124 13.8263V14.51L130.05 14.5843L130.135 14.6687V14.5493C129.836 14.5488 129.556 14.483 129.289 14.3501L129.11 14.261L129.127 14.8897L129.247 14.8865H129.127C129.127 15.4047 128.968 15.8963 128.641 16.371C128.313 16.8449 127.865 17.233 127.288 17.5352C126.711 17.837 126.122 17.9863 125.511 17.9868C124.782 17.9858 124.236 17.781 123.842 17.3781V17.3776C123.448 16.9756 123.244 16.4033 123.244 15.6369C123.244 15.3898 123.26 15.1574 123.292 14.9387V14.9359V14.9382C123.322 14.7223 123.392 14.3957 123.498 13.9658L123.382 13.9373L123.353 14.0534L123.837 14.1691L123.865 14.0529L123.749 14.0236C123.649 14.414 123.596 14.733 123.596 14.989C123.596 15.6495 123.764 16.1821 124.11 16.566C124.455 16.9518 124.945 17.143 125.542 17.1416C125.973 17.1416 126.419 17.0661 126.88 16.9178C127.339 16.7689 127.749 16.5647 128.103 16.3039C128.458 16.0427 128.715 15.7531 128.866 15.4307L128.881 15.3976L128.877 15.3617L128.758 15.3804L128.649 15.3301C128.52 15.6061 128.292 15.8679 127.961 16.1118C127.629 16.3557 127.244 16.5488 126.805 16.6905C126.365 16.8324 125.944 16.9028 125.542 16.9028C124.993 16.9014 124.585 16.7358 124.289 16.4065C123.992 16.0772 123.836 15.6117 123.836 14.989C123.836 14.7661 123.884 14.4615 123.981 14.0823L124.011 13.9648L123.41 13.8212L123.294 13.7936L123.266 13.9088C123.158 14.3431 123.088 14.6733 123.055 14.9051V14.9042C123.022 15.1356 123.005 15.3795 123.005 15.6369C123.004 16.4434 123.223 17.0884 123.671 17.5446C124.115 18.0017 124.739 18.2264 125.511 18.2256C126.161 18.2256 126.792 18.0646 127.399 17.7465C128.005 17.4294 128.488 17.0147 128.838 16.5063C129.189 15.9979 129.366 15.4541 129.366 14.8865V14.885L129.354 14.4536L129.235 14.4569L129.182 14.5637C129.48 14.713 129.8 14.7881 130.135 14.7881H130.185L130.329 14.644L130.364 14.609V13.7773V13.7279L130.22 13.5838L130.185 13.5488H130.135C129.791 13.5488 129.49 13.4779 129.226 13.3379L129.17 13.4439L129.286 13.4172L129.28 13.3916L129.164 13.4177L129.284 13.4093C129.244 12.8846 129.186 12.337 129.108 11.7666L128.989 11.7825L129.109 11.7693L128.678 7.87573L128.66 7.73257L128.921 7.50498L128.98 7.45412L128.957 7.37997C128.683 6.49376 128.537 6.0171 128.528 5.98212V5.98069L128.488 5.82678L128.46 5.71573L128.347 5.73997C128.033 5.80767 127.786 5.92934 127.625 6.12015V6.11967C127.464 6.31096 127.392 6.57066 127.392 6.88278C127.392 7.17519 127.451 7.75024 127.569 8.62666C127.688 9.50451 127.933 11.0534 128.306 13.2773V13.276L128.64 15.3991L128.758 15.3804L128.649 15.3301L128.758 15.3804Z" fill="white"/>
<path d="M135.55 13.6685C136.694 13.6685 137.866 13.2939 139.066 12.5457C138.802 12.084 138.482 11.724 138.108 11.4655C137.736 11.2067 137.367 11.0774 137.003 11.0774C136.586 11.0774 136.092 11.279 135.516 11.6839C134.943 12.0873 134.319 12.6847 133.646 13.4758C134.332 13.6041 134.965 13.6685 135.55 13.6685ZM140.553 14.6689C140.18 14.6689 139.809 14.5943 139.441 14.4446C139.071 14.2944 138.769 14.098 138.533 13.854C138.143 14.1069 137.665 14.3056 137.103 14.4506C136.539 14.5956 135.976 14.6689 135.414 14.6689C134.78 14.6689 134.127 14.6003 133.459 14.4637C132.79 14.3265 132.259 14.1493 131.864 13.9315L131.639 14.1875C131.348 14.5085 130.868 14.6689 130.199 14.6689L130.089 14.5598V13.7776L130.199 13.6685C130.593 13.6685 130.906 13.5966 131.137 13.4539C131.37 13.3103 131.603 13.0331 131.838 12.6232L132.044 12.2575C132.135 12.1036 132.274 12.0267 132.463 12.0267C132.586 12.0267 132.689 12.0673 132.771 12.1483C132.586 12.5934 132.456 12.8965 132.378 13.0588C132.593 13.162 132.812 13.2472 133.035 13.3159C134.716 11.0923 136.148 9.98095 137.331 9.98095C137.579 9.98095 137.886 10.0812 138.251 10.2822C138.615 10.4833 138.94 10.7417 139.228 11.0578C139.515 11.3746 139.658 11.6521 139.658 11.8919C139.658 12.4217 139.49 12.8946 139.151 13.3093C139.55 13.5491 140.017 13.6685 140.553 13.6685L140.668 13.7776V14.5598L140.553 14.6689Z" fill="white"/>
<path d="M135.55 13.6682V13.7876C136.721 13.7876 137.917 13.4042 139.13 12.6467L139.228 12.5861L139.17 12.4862C138.897 12.012 138.567 11.6374 138.178 11.3673C137.79 11.0982 137.397 10.9574 137.003 10.9578C136.547 10.9587 136.033 11.1742 135.448 11.5856C134.861 11.9979 134.233 12.6024 133.555 13.3986L133.421 13.5553L133.624 13.5931C134.316 13.7223 134.957 13.7876 135.55 13.7876V13.6682V13.5488C134.975 13.5488 134.349 13.4853 133.667 13.3585L133.646 13.4755L133.737 13.553C134.406 12.7671 135.024 12.1761 135.586 11.781C136.149 11.3832 136.626 11.1953 137.003 11.1966C137.338 11.1966 137.682 11.3151 138.04 11.5633C138.397 11.8099 138.705 12.1561 138.963 12.6052L139.066 12.5455L139.003 12.4443C137.817 13.1835 136.668 13.5488 135.55 13.5488V13.6682ZM140.553 14.6687V14.5493C140.195 14.5493 139.841 14.4779 139.486 14.3333C139.128 14.1887 138.842 14.0012 138.62 13.7708L138.551 13.7003L138.469 13.7539C138.092 13.9979 137.626 14.1924 137.073 14.3347C136.518 14.4774 135.966 14.5493 135.414 14.5493C134.788 14.5493 134.144 14.4816 133.483 14.3463C132.822 14.2111 132.301 14.0362 131.922 13.8268L131.837 13.7796L131.549 14.1089L131.639 14.1873L131.55 14.1075C131.293 14.3925 130.85 14.5488 130.199 14.5493V14.6687L130.284 14.5838L130.208 14.51V13.8268L130.284 13.7526L130.199 13.6682V13.7876C130.607 13.7871 130.942 13.7139 131.201 13.5548C131.46 13.3935 131.701 13.1015 131.942 12.6822L131.943 12.6803L132.148 12.3156L132.044 12.2572L132.147 12.3179C132.222 12.1975 132.307 12.149 132.463 12.1458L132.687 12.233L132.771 12.1481L132.66 12.1024C132.476 12.5464 132.346 12.8491 132.27 13.0077L132.219 13.1155L132.326 13.1664C132.547 13.2717 132.771 13.3594 133 13.4294L133.081 13.4541L133.131 13.3874C134.801 11.1705 136.227 10.0917 137.331 10.1001C137.547 10.0991 137.838 10.1901 138.192 10.3864C138.545 10.5809 138.86 10.8305 139.139 11.1378C139.418 11.4439 139.54 11.7013 139.538 11.8916C139.538 12.3962 139.381 12.838 139.058 13.2335L138.97 13.3403L139.089 13.4111C139.508 13.6636 140 13.7876 140.553 13.7876V13.6682L140.471 13.7549L140.549 13.8286V14.5082L140.471 14.5819L140.553 14.6687V14.5493V14.6687L140.635 14.7554L140.751 14.6462L140.788 14.6108V13.7773V13.7255L140.635 13.5814L140.6 13.5488H140.553C140.035 13.5483 139.591 13.4336 139.212 13.2065L139.151 13.309L139.243 13.3846C139.599 12.9508 139.779 12.4466 139.777 11.8916C139.776 11.6029 139.613 11.3053 139.316 10.9778C139.021 10.6519 138.684 10.3851 138.308 10.1775C137.934 9.97137 137.611 9.86176 137.331 9.86128C136.069 9.86916 134.63 11.0138 132.939 13.2433L133.035 13.3156L133.07 13.2013C132.853 13.1346 132.64 13.0511 132.429 12.9513L132.378 13.0585L132.487 13.1099C132.566 12.9428 132.696 12.6397 132.882 12.1938L132.913 12.1197L132.856 12.0632C132.753 11.9601 132.613 11.9056 132.463 11.907C132.241 11.9032 132.047 12.0091 131.941 12.1966L131.94 12.1975L131.734 12.5642V12.5637C131.505 12.9648 131.279 13.2269 131.074 13.3519H131.075C130.869 13.4788 130.578 13.5488 130.199 13.5488H130.15L130.005 13.6924L129.969 13.7274V14.5595V14.609L130.115 14.7531L130.15 14.7881H130.199C130.885 14.7881 131.403 14.6239 131.728 14.2675L131.729 14.267L131.954 14.0096L131.864 13.9313L131.806 14.0357C132.216 14.2619 132.759 14.4415 133.435 14.58C134.11 14.719 134.771 14.7881 135.414 14.7881C135.987 14.7881 136.559 14.7139 137.133 14.566C137.705 14.4187 138.195 14.2153 138.598 13.9541L138.533 13.8538L138.447 13.9369C138.696 14.1943 139.014 14.4 139.395 14.5548C139.777 14.7096 140.164 14.7881 140.553 14.7881H140.6L140.635 14.7554L140.553 14.6687Z" fill="white"/>
<path d="M140.619 14.6689L140.509 14.5598V13.7776L140.619 13.6685C141.91 13.6685 142.924 13.5569 143.662 13.335L144.394 13.0845C144.892 12.8965 145.334 12.7683 145.72 12.6996C145.376 12.529 145.037 12.3112 144.702 12.0458C144.346 11.7678 144.059 11.5743 143.839 11.4655C143.617 11.356 143.391 11.3018 143.159 11.3018C142.74 11.3018 142.361 11.4086 142.027 11.6227L141.718 11.8149C141.59 11.6866 141.527 11.5159 141.527 11.3018C141.527 10.9726 141.672 10.7076 141.964 10.5066C142.255 10.3056 142.639 10.2053 143.114 10.2053C143.393 10.2053 143.675 10.2655 143.96 10.3849C144.245 10.5043 144.576 10.7011 144.954 10.9749C145.412 11.312 145.802 11.5658 146.125 11.7351C146.445 11.9035 146.772 12.0243 147.102 12.0971C147.432 12.1698 147.912 12.2063 148.542 12.2063L148.04 13.1745C147.766 13.14 147.521 13.1167 147.3 13.1041L147.256 13.0975L146.987 13.1041C146.682 13.1041 146.39 13.1488 146.115 13.2384C145.838 13.3284 145.408 13.5234 144.825 13.8224C144.169 14.1601 143.577 14.3854 143.047 14.4987C142.517 14.612 141.708 14.6689 140.619 14.6689Z" fill="white"/>
<path d="M140.619 14.6687L140.704 14.5838L140.629 14.51V13.8268L140.704 13.7526L140.619 13.6682V13.7876C141.917 13.7871 142.941 13.6761 143.696 13.449L143.699 13.4485L144.433 13.1975L144.435 13.1966L144.436 13.1962C144.93 13.0096 145.364 12.8836 145.74 12.8175L146.098 12.7539L145.774 12.5926C145.437 12.4261 145.106 12.2124 144.777 11.9523L144.776 11.9518C144.417 11.6705 144.125 11.4737 143.891 11.358V11.3585C143.656 11.2413 143.409 11.1821 143.159 11.1821C142.719 11.1816 142.316 11.2951 141.963 11.5217L142.027 11.6225L141.964 11.5207L141.655 11.7135L141.718 11.8146L141.803 11.7302C141.699 11.6257 141.648 11.4933 141.646 11.3015C141.649 11.0081 141.766 10.7908 142.032 10.6047V10.6043C142.298 10.4209 142.655 10.3244 143.114 10.3244C143.375 10.3244 143.641 10.3804 143.913 10.4947C144.186 10.6085 144.51 10.8011 144.884 11.0712L144.883 11.0707C145.344 11.4103 145.739 11.6668 146.068 11.8403C146.399 12.0133 146.735 12.1378 147.076 12.2134C147.421 12.2895 147.907 12.3249 148.542 12.3254V12.206L148.435 12.151L147.935 13.1192L148.04 13.1742L148.056 13.0558C147.779 13.0213 147.53 12.9975 147.307 12.9844L147.3 13.1038L147.318 12.9853L147.273 12.9793L147.263 12.9778L146.983 12.9844L146.987 13.1038V12.9844C146.67 12.9844 146.366 13.0311 146.078 13.1248C145.788 13.219 145.357 13.4154 144.77 13.7157C144.121 14.0497 143.537 14.2712 143.022 14.3813C142.507 14.4918 141.704 14.5493 140.619 14.5493V14.6687L140.704 14.5838L140.619 14.6687V14.7881C141.712 14.7876 142.526 14.7321 143.072 14.615C143.615 14.4989 144.217 14.2689 144.88 13.9279C145.46 13.6304 145.887 13.4373 146.152 13.3519C146.415 13.2662 146.693 13.2232 146.987 13.2232H146.988L147.249 13.2166L147.284 13.2218L147.288 13.2227H147.293C147.51 13.2354 147.753 13.2587 148.026 13.2927L148.108 13.303L148.648 12.2606L148.739 12.0866H148.542C147.917 12.0866 147.442 12.0497 147.128 11.9802C146.809 11.9098 146.493 11.7932 146.18 11.629C145.867 11.4644 145.48 11.2139 145.025 10.8785L145.024 10.8781C144.642 10.601 144.305 10.3996 144.006 10.2745C143.708 10.1495 143.41 10.0856 143.114 10.0856C142.622 10.0856 142.213 10.1892 141.895 10.4079C141.577 10.6239 141.405 10.9364 141.407 11.3015C141.406 11.5381 141.48 11.747 141.633 11.899L141.702 11.9662L142.091 11.7237L142.092 11.7223V11.7228C142.407 11.5212 142.76 11.4214 143.159 11.4209C143.372 11.4209 143.579 11.4704 143.785 11.5721V11.5726C143.993 11.6742 144.277 11.864 144.629 12.1393L144.628 12.1388C144.968 12.4089 145.314 12.6313 145.666 12.8067L145.72 12.6994L145.698 12.5819C145.303 12.6523 144.854 12.7825 144.351 12.9727L144.394 13.0842L144.355 12.9714L143.623 13.2218L143.662 13.3347L143.627 13.2204C142.907 13.4373 141.903 13.5488 140.619 13.5488H140.57L140.425 13.6924L140.389 13.7274V14.5595V14.609L140.535 14.7531L140.57 14.7881H140.619V14.6687Z" fill="white"/>
<path d="M150.211 10.2949V11.1158C150.211 11.9623 150.181 13.1106 150.121 14.5598L149.517 14.6689C149.46 11.5995 149.341 9.05092 149.156 7.02429L149.15 6.85736C149.15 6.57939 149.22 6.35826 149.359 6.19408C149.497 6.02895 149.718 5.91706 150.018 5.85689L150.057 6.0108C150.07 6.05784 150.213 6.52614 150.488 7.41569L150.133 7.71695L150.139 7.78083C150.187 8.72113 150.211 9.55981 150.211 10.2949Z" fill="white"/>
<path d="M150.211 10.2952H150.091V11.1161C150.091 11.9598 150.061 13.1068 150.002 14.5554L150.121 14.5602L150.1 14.4426L149.495 14.5517L149.517 14.6693L149.636 14.6669C149.58 11.5955 149.46 9.04472 149.276 7.01391L149.156 7.02466L149.276 7.02048L149.27 6.85355L149.15 6.85773H149.27C149.271 6.59839 149.333 6.40949 149.45 6.27147H149.451C149.566 6.13379 149.757 6.03123 150.041 5.97427L150.018 5.85726L149.902 5.88615L149.94 6.04006V6.0415V6.04245C149.956 6.09702 150.098 6.56018 150.374 7.45093L150.488 7.41606L150.41 7.32508L150.057 7.62633L150.009 7.66645L150.021 7.79242L150.139 7.7812L150.019 7.78729C150.067 8.72615 150.091 9.56245 150.091 10.2952H150.211H150.331C150.331 9.55732 150.307 8.71732 150.259 7.77511V7.77284V7.76818L150.565 7.50645L150.625 7.4557L150.603 7.3806C150.328 6.49296 150.184 6.02 150.172 5.97988L150.057 6.01117L150.173 5.98227L150.134 5.82836L150.107 5.71779L149.994 5.74012C149.678 5.80365 149.43 5.92436 149.266 6.11755H149.268C149.106 6.30776 149.03 6.56102 149.03 6.85773V6.85953L149.036 7.02884V7.03218V7.03541C149.221 9.05785 149.341 11.6035 149.397 14.6711L149.399 14.8115L150.143 14.6777L150.236 14.6604L150.241 14.5653C150.3 13.1147 150.331 11.9654 150.331 11.1161V10.2952H150.211Z" fill="white"/>
</g>
<defs>
<clipPath id="clip0_2218_2002">
<rect width="162" height="48" fill="white" transform="translate(0 0.666992)"/>
</clipPath>
<clipPath id="clip1_2218_2002">
<rect width="162" height="48" fill="white" transform="translate(0.053833 0.666992)"/>
</clipPath>
</defs>
</svg>
