<svg width="24" height="25" viewBox="0 0 24 25" fill="none" xmlns="http://www.w3.org/2000/svg">
<path d="M16.6 6.72625C15.9166 5.94578 15.5399 4.94365 15.54 3.90625H12.45V16.3062C12.4267 16.9774 12.1436 17.6133 11.6603 18.0797C11.1771 18.5462 10.5316 18.8067 9.86003 18.8062C8.44003 18.8062 7.26003 17.6462 7.26003 16.2063C7.26003 14.4862 8.92003 13.1962 10.63 13.7262V10.5662C7.18003 10.1062 4.16003 12.7863 4.16003 16.2063C4.16003 19.5363 6.92003 21.9062 9.85003 21.9062C12.99 21.9062 15.54 19.3563 15.54 16.2063V9.91625C16.793 10.8161 18.2974 11.2989 19.84 11.2963V8.20625C19.84 8.20625 17.96 8.29625 16.6 6.72625Z" fill="#F4F30E"/>
</svg>
