<svg width="24" height="25" viewBox="0 0 24 25" fill="none" xmlns="http://www.w3.org/2000/svg">
<path d="M19.05 5.8163C18.1331 4.89041 17.0411 4.15627 15.8376 3.65667C14.634 3.15706 13.3431 2.90199 12.04 2.9063C6.58005 2.9063 2.13005 7.3563 2.13005 12.8163C2.13005 14.5663 2.59005 16.2663 3.45005 17.7663L2.05005 22.9063L7.30005 21.5263C8.75005 22.3163 10.38 22.7363 12.04 22.7363C17.5 22.7363 21.9501 18.2863 21.9501 12.8263C21.9501 10.1763 20.92 7.6863 19.05 5.8163ZM12.04 21.0563C10.56 21.0563 9.11005 20.6563 7.84005 19.9063L7.54005 19.7263L4.42005 20.5463L5.25005 17.5063L5.05005 17.1963C4.2276 15.8834 3.79097 14.3656 3.79005 12.8163C3.79005 8.2763 7.49005 4.5763 12.03 4.5763C14.23 4.5763 16.3 5.4363 17.85 6.9963C18.6177 7.76017 19.226 8.66885 19.6397 9.66963C20.0534 10.6704 20.2642 11.7434 20.26 12.8263C20.2801 17.3663 16.58 21.0563 12.04 21.0563ZM16.56 14.8963C16.31 14.7763 15.09 14.1763 14.87 14.0863C14.64 14.0063 14.48 13.9663 14.31 14.2063C14.14 14.4563 13.67 15.0163 13.53 15.1763C13.39 15.3463 13.24 15.3663 12.99 15.2363C12.74 15.1163 11.94 14.8463 11 14.0063C10.26 13.3463 9.77005 12.5363 9.62005 12.2863C9.48005 12.0363 9.60005 11.9063 9.73005 11.7763C9.84005 11.6663 9.98005 11.4863 10.1 11.3463C10.22 11.2063 10.27 11.0963 10.35 10.9363C10.43 10.7663 10.39 10.6263 10.33 10.5063C10.27 10.3863 9.77005 9.1663 9.57005 8.6663C9.37005 8.1863 9.16005 8.2463 9.01005 8.2363H8.53005C8.36005 8.2363 8.10005 8.2963 7.87005 8.5463C7.65005 8.7963 7.01005 9.3963 7.01005 10.6163C7.01005 11.8363 7.90005 13.0163 8.02005 13.1763C8.14005 13.3463 9.77005 15.8463 12.25 16.9163C12.84 17.1763 13.3 17.3263 13.66 17.4363C14.25 17.6263 14.79 17.5963 15.22 17.5363C15.7 17.4663 16.69 16.9363 16.89 16.3563C17.1 15.7763 17.1 15.2863 17.03 15.1763C16.96 15.0663 16.81 15.0163 16.56 14.8963Z" fill="#F4F30E"/>
</svg>
