<svg width="135" height="50" viewBox="0 0 135 50" fill="none" xmlns="http://www.w3.org/2000/svg">
<g clip-path="url(#clip0_2218_1828)">
<path d="M37.0965 21.1842C36.953 21.1067 36.7929 21.0652 36.6299 21.0632C36.4631 21.0643 36.2991 21.1058 36.1519 21.1842C36.004 21.2659 35.8823 21.3877 35.8005 21.5355C35.7221 21.6828 35.6806 21.8468 35.6796 22.0136C35.6806 22.1785 35.7222 22.3407 35.8005 22.4859C35.8858 22.628 36.007 22.7452 36.1519 22.8257C36.2928 22.916 36.4567 22.964 36.6242 22.964C36.7916 22.964 36.9555 22.916 37.0965 22.8257C37.2433 22.7499 37.3638 22.6315 37.442 22.4859C37.5306 22.3441 37.5784 22.1807 37.5803 22.0136C37.5783 21.8447 37.5305 21.6794 37.442 21.5355C37.3676 21.3843 37.2464 21.2611 37.0965 21.1842Z" fill="#6E38FF"/>
<path d="M37.0908 12.0609C36.9605 12.0388 36.8269 12.0478 36.7008 12.087C36.5747 12.1262 36.4595 12.1945 36.3647 12.2865C36.2699 12.3785 36.1981 12.4915 36.1552 12.6164C36.1122 12.7414 36.0993 12.8746 36.1174 13.0055V18.4311H34.0209H33.9575H33.1569V16.5419C33.1569 13.5469 31.957 12.0494 29.5571 12.0494H25.053C24.4425 12.0494 24.1315 12.3777 24.1257 13.017C24.1199 13.6563 24.4252 13.9731 25.0357 13.9731H29.5744C30.6841 13.9731 31.2389 14.8351 31.2389 16.5592C31.2389 16.8096 31.1896 17.0575 31.0938 17.2888C30.998 17.5201 30.8576 17.7303 30.6805 17.9073C30.5035 18.0843 30.2933 18.2247 30.062 18.3206C29.8307 18.4164 29.5828 18.4657 29.3325 18.4657H25.1452C25.0161 18.4487 24.8848 18.4622 24.7619 18.505C24.6389 18.5478 24.5277 18.6188 24.437 18.7122C24.3463 18.8057 24.2788 18.919 24.2397 19.0432C24.2007 19.1674 24.1912 19.299 24.2121 19.4275V20.0784C24.2121 21.9983 25.1951 22.9582 27.1611 22.9582H27.2071C27.3371 22.9785 27.4699 22.968 27.5951 22.9276C27.7202 22.8872 27.8341 22.818 27.9276 22.7255C28.0212 22.6331 28.0917 22.5201 28.1337 22.3954C28.1756 22.2708 28.1877 22.1381 28.169 22.0079C28.1873 21.8753 28.1746 21.7402 28.1318 21.6133C28.089 21.4865 28.0172 21.3713 27.9223 21.2769C27.8273 21.1825 27.7117 21.1115 27.5846 21.0694C27.4575 21.0273 27.3224 21.0154 27.1899 21.0345H27.0977C26.8877 21.0652 26.6739 21.0143 26.5003 20.8921C26.3268 20.77 26.2066 20.5859 26.1646 20.3779H37.062C37.1922 20.3943 37.3245 20.3805 37.4485 20.3374C37.5725 20.2943 37.6849 20.2231 37.7768 20.1295C37.8688 20.0358 37.9379 19.9222 37.9788 19.7974C38.0196 19.6727 38.0311 19.5402 38.0123 19.4103V13.0112C38.0125 12.7641 37.9163 12.5266 37.7442 12.3492C37.5722 12.1718 37.3378 12.0684 37.0908 12.0609Z" fill="#6E38FF"/>
<path d="M41.4162 19.3986V10.5344C41.4326 10.405 41.4195 10.2734 41.3778 10.1498C41.3361 10.0261 41.267 9.91346 41.1755 9.82034C41.0841 9.72723 40.9727 9.65604 40.8498 9.61213C40.7269 9.56822 40.5956 9.55273 40.4659 9.56682H39.4925C39.3597 9.55414 39.2258 9.57176 39.1009 9.61834C38.9759 9.66493 38.8631 9.73927 38.7711 9.83576C38.679 9.93225 38.6101 10.0484 38.5694 10.1754C38.5288 10.3024 38.5175 10.437 38.5364 10.569C38.5364 11.1853 38.8416 11.4963 39.4925 11.4963V19.3986C39.4744 19.5315 39.4872 19.6667 39.5301 19.7937C39.5729 19.9208 39.6445 20.0362 39.7393 20.131C39.8341 20.2258 39.9495 20.2974 40.0765 20.3402C40.2036 20.383 40.3388 20.3959 40.4716 20.3778C40.6025 20.3937 40.7353 20.3789 40.8596 20.3348C40.9838 20.2906 41.0962 20.2183 41.1877 20.1234C41.2793 20.0285 41.3475 19.9136 41.3872 19.7879C41.4268 19.6621 41.4368 19.5289 41.4162 19.3986Z" fill="#6E38FF"/>
<path d="M44.7281 12.0609C44.5976 12.0432 44.4648 12.0562 44.3403 12.0989C44.2157 12.1416 44.1028 12.2127 44.0106 12.3066C43.9183 12.4006 43.8492 12.5147 43.8088 12.64C43.7684 12.7653 43.7578 12.8984 43.7778 13.0285V20.0611C43.7953 20.1916 43.7828 20.3243 43.7413 20.4492C43.6997 20.5741 43.6301 20.6878 43.5379 20.7817C43.4456 20.8756 43.3332 20.9472 43.209 20.991C43.0849 21.0348 42.9524 21.0497 42.8217 21.0345H42.0902C41.9566 21.0074 41.8185 21.0133 41.6877 21.0514C41.5569 21.0896 41.4373 21.159 41.3393 21.2537C41.2412 21.3483 41.1677 21.4653 41.1249 21.5947C41.0821 21.7241 41.0714 21.8619 41.0937 21.9964C41.0762 22.1248 41.0889 22.2555 41.1306 22.3782C41.1724 22.5009 41.2421 22.6122 41.3343 22.7032C41.4265 22.7943 41.5387 22.8627 41.6618 22.903C41.785 22.9432 41.9159 22.9543 42.0441 22.9352H42.7929C44.5899 22.9352 45.546 22.077 45.6727 20.3491V12.9824C45.6848 12.8564 45.6685 12.7292 45.625 12.6103C45.5815 12.4914 45.5118 12.3838 45.4212 12.2954C45.3305 12.2069 45.2212 12.14 45.1013 12.0994C44.9813 12.0588 44.8538 12.0456 44.7281 12.0609Z" fill="#6E38FF"/>
<path d="M72.0003 9.56683C71.8716 9.54902 71.7405 9.56107 71.6172 9.60206C71.4938 9.64305 71.3816 9.71187 71.2892 9.80321C71.1967 9.89454 71.1265 10.0059 71.084 10.1287C71.0416 10.2515 71.0279 10.3825 71.0442 10.5114V18.431H68.9419C68.8962 18.4311 68.851 18.4409 68.8094 18.4598H67.2428V16.6167C67.2428 14.6507 66.2828 13.6677 64.3629 13.6677H63.1073L64.9677 11.3005C65.0699 11.2171 65.151 11.1107 65.2045 10.9901C65.258 10.8695 65.2824 10.738 65.2757 10.6062C65.2689 10.4745 65.2313 10.3461 65.1658 10.2316C65.1003 10.1171 65.0087 10.0196 64.8986 9.94697C64.8119 9.84502 64.7025 9.76491 64.5791 9.71311C64.4557 9.66132 64.3219 9.6393 64.1884 9.64883C64.0549 9.65836 63.9256 9.69919 63.8108 9.76799C63.696 9.8368 63.5991 9.93166 63.5278 10.0449L60.5673 13.8233C60.4698 13.9238 60.3935 14.0429 60.343 14.1735C60.2926 14.3041 60.2689 14.4436 60.2735 14.5835V14.6699C60.2594 14.7997 60.2754 14.9311 60.3204 15.0537C60.3654 15.1762 60.4382 15.2868 60.533 15.3765C60.6278 15.4663 60.7421 15.533 60.867 15.5713C60.9918 15.6096 61.1238 15.6184 61.2527 15.5972H64.3629C64.4965 15.5777 64.6329 15.5898 64.761 15.6324C64.8891 15.6751 65.0055 15.7472 65.1007 15.843C65.1959 15.9388 65.2673 16.0555 65.3092 16.1839C65.3512 16.3122 65.3624 16.4487 65.3421 16.5822V18.4656H60.4578C60.4185 18.4452 60.3753 18.4334 60.3311 18.431H58.2634V10.546C58.2823 10.4183 58.2713 10.2881 58.2313 10.1654C58.1914 10.0427 58.1235 9.93089 58.0331 9.83882C57.9427 9.74674 57.8322 9.67687 57.7103 9.63468C57.5884 9.59248 57.4583 9.57912 57.3303 9.59563C57.2008 9.57504 57.0683 9.58481 56.9433 9.62416C56.8182 9.66351 56.704 9.73137 56.6096 9.82239C56.5152 9.91342 56.4433 10.0251 56.3994 10.1487C56.3556 10.2723 56.341 10.4043 56.3569 10.5345V20.061C56.3753 20.1936 56.3625 20.3287 56.3197 20.4556C56.2769 20.5824 56.2052 20.6976 56.1102 20.792C56.0153 20.8864 55.8997 20.9574 55.7726 20.9995C55.6455 21.0416 55.5103 21.0535 55.3778 21.0344H52.1351C51.4612 21.0344 51.1271 20.7291 51.1271 20.1071V16.8932C51.1443 16.7623 51.1316 16.6292 51.0901 16.5039C51.0486 16.3785 50.9792 16.2642 50.8873 16.1695C50.7953 16.0748 50.6831 16.0021 50.5591 15.9568C50.435 15.9116 50.3024 15.895 50.171 15.9083C49.5317 15.9083 49.2149 16.2423 49.2207 16.9162V20.0841C49.2207 22.0078 50.1883 22.9639 52.1005 22.9639H55.2971C57.1518 22.9639 58.1309 22.1057 58.2346 20.3778H59.1677C59.2114 20.3865 59.2564 20.3865 59.3001 20.3778H69.921C69.9648 20.3865 70.0098 20.3865 70.0535 20.3778H72.0003C72.1305 20.3942 72.2628 20.3804 72.3868 20.3373C72.5108 20.2942 72.6232 20.223 72.7151 20.1294C72.8071 20.0357 72.8762 19.9221 72.9171 19.7973C72.9579 19.6726 72.9694 19.5401 72.9506 19.4102V10.5345C72.9694 10.4045 72.9579 10.272 72.9171 10.1473C72.8762 10.0225 72.8071 9.90891 72.7151 9.81526C72.6232 9.72161 72.5108 9.65046 72.3868 9.60737C72.2628 9.56428 72.1305 9.55041 72.0003 9.56683Z" fill="#6E38FF"/>
<path d="M75.387 9.56682H74.4193C74.2861 9.5532 74.1516 9.57012 74.0259 9.61629C73.9002 9.66246 73.7867 9.73667 73.6939 9.83328C73.6012 9.92988 73.5317 10.0464 73.4908 10.1738C73.4498 10.3013 73.4384 10.4365 73.4575 10.569C73.4575 11.1853 73.7685 11.4963 74.4193 11.4963V19.3986C74.4002 19.5312 74.4122 19.6663 74.4542 19.7934C74.4963 19.9205 74.5673 20.0361 74.6617 20.1311C74.7561 20.226 74.8713 20.2977 74.9982 20.3406C75.125 20.3834 75.2601 20.3961 75.3927 20.3778C75.5236 20.3937 75.6564 20.3789 75.7807 20.3348C75.9049 20.2906 76.0173 20.2183 76.1088 20.1234C76.2004 20.0285 76.2686 19.9136 76.3083 19.7879C76.3479 19.6621 76.3579 19.5289 76.3373 19.3986V10.5344C76.3537 10.405 76.3406 10.2734 76.2989 10.1498C76.2572 10.0261 76.1881 9.91346 76.0966 9.82034C76.0052 9.72723 75.8938 9.65604 75.7709 9.61213C75.648 9.56822 75.5167 9.55273 75.387 9.56682Z" fill="#6E38FF"/>
<path d="M29.2057 26.5984C29.0511 26.6096 28.9008 26.6546 28.7655 26.7303C28.6301 26.8059 28.513 26.9103 28.4224 27.0361C28.2496 27.6121 27.186 30.444 25.2315 35.5317L24.0796 38.5843V38.6419C24.0796 39.0758 24.3503 39.3408 24.8917 39.4368H24.9896C25.2476 39.4278 25.495 39.3325 25.6923 39.1661L27.4548 34.4834H30.9912L32.4196 38.1869C32.5982 39.0278 32.9438 39.4425 33.4506 39.4425H33.5082C34.0842 39.3504 34.3261 39.0969 34.3261 38.6765V38.5901C34.2954 38.4058 32.9515 34.8655 30.2943 27.9692C30.0946 27.0553 29.7318 26.5984 29.2057 26.5984ZM29.2057 29.8353L30.3577 32.8419H28.1114L29.2057 29.8353Z" fill="#6E38FF"/>
<path d="M37.3039 37.801H36.8316V27.3068C36.8316 26.9497 36.5724 26.7308 36.0482 26.6099H35.91C35.4569 26.6099 35.1977 26.9036 35.1324 27.4911V38.6188C35.2304 39.1948 35.5183 39.4367 35.9849 39.4367H37.2347C37.7128 39.4367 37.995 39.1718 38.0872 38.6419V38.59C37.972 38.0659 37.7128 37.801 37.3039 37.801Z" fill="#6E38FF"/>
<path d="M41.4451 37.801H40.9728V27.3068C40.9728 26.9497 40.7078 26.7308 40.1837 26.6099H40.0282C39.5751 26.6099 39.3159 26.9036 39.2506 27.4911V38.6189C39.3485 39.1948 39.6308 39.4367 40.0973 39.4367H41.3759C41.4861 39.4454 41.5968 39.4314 41.7013 39.3955C41.8058 39.3596 41.9018 39.3026 41.9833 39.2281C42.0649 39.1536 42.1302 39.0631 42.1754 38.9622C42.2205 38.8614 42.2444 38.7524 42.2457 38.6419V38.5901C42.1132 38.0659 41.854 37.801 41.4451 37.801Z" fill="#6E38FF"/>
<path d="M58.9892 26.5292H58.8279C58.6936 26.5397 58.5636 26.5817 58.4486 26.6517C58.3335 26.7218 58.2365 26.8179 58.1655 26.9324L55.6658 35.5259C54.3296 30.8259 53.5885 28.2705 53.4426 27.8597C53.3101 26.9727 52.9818 26.5292 52.4634 26.5292H52.3655C52.2428 26.5333 52.1223 26.5625 52.0113 26.615C51.9004 26.6675 51.8014 26.7422 51.7204 26.8345C51.5937 27.0303 50.7355 29.9351 49.1458 35.5489L46.8823 27.6754C46.7555 26.9093 46.4388 26.5234 45.9377 26.5234H45.7994C45.3963 26.5234 45.1371 26.7884 45.0161 27.3298C45.1851 28.0133 46.2122 31.5785 48.0976 38.0256C48.2415 38.9644 48.5583 39.4309 49.0537 39.4309H49.1573C49.3022 39.4246 49.4438 39.3855 49.5715 39.3167C49.6992 39.2479 49.8096 39.1511 49.8946 39.0335L52.3885 30.394C52.7072 31.5459 53.4464 34.0994 54.606 38.0544C54.7443 38.9702 55.0783 39.4252 55.6255 39.4252H55.66C55.9397 39.4068 56.2006 39.2784 56.3858 39.0681L59.7494 27.3989V27.2146C59.7725 26.8748 59.5248 26.6386 58.9892 26.5292Z" fill="#6E38FF"/>
<path d="M62.0303 26.5523C61.7994 26.5444 61.5747 26.6275 61.4045 26.7837C61.2342 26.9399 61.1322 27.1567 61.1202 27.3874C61.247 27.9634 61.5234 28.2168 61.9554 28.2168C62.5314 28.1362 62.8424 27.8885 62.8424 27.4796V27.2895C62.8424 26.9324 62.5717 26.6905 62.0303 26.5523Z" fill="#6E38FF"/>
<path d="M62.0303 28.7986C61.4889 28.7986 61.1836 29.1038 61.1202 29.7144V38.6189C61.2182 39.1949 61.5004 39.4368 61.9612 39.4368H62.013C62.589 39.3446 62.8424 39.0912 62.8424 38.6707V29.5301C62.8424 29.173 62.5717 28.9253 62.0303 28.7986Z" fill="#6E38FF"/>
<path d="M75.387 35.9463C75.2642 35.9303 75.1393 35.9433 75.0224 35.9841C74.9055 36.025 74.7997 36.0926 74.7136 36.1815C74.6274 36.2705 74.5632 36.3783 74.5262 36.4965C74.4891 36.6147 74.4801 36.7398 74.5 36.8621V36.9312C74.5274 37.1259 74.4795 37.3237 74.366 37.4842C74.2526 37.6448 74.0821 37.756 73.8895 37.7952L73.8088 37.8355V31.0217C73.7906 29.9909 73.4092 28.9997 72.7318 28.2225C72.3048 27.7216 71.7754 27.3179 71.1793 27.0387C70.5832 26.7595 69.9341 26.6113 69.2759 26.604C68.2238 26.5551 67.193 26.9118 66.3961 27.6005V27.3355C66.3961 26.9842 66.1254 26.7596 65.5897 26.604C65.0483 26.604 64.7488 26.9093 64.6797 27.5198V38.6188C64.7834 39.1948 65.0598 39.4367 65.5206 39.4367H65.584C66.1254 39.3445 66.3961 39.0911 66.3961 38.6764V31.7129C66.3641 31.1272 66.4442 30.5407 66.6322 29.985C66.8408 29.4794 67.1932 29.0461 67.6458 28.739C68.0983 28.4318 68.6311 28.2642 69.178 28.2571H69.2759C69.5583 28.2625 69.8388 28.3031 70.1111 28.378C71.432 28.8619 72.0924 29.8852 72.0924 31.448V38.3596C72.0771 38.5926 72.1024 38.8265 72.1673 39.0508C72.2303 39.2177 72.3473 39.3588 72.4996 39.4517C72.652 39.5445 72.831 39.5839 73.0082 39.5634H73.5842C75.3524 39.5634 76.2394 38.6534 76.2394 36.8506V36.8621C76.2618 36.7425 76.2559 36.6192 76.222 36.5023C76.1881 36.3855 76.1272 36.2781 76.0443 36.1891C75.9614 36.1 75.8587 36.0316 75.7445 35.9894C75.6304 35.9473 75.5079 35.9325 75.387 35.9463Z" fill="#6E38FF"/>
<path d="M110.953 27.8425C112.563 27.8425 113.868 26.5377 113.868 24.9281C113.868 23.3185 112.563 22.0137 110.953 22.0137C109.344 22.0137 108.039 23.3185 108.039 24.9281C108.039 26.5377 109.344 27.8425 110.953 27.8425Z" fill="#6E38FF"/>
<path d="M88.473 22.9696C88.1141 22.9696 87.7698 22.827 87.5159 22.5732C87.2621 22.3193 87.1195 21.9751 87.1195 21.6161C87.1195 21.2571 87.2621 20.9128 87.5159 20.659C87.7698 20.4052 88.1141 20.2626 88.473 20.2626C93.2214 20.2565 97.7734 18.3671 101.13 15.009C104.487 11.6508 106.375 7.09821 106.38 2.34987C106.38 1.99089 106.523 1.64661 106.776 1.39278C107.03 1.13894 107.375 0.996338 107.733 0.996338C108.092 0.996338 108.437 1.13894 108.691 1.39278C108.944 1.64661 109.087 1.99089 109.087 2.34987C109.081 7.8157 106.907 13.056 103.043 16.9215C99.1786 20.7869 93.9389 22.962 88.473 22.9696Z" fill="#6E38FF"/>
<path d="M132.829 22.9696C127.363 22.962 122.123 20.7869 118.259 16.9215C114.394 13.056 112.221 7.8157 112.215 2.34987C112.215 1.99089 112.357 1.64661 112.611 1.39278C112.865 1.13894 113.209 0.996338 113.568 0.996338C113.927 0.996338 114.271 1.13894 114.525 1.39278C114.779 1.64661 114.922 1.99089 114.922 2.34987C114.926 7.09821 116.814 11.6508 120.171 15.009C123.528 18.3671 128.08 20.2565 132.829 20.2626C133.188 20.2626 133.532 20.4052 133.786 20.659C134.04 20.9128 134.182 21.2571 134.182 21.6161C134.182 21.9751 134.04 22.3193 133.786 22.5732C133.532 22.827 133.188 22.9696 132.829 22.9696Z" fill="#6E38FF"/>
<path d="M107.733 48.1626C107.375 48.1626 107.03 48.02 106.776 47.7661C106.523 47.5123 106.38 47.168 106.38 46.8091C106.375 42.0612 104.487 37.5092 101.13 34.152C97.7729 30.7948 93.2208 28.9067 88.473 28.9021C88.1141 28.9021 87.7698 28.7595 87.5159 28.5057C87.2621 28.2519 87.1195 27.9076 87.1195 27.5486C87.1195 27.1896 87.2621 26.8453 87.5159 26.5915C87.7698 26.3377 88.1141 26.1951 88.473 26.1951C93.9383 26.2012 99.178 28.3749 103.043 32.2395C106.907 36.1041 109.081 41.3438 109.087 46.8091C109.087 47.168 108.944 47.5123 108.691 47.7661C108.437 48.02 108.092 48.1626 107.733 48.1626Z" fill="#6E38FF"/>
<path d="M113.568 48.1626C113.209 48.1626 112.865 48.02 112.611 47.7661C112.357 47.5123 112.215 47.168 112.215 46.8091C112.221 41.3438 114.394 36.1041 118.259 32.2395C122.124 28.3749 127.363 26.2012 132.829 26.1951C133.188 26.1951 133.532 26.3377 133.786 26.5915C134.04 26.8453 134.182 27.1896 134.182 27.5486C134.182 27.9076 134.04 28.2519 133.786 28.5057C133.532 28.7595 133.188 28.9021 132.829 28.9021C128.081 28.9067 123.529 30.7948 120.172 34.152C116.814 37.5092 114.926 42.0612 114.922 46.8091C114.922 47.168 114.779 47.5123 114.525 47.7661C114.271 48.02 113.927 48.1626 113.568 48.1626Z" fill="#6E38FF"/>
<path d="M96.479 4.46942L97.4697 6.47955C97.5339 6.60799 97.6282 6.71903 97.7445 6.80326C97.8608 6.88748 97.9957 6.94241 98.1378 6.96337L100.355 7.28591C100.519 7.30853 100.674 7.3769 100.801 7.48321C100.928 7.58951 101.022 7.72944 101.073 7.88695C101.124 8.04446 101.13 8.21318 101.09 8.37378C101.049 8.53438 100.964 8.68034 100.845 8.79496L99.2667 10.3674C99.1633 10.466 99.0857 10.5884 99.0405 10.7239C98.9953 10.8595 98.984 11.004 99.0075 11.1449L99.3877 13.3566C99.4143 13.5178 99.3957 13.6832 99.3338 13.8344C99.2719 13.9856 99.1692 14.1166 99.0371 14.2128C98.9051 14.309 98.7489 14.3666 98.586 14.3791C98.4232 14.3917 98.26 14.3588 98.1148 14.284L96.0989 13.2472C95.9723 13.1791 95.8308 13.1435 95.687 13.1435C95.5433 13.1435 95.4018 13.1791 95.2752 13.2472L93.2881 14.2897C93.1422 14.3666 92.9777 14.401 92.8132 14.389C92.6488 14.3771 92.491 14.3192 92.3578 14.222C92.2246 14.1248 92.1213 13.9922 92.0597 13.8392C91.9982 13.6862 91.9807 13.519 92.0095 13.3566L92.3838 11.1449C92.4086 11.0045 92.3984 10.8601 92.3542 10.7245C92.31 10.5889 92.2332 10.4662 92.1304 10.3674L90.5235 8.80071C90.4061 8.68517 90.3233 8.53924 90.2842 8.37927C90.2451 8.2193 90.2513 8.0516 90.3021 7.89496C90.3529 7.73831 90.4463 7.59891 90.5719 7.49236C90.6975 7.38581 90.8502 7.31632 91.013 7.29167L93.2363 6.96913C93.3778 6.94871 93.5122 6.89393 93.6276 6.80959C93.7431 6.72525 93.8361 6.61392 93.8987 6.48531L94.8951 4.47518C94.9669 4.32654 95.0791 4.20108 95.2188 4.1131C95.3585 4.02511 95.5201 3.97815 95.6852 3.97754C95.8503 3.97694 96.0123 4.02274 96.1526 4.1097C96.293 4.19667 96.4061 4.32131 96.479 4.46942Z" fill="#6E38FF"/>
<path d="M126.412 4.46944L127.403 6.47958C127.467 6.60831 127.561 6.7196 127.677 6.80388C127.794 6.88816 127.929 6.9429 128.071 6.9634L130.288 7.28594C130.451 7.31058 130.604 7.38007 130.73 7.48662C130.855 7.59317 130.949 7.73258 130.999 7.88922C131.05 8.04587 131.056 8.21357 131.017 8.37354C130.978 8.53351 130.895 8.67944 130.778 8.79498L129.171 10.3674C129.068 10.4663 128.991 10.5889 128.947 10.7245C128.903 10.8601 128.893 11.0045 128.918 11.1449L129.298 13.3567C129.325 13.5193 129.306 13.6863 129.244 13.8389C129.181 13.9915 129.078 14.1237 128.944 14.2206C128.811 14.3175 128.653 14.3753 128.489 14.3875C128.324 14.3997 128.16 14.3659 128.013 14.2897L126.026 13.2472C125.898 13.1751 125.753 13.1372 125.606 13.1372C125.459 13.1372 125.314 13.1751 125.185 13.2472L123.198 14.2897C123.052 14.3659 122.887 14.3997 122.723 14.3875C122.559 14.3753 122.401 14.3175 122.267 14.2206C122.134 14.1237 122.03 13.9915 121.968 13.8389C121.905 13.6863 121.887 13.5193 121.914 13.3567L122.294 11.1449C122.317 11.0045 122.306 10.8605 122.262 10.7252C122.218 10.5899 122.142 10.4671 122.041 10.3674L120.434 8.80074C120.316 8.6852 120.233 8.53927 120.194 8.3793C120.155 8.21933 120.161 8.05163 120.212 7.89498C120.263 7.73834 120.356 7.59893 120.482 7.49238C120.608 7.38583 120.76 7.31634 120.923 7.2917L123.141 6.96915C123.283 6.94866 123.418 6.89392 123.534 6.80964C123.651 6.72536 123.745 6.61407 123.809 6.48534L124.799 4.4752C124.87 4.32054 124.983 4.18929 125.125 4.09705C125.268 4.0048 125.434 3.95545 125.604 3.95484C125.774 3.95423 125.94 4.0024 126.084 4.09363C126.227 4.18485 126.341 4.31529 126.412 4.46944Z" fill="#6E38FF"/>
<path d="M96.479 35.2666L97.4697 37.2767C97.5339 37.4052 97.6282 37.5162 97.7445 37.6004C97.8608 37.6847 97.9957 37.7396 98.1378 37.7605L100.355 38.0831C100.519 38.1057 100.674 38.1741 100.801 38.2804C100.928 38.3867 101.022 38.5266 101.073 38.6841C101.124 38.8416 101.13 39.0104 101.09 39.171C101.049 39.3315 100.964 39.4775 100.845 39.5921L99.2667 41.1588C99.1629 41.2583 99.085 41.3817 99.0398 41.5182C98.9946 41.6548 98.9835 41.8003 99.0075 41.9421L99.3877 44.1481C99.4156 44.3097 99.3979 44.4759 99.3365 44.628C99.2752 44.7801 99.1726 44.912 99.0403 45.009C98.908 45.1059 98.7513 45.1641 98.5878 45.1768C98.4243 45.1896 98.2605 45.1564 98.1148 45.0811L96.1277 44.0386C96.0011 43.9706 95.8596 43.9349 95.7158 43.9349C95.5721 43.9349 95.4306 43.9706 95.304 44.0386L93.3169 45.0811C93.171 45.158 93.0065 45.1924 92.8421 45.1805C92.6776 45.1685 92.5198 45.1106 92.3866 45.0134C92.2534 44.9162 92.1501 44.7836 92.0885 44.6306C92.027 44.4776 92.0095 44.3104 92.0383 44.1481L92.4127 41.9421C92.4379 41.8007 92.428 41.6554 92.3838 41.5188C92.3396 41.3822 92.2625 41.2585 92.1592 41.1588L90.5523 39.5921C90.4349 39.4766 90.3521 39.3307 90.313 39.1707C90.2739 39.0107 90.2801 38.843 90.3309 38.6864C90.3817 38.5297 90.4751 38.3903 90.6007 38.2838C90.7263 38.1772 90.879 38.1077 91.0418 38.0831L93.2651 37.7605C93.4066 37.7401 93.541 37.6853 93.6564 37.601C93.7719 37.5167 93.865 37.4053 93.9275 37.2767L94.9239 35.2666C94.999 35.1257 95.1111 35.0078 95.2481 34.9256C95.385 34.8435 95.5417 34.8 95.7014 34.8C95.8612 34.8 96.0179 34.8435 96.1548 34.9256C96.2918 35.0078 96.4038 35.1257 96.479 35.2666Z" fill="#6E38FF"/>
<path d="M126.412 35.2667L127.403 37.2769C127.467 37.4056 127.561 37.5169 127.677 37.6012C127.794 37.6855 127.929 37.7402 128.071 37.7607L130.289 38.0832C130.451 38.1079 130.604 38.1774 130.73 38.2839C130.855 38.3905 130.949 38.5299 130.999 38.6865C131.05 38.8432 131.056 39.0109 131.017 39.1708C130.978 39.3308 130.895 39.4767 130.778 39.5923L129.171 41.1589C129.068 41.2587 128.991 41.3823 128.947 41.5189C128.902 41.6555 128.892 41.8009 128.918 41.9422L129.298 44.1482C129.325 44.3108 129.306 44.4778 129.244 44.6304C129.181 44.783 129.078 44.9152 128.944 45.0121C128.811 45.109 128.653 45.1669 128.489 45.1791C128.324 45.1913 128.16 45.1574 128.013 45.0813L126.026 44.0388C125.901 43.9707 125.76 43.9351 125.617 43.9351C125.475 43.9351 125.334 43.9707 125.208 44.0388L123.221 45.0813C123.075 45.1574 122.91 45.1913 122.746 45.1791C122.582 45.1669 122.424 45.109 122.29 45.0121C122.157 44.9152 122.053 44.783 121.991 44.6304C121.928 44.4778 121.91 44.3108 121.937 44.1482L122.317 41.9422C122.341 41.8009 122.33 41.656 122.286 41.5196C122.242 41.3833 122.166 41.2596 122.064 41.1589L120.457 39.5923C120.339 39.4767 120.256 39.3308 120.217 39.1708C120.178 39.0109 120.184 38.8432 120.235 38.6865C120.286 38.5299 120.38 38.3905 120.505 38.2839C120.631 38.1774 120.783 38.1079 120.946 38.0832L123.164 37.7607C123.306 37.7402 123.441 37.6855 123.557 37.6012C123.674 37.5169 123.768 37.4056 123.832 37.2769L124.823 35.2667C124.896 35.1186 125.009 34.994 125.15 34.9068C125.29 34.8196 125.452 34.7734 125.617 34.7734C125.783 34.7734 125.945 34.8196 126.085 34.9068C126.226 34.994 126.339 35.1186 126.412 35.2667Z" fill="#6E38FF"/>
</g>
<defs>
<clipPath id="clip0_2218_1828">
<rect width="111.761" height="50" fill="white" transform="translate(23.2386)"/>
</clipPath>
</defs>
</svg>
