<svg width="157" height="71" viewBox="0 0 157 71" fill="none" xmlns="http://www.w3.org/2000/svg">
<path d="M19.4672 30.4267C19.2657 30.3179 19.0408 30.2596 18.8118 30.2568C18.5775 30.2583 18.3471 30.3166 18.1403 30.4267C17.9326 30.5416 17.7616 30.7127 17.6467 30.9203C17.5366 31.1271 17.4783 31.3576 17.4768 31.5919C17.4783 31.8236 17.5366 32.0514 17.6467 32.2553C17.7665 32.455 17.9367 32.6197 18.1403 32.7327C18.3383 32.8596 18.5686 32.927 18.8037 32.927C19.0389 32.927 19.2692 32.8596 19.4672 32.7327C19.6736 32.6263 19.8428 32.4599 19.9527 32.2553C20.0771 32.0562 20.1443 31.8267 20.1469 31.5919C20.1441 31.3546 20.077 31.1225 19.9527 30.9203C19.8482 30.7078 19.6779 30.5348 19.4672 30.4267Z" fill="#6E38FF"/>
<path d="M19.4592 17.6103C19.2762 17.5794 19.0885 17.5919 18.9113 17.647C18.7341 17.702 18.5724 17.7981 18.4392 17.9273C18.306 18.0565 18.2052 18.2153 18.1448 18.3908C18.0845 18.5663 18.0663 18.7535 18.0918 18.9373V26.5591H15.1466H15.0576H13.9329V23.9052C13.9329 19.6978 12.2473 17.5942 8.876 17.5942H2.54875C1.6911 17.5942 1.25418 18.0554 1.24608 18.9535C1.23799 19.8516 1.66682 20.2966 2.52448 20.2966H8.90028C10.4592 20.2966 11.2386 21.5076 11.2386 23.9295C11.2386 24.2812 11.1693 24.6295 11.0347 24.9544C10.9002 25.2793 10.7029 25.5746 10.4542 25.8232C10.2055 26.0719 9.91027 26.2692 9.58534 26.4038C9.26041 26.5384 8.91215 26.6077 8.56045 26.6077H2.67821C2.49687 26.5839 2.31248 26.6028 2.13975 26.6629C1.96703 26.723 1.81075 26.8227 1.68341 26.954C1.55606 27.0853 1.46117 27.2445 1.40631 27.419C1.35145 27.5935 1.33815 27.7783 1.36745 27.9589V28.8732C1.36745 31.5702 2.74833 32.9187 5.5101 32.9187H5.57483C5.75735 32.9472 5.944 32.9324 6.11978 32.8756C6.29556 32.8189 6.45558 32.7217 6.58698 32.5918C6.71839 32.462 6.81751 32.3032 6.8764 32.1281C6.93528 31.953 6.95229 31.7665 6.92605 31.5837C6.9518 31.3974 6.93389 31.2076 6.87374 31.0294C6.8136 30.8512 6.71285 30.6894 6.57946 30.5568C6.44607 30.4242 6.28369 30.3244 6.10513 30.2653C5.92657 30.2062 5.73672 30.1894 5.55056 30.2163H5.4211C5.12608 30.2595 4.82575 30.1879 4.58192 30.0163C4.33809 29.8447 4.16931 29.5862 4.11034 29.2939H19.4187C19.6017 29.317 19.7875 29.2975 19.9617 29.237C20.1359 29.1764 20.2937 29.0765 20.4229 28.9449C20.5521 28.8134 20.6492 28.6537 20.7066 28.4785C20.764 28.3032 20.7801 28.1171 20.7538 27.9346V18.9454C20.7539 18.5982 20.6188 18.2646 20.3771 18.0154C20.1355 17.7661 19.8062 17.6209 19.4592 17.6103Z" fill="#6E38FF"/>
<path d="M25.5356 27.9182V15.466C25.5587 15.2841 25.5402 15.0994 25.4817 14.9256C25.4231 14.7519 25.3259 14.5937 25.1975 14.4629C25.069 14.332 24.9126 14.232 24.7399 14.1704C24.5672 14.1087 24.3828 14.0869 24.2006 14.1067H22.8332C22.6467 14.0889 22.4586 14.1136 22.283 14.1791C22.1075 14.2445 21.9491 14.349 21.8198 14.4845C21.6905 14.6201 21.5936 14.7832 21.5365 14.9616C21.4794 15.14 21.4635 15.3291 21.49 15.5146C21.49 16.3803 21.9189 16.8172 22.8332 16.8172V27.9182C22.8077 28.1048 22.8258 28.2948 22.8859 28.4733C22.9461 28.6517 23.0467 28.8139 23.1798 28.9471C23.313 29.0802 23.4752 29.1808 23.6536 29.2409C23.8321 29.3011 24.0221 29.3191 24.2087 29.2937C24.3925 29.316 24.5791 29.2953 24.7536 29.2333C24.9282 29.1713 25.086 29.0697 25.2146 28.9363C25.3432 28.803 25.4391 28.6417 25.4948 28.465C25.5505 28.2884 25.5645 28.1012 25.5356 27.9182Z" fill="#6E38FF"/>
<path d="M30.188 17.6094C30.0047 17.5846 29.8181 17.6029 29.6431 17.6628C29.4681 17.7227 29.3096 17.8226 29.18 17.9546C29.0503 18.0866 28.9533 18.2469 28.8965 18.423C28.8398 18.599 28.8248 18.7859 28.8529 18.9687V28.8479C28.8776 29.0312 28.86 29.2177 28.8016 29.3931C28.7432 29.5686 28.6455 29.7283 28.5159 29.8603C28.3864 29.9922 28.2284 30.0928 28.054 30.1543C27.8796 30.2158 27.6935 30.2367 27.5098 30.2153H26.4822C26.2946 30.1773 26.1006 30.1855 25.9168 30.2392C25.7331 30.2928 25.5651 30.3903 25.4274 30.5232C25.2897 30.6562 25.1863 30.8206 25.1262 31.0023C25.0661 31.1841 25.0511 31.3777 25.0825 31.5665C25.0579 31.7469 25.0756 31.9306 25.1343 32.1029C25.1929 32.2753 25.2909 32.4316 25.4204 32.5596C25.5499 32.6875 25.7075 32.7836 25.8805 32.8401C26.0536 32.8967 26.2374 32.9122 26.4175 32.8854H27.4693C29.9938 32.8854 31.3369 31.6798 31.5149 29.2525V18.9039C31.5319 18.7269 31.509 18.5483 31.4479 18.3812C31.3867 18.2142 31.2889 18.063 31.1615 17.9388C31.0342 17.8146 30.8807 17.7205 30.7122 17.6635C30.5437 17.6065 30.3645 17.588 30.188 17.6094Z" fill="#6E38FF"/>
<path d="M68.4994 14.106C68.3185 14.0809 68.1344 14.0979 67.9611 14.1554C67.7879 14.213 67.6302 14.3097 67.5004 14.438C67.3705 14.5663 67.2719 14.7228 67.2122 14.8953C67.1526 15.0678 67.1334 15.2518 67.1562 15.4329V26.5582H64.203C64.1388 26.5583 64.0754 26.5721 64.0169 26.5986H61.8161V24.0095C61.8161 21.2477 60.4676 19.8668 57.7705 19.8668H56.0067L58.6201 16.5414C58.7637 16.4242 58.8777 16.2748 58.9528 16.1054C59.028 15.9359 59.0622 15.7512 59.0528 15.5661C59.0433 15.381 58.9904 15.2007 58.8984 15.0398C58.8064 14.8789 58.6778 14.742 58.523 14.64C58.4013 14.4968 58.2475 14.3842 58.0742 14.3115C57.9009 14.2387 57.7128 14.2078 57.5253 14.2211C57.3378 14.2345 57.1561 14.2919 56.9949 14.3885C56.8337 14.4852 56.6975 14.6185 56.5973 14.7775L52.4385 20.0853C52.3015 20.2265 52.1944 20.3938 52.1235 20.5773C52.0526 20.7608 52.0194 20.9567 52.0259 21.1533V21.2747C52.006 21.457 52.0285 21.6415 52.0917 21.8137C52.155 21.9859 52.2572 22.1412 52.3904 22.2673C52.5236 22.3935 52.6841 22.4871 52.8595 22.5409C53.0349 22.5947 53.2203 22.6071 53.4013 22.5774H57.7705C57.9583 22.5499 58.1498 22.5668 58.3298 22.6268C58.5097 22.6867 58.6732 22.788 58.8069 22.9226C58.9406 23.0571 59.041 23.2211 59.0999 23.4014C59.1588 23.5818 59.1746 23.7734 59.146 23.9609V26.6067H52.2848C52.2296 26.5781 52.1689 26.5615 52.1068 26.5582H49.2021V15.4814C49.2286 15.3021 49.2131 15.1191 49.157 14.9468C49.1009 14.7744 49.0056 14.6174 48.8786 14.488C48.7516 14.3587 48.5964 14.2605 48.4251 14.2013C48.2538 14.142 48.0711 14.1232 47.8913 14.1464C47.7094 14.1175 47.5233 14.1312 47.3476 14.1865C47.1719 14.2418 47.0114 14.3371 46.8788 14.465C46.7462 14.5928 46.6452 14.7497 46.5836 14.9233C46.522 15.0969 46.5016 15.2824 46.5239 15.4653V28.848C46.5496 29.0343 46.5317 29.224 46.4716 29.4022C46.4114 29.5805 46.3107 29.7422 46.1773 29.8748C46.0439 30.0075 45.8815 30.1072 45.703 30.1663C45.5244 30.2254 45.3346 30.2422 45.1484 30.2154H40.5931C39.6465 30.2154 39.1772 29.7865 39.1772 28.9127V24.3979C39.2013 24.214 39.1835 24.027 39.1252 23.8509C39.0668 23.6749 38.9694 23.5143 38.8402 23.3812C38.711 23.2482 38.5534 23.146 38.3792 23.0825C38.2049 23.0189 38.0186 22.9956 37.834 23.0143C36.9359 23.0143 36.4909 23.4836 36.499 24.4302V28.8803C36.499 31.5828 37.8583 32.9259 40.5446 32.9259H45.0351C47.6405 32.9259 49.016 31.7203 49.1616 29.293H50.4724C50.5338 29.3052 50.597 29.3052 50.6585 29.293H65.5785C65.6399 29.3052 65.7031 29.3052 65.7646 29.293H68.4994C68.6823 29.3161 68.8681 29.2966 69.0423 29.236C69.2165 29.1755 69.3743 29.0756 69.5036 28.944C69.6328 28.8124 69.7299 28.6528 69.7872 28.4776C69.8446 28.3023 69.8608 28.1162 69.8344 27.9337V15.4653C69.8608 15.2828 69.8446 15.0966 69.7872 14.9214C69.7299 14.7461 69.6328 14.5865 69.5036 14.4549C69.3743 14.3234 69.2165 14.2234 69.0423 14.1629C68.8681 14.1024 68.6823 14.0829 68.4994 14.106Z" fill="#6E38FF"/>
<path d="M73.257 14.1067H71.8977C71.7105 14.0876 71.5215 14.1113 71.3449 14.1762C71.1683 14.2411 71.0089 14.3453 70.8786 14.481C70.7484 14.6167 70.6507 14.7803 70.5932 14.9594C70.5356 15.1385 70.5196 15.3284 70.5464 15.5146C70.5464 16.3803 70.9834 16.8172 71.8977 16.8172V27.9182C71.8708 28.1044 71.8876 28.2942 71.9467 28.4728C72.0058 28.6514 72.1056 28.8138 72.2382 28.9471C72.3708 29.0805 72.5326 29.1813 72.7108 29.2414C72.889 29.3016 73.0787 29.3195 73.2651 29.2937C73.4489 29.316 73.6355 29.2953 73.81 29.2333C73.9846 29.1713 74.1424 29.0697 74.271 28.9363C74.3996 28.803 74.4955 28.6417 74.5512 28.465C74.6069 28.2884 74.6209 28.1012 74.592 27.9182V15.466C74.6151 15.2841 74.5966 15.0994 74.5381 14.9256C74.4795 14.7519 74.3823 14.5937 74.2539 14.4629C74.1254 14.332 73.9689 14.232 73.7963 14.1704C73.6236 14.1087 73.4392 14.0869 73.257 14.1067Z" fill="#6E38FF"/>
<path d="M8.38236 38.0312C8.16513 38.047 7.95401 38.1103 7.76387 38.2165C7.57374 38.3228 7.40924 38.4694 7.28197 38.6462C7.03924 39.4553 5.54508 43.4334 2.7995 50.5806L1.18127 54.8689V54.9498C1.18127 55.5593 1.56156 55.9315 2.32212 56.0663H2.45967C2.82202 56.0537 3.16964 55.9198 3.44679 55.6861L5.92267 49.108H10.8906L12.8972 54.3106C13.148 55.4919 13.6335 56.0744 14.3455 56.0744H14.4264C15.2355 55.945 15.5754 55.589 15.5754 54.9983V54.8769C15.5322 54.618 13.6443 49.6447 9.91159 39.9569C9.63109 38.6731 9.12135 38.0312 8.38236 38.0312ZM8.38236 42.5785L10.0006 46.802H6.84505L8.38236 42.5785Z" fill="#6E38FF"/>
<path d="M19.7585 53.7689H19.095V39.0269C19.095 38.5252 18.7309 38.2178 17.9946 38.0479H17.8004C17.1639 38.0479 16.7998 38.4605 16.7081 39.2858V54.9178C16.8457 55.7269 17.2502 56.0668 17.9056 56.0668H19.6614C20.3329 56.0668 20.7294 55.6946 20.8589 54.9502V54.8774C20.697 54.1411 20.3329 53.7689 19.7585 53.7689Z" fill="#6E38FF"/>
<path d="M25.576 53.7689H24.9125V39.0269C24.9125 38.5252 24.5403 38.2178 23.804 38.0479H23.5856C22.9491 38.0479 22.585 38.4605 22.4933 39.2858V54.9178C22.6308 55.7269 23.0273 56.0668 23.6827 56.0668H25.4789C25.6336 56.079 25.7892 56.0592 25.936 56.0088C26.0827 55.9584 26.2176 55.8784 26.3322 55.7737C26.4467 55.669 26.5385 55.5419 26.6019 55.4002C26.6653 55.2585 26.6989 55.1054 26.7007 54.9502V54.8774C26.5146 54.1411 26.1505 53.7689 25.576 53.7689Z" fill="#6E38FF"/>
<path d="M50.2216 37.9349H49.995C49.8064 37.9496 49.6238 38.0086 49.4622 38.107C49.3005 38.2053 49.1643 38.3404 49.0645 38.5012L45.553 50.5732C43.6759 43.9708 42.6348 40.3811 42.4298 39.8039C42.2437 38.5579 41.7825 37.9349 41.0543 37.9349H40.9168C40.7445 37.9406 40.5751 37.9817 40.4193 38.0554C40.2634 38.1292 40.1243 38.2341 40.0106 38.3637C39.8326 38.6388 38.627 42.7194 36.3939 50.6055L33.214 39.545C33.036 38.4689 32.591 37.9268 31.8871 37.9268H31.6929C31.1265 37.9268 30.7624 38.299 30.5925 39.0595C30.8299 40.0197 32.2728 45.0281 34.9213 54.0847C35.1236 55.4036 35.5686 56.0589 36.2644 56.0589H36.41C36.6136 56.05 36.8125 55.9951 36.9918 55.8984C37.1712 55.8018 37.3263 55.6658 37.4457 55.5007L40.9492 43.364C41.3969 44.9822 42.4352 48.5693 44.0642 54.1252C44.2584 55.4117 44.7277 56.0509 45.4964 56.0509H45.5449C45.9377 56.025 46.3042 55.8446 46.5644 55.5492L51.2896 39.1566V38.8977C51.322 38.4203 50.974 38.0886 50.2216 37.9349Z" fill="#6E38FF"/>
<path d="M54.4936 37.9665C54.1693 37.9555 53.8536 38.0723 53.6145 38.2917C53.3754 38.5111 53.232 38.8157 53.2152 39.1397C53.3932 39.9489 53.7816 40.3049 54.3884 40.3049C55.1975 40.1916 55.6345 39.8437 55.6345 39.2692V39.0022C55.6345 38.5006 55.2542 38.1607 54.4936 37.9665Z" fill="#6E38FF"/>
<path d="M54.4936 41.123C53.733 41.123 53.3042 41.5519 53.2152 42.4095V54.9184C53.3528 55.7275 53.7492 56.0673 54.3965 56.0673H54.4693C55.2784 55.9379 55.6345 55.5819 55.6345 54.9912V42.1506C55.6345 41.649 55.2542 41.3011 54.4936 41.123Z" fill="#6E38FF"/>
<path d="M73.257 51.1642C73.0844 51.1418 72.9091 51.16 72.7448 51.2173C72.5806 51.2747 72.432 51.3697 72.311 51.4946C72.1899 51.6196 72.0998 51.7711 72.0477 51.9371C71.9956 52.1031 71.983 52.279 72.0109 52.4507V52.5478C72.0494 52.8213 71.9821 53.0991 71.8227 53.3247C71.6634 53.5502 71.4239 53.7064 71.1533 53.7615L71.04 53.8181V44.2463C71.0144 42.7983 70.4786 41.4057 69.527 40.314C68.9271 39.6103 68.1835 39.0432 67.346 38.651C66.5086 38.2589 65.5969 38.0506 64.6723 38.0404C63.1943 37.9717 61.7462 38.4727 60.6267 39.4402V39.068C60.6267 38.5744 60.2464 38.2589 59.494 38.0404C58.7334 38.0404 58.3127 38.4692 58.2156 39.3269V54.9185C58.3612 55.7276 58.7496 56.0674 59.3969 56.0674H59.4859C60.2464 55.938 60.6267 55.582 60.6267 54.9994V45.2172C60.5818 44.3944 60.6944 43.5705 60.9585 42.7899C61.2515 42.0796 61.7466 41.471 62.3823 41.0395C63.018 40.608 63.7665 40.3726 64.5347 40.3626H64.6723C65.0689 40.3702 65.463 40.4272 65.8455 40.5325C67.7011 41.2121 68.6288 42.6497 68.6288 44.845V54.5544C68.6072 54.8817 68.6428 55.2102 68.734 55.5253C68.8225 55.7598 68.9868 55.958 69.2009 56.0885C69.4149 56.219 69.6663 56.2742 69.9153 56.2454H70.7244C73.2084 56.2454 74.4544 54.967 74.4544 52.4345V52.4507C74.4859 52.2826 74.4776 52.1095 74.43 51.9453C74.3823 51.7811 74.2969 51.6304 74.1804 51.5052C74.0639 51.3801 73.9196 51.284 73.7593 51.2248C73.5989 51.1656 73.4268 51.1448 73.257 51.1642Z" fill="#6E38FF"/>
<path d="M123.22 39.779C125.481 39.779 127.314 37.946 127.314 35.6849C127.314 33.4238 125.481 31.5908 123.22 31.5908C120.958 31.5908 119.125 33.4238 119.125 35.6849C119.125 37.946 120.958 39.779 123.22 39.779Z" fill="#6E38FF"/>
<path d="M91.6399 32.935C91.1356 32.935 90.652 32.7347 90.2954 32.3781C89.9388 32.0215 89.7385 31.5379 89.7385 31.0336C89.7385 30.5293 89.9388 30.0456 90.2954 29.6891C90.652 29.3325 91.1356 29.1322 91.6399 29.1322C98.3103 29.1236 104.705 26.4694 109.421 21.752C114.137 17.0346 116.789 10.6392 116.795 3.96879C116.795 3.46451 116.996 2.98088 117.352 2.62429C117.709 2.26771 118.192 2.06738 118.697 2.06738C119.201 2.06738 119.685 2.26771 120.041 2.62429C120.398 2.98088 120.598 3.46451 120.598 3.96879C120.589 11.6471 117.536 19.0085 112.107 24.4387C106.679 29.8688 99.3182 32.9243 91.6399 32.935Z" fill="#6E38FF"/>
<path d="M153.95 32.935C146.271 32.9243 138.911 29.8688 133.482 24.4387C128.053 19.0085 125 11.6471 124.991 3.96879C124.991 3.46451 125.192 2.98088 125.548 2.62429C125.905 2.26771 126.389 2.06738 126.893 2.06738C127.397 2.06738 127.881 2.26771 128.237 2.62429C128.594 2.98088 128.794 3.46451 128.794 3.96879C128.801 10.6392 131.453 17.0346 136.169 21.752C140.885 26.4694 147.279 29.1236 153.95 29.1322C154.454 29.1322 154.937 29.3325 155.294 29.6891C155.651 30.0456 155.851 30.5293 155.851 31.0336C155.851 31.5379 155.651 32.0215 155.294 32.3781C154.937 32.7347 154.454 32.935 153.95 32.935Z" fill="#6E38FF"/>
<path d="M118.697 68.3253C118.192 68.3253 117.709 68.125 117.352 67.7684C116.996 67.4118 116.795 66.9282 116.795 66.4239C116.789 59.7543 114.136 53.3597 109.42 48.6435C104.704 43.9274 98.3096 41.2751 91.6399 41.2686C91.1356 41.2686 90.652 41.0683 90.2954 40.7117C89.9388 40.3551 89.7385 39.8715 89.7385 39.3672C89.7385 38.8629 89.9388 38.3793 90.2954 38.0227C90.652 37.6661 91.1356 37.4658 91.6399 37.4658C99.3175 37.4744 106.678 40.5281 112.107 45.9569C117.536 51.3858 120.589 58.7464 120.598 66.4239C120.598 66.9282 120.398 67.4118 120.041 67.7684C119.685 68.125 119.201 68.3253 118.697 68.3253Z" fill="#6E38FF"/>
<path d="M126.893 68.3253C126.389 68.3253 125.905 68.125 125.548 67.7684C125.192 67.4118 124.991 66.9282 124.991 66.4239C125 58.7464 128.054 51.3858 133.483 45.9569C138.911 40.5281 146.272 37.4744 153.95 37.4658C154.454 37.4658 154.937 37.6661 155.294 38.0227C155.651 38.3793 155.851 38.8629 155.851 39.3672C155.851 39.8715 155.651 40.3551 155.294 40.7117C154.937 41.0683 154.454 41.2686 153.95 41.2686C147.28 41.2751 140.885 43.9274 136.169 48.6435C131.453 53.3597 128.801 59.7543 128.794 66.4239C128.794 66.9282 128.594 67.4118 128.237 67.7684C127.881 68.125 127.397 68.3253 126.893 68.3253Z" fill="#6E38FF"/>
<path d="M102.887 6.94586L104.278 9.76966C104.368 9.95008 104.501 10.1061 104.664 10.2244C104.828 10.3427 105.017 10.4199 105.217 10.4493L108.332 10.9024C108.562 10.9342 108.779 11.0302 108.958 11.1796C109.136 11.3289 109.269 11.5255 109.34 11.7467C109.412 11.968 109.42 12.205 109.363 12.4306C109.307 12.6562 109.188 12.8613 109.02 13.0223L106.803 15.2312C106.657 15.3697 106.548 15.5417 106.485 15.7321C106.421 15.9225 106.406 16.1255 106.439 16.3235L106.973 19.4304C107.01 19.6569 106.984 19.8892 106.897 20.1016C106.81 20.314 106.666 20.498 106.48 20.6331C106.295 20.7683 106.075 20.8492 105.846 20.8668C105.618 20.8845 105.388 20.8382 105.184 20.7331L102.353 19.2767C102.175 19.1811 101.976 19.1311 101.774 19.1311C101.572 19.1311 101.373 19.1811 101.196 19.2767L98.4041 20.7412C98.1992 20.8492 97.968 20.8976 97.737 20.8807C97.506 20.8639 97.2843 20.7826 97.0972 20.6461C96.91 20.5095 96.765 20.3232 96.6785 20.1083C96.592 19.8934 96.5675 19.6586 96.6079 19.4304L97.1338 16.3235C97.1686 16.1262 97.1543 15.9233 97.0922 15.7329C97.0301 15.5424 96.9221 15.3701 96.7778 15.2312L94.5204 13.0304C94.3555 12.8681 94.2391 12.6631 94.1842 12.4383C94.1293 12.2136 94.138 11.978 94.2094 11.758C94.2808 11.5379 94.412 11.3421 94.5884 11.1924C94.7648 11.0427 94.9794 10.9451 95.2081 10.9105L98.3313 10.4574C98.5301 10.4287 98.7188 10.3518 98.881 10.2333C99.0432 10.1148 99.174 9.95841 99.2618 9.77775L100.662 6.95395C100.762 6.74515 100.92 6.56891 101.116 6.44531C101.313 6.32171 101.54 6.25573 101.772 6.25489C102.003 6.25405 102.231 6.31837 102.428 6.44054C102.625 6.56271 102.784 6.7378 102.887 6.94586Z" fill="#6E38FF"/>
<path d="M144.936 6.94557L146.328 9.76937C146.418 9.95021 146.55 10.1065 146.713 10.2249C146.877 10.3433 147.067 10.4202 147.266 10.449L150.381 10.9021C150.61 10.9367 150.825 11.0344 151.001 11.184C151.178 11.3337 151.309 11.5296 151.38 11.7496C151.452 11.9697 151.46 12.2052 151.405 12.43C151.35 12.6547 151.234 12.8597 151.069 13.022L148.812 15.2309C148.667 15.3698 148.559 15.5421 148.497 15.7326C148.435 15.923 148.421 16.1259 148.456 16.3232L148.99 19.4302C149.028 19.6586 149.002 19.8932 148.914 20.1076C148.826 20.322 148.681 20.5076 148.493 20.6438C148.306 20.7799 148.084 20.8611 147.853 20.8783C147.622 20.8954 147.391 20.8479 147.185 20.7409L144.394 19.2764C144.214 19.1751 144.01 19.1218 143.803 19.1218C143.596 19.1218 143.393 19.1751 143.213 19.2764L140.421 20.7409C140.216 20.8479 139.985 20.8954 139.754 20.8783C139.523 20.8611 139.301 20.7799 139.114 20.6438C138.926 20.5076 138.78 20.322 138.693 20.1076C138.605 19.8932 138.579 19.6586 138.617 19.4302L139.151 16.3232C139.184 16.1259 139.168 15.9237 139.106 15.7335C139.044 15.5434 138.938 15.371 138.795 15.2309L136.538 13.0301C136.373 12.8678 136.256 12.6628 136.201 12.438C136.146 12.2133 136.155 11.9777 136.227 11.7577C136.298 11.5376 136.429 11.3418 136.606 11.1921C136.782 11.0425 136.997 10.9448 137.225 10.9102L140.34 10.4571C140.54 10.4283 140.73 10.3514 140.893 10.233C141.057 10.1146 141.189 9.9583 141.279 9.77746L142.671 6.95366C142.769 6.7364 142.928 6.55202 143.129 6.42244C143.329 6.29285 143.562 6.22352 143.801 6.22266C144.039 6.22181 144.273 6.28948 144.474 6.41763C144.676 6.54578 144.836 6.72902 144.936 6.94557Z" fill="#6E38FF"/>
<path d="M102.887 50.2091L104.278 53.0329C104.369 53.2133 104.501 53.3693 104.664 53.4876C104.828 53.6059 105.017 53.6831 105.217 53.7125L108.332 54.1656C108.562 54.1974 108.779 54.2935 108.958 54.4428C109.136 54.5921 109.269 54.7887 109.34 55.01C109.412 55.2312 109.42 55.4683 109.363 55.6939C109.307 55.9195 109.188 56.1245 109.02 56.2855L106.803 58.4863C106.657 58.6261 106.547 58.7994 106.484 58.9913C106.42 59.1831 106.405 59.3875 106.439 59.5867L106.973 62.6856C107.012 62.9126 106.987 63.1461 106.901 63.3598C106.815 63.5734 106.671 63.7588 106.485 63.895C106.299 64.0312 106.079 64.1129 105.849 64.1308C105.619 64.1487 105.389 64.1021 105.185 63.9963L102.393 62.5319C102.215 62.4363 102.016 62.3862 101.815 62.3862C101.613 62.3862 101.414 62.4363 101.236 62.5319L98.4446 63.9963C98.2397 64.1044 98.0086 64.1527 97.7775 64.1359C97.5465 64.1191 97.3248 64.0378 97.1377 63.9012C96.9506 63.7647 96.8055 63.5783 96.719 63.3635C96.6325 63.1486 96.608 62.9137 96.6484 62.6856L97.1743 59.5867C97.2098 59.3881 97.1958 59.1839 97.1337 58.992C97.0717 58.8001 96.9633 58.6265 96.8183 58.4863L94.5609 56.2855C94.396 56.1232 94.2796 55.9182 94.2247 55.6935C94.1698 55.4688 94.1785 55.2332 94.2499 55.0131C94.3213 54.7931 94.4525 54.5972 94.6289 54.4476C94.8053 54.2979 95.0199 54.2003 95.2486 54.1656L98.3718 53.7125C98.5706 53.6839 98.7594 53.6069 98.9216 53.4884C99.0838 53.37 99.2145 53.2136 99.3023 53.0329L100.702 50.2091C100.808 50.0111 100.965 49.8456 101.157 49.7301C101.35 49.6147 101.57 49.5537 101.794 49.5537C102.019 49.5537 102.239 49.6147 102.431 49.7301C102.624 49.8456 102.781 50.0111 102.887 50.2091Z" fill="#6E38FF"/>
<path d="M144.936 50.2086L146.328 53.0324C146.417 53.2133 146.55 53.3696 146.713 53.488C146.877 53.6064 147.066 53.6833 147.266 53.7121L150.381 54.1652C150.61 54.1998 150.825 54.2974 151.001 54.4471C151.177 54.5968 151.309 54.7926 151.38 55.0126C151.451 55.2327 151.46 55.4683 151.405 55.693C151.35 55.9177 151.234 56.1227 151.069 56.285L148.812 58.4858C148.667 58.626 148.558 58.7997 148.496 58.9916C148.434 59.1835 148.42 59.3877 148.456 59.5862L148.99 62.6851C149.028 62.9136 149.002 63.1482 148.914 63.3625C148.826 63.5769 148.68 63.7626 148.493 63.8987C148.306 64.0349 148.084 64.1161 147.853 64.1332C147.622 64.1504 147.391 64.1028 147.185 63.9959L144.394 62.5314C144.218 62.4358 144.02 62.3857 143.819 62.3857C143.619 62.3857 143.421 62.4358 143.245 62.5314L140.454 63.9959C140.248 64.1028 140.017 64.1504 139.786 64.1332C139.555 64.1161 139.333 64.0349 139.146 63.8987C138.958 63.7626 138.813 63.5769 138.725 63.3625C138.637 63.1482 138.611 62.9136 138.649 62.6851L139.183 59.5862C139.217 59.3877 139.202 59.1841 139.14 58.9925C139.078 58.801 138.971 58.6272 138.827 58.4858L136.57 56.285C136.405 56.1227 136.289 55.9177 136.234 55.693C136.179 55.4683 136.187 55.2327 136.259 55.0126C136.33 54.7926 136.461 54.5968 136.638 54.4471C136.814 54.2974 137.029 54.1998 137.258 54.1652L140.373 53.7121C140.572 53.6833 140.762 53.6064 140.926 53.488C141.089 53.3696 141.221 53.2133 141.311 53.0324L142.703 50.2086C142.806 50.0005 142.965 49.8254 143.162 49.703C143.36 49.5805 143.587 49.5156 143.819 49.5156C144.052 49.5156 144.279 49.5805 144.477 49.703C144.674 49.8254 144.833 50.0005 144.936 50.2086Z" fill="#6E38FF"/>
</svg>
