<svg width="49" height="13" viewBox="0 0 49 13" fill="none" xmlns="http://www.w3.org/2000/svg">
<g clip-path="url(#clip0_3562_38502)">
<path d="M0.821777 0.749046H3.99609V1.95788C4.17224 1.64796 4.40897 1.37635 4.6923 1.15911C5.18347 0.749046 5.98221 0.360352 7.1696 0.360352C7.94768 0.360352 8.92842 0.565386 9.77088 1.44569C10.0422 1.72402 10.2697 2.04163 10.4456 2.38774C10.6723 2.0242 10.948 1.69338 11.265 1.40452C11.9414 0.790211 12.8625 0.360352 14.0499 0.360352C14.8487 0.360352 16.1163 0.544803 17.0398 1.50744C18.1048 2.63394 18.2686 3.39153 18.2686 5.91053V12.1162H14.8693V6.0744C14.8693 5.59941 14.8693 4.98906 14.6444 4.47687C14.4394 3.9441 14.0086 3.5554 13.1288 3.5554C12.187 3.5554 11.7157 3.98526 11.49 4.49745C11.2444 5.00885 11.2444 5.58279 11.2444 5.91053V12.1162H7.84515V5.93111C7.84515 5.62395 7.84515 5.02943 7.6401 4.51803C7.41836 3.98526 7.00588 3.5554 6.14673 3.5554C5.18427 3.5554 4.71615 4.00585 4.46738 4.55841C4.21862 5.11097 4.2218 5.72607 4.2218 6.0744V12.1162H0.821777V0.749046Z" fill="white"/>
<path d="M32.5178 12.1162H29.1154V10.8891C28.5011 11.9974 27.0888 12.5072 25.7575 12.5072C22.1533 12.5072 20.0439 9.6811 20.0439 6.4243C20.0471 2.69489 22.7303 0.360352 25.7607 0.360352C27.6237 0.360352 28.6688 1.26124 29.1154 1.95788V0.749046H32.5147L32.5178 12.1162ZM23.4471 6.48367C23.4471 7.52784 24.2244 9.33357 26.2726 9.33357C27.4806 9.33357 28.2181 8.76042 28.6481 8.06695C28.9227 7.62606 29.0833 7.12423 29.1154 6.60638C29.1552 6.09152 29.0576 5.57535 28.8325 5.11018C28.4637 4.33358 27.6849 3.53482 26.2543 3.53482C24.3095 3.53482 23.4495 5.17351 23.4495 6.46388L23.4471 6.48367Z" fill="white"/>
<path d="M44.0064 6.03796L48.4659 0.749023H43.8268L41.5498 3.68204L39.2871 0.768814L39.2728 0.749023H34.6329L39.0932 6.03796L34.3389 12.1162H38.8786L41.5498 8.6559L44.2059 12.0964L44.2202 12.1162H48.7607L44.0064 6.03796Z" fill="white"/>
</g>
<defs>
<clipPath id="clip0_3562_38502">
<rect width="47.9389" height="12.1445" fill="white" transform="translate(0.821777 0.360352)"/>
</clipPath>
</defs>
</svg>
