<svg width="186" height="185" viewBox="0 0 186 185" fill="none" xmlns="http://www.w3.org/2000/svg">
<path d="M21.5423 51.7739C32.8162 53.3501 43.6165 58.1749 52.3152 65.5157C54.1319 67.0475 55.9042 68.7532 56.844 70.9362C57.7838 73.1192 57.7098 75.8905 56.0929 77.6295C54.7054 79.1243 52.5187 79.572 50.4837 79.5683C46.8429 79.5646 43.2132 78.3399 40.3124 76.1421C43.2243 77.9921 45.707 80.5155 47.5089 83.457C47.9751 84.2192 48.4117 85.0776 48.2859 85.9619C48.0639 87.564 46.188 88.3521 44.5748 88.4594C42.1476 88.6185 39.6686 87.9081 37.6965 86.4836C43.9606 97.6502 47.7827 110.19 48.7336 122.958C49 126.558 49.0185 130.31 47.5459 133.603C46.0733 136.9 42.7544 139.608 39.158 139.316C35.5357 139.02 32.8162 135.949 30.7553 132.952C20.6062 118.189 16.6028 100.074 14.5678 82.2767C13.6243 74.0183 13.0878 65.4491 15.774 57.5866C16.4252 55.6848 17.4797 53.6424 19.4111 53.08" fill="white"/>
<path d="M21.4905 52.5733C29.8266 53.7499 37.8852 56.7395 45.0114 61.2165C46.7726 62.3228 48.482 63.5179 50.1174 64.8092C51.7306 66.082 53.3771 67.4103 54.661 69.0272C55.8265 70.4961 56.6294 72.2832 56.5184 74.1887C56.4148 75.9943 55.4602 77.4965 53.773 78.1995C51.7935 79.0283 49.3737 78.8803 47.3165 78.4437C44.9522 77.9405 42.7507 76.9304 40.8156 75.48L39.7981 76.8046C42.4325 78.4881 44.7006 80.734 46.3989 83.361C47.0612 84.3859 47.9825 85.8696 46.7726 86.8612C45.7773 87.6752 44.3713 87.7455 43.1466 87.653C41.3558 87.5161 39.6612 86.8612 38.1997 85.8252C37.5485 85.3627 36.4274 86.0509 36.8677 86.839C41.9811 95.9743 45.448 106.001 47.0464 116.346C47.4423 118.899 47.7346 121.471 47.8752 124.054C48.0158 126.584 47.9973 129.204 47.2758 131.657C46.6542 133.773 45.5072 135.694 43.7386 137.044C42.1661 138.243 40.1755 138.868 38.2219 138.354C36.1018 137.795 34.4331 136.234 33.0604 134.591C31.5471 132.782 30.2854 130.739 29.0829 128.719C26.5484 124.468 24.4505 119.965 22.7337 115.325C19.252 105.916 17.2577 96.015 15.9479 86.0879C15.2523 80.8228 14.6381 75.5059 14.7158 70.1853C14.7528 67.5213 14.9748 64.8573 15.478 62.2414C15.7222 60.9797 16.0404 59.7291 16.4289 58.5044C16.7582 57.4721 17.1245 56.4139 17.7276 55.5037C18.253 54.7082 18.9005 54.0903 19.8255 53.8017C20.2584 53.6685 20.4434 53.1061 20.2251 52.7287C19.9624 52.281 19.4259 52.2255 18.9782 52.3624C16.773 53.0469 15.589 55.278 14.8897 57.3204C13.9832 59.9548 13.4319 62.715 13.1396 65.4789C12.5476 71.0659 13.0064 76.7047 13.6391 82.2658C14.8157 92.6184 16.625 102.967 19.9513 112.865C21.5978 117.764 23.618 122.551 26.1044 127.084C27.3402 129.341 28.687 131.55 30.167 133.651C31.5212 135.575 33.0752 137.436 35.0769 138.717C37.0786 139.997 39.4429 140.489 41.7147 139.871C43.9458 139.264 45.8698 137.806 47.2203 135.945C50.3875 131.572 49.9509 125.73 49.4403 120.65C48.3636 109.875 45.2482 99.3228 40.3827 89.6547C39.7833 88.467 39.158 87.2904 38.5105 86.1323C38.0665 86.469 37.6225 86.8094 37.1785 87.1461C38.751 88.2635 40.5936 88.948 42.5028 89.1959C44.2122 89.4142 46.0585 89.2921 47.5607 88.3782C48.2082 87.986 48.7743 87.4051 49.0407 86.6873C49.3737 85.7882 49.1924 84.8632 48.8113 84.0159C48.0676 82.3509 46.8022 80.808 45.5812 79.4723C44.1789 77.9368 42.562 76.6011 40.8119 75.48C40.4234 75.2321 39.8129 75.3172 39.5317 75.6872C39.2172 76.0979 39.4355 76.5345 39.7944 76.8009C41.6703 78.2069 43.8348 79.2392 46.1103 79.809C48.2674 80.3529 50.6206 80.5823 52.8221 80.1642C54.9385 79.7609 56.8773 78.6435 57.806 76.6307C58.6607 74.7733 58.4905 72.5496 57.7135 70.6996C56.8625 68.672 55.3196 67.0218 53.6916 65.5825C51.9674 64.0618 50.1322 62.6558 48.2378 61.3497C44.5378 58.793 40.5529 56.6618 36.3904 54.9598C31.6433 53.0173 26.6631 51.689 21.5867 50.9749C21.1464 50.912 20.6432 51.2598 20.6136 51.7186C20.5803 52.2292 21.0465 52.5141 21.4868 52.577L21.4905 52.5733Z" fill="#231F20"/>
<path d="M46.1919 133.252C49.0853 135.538 51.8492 138.225 53.1442 141.677C54.7648 145.987 53.8694 150.786 52.9555 155.3C52.1193 159.429 51.2498 163.647 49.1112 167.277C46.9726 170.907 43.2948 173.907 39.0842 174.085C33.7636 174.307 29.3162 170.159 26.1046 165.912C18.6269 156.014 14.1351 143.893 13.3544 131.513C12.1186 111.829 39.2248 127.746 46.1919 133.256V133.252Z" fill="#6E38FF"/>
<path d="M57.4837 141.355C58.2533 142.124 58.405 143.367 58.4753 144.403C58.553 145.584 58.5456 146.775 58.5049 147.959C58.4198 150.401 58.1349 152.839 57.6428 155.233C56.6734 159.943 54.9455 164.494 52.5442 168.657C51.19 171.006 49.6175 173.223 47.8526 175.28C47.5603 175.62 49.0773 176.645 49.4547 176.201C55.9445 168.635 59.7481 158.859 60.144 148.903C60.1958 147.552 60.2217 146.183 60.0996 144.836C59.9775 143.486 59.589 142.243 58.6159 141.266C58.3606 141.011 57.8315 140.678 57.4541 140.752C57.0767 140.826 57.3098 141.177 57.4911 141.355H57.4837Z" fill="#6E38FF"/>
<g opacity="0.22">
<path d="M49.0408 71.595C44.4195 69.9448 39.7945 68.2909 35.1732 66.6407C33.7635 66.1375 32.2354 65.6195 30.6925 65.8156C28.121 66.1412 26.7446 68.2539 26.3006 70.1594C25.531 73.4894 26.3413 76.9008 27.2478 80.216C28.8166 85.9436 30.6814 91.6268 32.5869 97.2989C34.3074 102.416 36.3202 107.851 41.663 111.337C42.1255 111.636 42.6546 111.932 43.2688 111.951C44.8154 111.992 45.3371 110.438 45.2631 109.294C44.5231 97.6541 36.0575 87.024 33.6488 75.5096C33.4971 74.7807 33.4231 73.926 34.1446 73.4154C34.7107 73.0158 35.5728 72.9788 36.3572 72.964C40.0202 72.8974 43.6832 72.8345 47.3462 72.7679C48.5598 72.7457 50.2359 72.3128 49.9362 71.4396C49.766 70.9512 49.0223 70.7218 48.3711 70.5701C43.3354 69.3713 38.2997 68.1725 33.264 66.9737C32.4944 66.7924 31.636 66.6111 30.9071 66.8664C30.3558 67.0588 29.9969 67.4584 29.7342 67.8654C28.6871 69.4712 28.6908 71.3323 28.8499 73.112C29.5973 81.4555 33.227 89.4882 36.8308 97.4136C38.1591 100.337 39.5281 103.319 42.0737 105.757C42.4733 106.142 42.9469 106.53 43.5833 106.638C44.6563 106.819 45.6923 106.075 45.8958 105.272C46.0993 104.469 45.7071 103.659 45.3075 102.897C39.5355 91.8821 30.7924 81.1077 31.3844 69.2973C36.3646 72.1759 40.8046 75.5688 44.5379 79.3391C39.3801 79.9015 34.1261 76.4531 34.2556 72.594C37.9445 74.2701 40.8638 76.8601 42.4363 79.846C38.8917 79.7276 36.4497 77.1931 34.9845 74.8029C33.5193 72.4127 32.2391 69.6969 29.1866 68.3575C26.9333 69.7302 26.8482 72.2277 27.048 74.3848C27.9175 83.7532 30.6 93.0291 34.9808 101.842C36.5126 104.921 38.518 108.173 42.4141 109.735C44.0717 107.866 43.3946 105.398 42.6139 103.241C39.1914 93.7654 34.9364 84.4562 29.8859 75.3875C27.8287 78.8211 28.9017 82.7949 30.1671 86.432C32.413 92.8959 35.1547 99.2636 38.3811 105.498C38.9583 106.612 39.813 107.885 41.404 108.055C42.0219 104.225 39.7686 100.507 37.9112 96.8993C33.6266 88.5928 31.1994 79.7646 30.7591 70.8772C30.711 69.9337 30.9885 68.6979 32.2465 68.5425C32.7349 68.4833 33.2233 68.6239 33.6821 68.7645C37.4043 69.893 41.1302 71.0215 44.8524 72.1537" fill="#231F20"/>
<path d="M44.5861 71.1289C45.2521 71.3435 45.056 71.1252 45.1633 71.1289C44.0348 70.8218 44.6009 71.177 44.5861 71.1289Z" fill="#231F20"/>
<path d="M33.4274 68.117H33.6568C33.3608 68.0578 33.0389 68.0023 32.6948 68.0023C32.347 68.0023 31.9844 68.0689 31.6514 68.228C31.9474 68.0985 32.2582 68.0356 32.569 68.0282C32.8761 68.0208 33.1647 68.0652 33.4311 68.1207L33.4274 68.117Z" fill="#231F20"/>
<path d="M30.9113 77.5815C30.9742 77.0524 30.7966 76.083 30.6449 74.9952C30.5598 74.4513 30.4821 73.8815 30.4229 73.3228C30.3563 72.7641 30.3156 72.2202 30.3119 71.7355L30.3526 71.4136L30.2194 70.9844C30.175 70.8438 30.138 70.6625 30.1084 70.496C30.1084 70.6625 30.1084 70.8549 30.1232 71.0029C30.1343 71.1546 30.1491 71.31 30.1602 71.4654C30.1861 71.7762 30.2157 72.0944 30.2453 72.4163C30.3119 73.0564 30.3933 73.7076 30.4673 74.3366C30.5561 74.9656 30.6375 75.5687 30.7152 76.1237C30.8003 76.675 30.8669 77.1708 30.9113 77.5852V77.5815Z" fill="#231F20"/>
<path d="M31.5509 83.3979C31.5657 83.0205 31.9394 84.6041 31.2549 82.0659C31.2697 82.1991 31.2771 82.2361 31.2845 82.3138C31.3363 82.5432 31.414 82.8614 31.5472 83.3979H31.5509Z" fill="#231F20"/>
<path d="M31.2842 82.314C31.0141 81.1892 31.373 83.0725 31.2842 82.314V82.314Z" fill="#231F20"/>
<path d="M32.7937 87.4273L32.2461 86.0028C32.2794 86.3247 32.6827 87.6197 32.4866 87.1535C32.7419 87.8935 32.8825 88.1747 32.9121 88.1673C32.9491 88.1599 32.8788 87.8639 32.7937 87.4236V87.4273Z" fill="#231F20"/>
<path d="M33.4415 88.7296L33.1455 88.0007C33.1677 88.1376 33.2269 88.3374 33.4415 88.7296Z" fill="#231F20"/>
<path d="M32.5535 86.4395C32.7533 86.9612 32.9346 87.4866 33.1455 88.0009C33.1159 87.7789 33.1825 87.7345 32.8754 87.2831C32.9901 87.3904 32.8199 87.0981 32.5498 86.4395H32.5535Z" fill="#231F20"/>
<path d="M32.3204 85.5218C32.1391 84.6856 31.869 83.6237 32.3796 85.0593C31.9578 83.6755 31.7765 83.0798 31.7506 83.1982C31.7395 83.3129 31.8912 84.1343 32.3204 85.5218Z" fill="#231F20"/>
<path d="M31.2773 78.0811C31.2329 77.7074 31.2033 77.3337 31.1737 76.9563L30.9443 76.0054C31.0553 76.4827 31.1922 78.1662 31.2773 78.0811Z" fill="#231F20"/>
<path d="M36.2504 96.2444C36.3429 96.3036 36.1542 95.7227 36.1764 95.5858L35.6436 94.5979C35.8508 95.1381 36.2874 96.1408 36.2541 96.2444H36.2504Z" fill="#231F20"/>
<path d="M36.1758 95.5894C36.4459 96.0778 36.7308 96.5625 37.0083 97.0472C36.346 95.7078 36.1906 95.4784 36.1758 95.5894Z" fill="#231F20"/>
<path d="M33.808 88.8851L33.2604 87.6234L32.7461 86.3469C33.1346 87.3718 33.5527 88.3819 33.9893 89.3809C33.9264 89.2181 33.8672 89.0516 33.808 88.8851Z" fill="#231F20"/>
<path d="M39.0583 101.846C38.8992 101.591 38.7327 101.336 38.5625 101.084C38.8511 101.539 39.136 101.998 39.3913 102.464C39.2877 102.257 39.1767 102.053 39.0583 101.85V101.846Z" fill="#231F20"/>
<path d="M40.2164 105.391C40.1535 105.339 40.1165 105.391 40.0758 105.406C40.0388 105.424 39.9981 105.406 39.9648 105.402C39.9796 105.402 40.0388 105.446 40.0906 105.605C40.1239 105.679 40.1128 105.72 40.0943 105.753C40.1202 105.742 40.1498 105.735 40.1387 105.683C40.1387 105.579 40.1683 105.554 40.2127 105.394L40.2164 105.391Z" fill="#231F20"/>
<path d="M39.8984 105.809C39.9798 105.846 40.0649 105.82 40.0982 105.746C40.0501 105.772 39.9909 105.801 39.8984 105.809Z" fill="#231F20"/>
<path d="M38.2812 99.5596C38.3072 99.6891 38.3441 99.9444 38.7141 100.773L38.5736 100.133C38.4848 99.9592 38.3849 99.7594 38.285 99.5596H38.2812Z" fill="#231F20"/>
<path d="M38.5664 100.111L38.5738 100.133C38.8846 100.755 39.077 101.188 39.1621 101.373C39.0844 101.213 38.9216 100.832 38.5664 100.111Z" fill="#231F20"/>
<path d="M38.207 99.4153C38.2331 99.4674 38.2554 99.5083 38.2814 99.5604C38.2666 99.4971 38.2554 99.4636 38.207 99.4153Z" fill="#231F20"/>
<path d="M35.2842 93.007C35.7467 93.8802 36.7087 95.6784 35.9946 93.8358C35.6135 93.2364 35.9983 94.3057 35.2842 93.007Z" fill="#231F20"/>
<path d="M38.0114 98.6123L37.2307 97.0324C37.2085 97.0842 37.2973 97.3987 37.042 96.9806C37.3602 97.5319 37.6895 98.0721 38.0114 98.6123Z" fill="#231F20"/>
<path d="M38.451 99.3487L38.0107 98.6124L38.2993 99.1933L38.451 99.3487Z" fill="#231F20"/>
<path d="M40.464 105.92C40.4862 106.024 40.4973 106.131 40.4973 106.246V106.334C40.4973 106.334 40.4973 106.368 40.4936 106.375H40.4566C40.4085 106.375 40.3567 106.368 40.3049 106.36C40.2013 106.338 40.094 106.294 39.9941 106.231C40.0903 106.308 40.1976 106.371 40.316 106.419C40.4233 106.453 40.6046 106.545 40.575 106.371C40.6046 106.209 40.612 106.031 40.6083 105.861C40.5454 105.753 40.4603 105.572 40.464 105.924V105.92Z" fill="#231F20"/>
<path d="M40.042 103.615C40.0606 103.659 40.0829 103.719 40.0978 103.764C40.0829 103.667 40.0606 103.589 40.042 103.615Z" fill="#231F20"/>
<path d="M36.2939 99.2339C36.3051 99.286 36.3163 99.3269 36.3311 99.379C36.346 99.3865 36.3572 99.3902 36.3721 99.3976L36.2977 99.2302L36.2939 99.2339Z" fill="#231F20"/>
<path d="M40.6377 105.809C40.6525 105.469 40.5896 105.358 40.4453 104.884C40.4749 105.01 40.5045 105.139 40.5341 105.273C40.5563 105.369 40.56 105.402 40.5711 105.472C40.597 105.594 40.6044 105.728 40.6118 105.861C40.6377 105.905 40.6525 105.924 40.6414 105.809H40.6377Z" fill="#231F20"/>
<path d="M39.1289 104.673C39.2029 104.847 39.2843 105.036 39.3657 105.228C39.436 105.376 39.5137 105.531 39.5877 105.69C39.584 105.672 39.5766 105.65 39.5692 105.628C39.5655 105.605 39.5322 105.535 39.51 105.491C39.4619 105.383 39.4138 105.269 39.3694 105.161C39.2769 104.947 39.177 104.721 39.1289 104.673Z" fill="#231F20"/>
<path d="M40.1319 104.004C40.1208 103.97 40.1059 103.941 40.0947 103.903C40.1319 104.134 40.1394 104.104 40.1319 104.004Z" fill="#231F20"/>
<path d="M40.1312 104.003C40.2422 104.347 40.368 104.61 40.4457 104.884C40.405 104.677 40.3384 104.477 40.2829 104.292C40.2311 104.103 40.1645 103.929 40.1016 103.767C40.1164 103.855 40.1275 103.944 40.1312 104.007V104.003Z" fill="#231F20"/>
<path d="M34.2227 97.1102C34.4077 97.1731 35.3327 98.9343 35.9247 100.547C36.7498 102.024 36.7017 100.818 36.328 99.382C36.2503 99.3598 36.1911 99.3894 35.3993 97.8502C35.5658 98.4385 36.8386 101.413 36.1023 100.144C35.0663 98.0944 35.3623 98.4163 34.9775 97.3692C35.1884 98.3127 33.5641 94.8014 33.5234 95.3601L34.4114 97.1731C34.3892 97.2249 34.034 96.5811 34.2227 97.1102Z" fill="#231F20"/>
<path d="M37.7374 102.353L38.0667 102.982C37.73 102.246 37.5265 101.698 37.1713 100.688C36.6015 99.6521 36.4498 99.4523 36.3721 99.4005C36.8568 100.459 37.3526 101.513 37.8632 102.564L37.7374 102.357V102.353Z" fill="#231F20"/>
<path d="M39.4876 105.713C39.4617 105.713 39.4025 105.646 39.3396 105.58C39.2767 105.513 39.2175 105.432 39.1509 105.35C39.0251 105.173 38.8882 104.984 38.7846 104.84C38.5663 104.54 38.4368 104.421 38.5996 104.925C38.8401 105.398 39.0066 105.676 39.1472 105.875C39.2545 106.02 39.3248 106.086 39.3877 106.138C39.5135 106.231 39.5912 106.271 39.8502 106.449C39.5024 106.16 39.4136 105.964 39.3803 105.92C39.3544 105.868 39.4136 105.927 39.4765 105.987C39.5431 106.046 39.6208 106.101 39.6356 106.079C39.6504 106.053 39.6023 105.975 39.4728 105.739C39.6504 105.964 39.8021 106.12 39.9871 106.231C39.7873 106.072 39.6652 105.876 39.5838 105.698C39.5838 105.709 39.5912 105.72 39.5912 105.727V105.731C39.606 105.787 39.606 105.813 39.5801 105.753C39.5764 105.753 39.569 105.739 39.5616 105.735C39.5394 105.742 39.5098 105.731 39.4765 105.716C39.4321 105.635 39.3988 105.572 39.3729 105.524C39.3433 105.469 39.3248 105.428 39.3174 105.406C39.2989 105.358 39.31 105.372 39.3433 105.42C39.3729 105.465 39.4247 105.542 39.4728 105.62C39.5024 105.668 39.5098 105.672 39.5246 105.694C39.5394 105.709 39.5505 105.724 39.5616 105.739C39.569 105.739 39.5801 105.739 39.5875 105.739C39.5505 105.698 39.3729 105.413 39.2545 105.202L38.8549 104.473L38.0557 102.99C38.2074 103.311 38.3813 103.674 38.6107 104.129C38.7291 104.355 38.8586 104.606 39.0029 104.888C39.0732 105.025 39.1509 105.165 39.2323 105.317C39.273 105.387 39.3137 105.457 39.3581 105.531C39.3988 105.594 39.458 105.698 39.4765 105.72L39.4876 105.713Z" fill="#231F20"/>
<path d="M37.0713 95.3342C37.1046 95.4341 37.0935 95.4341 37.0861 95.4489C37.2008 95.6376 37.2489 95.7042 37.0713 95.3342Z" fill="#231F20"/>
<path d="M37.6078 96.6254C37.4783 96.4145 37.3303 96.2591 36.9825 95.5339C36.7272 94.8864 37.0491 95.5043 37.0824 95.4488C36.8345 95.0307 36.261 93.9651 36.8345 95.3748L36.9603 95.582C37.5153 96.8363 38.1554 98.4828 38.0259 98.2793C37.9704 97.8612 37.889 97.5023 37.6078 96.6254Z" fill="#231F20"/>
<path d="M40.5977 103.852C40.7346 104.285 40.853 104.725 40.9455 105.165C41.0195 105.524 41.0639 105.839 41.0898 106.201C41.1268 105.879 41.1416 105.543 41.1157 105.11L41.0491 105.191C40.927 104.425 40.8086 104.133 40.7531 104.011C40.6902 103.889 40.6606 103.933 40.6014 103.852H40.5977Z" fill="#231F20"/>
<path d="M36.2352 98.9084L36.5423 99.1785L35.6543 97.8021L36.2352 98.9084Z" fill="#231F20"/>
<path d="M34.733 95.5894L34.9217 95.656L34.4629 94.8087L34.733 95.5894Z" fill="#231F20"/>
<path d="M44.6195 107.452C44.2458 107.559 43.8388 107.596 43.4355 107.544C44.009 107.615 44.3716 107.522 44.6195 107.452Z" fill="#231F20"/>
<path d="M45.4115 101.224L45.2783 101.128C45.4448 101.358 45.5262 101.443 45.4115 101.224Z" fill="#231F20"/>
<path d="M29.3239 83.0613C29.2092 81.8662 29.1722 80.5231 29.0427 80.6933L28.9502 81.0818C29.1389 81.8921 29.2499 82.5211 29.3276 83.0613H29.3239Z" fill="#231F20"/>
<path d="M42.4072 77.3522C42.4664 77.4262 42.5256 77.5039 42.5848 77.5816C42.8734 77.7703 43.1694 77.9738 43.4395 78.1736C43.1176 77.9035 42.7587 77.626 42.4072 77.3522Z" fill="#231F20"/>
<path d="M41.1678 77.1339C41.079 77.0081 40.5906 76.5382 40.2354 76.1978C40.3612 76.3236 40.5129 76.4753 40.6979 76.6603C40.7867 76.7491 40.8866 76.8416 40.9902 76.9452C41.0457 77.0044 41.1049 77.0673 41.1678 77.1339Z" fill="#231F20"/>
<path d="M28.6942 78.7249C28.5721 78.4141 28.4352 78.107 28.3242 77.7925C28.6535 79.3095 28.5943 78.6213 28.6942 78.7249Z" fill="#231F20"/>
<path d="M36.2461 89.9248C36.6161 90.8942 36.9306 91.6601 37.2118 92.3261C36.7974 91.1421 36.5014 90.169 36.2461 89.9248Z" fill="#231F20"/>
<path d="M45.1151 104.917C45.1151 105.065 45.104 105.132 45.0929 105.187C45.0855 105.246 45.0781 105.28 45.0966 105.283C45.2039 105.047 45.1484 104.854 45.1151 104.913V104.917Z" fill="#231F20"/>
<path d="M38.3883 95.0789C38.3291 94.905 38.2699 94.7348 38.2107 94.5609C37.8851 93.8764 37.5743 93.1808 37.208 92.3298C37.5188 93.1993 37.8888 94.1872 38.3883 95.0826V95.0789Z" fill="#231F20"/>
<path d="M28.8126 88.7149C28.7941 88.6298 28.7682 88.5299 28.7497 88.4522C28.7201 88.4337 28.7571 88.5484 28.8126 88.7149Z" fill="#231F20"/>
<path d="M39.3206 68.8717C38.995 68.7681 38.4733 68.5794 37.9775 68.4055C38.2143 68.5017 38.6176 68.646 39.3206 68.8717Z" fill="#231F20"/>
<path d="M29.9492 81.9032C29.9788 82.0142 30.0972 82.621 29.9492 81.9032V81.9032Z" fill="#231F20"/>
<path d="M30.2854 85.6106C30.2188 85.4589 30.1559 85.3479 30.1152 85.3405C30.1707 85.3886 30.2299 85.4848 30.2854 85.6106Z" fill="#231F20"/>
<path d="M42.1513 101.902C42.1587 101.925 42.1661 101.939 42.1736 101.965C42.1215 101.735 42.1327 101.776 42.1513 101.902Z" fill="#231F20"/>
<path d="M30.1075 83.0021C30.0631 82.7283 30.0076 82.4138 29.9521 82.0697C29.9743 82.2214 30.0039 82.5026 30.1075 83.0021Z" fill="#231F20"/>
<path d="M30.1445 82.8394C30.2 83.091 30.2444 83.2871 30.2851 83.4721C30.3369 83.5572 30.3258 83.4721 30.1445 82.8394Z" fill="#231F20"/>
<path d="M29.8008 80.9043C29.8452 81.315 29.9007 81.6961 29.9525 82.0698C29.9377 81.9255 29.9377 81.8663 29.9525 81.9033C29.9155 81.6924 29.8563 81.3964 29.8045 80.9043H29.8008Z" fill="#231F20"/>
<path d="M35.1729 79.3096C35.184 79.3614 35.1951 79.4169 35.2062 79.4724C35.3505 79.835 35.4134 79.9275 35.3875 79.8683C35.3653 79.8091 35.2728 79.5908 35.1729 79.3096Z" fill="#231F20"/>
<path d="M33.2203 70.6666C33.1942 70.6369 33.1794 70.622 33.1533 70.5959C33.1756 70.6257 33.2054 70.6666 33.224 70.6964L33.2166 70.6666H33.2203Z" fill="#231F20"/>
<path d="M34.9184 73.0083C34.1229 72.0759 33.7714 71.4765 33.2275 70.6958C33.3015 71.0473 33.3681 71.3951 33.4162 71.7392C33.9342 72.1425 34.4337 72.5754 34.9221 73.0046L34.9184 73.0083Z" fill="#231F20"/>
<path d="M35.2251 96.1149L35.9059 97.9612C34.7071 95.904 34.0818 94.2982 34.6553 96.0668C34.9476 96.0964 35.7246 97.8132 36.5571 99.5633C36.9789 100.437 37.434 101.313 37.841 101.957C38.2443 102.605 38.5958 103.019 38.7364 103.008C38.9473 103.404 39.173 103.8 39.4135 104.185C39.1841 103.866 39.1286 103.833 38.914 103.511C39.5652 104.669 39.9796 104.995 40.4421 105.369C40.6826 105.546 40.9342 105.75 41.2894 106.038C41.467 106.183 41.652 106.357 41.9258 106.575C42.1959 106.786 42.5437 107.045 43.058 107.226C43.4132 107.356 43.7758 107.396 44.0755 107.393C44.3789 107.393 44.6194 107.337 44.7785 107.307C45.093 107.219 45.13 107.267 44.6194 107.448C45.1892 107.285 45.685 106.971 46.0772 106.534C46.2696 106.312 46.4398 106.057 46.5545 105.75C46.6692 105.435 46.7062 105.136 46.6988 104.847C46.6951 104.347 46.6507 104.181 46.6914 104.229C46.7136 104.281 46.8209 104.569 46.7691 105.102C46.8135 104.636 46.7321 104.199 46.6174 103.826C46.4953 103.452 46.3436 103.123 46.1882 102.816C45.8774 102.224 45.5629 101.68 45.2521 101.11L45.278 101.128C44.9524 100.673 44.2309 99.6521 43.8868 99.1489C43.4687 98.2609 44.1754 99.5485 44.1051 99.3006C43.7203 98.7012 43.3318 98.1055 42.9359 97.5135C42.6066 96.7032 43.6204 98.1536 44.3234 99.4523C44.0533 98.4607 43.8017 98.087 43.3836 97.4876C42.9655 96.8845 42.3809 96.0483 41.4152 94.1317L42.4919 95.8263C42.0812 94.5646 41.1858 93.2696 40.209 91.2309C40.3866 91.7415 42.1182 95.3638 40.838 93.4435C40.542 92.8663 40.1202 92.1189 39.4172 91.0977C39.5652 90.9978 38.9177 89.9766 38.1814 88.6594L38.4404 88.6335C37.5857 87.246 37.5672 87.4051 37.0159 86.6096C36.2019 84.989 36.2315 84.5635 36.1723 84.1195C35.0068 81.4888 36.7199 86.0583 35.2769 82.9688C34.3963 80.7377 33.6859 79.217 32.846 76.4864C32.513 74.8547 33.0569 76.7343 32.9755 76.1423C32.7757 75.6835 32.6462 75.2136 32.4982 74.74C32.439 74.3848 32.5167 74.4884 32.5574 74.5439C32.4131 73.9408 32.3502 73.9223 32.2725 73.8187C32.1874 73.7151 32.106 73.5227 31.9913 72.5459C31.9062 72.4201 31.8507 71.8984 31.8655 71.5617C31.9025 71.1769 31.9654 70.7625 32.0209 70.4147C32.3206 70.6293 32.5833 70.8106 32.8275 70.966C32.9533 71.0437 33.0717 71.1103 33.2012 71.1769C33.3085 71.2324 33.4121 71.2916 33.5157 71.3471C33.6304 71.4063 33.7451 71.4618 33.8598 71.521C34.3297 71.9095 33.5379 71.484 33.6415 71.6616C35.1067 72.4904 35.7098 72.89 36.2685 73.223C36.8198 73.5671 37.3156 73.852 38.4959 74.5957C39.0879 75.1174 39.6688 75.6539 40.2386 76.1978C39.6281 75.5762 39.7835 75.5762 40.2904 75.8759C40.5457 76.0239 40.8861 76.2496 41.2635 76.5123C41.6113 76.7454 41.9961 77.034 42.4105 77.3522C42.0849 76.9415 41.7001 76.4975 41.4374 76.2274C42.318 76.9341 43.2726 77.7555 44.2272 78.6324C44.4677 78.9173 44.0089 78.5843 43.4428 78.1736C43.6463 78.3401 43.8424 78.4992 43.9904 78.625C44.6675 79.4131 43.798 78.7508 43.0432 78.2217C42.9137 78.0293 42.762 77.8147 42.5844 77.5853C42.207 77.3337 41.874 77.1376 41.6446 77.0377C41.4152 76.9341 41.2894 76.923 41.2672 76.997C41.3856 77.0673 41.6039 77.2264 41.837 77.4225C41.6816 77.3337 41.5817 77.293 41.5928 77.3337C41.6113 77.3818 41.8111 77.4965 42.17 77.7444C42.1293 77.8295 42.0553 77.8887 41.9517 77.9146L42.244 78.0441C42.3402 78.1514 42.4253 78.2587 42.5067 78.3549L42.5585 78.4215L42.5844 78.4548C42.5844 78.4548 42.5992 78.4659 42.5918 78.4696H42.5585L42.3106 78.4622C42.1478 78.4548 41.9924 78.4548 41.8444 78.4326C41.5447 78.403 41.2672 78.3475 41.0193 78.292C40.8898 78.3031 40.7381 78.3105 40.5642 78.3068L40.2941 78.2846C40.246 78.2809 40.135 78.2587 40.0573 78.2439C39.9722 78.2254 39.8908 78.1995 39.8094 78.181C39.4764 78.0922 39.136 78.0108 38.803 77.8776C38.6365 77.8147 38.4589 77.7592 38.2924 77.6852C38.1259 77.6075 37.9557 77.5261 37.7818 77.4447C37.1084 77.0895 36.3869 76.6566 35.7542 75.9906C35.1252 75.3357 34.5221 74.4588 34.3223 73.3155C34.5406 73.8594 34.6257 73.8816 34.6923 73.7965C34.7589 73.704 34.8033 73.5005 34.9217 73.5079C34.9291 73.6485 34.9217 73.8076 34.9698 73.9704C35.0179 74.1332 35.0808 74.3071 35.1474 74.4921C35.2399 74.666 35.3509 74.8473 35.4619 75.036C35.584 75.221 35.7431 75.3912 35.8911 75.5799C36.5312 76.3014 37.4414 76.9489 38.4219 77.5076C37.9224 77.1931 37.7411 77.0525 37.73 76.9933C37.7152 76.9378 37.841 76.9933 37.9816 77.0451C37.693 76.8897 37.4229 76.701 37.1454 76.5197C36.8975 76.3125 36.6126 76.1312 36.3906 75.8944C35.8948 75.4615 35.5211 74.9324 35.2029 74.3811C35.3028 74.3811 35.2658 74.1813 35.1659 73.8742C35.1215 73.7188 35.1067 73.5264 35.0623 73.3266C35.0253 73.1231 35.0549 72.8974 35.0512 72.6717C34.9883 72.8012 34.9365 72.7938 34.8847 72.6347L33.9819 73.1934C34.2668 73.2378 35.0549 73.5634 35.8837 74.037C36.7162 74.4995 37.5857 75.1026 38.1481 75.5022C38.1481 75.5836 38.0519 75.5873 37.7522 75.406C37.4488 75.2358 36.9493 74.8769 36.0761 74.3293C36.9678 75.0397 37.6042 75.3875 38.248 75.7575C38.877 76.1349 39.5171 76.5419 40.1831 77.4558C39.8427 77.0821 39.6651 76.8749 39.4764 76.7787C39.9389 77.1487 40.6234 77.9072 41.0563 78.5584C41.4966 79.2059 41.7149 79.7091 41.4966 79.4464C41.4078 79.3095 41.3227 79.1652 41.2302 79.0283C41.4411 79.3539 41.6631 79.7313 41.8851 80.1457L42.4475 79.2503C41.6039 79.2207 40.6678 79.0098 39.7909 78.6176C38.9103 78.2291 38.1074 77.6371 37.4377 77.034C36.1057 75.8019 35.3213 74.5439 35.0771 74.4292C35.0919 74.3811 35.6358 74.6179 35.7949 74.7437C34.4407 73.2637 33.1383 71.4544 31.4585 70.3222C31.7397 70.4147 31.6398 69.9855 31.7101 69.7598C31.7434 69.6525 31.8396 69.5859 32.0579 69.6858C32.2762 69.7857 32.6462 70.041 33.1457 70.6108C32.8904 70.2556 32.5833 69.8708 32.143 69.4342C31.9136 69.2233 31.662 68.9902 31.3475 68.7645C31.1958 68.6461 31.0219 68.5388 30.8443 68.4241C30.7518 68.3686 30.663 68.3057 30.5631 68.2576C30.441 68.1947 30.3152 68.1281 30.1894 68.0615C30.2745 68.117 30.3929 68.1947 30.4484 68.2428C30.5113 68.2983 30.5742 68.3501 30.6297 68.4093C30.7407 68.5314 30.8295 68.6498 30.885 68.746C30.9923 68.9347 30.9479 69.0198 30.6112 68.8052C30.4077 68.6128 30.2375 68.4944 30.0155 68.3353C29.8157 68.1947 29.627 68.0948 29.4679 67.9986C29.3865 67.9505 29.3088 67.9061 29.2348 67.8654C29.1978 67.8469 29.1608 67.8247 29.1275 67.8062C29.0942 67.8247 29.0646 67.8432 29.0313 67.8617C28.9055 67.9357 28.7871 68.0023 28.665 68.0763C28.5392 68.1466 28.4245 68.2428 28.2802 68.339C28.2099 68.3908 28.1359 68.4426 28.0545 68.5018C27.9805 68.561 27.8917 68.6498 27.8251 68.7053C27.5402 68.9606 27.1739 69.3417 26.8002 70.0003C27.0444 69.5711 27.1332 69.6673 27.0888 70.004C27.0481 70.3481 26.926 70.9364 26.815 71.6172C26.7928 71.3878 26.3673 71.6727 26.4376 71.1325C26.3081 72.372 26.5079 73.519 26.7521 74.6105C26.6004 73.7854 26.3821 74.4995 26.3451 75.2506C26.3821 74.8991 26.6485 78.1255 26.8631 78.995C26.8261 78.5251 26.778 78.0552 26.7521 77.5816C26.8594 78.5177 27.0074 79.2059 27.1443 79.7757C27.296 80.3418 27.4514 80.7858 27.6068 81.2261C27.9324 82.103 28.2543 82.9725 28.6613 84.7781C28.4837 84.36 27.8843 83.8124 28.2839 85.6735C28.6946 86.4764 30.2116 89.1367 31.4474 92.1448L31.5399 92.7738C31.8544 93.5471 32.2059 94.3056 32.5426 95.0678C32.1134 94.4018 31.3512 93.1031 30.6112 91.6675C29.8786 90.2319 29.1497 88.6631 28.7131 87.5272C28.998 88.911 28.665 87.949 29.2866 89.9692C29.3976 90.7166 28.7797 88.9184 28.6095 88.3153C29.0424 89.9026 29.5086 91.4825 30.0414 93.0402C30.1228 92.8959 30.4854 93.7691 30.8813 94.6275C31.2624 95.4933 31.6768 96.348 31.7323 96.2259C30.9812 94.6127 30.293 92.9662 29.6566 91.2975C29.8231 91.02 31.2624 94.0096 32.5722 97.2064C32.8275 98.0574 31.9025 96.7735 31.8618 96.866C31.9802 97.0621 32.3502 97.8021 32.6869 98.5384C33.031 99.271 33.3714 99.9851 33.4084 100.144L32.6721 98.8566C33.0347 99.7557 33.4269 100.448 33.8598 101.173C34.2816 101.902 34.7034 102.679 35.177 103.77C35.3657 104.133 35.6136 104.699 35.8541 105.18C36.0983 105.657 36.3351 106.053 36.4387 106.064C36.1464 105.428 36.1797 104.932 36.3536 104.68C36.5312 104.425 36.8346 104.418 37.1602 104.703C37.2268 104.821 37.7411 105.705 38.4219 106.571C39.0916 107.448 39.9796 108.244 40.32 108.547C40.8047 108.995 40.32 108.854 39.8168 108.647C39.3136 108.443 38.7956 108.162 39.1915 108.61C39.2692 108.599 39.9315 108.98 40.209 109.124C40.5642 109.376 40.4606 109.376 40.4717 109.431C40.4754 109.457 40.5124 109.502 40.6493 109.598C40.7011 109.642 40.8565 109.716 41.0193 109.805C41.1932 109.89 41.4078 110.008 41.6927 110.134C41.7963 110.105 42.1293 110.205 42.5141 110.341C42.5363 110.349 42.5659 110.367 42.5844 110.36L42.6325 110.293L42.7324 110.16C42.799 110.071 42.8693 109.986 42.9359 109.897C43.0617 109.72 43.1801 109.553 43.28 109.409C43.4502 109.095 43.5575 108.895 43.502 108.98C43.4761 109.024 43.4058 109.135 43.2837 109.335C43.1468 109.52 42.9544 109.779 42.6547 110.097C43.0099 109.642 43.2208 109.287 43.3873 108.947C43.4761 108.791 43.5316 108.606 43.5908 108.466C43.65 108.332 43.6722 108.195 43.7166 108.062C43.8461 107.522 43.9645 106.9 43.7906 105.805C43.7536 106.168 43.576 105.683 43.2615 104.958C42.9507 104.229 42.4734 103.263 42.1293 102.438C42.2255 102.516 42.1663 102.109 42.1367 101.917C40.8861 98.4903 40.2571 96.6329 38.9325 93.4953C38.8696 93.1808 38.2813 91.6453 38.6587 92.2447C38.4182 91.8155 38.1666 91.4344 37.73 90.4798C37.4118 89.5104 37.6597 90.0395 37.9372 90.6241C38.211 91.2087 38.5107 91.8488 38.322 91.0866C38.1407 91.02 37.027 88.6853 36.3092 87.3718C36.3018 87.8824 37.7226 90.5242 38.396 91.8673C38.1111 92.0005 36.7828 89.7361 35.1289 86.5985C33.8376 84.0936 34.7774 85.4108 34.5258 84.989C33.3862 82.5951 32.7387 81.659 32.1763 80.808C31.8914 80.3862 31.6213 79.9866 31.3068 79.4427C31.2291 79.3058 31.1477 79.1615 31.0626 79.0061C30.9886 78.8655 30.9072 78.7138 30.8184 78.551C30.7185 78.3586 30.6149 78.1292 30.478 77.8184C30.2708 77.2375 30.2375 76.9674 30.3078 76.9045C30.3707 76.8231 30.5298 76.9378 30.4632 76.664C30.7296 77.1043 30.9664 77.5409 31.1662 77.9331C31.3623 78.3179 31.551 78.699 31.7175 79.0579C32.0468 79.7757 32.3354 80.4121 32.6906 81.1077L31.8877 79.3613C32.291 79.9755 33.0421 81.3186 33.3677 82.0919C33.2382 81.7478 32.9274 81.0707 32.4871 80.2012C32.0468 79.328 31.4992 78.2846 30.8591 77.0932C30.5372 76.516 30.2079 75.924 29.8749 75.3283C29.8712 75.3209 29.8638 75.3061 29.8601 75.3061L29.8453 75.3357L29.8157 75.3912L29.7528 75.5022L29.6307 75.7279C29.5456 75.8759 29.4679 76.0276 29.405 76.183L29.2015 76.6455C29.146 76.8046 29.0942 76.9637 29.0387 77.1191C28.9795 77.2745 28.9388 77.4373 28.9018 77.6001C28.8648 77.7629 28.8167 77.922 28.7871 78.0811C28.739 78.403 28.6687 78.7397 28.6539 79.0357C28.5873 79.6388 28.5984 80.2123 28.6132 80.7303C28.7279 81.4629 29.0313 82.6839 29.0054 82.0845C28.9203 81.6627 28.8574 81.2372 28.8056 80.8117C28.8537 80.216 28.9277 80.8191 29.0461 81.3519C29.1608 81.8884 29.2866 82.3583 29.1904 81.5591C29.5456 83.2315 30.2819 84.9927 31.0256 87.3163L30.9664 87.8232C31.0071 87.7529 30.5557 86.2766 30.2745 85.6513C30.6852 86.5763 31.2291 89.2847 31.9136 90.2171L31.4622 88.5595C32.1652 90.1542 33.1642 92.0634 33.9264 94.0799C33.7562 93.0883 33.7081 93.6322 33.3788 92.1152C33.475 92.7923 32.9607 91.5121 32.5093 90.3207C32.0542 89.1293 31.6472 88.023 31.8581 89.0812C31.7249 88.2931 31.5251 87.6419 31.3031 86.9352C31.0811 86.2285 30.8332 85.4663 30.663 84.4747C30.6149 84.5561 30.7185 85.1962 30.2708 83.4979C30.2264 83.4276 30.1598 83.2537 30.1154 83.1427C30.1043 83.0909 30.1006 83.0724 30.0932 83.028C30.0969 83.0613 30.1006 83.0872 30.108 83.1242C30.0784 83.0539 30.0747 83.0465 30.1154 83.1612C30.1783 83.5719 30.2449 83.9123 30.2375 84.0566C30.034 83.657 29.7491 82.7764 29.5678 81.8736C29.3791 80.9708 29.3125 80.0532 29.2866 79.5907C29.368 78.5769 29.3532 80.0162 29.4531 79.4649L29.442 79.1245L29.4309 78.8285C29.4309 78.6953 29.4235 78.5473 29.4309 78.3919C29.516 78.3919 29.6603 78.0996 29.7602 78.0404C29.8638 77.9664 29.8638 78.0922 29.7935 78.5436C29.8564 78.3031 29.9415 78.0737 30.071 77.8665L30.0932 77.8517C30.0932 77.8517 30.108 77.8813 30.1154 77.8924C30.1302 77.9294 30.1413 77.9627 30.1561 77.9997C30.182 78.0626 30.2079 78.1292 30.2338 78.1958C30.2856 78.3179 30.33 78.4252 30.3744 78.5214C30.4188 78.6176 30.4632 78.699 30.5076 78.7767C30.5853 78.9173 30.663 79.0505 30.737 79.1763C30.8184 79.3169 30.8961 79.4464 30.9701 79.5685C31.44 80.5342 32.3872 81.8884 31.8433 81.1188C32.4205 82.1622 32.9903 83.2093 33.549 84.2601L33.5268 84.3082C35.066 87.4754 36.9086 90.7462 38.2036 94.5794C38.7031 95.6561 39.2211 96.7698 39.9093 98.6346L39.9167 99.049C40.5309 100.44 41.4078 103.382 41.7556 103.933C41.7926 104.34 41.9517 104.962 42.0738 105.668C42.1922 106.371 42.2736 107.171 42.0886 107.84C42.0775 107.925 42.0257 108.033 42.0405 108.007C42.0405 108.018 42.0294 108.04 42.0257 108.055C42.0146 108.092 41.9961 108.125 41.9739 108.162C41.9628 108.177 41.9554 108.207 41.9369 108.207L41.8851 108.188L41.8296 108.17L41.726 108.121L41.6261 108.073C41.5447 108.025 41.4596 107.977 41.3819 107.929C41.208 107.825 41.0378 107.729 40.8898 107.618C40.579 107.411 40.3126 107.189 40.0795 106.993L39.8871 107.078C38.6106 105.957 37.5561 104.651 36.4128 102.734L36.3351 102.934C35.8023 102.127 35.2806 100.969 34.7182 99.678C34.1706 98.3793 33.5897 96.9437 33.0162 95.5007C33.1568 95.6709 33.4232 96.4109 33.6156 96.9363C33.068 95.1529 32.3058 93.3621 31.6102 91.575C30.922 89.7916 30.3004 88.0156 29.997 86.3543C29.738 85.5551 29.5974 84.9631 29.5086 84.3822C29.5271 84.4599 29.5456 84.5265 29.5641 84.582C29.5456 84.4969 29.5197 84.3748 29.4901 84.2453C29.4346 83.879 29.3791 83.5016 29.3199 83.0909C29.3569 83.4424 29.4013 83.7754 29.4494 84.064C29.2977 83.435 29.072 82.4804 28.8463 81.548L28.9425 81.1114C28.9277 81.0337 28.9129 80.9745 28.8981 80.8931C28.7982 79.957 28.6835 80.1605 28.6391 80.6822C28.5281 80.2086 28.4097 79.7794 28.3135 79.4464C28.3986 79.0431 28.2765 78.4252 28.1544 77.7703C28.0508 77.1117 27.9324 76.4198 28.0286 75.8833C27.9731 75.7279 27.9102 75.3468 27.8362 74.8621C27.7585 74.37 27.6845 73.7928 27.6512 73.223C27.6142 72.6532 27.6253 72.1019 27.6623 71.6653C27.703 71.2287 27.7474 70.9031 27.7178 70.7625C27.7696 70.7477 27.8732 70.5109 27.7178 70.9623C27.8843 70.4961 28.1248 70.0743 28.4171 69.7154C28.4837 69.6192 28.5651 69.5378 28.6428 69.4564C28.7131 69.3787 28.7612 69.3232 28.8278 69.2677C28.9462 69.1456 29.0831 69.042 29.2163 68.9236C29.3199 69.0272 29.4013 69.1752 29.4642 69.2825C29.5123 69.2899 29.5641 69.301 29.6159 69.3195C29.6751 69.338 29.701 69.3417 29.7898 69.375C29.9637 69.4379 30.1228 69.5304 30.293 69.6118C30.626 69.782 30.9479 69.9781 31.2587 70.1964C31.7101 70.7218 31.9802 71.1325 32.0209 71.2805C32.0653 71.4322 31.8988 71.3027 31.3845 70.8735C31.9802 71.4063 32.3465 71.8651 32.6277 72.2203C32.9089 72.5755 33.0902 72.8456 33.2678 73.1046C33.623 73.6189 33.9079 74.0999 34.807 75.295L34.6035 75.2506C34.8884 75.7094 35.3398 76.2607 35.7801 76.738C36.2204 77.219 36.6496 77.6297 36.8531 77.8961C37.1861 78.2883 37.8003 78.884 38.7401 79.4279C39.2063 79.7054 39.7613 79.9459 40.3755 80.1494C40.9971 80.3307 41.6853 80.4565 42.4068 80.4898L43.4539 80.5416L42.9655 79.5981C42.1256 77.9775 40.8232 76.3976 39.3136 75.0989C37.8114 73.7891 36.1131 72.7494 34.548 71.965L33.4972 71.4396L33.5157 72.6051C33.5194 72.8493 33.5231 73.0787 33.5268 73.3044C33.7229 72.6088 33.6193 73.4302 33.8783 74.3922C33.956 74.6253 34.0226 74.8843 34.1262 75.11C34.2372 75.3357 34.3482 75.554 34.4518 75.7427C34.6923 76.0979 34.9106 76.3421 35.0142 76.3421C35.177 76.6936 35.7801 77.4114 34.9772 76.6825C36.1575 77.922 37.2268 78.5954 38.2184 79.106C38.4663 79.2355 38.7105 79.3539 38.9621 79.4427C39.2137 79.5352 39.4542 79.6425 39.7132 79.7054C39.8908 79.7498 40.0647 79.7979 40.2423 79.8423C40.4421 79.8978 40.6197 79.92 40.8084 79.957C41.1747 80.0014 41.5373 80.0236 41.8888 80.0458C42.17 80.1383 41.9628 80.1457 41.726 80.142C41.4929 80.142 41.2339 80.1272 41.4855 80.1938C41.6668 80.2049 42.0405 80.253 42.3957 80.2752C42.7361 80.2715 43.0913 80.2789 43.3429 80.3159C43.5908 80.3529 43.4613 80.3677 43.1801 80.3825C43.0358 80.3899 42.8582 80.3936 42.6769 80.401C42.5844 80.401 42.4882 80.4084 42.3994 80.4121C42.2958 80.401 42.1959 80.3936 42.1034 80.3862C42.2181 80.401 42.3328 80.4195 42.4364 80.4306C42.5363 80.4306 42.6325 80.4306 42.725 80.4306C42.9137 80.4306 43.0913 80.4306 43.2652 80.4306C43.4354 80.4306 43.5982 80.4306 43.7499 80.4306C43.8942 80.4195 44.0348 80.4084 44.168 80.3973C44.6897 80.3529 45.0856 80.3122 45.4223 80.253C45.7442 80.1975 45.9551 80.142 46.0809 80.0902C46.0957 80.0014 46.0069 79.9052 45.907 79.8164C45.5925 79.6092 45.3372 79.4723 45.1004 79.3465C43.983 78.0478 42.9988 77.1339 41.7741 76.3125C41.6483 76.1719 41.5558 76.0609 41.467 75.9536C41.3819 75.8463 41.3153 75.7612 41.3042 75.7279C41.2931 75.6946 41.3449 75.7131 41.4929 75.8167C41.5669 75.8722 41.6594 75.9425 41.7926 76.0461C41.9665 76.183 42.1774 76.368 42.4327 76.5937C42.2921 76.4642 42.0812 76.2644 41.8111 76.0239C41.615 75.85 41.3782 75.6428 41.1229 75.4134C40.6012 74.962 39.9796 74.4403 39.3617 73.9556C38.1296 72.9862 36.9382 72.1759 36.8235 72.2425C36.5793 71.9909 35.5655 71.3508 35.3065 71.2102C33.6859 70.1261 32.8534 69.6081 30.8776 68.4574C30.8776 68.5721 30.8776 69.0013 30.8776 69.5008L30.9183 68.672C31.0589 69.5304 31.0737 70.1002 31.0552 70.855C31.0515 71.0437 31.0441 71.2398 31.0367 71.4507C31.0367 71.6542 31.0552 71.8947 31.0663 72.1019C31.0885 72.4941 31.1218 72.9307 31.1736 73.4191L31.1403 73.3673C31.3623 75.6206 31.514 76.1016 31.6546 76.5567C31.7249 76.7861 31.7915 77.0155 31.8988 77.4595C31.958 77.6815 32.0024 77.9627 32.1023 78.3142C32.1985 78.6657 32.3169 79.0986 32.4649 79.6388L32.5574 79.3539C32.6795 79.4242 32.8053 79.6943 32.9348 80.1013C33.0754 80.5046 33.253 81.0337 33.438 81.6331C33.6119 82.2362 33.8487 82.8911 34.1077 83.5386C34.2372 83.8642 34.3667 84.1898 34.5073 84.5043C34.6553 84.8151 34.8107 85.1111 34.9661 85.3923L34.6479 84.5154C35.0179 85.1148 35.3176 86.0583 35.6358 86.9981C35.9614 87.9342 36.2574 88.8962 36.5904 89.5178C36.7125 89.8027 36.3018 89.1219 36.0798 88.7519C37.6782 92.093 36.509 89.0664 37.9076 91.4307C38.0519 91.9302 37.3045 91.0237 38.211 92.6369C38.5773 93.4916 41.2857 97.0362 42.3217 99.3191C42.1293 98.7937 41.9406 98.272 42.6325 99.3302C43.1246 100.166 43.6981 101.347 44.2457 102.509C44.5232 103.086 44.8303 103.663 45.0079 104.114C45.1929 104.577 45.2373 104.914 45.2336 105.173C45.167 105.287 45.1078 105.321 45.0856 105.313C45.0005 105.502 44.7526 105.772 44.4011 105.92C44.0533 106.072 43.6463 106.09 43.2615 105.924C42.873 105.765 42.4919 105.42 42.1515 105.117C41.8148 104.821 41.5447 104.569 41.3745 104.433C41.2709 104.081 40.8528 103.489 40.3533 102.742C39.8501 101.994 39.2692 101.08 38.7549 100.163C37.73 98.3275 36.879 96.5441 37.1343 96.4516C36.4942 95.0678 35.8615 93.684 35.2399 92.2928L35.3398 92.3779C34.2113 89.6917 33.7118 88.7889 33.2049 87.8861C32.9977 87.246 33.2234 87.6826 33.2715 87.7233C32.5463 85.7253 32.1985 84.6153 31.8211 83.6052C31.4659 82.5877 31.0774 81.6701 30.4928 79.9866L30.5779 79.5833C30.404 79.1319 30.108 77.6297 29.8527 75.7279C29.7269 74.7807 29.627 73.7225 29.5382 72.6643C29.4642 71.6098 29.4679 70.5775 29.6603 69.6636C29.6751 69.7043 29.6788 69.7857 29.6492 70.0817C29.7195 69.56 29.886 69.042 30.1487 68.5573C30.4225 68.0504 30.7444 67.6952 31.1255 67.5805C31.9173 67.3178 33.2826 67.8691 34.4555 68.1503C36.8235 68.7867 38.84 69.2788 39.7576 69.1567L42.8249 69.7191C38.9177 68.7349 43.4761 69.5748 41.8888 69.0864C43.4391 69.4157 45.8256 70.2297 43.9238 69.8116L43.6352 69.708C43.2467 69.7931 44.4566 70.115 45.7442 70.4369C46.6396 70.6663 47.5239 70.8809 47.239 70.9364C47.4869 70.9993 47.7422 71.0659 47.942 71.2213C48.0493 71.3027 48.1233 71.4359 48.1085 71.5728C48.0974 71.7097 47.9901 71.817 47.8754 71.8873C47.6423 72.0279 47.3685 72.0945 47.1058 72.1389C46.8394 72.1833 46.5693 72.187 46.3029 72.1833H45.4704C43.6278 72.1981 41.8 72.2092 39.9833 72.2203C39.0768 72.224 38.1703 72.2314 37.2712 72.2351C36.8161 72.2388 36.361 72.2425 35.9059 72.2462C35.4323 72.261 34.9217 72.2943 34.3667 72.4719C34.0929 72.5644 33.8006 72.705 33.5379 72.9233C33.2752 73.1379 33.0495 73.4413 32.9311 73.7632C32.6832 74.4181 32.7609 75.0064 32.8386 75.4911C32.9311 75.9647 33.0421 76.3791 33.1457 76.8231C33.2567 77.2597 33.3381 77.7 33.4713 78.1292C33.4713 77.8295 33.4972 77.5187 33.5157 77.219C33.5675 77.4299 33.6119 77.6445 33.6711 77.8591L33.8561 78.4881L34.2261 79.7461C34.289 80.0865 34.3297 80.3159 34.2557 80.2493C34.178 80.1827 34.0263 79.8016 33.7636 78.8988C33.8709 79.9052 34.881 81.8366 34.9476 81.8662C35.5433 83.5904 35.3546 83.2833 35.0438 82.6802C34.7256 82.0845 34.3667 81.1484 34.5443 81.6849C34.7145 82.1659 34.9106 82.6358 35.0993 83.1057L35.0031 82.7727C35.5581 83.8827 35.6913 83.9456 36.5534 86.0065C37.064 87.3237 36.6903 86.7354 36.9049 87.2497C36.8864 87.2534 36.953 87.431 37.2453 88.0304L38.5736 91.0163L38.2258 89.7398C38.9214 91.0163 39.4875 92.5333 39.0842 91.0681C39.3691 92.1522 40.616 94.9235 41.6927 97.6282C42.7805 100.329 43.6093 103.001 43.687 103.67C43.8424 104.144 43.9941 104.621 44.1347 105.106C44.2457 105.594 44.3493 106.094 44.4492 106.608C44.5676 107.119 44.6157 107.655 44.6712 108.207C44.7008 108.484 44.7267 108.765 44.7563 109.054C44.7933 109.357 44.797 109.594 44.7637 109.868C44.8192 109.609 44.8747 109.387 44.9413 109.476C44.9709 109.52 45.0079 109.642 45.0005 109.883C44.9857 110.116 44.9487 110.486 44.7082 110.908C44.6749 110.689 44.5602 110.8 44.3604 110.989C44.2568 111.078 44.1273 111.189 43.9682 111.27C43.8054 111.348 43.6093 111.4 43.3688 111.396C42.9063 111.411 42.3809 111.133 41.8666 110.726C41.6113 110.526 41.3671 110.334 41.1562 110.149C40.9527 109.957 40.7788 109.768 40.6456 109.605C40.8935 109.883 40.7381 109.798 40.3792 109.535C40.1979 109.409 39.9907 109.209 39.7502 109.006C39.506 108.802 39.2655 108.558 39.0287 108.314C38.0741 107.352 37.3193 106.327 37.8928 107.374C36.8827 105.957 37.9594 107.185 37.2971 106.049C36.0502 104.414 35.0845 102.316 34.2779 100.03C33.4787 97.7392 32.7461 95.2417 31.8877 92.7738C31.7989 92.7183 31.9802 93.5804 31.5362 92.5444L30.9923 89.8138C30.6482 88.8407 30.3411 89.022 29.9933 87.1535C30.0192 87.4236 30.0599 87.8306 29.8342 87.172C29.146 84.7041 28.4541 82.2103 27.7548 79.7017C27.0814 77.2042 26.4635 74.6697 26.6078 72.1463C26.6485 71.521 26.7336 70.8957 26.8705 70.2889C27.0111 69.7043 27.2257 69.1308 27.5328 68.6202C27.8399 68.1096 28.221 67.6471 28.6761 67.2882C29.1349 66.933 29.6566 66.6777 30.219 66.5408C31.3438 66.2559 32.5611 66.489 33.7451 66.9034C34.3371 67.1069 34.9402 67.3585 35.547 67.6027C36.1501 67.8543 36.7569 68.1059 37.36 68.3538C36.0724 67.7581 36.9641 68.0652 37.9816 68.4241C37.3304 68.1614 38.0519 68.2798 37.952 68.1503L41.9813 69.8486C42.8138 69.8856 46.3954 71.4063 46.906 71.3397L45.5888 70.9142C47.4129 71.2731 43.3725 69.4712 43.7462 69.227C41.7001 68.8311 38.7882 66.9626 35.4545 66.2485C34.7737 65.9303 36.0946 66.3558 35.7431 66.1449C35.3139 66.0746 34.8514 65.9525 34.2557 65.7786C33.6563 65.6158 32.9237 65.3753 31.8914 65.2532L32.1282 65.2384C30.6704 65.0793 29.3199 65.4197 28.3209 66.0894C27.3108 66.7591 26.6263 67.6619 26.1453 68.6461C25.9085 69.1382 25.7198 69.6784 25.594 70.2297C25.4608 70.7699 25.372 71.3434 25.3091 71.9465C25.1944 73.1564 25.2314 74.5106 25.4608 76.0572L25.5644 75.5725C25.7383 76.8934 25.7753 77.1746 25.8567 77.7925C26.1601 78.5029 25.9381 77.6001 25.7679 76.6677C25.594 75.7316 25.4978 74.7622 25.7309 75.4356C25.7013 75.8833 25.7864 76.6899 25.9751 77.6482C26.1601 78.6065 26.4524 79.7091 26.7484 80.7821C27.333 82.9355 27.9435 85.0038 27.9176 85.6217C28.4985 87.542 27.9398 85.0001 28.5244 86.9204L28.5762 87.4606L28.8611 87.9009C29.2311 89.1626 29.3051 89.8323 29.2311 89.91C29.146 89.6029 28.9314 89.0553 28.8204 88.7297C29.2052 90.3984 30.3374 93.2918 30.4817 93.8579L29.9452 92.0079C30.3855 93.3029 30.8517 94.6645 31.329 96.0631C31.8026 97.458 32.2725 98.8973 32.809 100.329C33.3418 101.757 33.9412 103.171 34.6516 104.488C35.3583 105.805 36.176 107.019 37.0751 108.051C37.0085 107.929 36.9493 107.796 36.8901 107.674C37.2083 108.081 37.5265 108.395 37.7707 108.688C38.0297 108.969 38.2665 109.194 38.4626 109.405C38.8659 109.816 39.1841 110.108 39.4986 110.419C39.6651 110.563 39.8353 110.711 40.0203 110.874C40.2053 111.041 40.4162 111.215 40.6752 111.392C40.9379 111.577 41.2043 111.792 41.5891 112.025C41.9702 112.247 42.4882 112.536 43.2171 112.565C43.1468 112.569 43.0765 112.569 43.0062 112.565C43.2985 112.58 43.5982 112.55 43.9238 112.462C44.2457 112.365 44.575 112.191 44.8414 111.944C45.3853 111.44 45.648 110.741 45.7479 110.064C45.6702 110.704 45.8737 110.127 45.9292 109.553C45.9551 109.246 45.944 109.032 45.9625 108.947C45.9773 108.869 46.018 108.924 46.0735 109.324C45.9255 108.184 45.8182 107.511 45.7479 107.048C45.6443 106.597 45.5814 106.375 45.5259 106.201C45.463 106.031 45.4186 105.901 45.3261 105.642C45.2299 105.383 45.13 104.988 44.8673 104.299L44.8377 103.615C44.4862 102.679 44.3937 102.62 43.6981 100.511C44.0348 101.358 43.9719 101.006 43.9312 100.673C43.909 100.507 43.8794 100.351 43.9164 100.351C43.9497 100.351 44.0496 100.511 44.2346 100.992C44.1088 100.414 43.9275 99.8963 43.7721 99.4042C43.6056 98.9158 43.4613 98.4533 43.2874 98.0389C42.9433 97.2027 42.6362 96.4738 42.3291 95.8374C42.0257 95.1973 41.7593 94.6275 41.5336 94.0873C41.3042 93.5508 41.1266 93.0365 41.0082 92.5074C40.4014 91.6083 40.7603 92.5518 41.2043 93.5804C41.652 94.609 42.1441 95.7523 41.8777 95.2158C42.0183 95.7005 41.7778 95.3231 41.4411 94.6534C41.1007 93.9874 40.6382 93.0402 40.3607 92.3668C39.7613 91.0126 39.7428 89.873 38.2295 86.4912C38.3775 86.8279 38.4145 86.839 38.5625 87.1757C38.0852 85.8696 37.3452 84.7411 36.8605 83.1094C36.5793 82.7098 36.3832 82.1955 36.2093 81.7663C36.0465 81.3334 35.9133 80.9782 35.7283 80.8968L36.0243 81.6886L36.3462 82.473C36.5645 82.9947 36.7717 83.5201 37.0011 84.0381C36.7939 83.6015 36.5978 83.1723 36.3795 82.732C36.1686 82.2917 35.9281 81.8403 35.7209 81.3371C35.5063 80.8376 35.2843 80.2974 35.0623 79.6906C34.8662 79.0764 34.6738 78.3956 34.4851 77.626C34.6146 77.848 34.9587 78.7249 35.1844 79.3317C35.0105 78.4215 34.5924 77.6519 34.474 76.6973C34.5628 76.7454 34.6701 77.0155 34.7922 77.4262C34.9291 77.8332 35.103 78.3697 35.2843 78.9654C35.4545 79.5611 35.695 80.1975 35.9207 80.808C36.0354 81.1114 36.1501 81.4111 36.2648 81.6886C36.3906 81.9661 36.5127 82.2214 36.6311 82.4508C36.5719 82.2103 36.435 81.8699 36.2907 81.5036C36.1464 81.1373 35.991 80.7451 35.8615 80.4158C35.5988 79.7498 35.4397 79.3132 35.7616 79.7498C35.5396 79.4353 35.3916 79.0542 35.2399 78.6324C35.0993 78.2106 34.9513 77.7481 34.8403 77.2486C34.733 76.7491 34.6183 76.2163 34.4777 75.665C34.3223 75.1026 34.2261 74.6179 34.2779 74.2812C34.3223 74.3293 34.3667 74.3737 34.4185 74.4144C34.4333 74.3182 34.4407 74.2109 34.5554 74.0888C34.6627 73.963 34.918 73.8409 35.2177 73.7928C34.8662 73.926 34.6368 74.1369 34.6183 74.2812C34.6701 74.1369 34.9809 73.9778 35.3879 73.9371C35.7912 73.8853 36.2537 73.9112 36.7495 73.926C37.7226 73.963 38.6883 74.0111 39.6651 73.9408C35.5655 74.0185 38.7401 73.7447 37.0048 73.6485C42.0553 73.3229 39.9204 74.0555 45.5777 73.8705C44.8118 73.9075 42.6991 73.815 43.8979 73.7151C44.4418 73.7225 45.0523 73.7373 45.6443 73.7595C46.5841 73.7706 47.535 73.8224 48.0715 73.778C48.7708 73.6781 49.1519 73.5375 49.422 73.4302C49.681 73.3192 49.7994 73.2378 49.8623 73.1971C49.9696 73.1083 49.8179 73.1749 49.5737 73.2489C49.3295 73.3266 48.9854 73.408 48.8004 73.4191C48.6117 73.4265 48.6339 73.408 49.0446 73.26C49.7846 73.1157 50.125 72.8715 50.384 72.5607C50.5135 72.4016 50.6282 72.2166 50.6763 71.9317C50.7059 71.7911 50.68 71.632 50.643 71.4766C50.5949 71.3212 50.5098 71.1769 50.4099 71.0585C50.3063 70.9438 50.1916 70.8439 50.0584 70.7514L50.2804 70.7107C49.9474 70.4073 49.607 70.226 49.2407 70.0595C48.8744 69.9004 48.5044 69.8042 48.2195 69.745C47.6386 69.6303 47.4092 69.6266 47.2094 69.6229C47.0096 69.6229 46.8394 69.6229 46.4065 69.5489C46.2992 69.5267 46.1771 69.5045 46.0291 69.4749C45.9218 69.4527 45.7997 69.4231 45.6591 69.3935C45.3779 69.3269 45.0153 69.2344 44.5528 69.1049L45.3742 69.1715L45.7849 69.2048L45.9884 69.2233L46.092 69.2307L46.2474 69.2529L44.2272 68.8385L44.6786 68.7349C42.5215 68.376 41.8703 68.1799 39.802 67.6323C40.2571 67.8691 39.4542 67.8839 37.6116 67.451C36.3795 67.0477 38.3553 67.451 35.7394 66.8553C36.3536 66.8886 37.0344 66.9034 38.1296 67.3363C38.2591 67.3067 38.7364 67.3659 38.8696 67.3363C37.545 66.896 35.4767 66.5001 34.5332 66.2781C34.8958 66.3706 35.3287 66.4853 35.547 66.563L33.6267 66.2337C32.9903 66.1264 32.2725 65.9821 31.4659 66.0746C31.0811 66.0746 31.0219 66.0746 31.1588 66.0191C31.292 65.9636 31.6065 65.9081 31.9025 65.897C31.4178 65.8933 30.9553 65.9599 30.4632 66.1967C29.9748 66.4298 29.5086 66.8553 29.1386 67.4325C29.1793 67.2438 29.1571 67.1439 29.3014 66.8738C29.3791 66.7406 29.5012 66.5593 29.7602 66.3299C30.0118 66.1042 30.4521 65.8267 31.0515 65.7046C30.6075 65.7934 30.1302 66.0006 29.7639 66.2966C29.3902 66.5852 29.1201 66.9367 28.9166 67.2623C28.5281 67.895 28.2543 68.5869 28.0989 69.2825C28.0286 69.412 27.8658 69.9374 27.777 70.3666C27.6845 70.7958 27.6364 71.1214 27.6216 70.8476C27.5624 71.4248 27.5772 72.0575 27.6438 72.7013C27.703 73.3488 27.8288 73.9963 27.9361 74.6845C28.1914 76.0461 28.4948 77.4743 28.7612 78.8359C28.8241 78.9691 28.9018 79.2503 29.072 79.8164C29.6825 82.3472 30.2264 84.6079 31.4992 87.4088L31.8951 89.1219C32.8571 91.3197 31.3105 86.8279 32.9126 90.4761C34.0892 93.0365 33.1198 91.5306 33.4417 92.4667C34.1151 93.7062 35.3546 95.8078 36.2315 98.2387C35.8319 97.4802 35.5914 96.8586 35.2473 96.1408L35.2251 96.1149ZM40.8639 93.4953C41.1821 93.9652 41.8592 94.8828 41.9776 95.2935C41.4707 94.8384 41.3005 94.3574 40.8639 93.4953ZM42.4031 78.884C42.503 78.8507 42.6695 78.8544 42.9026 78.8433C43.021 78.8433 43.1542 78.8433 43.3059 78.8507L43.4243 78.8581C43.4243 78.8581 43.4761 78.8655 43.4724 78.8581L43.4539 78.8322C43.428 78.7952 43.4021 78.7582 43.3725 78.7175L43.3614 78.7027C43.3614 78.7027 43.3725 78.7138 43.3836 78.7212C43.4243 78.7582 43.4613 78.7952 43.502 78.8322C43.5279 78.8655 43.6278 78.9247 43.5353 78.9136C43.4243 78.9173 43.3133 78.9247 43.1949 78.9284C43.0765 78.9284 42.947 78.9321 42.8175 78.9284C42.6843 78.9173 42.5474 78.9025 42.4068 78.884H42.4031ZM30.3855 78.0959C30.3855 78.0959 30.3966 78.1033 30.4003 78.1033C30.5076 78.3734 30.5298 78.44 30.5224 78.4178C30.5113 78.3919 30.4558 78.2624 30.3855 78.0922V78.0959ZM29.8527 77.7518C29.8194 77.9072 29.8416 77.9368 29.8712 77.9405C29.8712 77.8665 29.8934 77.7666 29.9415 77.663C29.9674 77.6112 29.9933 77.5557 30.0266 77.5002L30.0488 77.4595C30.0488 77.4595 30.0636 77.4225 30.0747 77.4521C30.0895 77.4854 30.108 77.5187 30.1265 77.552C30.1154 77.5076 30.1006 77.4595 30.0858 77.4114C30.0784 77.3892 30.0673 77.3633 30.0562 77.3374C30.0451 77.3374 30.034 77.3559 30.0229 77.3707C29.9785 77.4336 29.9008 77.552 29.849 77.7555L29.8527 77.7518ZM37.0862 87.4717L36.9197 86.9833C37.4377 88.023 37.2638 87.7455 37.0862 87.4717Z" fill="#231F20"/>
<path d="M41.2903 77.1386C41.2531 77.0642 41.2605 77.027 41.2717 76.9935C41.1377 76.9154 41.1229 76.9489 41.2903 77.1386Z" fill="#231F20"/>
<path d="M28.765 78.8996L28.7464 78.8104C28.7241 78.762 28.7092 78.7397 28.6943 78.7285L28.765 78.8996Z" fill="#231F20"/>
<path d="M40.0497 109.32C39.5872 108.972 39.3467 108.758 39.2098 108.595C39.158 108.606 39.3282 108.817 40.0497 109.32Z" fill="#231F20"/>
<path d="M32.3872 89.3623L31.7656 87.8083C32.0468 88.5668 32.1171 88.848 32.2318 89.2439C32.2577 89.1958 32.2022 88.8739 32.3872 89.3623Z" fill="#231F20"/>
<path d="M37.1821 103.16C37.3116 103.371 37.4189 103.626 37.5484 103.833L37.5928 103.737C37.1155 102.805 36.7418 102.172 37.1858 103.16H37.1821Z" fill="#231F20"/>
<path d="M32.3868 91.0236C32.298 91.2012 32.7235 92.1669 33.1934 93.2473C33.1675 93.1807 33.1416 93.1178 33.1157 93.0549C33.4413 93.2954 32.9011 92.1632 32.3868 91.0273V91.0236Z" fill="#231F20"/>
<path d="M33.3008 93.4952C33.4451 93.8282 33.5931 94.1686 33.7226 94.4979C33.8521 94.5941 33.5709 94.0835 33.3008 93.4952Z" fill="#231F20"/>
<path d="M29.6272 79.5574C29.5902 80.0717 29.8159 79.8756 29.7604 80.1642C29.8751 80.4454 29.7604 79.6018 29.753 79.0357C29.7456 78.8618 29.7308 78.8581 29.7197 78.8137C29.7086 78.7767 29.6975 78.7508 29.6864 78.7545C29.6753 78.7545 29.6642 78.7841 29.6531 78.8544C29.6531 78.8729 29.6457 78.9839 29.6383 79.1097C29.6383 79.2355 29.6198 79.3798 29.6272 79.5574Z" fill="#231F20"/>
<path d="M32.2767 92.0893L32.2952 91.6305L31.9141 91.0681L32.2767 92.0893Z" fill="#231F20"/>
<path d="M29.3496 83.261C29.4791 83.8715 29.6419 84.4783 29.8121 85.0814C29.8343 85.0444 29.9231 85.2664 30.0267 85.5402C29.6604 84.4376 29.3866 83.2055 29.3496 83.261Z" fill="#231F20"/>
<path d="M30.0264 85.5441C30.2114 86.1176 30.4075 86.6578 30.5481 86.9649C30.4371 86.6578 30.1929 85.9992 30.0264 85.5441Z" fill="#231F20"/>
<path d="M31.2955 89.7065L31.1364 89.17L30.6924 87.912L31.2955 89.7065Z" fill="#231F20"/>
<path d="M35.2992 86.2248L36.2242 88.0637C36.3685 88.2265 36.1724 87.7011 35.8209 87.0203C35.5693 86.5948 35.2215 85.914 35.2992 86.2285V86.2248Z" fill="#231F20"/>
<path d="M32.9795 80.4231C33.2015 80.9374 33.1793 80.9892 33.2681 81.2963L33.5012 81.2482L32.9795 80.4231Z" fill="#231F20"/>
<path d="M35.7099 85.7808C35.8542 85.9399 37.1603 88.4078 36.0244 86.0509C35.8801 85.8881 34.9329 84.0529 35.7099 85.7808Z" fill="#231F20"/>
<path d="M37.9812 106.693C38.0996 106.823 38.2143 106.956 38.3401 107.078L38.5584 106.763C38.3623 106.749 38.1736 106.719 37.9775 106.693H37.9812Z" fill="#231F20"/>
<path d="M27.0662 81.6108C27.266 82.8318 27.3548 82.965 27.4288 83.0649C27.5065 83.1685 27.5694 83.2425 27.7655 84.3414C27.9764 84.8853 27.4547 82.5469 27.6619 83.1093C27.2697 81.6737 27.1846 80.893 27.0625 81.6108H27.0662Z" fill="#231F20"/>
<path d="M27.6621 83.1095C27.7213 83.3389 27.799 83.5794 27.8804 83.8384C27.762 83.424 27.6991 83.2316 27.6621 83.1095Z" fill="#231F20"/>
<path d="M44.6641 70.9956L46.1182 71.5987L45.2043 71.1362L44.6641 70.9956Z" fill="#231F20"/>
<path d="M47.5938 71.7467L47.8602 72.0982L48.8222 72.2092C48.4855 72.0982 47.8306 71.8873 47.5938 71.7467Z" fill="#231F20"/>
<path d="M39.1102 89.4993L39.0029 89.4253C39.0658 89.6658 39.236 89.9877 39.5949 90.6241C39.4321 90.2504 39.2656 89.8767 39.1102 89.4993Z" fill="#231F20"/>
<path d="M41.8848 107.06C42.0143 107.156 42.1512 107.252 42.3029 107.341C42.055 107.115 41.8663 106.878 41.7109 106.645C41.759 106.782 41.8145 106.919 41.8848 107.06Z" fill="#231F20"/>
<path d="M32.5869 91.279C32.8607 91.9635 33.2529 92.7331 33.5415 93.4139C32.8644 91.9635 32.7608 90.9904 32.5869 91.279Z" fill="#231F20"/>
</g>
<path d="M91.4172 9.40191L34.4625 20.545C30.1027 21.398 27.2598 25.6238 28.1128 29.9836L49.6779 140.207C50.5309 144.567 54.7567 147.41 59.1165 146.557L116.071 135.414C120.431 134.561 123.274 130.335 122.421 125.975L100.856 15.7516C100.003 11.3918 95.777 8.54892 91.4172 9.40191Z" fill="#231F20"/>
<path d="M115.977 135.087C111.707 135.923 107.434 136.759 103.164 137.592C94.7906 139.231 86.4175 140.866 78.0444 142.506C72.0652 143.675 66.086 144.844 60.1068 146.013C59.7479 146.083 59.389 146.161 59.0301 146.224C56.133 146.738 53.1878 145.48 51.4932 143.086C50.546 141.751 50.25 140.274 49.9466 138.728C49.1215 134.51 48.2964 130.292 47.4713 126.074C46.0505 118.811 44.6297 111.551 43.2089 104.288C41.5328 95.719 39.8567 87.1461 38.1806 78.5769C36.5859 70.4295 34.9949 62.2858 33.4002 54.1384C32.2273 48.1518 31.0581 42.1615 29.8852 36.1749L28.9232 31.2465C28.6383 29.7998 28.3571 28.4197 28.6346 26.9212C29.197 23.8909 31.5391 21.5007 34.5509 20.8791C34.8839 20.8088 35.2206 20.7496 35.5536 20.683C37.818 20.239 40.0787 19.7987 42.3431 19.3547C50.3351 17.7933 58.3271 16.2282 66.3191 14.6668C73.4749 13.2682 80.6307 11.8659 87.7865 10.4673C89.026 10.2231 90.2618 9.96043 91.505 9.73843C95.7822 8.97993 99.5525 12.0065 100.363 16.1283C100.999 19.3473 101.621 22.5663 102.254 25.7853C103.56 32.4675 104.869 39.1534 106.176 45.8356C107.822 54.2494 109.465 62.6632 111.111 71.0733C112.754 79.4834 114.401 87.8898 116.043 96.2999C117.35 102.971 118.652 109.638 119.958 116.31C120.583 119.506 121.212 122.703 121.834 125.9C122.641 130.055 120.217 134.195 115.973 135.08C115.303 135.22 115.492 135.89 116.154 135.753C120.787 134.791 123.821 130.358 122.925 125.7C122.737 124.716 122.541 123.728 122.348 122.744C121.349 117.634 120.35 112.521 119.351 107.411C117.816 99.5596 116.28 91.7082 114.745 83.8605C113.039 75.147 111.337 66.4298 109.631 57.7163C108.096 49.8575 106.557 41.995 105.021 34.1362C104.018 29.008 103.016 23.8798 102.013 18.7479C101.817 17.7489 101.625 16.7499 101.428 15.7546C100.518 11.1814 96.1189 8.21033 91.5272 9.03173C87.1797 9.80873 82.8544 10.7263 78.5217 11.5736C70.0635 13.2275 61.6053 14.8814 53.1471 16.5353C47.1901 17.7008 41.2294 18.8663 35.2724 20.0318C34.8506 20.1132 34.4214 20.1872 34.0033 20.2908C31.1395 20.9938 28.7641 23.1435 27.8428 25.9518C27.2471 27.7648 27.4691 29.5075 27.8206 31.3057C28.642 35.5126 29.4671 39.7232 30.2885 43.9301C31.7204 51.2524 33.1523 58.5784 34.5842 65.9007C36.2862 74.6068 37.9882 83.3092 39.6902 92.0153C41.296 100.218 42.8981 108.417 44.5039 116.62C45.6694 122.574 46.8312 128.527 47.9967 134.477C48.3075 136.06 48.6146 137.644 48.9254 139.227C49.2954 141.125 49.8282 142.916 51.2083 144.385C53.2618 146.576 56.2884 147.441 59.2077 146.89C59.5296 146.831 59.8515 146.764 60.1734 146.701C62.4341 146.261 64.6911 145.817 66.9518 145.377C75.0474 143.793 83.1467 142.21 91.2423 140.626C98.4018 139.227 105.561 137.825 112.721 136.426C113.868 136.201 115.015 135.979 116.166 135.753C116.835 135.624 116.647 134.954 115.984 135.08L115.977 135.087Z" fill="white"/>
<path d="M91.8126 19.8347L38.0279 30.3576C35.4409 30.8637 33.7541 33.3712 34.2602 35.9582L52.2348 127.83C52.7409 130.417 55.2484 132.104 57.8354 131.598L111.62 121.075C114.207 120.569 115.894 118.061 115.388 115.474L97.4133 23.6024C96.9071 21.0154 94.3996 19.3286 91.8126 19.8347Z" fill="white"/>
<path d="M56.9021 131.879C55.9253 131.879 54.9744 131.59 54.1456 131.032C53.0467 130.292 52.303 129.171 52.0477 127.872L34.0768 35.9973C33.8215 34.6986 34.0879 33.3777 34.8279 32.2788C35.5679 31.1799 36.689 30.4362 37.9877 30.1809L91.7746 19.6618C93.0733 19.4065 94.3942 19.6766 95.4931 20.4129C96.592 21.1529 97.3357 22.274 97.591 23.5727L115.562 115.447C116.087 118.13 114.33 120.738 111.647 121.264L57.8604 131.783C57.5385 131.846 57.2166 131.875 56.8984 131.875L56.9021 131.879ZM92.7403 19.9356C92.4443 19.9356 92.1483 19.9652 91.8486 20.0207L38.0617 30.5398C36.8592 30.7766 35.8195 31.4648 35.135 32.4823C34.4505 33.4998 34.2026 34.7208 34.4394 35.9233L52.4103 127.798C52.6471 129 53.3353 130.04 54.3528 130.725C55.3703 131.409 56.5913 131.657 57.7938 131.42L111.581 120.901C114.063 120.416 115.688 118 115.203 115.518L97.2321 23.643C96.9953 22.4405 96.3071 21.4008 95.2896 20.7163C94.5237 20.202 93.6394 19.9319 92.7366 19.9319L92.7403 19.9356Z" fill="white"/>
<path d="M56.8649 19.399C55.9362 19.0179 54.7633 19.4434 54.212 20.2611C53.6496 21.101 53.805 22.2554 54.4488 23.0065C55.1629 23.8427 56.2655 24.1091 57.2867 23.7243C58.1451 23.3987 58.8962 22.5773 58.874 21.619C58.8481 20.5238 58.0156 19.621 56.9463 19.4397C56.6984 19.399 56.358 19.5322 56.247 19.769C56.1323 20.0206 56.3506 20.1871 56.5763 20.2241C56.7317 20.25 56.5023 20.1945 56.6503 20.2389C56.6836 20.25 56.7169 20.2574 56.7465 20.2685C56.8279 20.2981 56.876 20.3166 56.9204 20.3425C57.0536 20.4165 57.1868 20.5164 57.283 20.6126C57.5161 20.8494 57.6715 21.1306 57.7455 21.4488C57.8158 21.7485 57.7862 22.0593 57.6641 22.3294C57.5346 22.6106 57.3718 22.7845 57.098 22.9584C57.1794 22.9066 57.0832 22.9621 57.0647 22.9732C57.0277 22.9917 56.9907 23.0102 56.95 23.0287C56.9204 23.0435 56.8871 23.0546 56.8575 23.0657C56.9796 23.0213 56.8205 23.0731 56.8057 23.0768C56.7724 23.0842 56.7428 23.0916 56.7095 23.099C56.5541 23.136 56.7798 23.0953 56.6836 23.099C56.6429 23.1027 56.6022 23.1064 56.5578 23.1101C56.4172 23.1249 56.6355 23.1249 56.4949 23.1101C56.3173 23.0916 56.247 23.0805 56.0657 23.0028C55.8955 22.9325 55.7364 22.8215 55.5995 22.6994C55.1 22.2591 54.8262 21.5117 55.0001 20.8568C55.0519 20.6681 55.1259 20.5349 55.2295 20.4128C55.2517 20.3869 55.2739 20.3647 55.2961 20.3388C55.3368 20.2981 55.3442 20.2907 55.3109 20.3203C55.3294 20.3018 55.3479 20.287 55.3664 20.2722C55.3997 20.2463 55.433 20.2241 55.4663 20.1982C55.5773 20.1094 55.3923 20.2278 55.5181 20.1649C55.5551 20.1464 55.5921 20.1279 55.6291 20.1094C55.6513 20.0983 55.6735 20.0909 55.6957 20.0798C55.6328 20.102 55.6328 20.102 55.6957 20.0798C55.7253 20.0724 55.7586 20.065 55.7919 20.0539C55.914 20.0169 55.7216 20.0539 55.84 20.0465C55.8881 20.0465 55.9362 20.0391 55.9843 20.0391C55.8918 20.0391 56.0139 20.0465 56.0398 20.0502C56.1249 20.0576 56.0879 20.0576 56.0583 20.0502C56.1212 20.065 56.1841 20.0909 56.2433 20.1131C56.4875 20.213 56.8353 20.1094 57.0018 19.9096C57.1683 19.7098 57.0943 19.4804 56.8612 19.3842L56.8649 19.399Z" fill="white"/>
<path d="M60.9644 21.0123C65.1269 20.1539 69.2931 19.2955 73.4556 18.4371C73.6406 18.4001 73.9699 18.2114 73.907 17.9783C73.8404 17.7304 73.463 17.7711 73.2854 17.8081C69.1229 18.6665 64.9567 19.5249 60.7942 20.3833C60.6092 20.4203 60.2799 20.609 60.3428 20.8421C60.4094 21.09 60.7868 21.0493 60.9644 21.0123Z" fill="white"/>
<path d="M85.6221 129.437C83.9164 129.533 82.3587 130.706 81.7963 132.319C81.245 133.907 81.9591 135.649 83.2541 136.645C84.6231 137.696 86.4953 137.744 88.0197 137C89.5663 136.245 90.9427 134.573 90.5542 132.756C90.1287 130.777 88.0345 129.056 85.9847 129.371C85.7849 129.4 85.4112 129.507 85.3816 129.759C85.352 130.011 85.6776 130.055 85.8552 130.029C87.3611 129.8 88.7819 131.198 89.3073 132.493C89.8808 133.907 89.2148 135.435 87.9901 136.26C86.8912 137 85.5296 137.033 84.4085 136.319C83.3133 135.62 82.5622 134.277 82.7028 132.963C82.8582 131.528 84.0052 130.185 85.4926 130.099C85.6924 130.088 86.0698 129.948 86.0957 129.711C86.1253 129.456 85.7997 129.43 85.6221 129.441V129.437Z" fill="white"/>
<path d="M34.6094 104.958C35.231 96.0371 39.1197 87.3791 45.3764 80.9855C47.5668 78.747 50.4232 76.6565 53.5349 77.0376C56.3432 77.3817 58.5891 79.7497 59.5363 82.4174C60.4835 85.0851 60.3577 88.0044 60.0358 90.8164C58.5003 104.31 52.6802 117.283 43.6189 127.395" fill="white"/>
<path d="M35.3942 104.529C35.8234 98.5681 37.6734 92.7147 40.7518 87.5939C42.2836 85.0446 44.1114 82.6507 46.2167 80.5491C47.175 79.5945 48.2295 78.6621 49.4727 78.096C50.7159 77.5299 52.2218 77.3449 53.5945 77.7112C56.2511 78.4142 58.1381 80.8562 58.9114 83.3944C59.8734 86.5468 59.4664 89.9545 59.0039 93.1587C58.1381 99.1638 56.425 105.047 53.9571 110.589C51.4855 116.15 48.248 121.367 44.3482 126.041C43.8709 126.614 43.3825 127.176 42.8867 127.731C42.6203 128.031 43.2419 127.828 43.3196 127.794C43.7044 127.62 44.0707 127.376 44.3519 127.058C48.5588 122.352 52.0701 117.042 54.7859 111.344C57.5017 105.646 59.422 99.5375 60.421 93.2919C60.9427 90.0359 61.4348 86.5653 60.7096 83.3056C60.0991 80.5565 58.3823 77.9184 55.6739 76.8713C52.6769 75.7132 49.4949 77.2857 47.1232 79.0913C44.7515 80.8969 42.5574 83.4388 40.774 85.977C37.2109 91.046 34.8614 96.9734 34.0511 103.119C33.9512 103.87 33.8772 104.625 33.8217 105.38C33.8032 105.639 34.4248 105.295 34.5025 105.25C34.7023 105.143 35.3683 104.81 35.3905 104.525L35.3942 104.529Z" fill="#231F20"/>
<path d="M47.0234 88.7962C47.6746 86.5614 48.6514 84.4228 49.9094 82.4655C50.1906 82.0252 50.5014 81.5812 50.9491 81.3148C51.9777 80.7043 53.3948 81.2963 54.0312 82.3064C54.6676 83.3165 54.6972 84.593 54.5603 85.7807C54.3494 87.5826 53.7944 89.3475 52.936 90.9459C52.6215 91.5342 52.159 92.1669 51.493 92.1928C50.9824 92.215 50.5347 91.8672 50.1425 91.5379C49.1435 90.698 48.1445 89.8581 47.1455 89.0182" fill="white"/>
<path d="M47.8446 89.2218C48.3552 87.4939 49.0471 85.8215 49.9203 84.2453C50.3236 83.5127 50.7417 82.695 51.33 82.0919C51.5927 81.8218 51.9072 81.622 52.2809 81.5517C52.4215 81.5258 52.5621 81.5147 52.7064 81.5184C52.7915 81.5184 52.8729 81.5443 52.9543 81.548C53.0061 81.5554 53.0579 81.5702 53.106 81.585L52.7656 81.4222C52.9062 81.3704 53.3058 82.0845 53.365 82.1955C53.5722 82.5951 53.6943 83.0354 53.7535 83.4794C53.8645 84.2934 53.7831 85.1222 53.6573 85.9288C53.3909 87.616 52.8507 89.4327 51.9035 90.8757C51.6815 91.2161 51.3781 91.5898 50.9711 91.7045C50.9711 91.7045 50.7269 91.7341 50.7158 91.7452C51.1191 92.0227 51.2301 92.093 51.0488 91.9561C50.9933 91.9117 50.9341 91.8673 50.8823 91.8229C50.7084 91.6823 50.5382 91.5343 50.3643 91.39C49.5022 90.6648 48.6364 89.9396 47.7743 89.2144C47.4561 88.948 47.0121 88.726 46.6125 88.615C46.3128 88.5299 46.2462 88.6039 46.5052 88.8222C47.4376 89.6066 48.3663 90.3873 49.2987 91.1717C49.6909 91.501 50.0868 91.8081 50.5382 92.0597C51.034 92.3409 51.6667 92.6739 52.2587 92.6443C53.2096 92.5925 53.698 91.5195 54.0495 90.7832C54.5231 89.7916 54.8857 88.7445 55.1262 87.6715C55.5332 85.8511 55.8292 83.4313 54.2863 82.0364C53.5574 81.3778 52.5214 80.8191 51.5446 80.66C50.6603 80.5157 49.9388 80.8709 49.4023 81.5739C48.6549 82.5507 48.0703 83.7014 47.5486 84.8077C47.0047 85.9621 46.5533 87.1572 46.1944 88.3782C46.0982 88.7001 47.8002 89.3587 47.8372 89.2255L47.8446 89.2218Z" fill="#231F20"/>
<path d="M143.893 31.8641H74.866C69.8747 31.8641 65.8232 35.9119 65.8232 40.9069V85.873C65.8232 90.868 69.871 94.9158 74.866 94.9158H74.8845C75.3174 98.0423 76.2942 101.095 77.7742 103.881C78.1109 104.517 78.492 105.161 79.0655 105.598C79.639 106.034 80.453 106.227 81.0931 105.894C81.4631 105.701 81.7332 105.361 81.9848 105.028C84.375 101.883 86.4248 98.4863 88.1083 94.9121H143.89C148.885 94.9121 152.932 90.8643 152.932 85.8693V40.9069C152.932 35.9119 148.885 31.8641 143.89 31.8641H143.893Z" fill="white"/>
<path d="M143.361 31.2426H75.8468C75.1734 31.2426 74.4926 31.2204 73.8229 31.2574C69.5457 31.4979 65.9086 34.6799 65.1871 38.9201C64.9984 40.0375 65.0576 41.203 65.0576 42.3315V81.6995C65.0576 82.8798 65.0576 84.0601 65.0576 85.2441C65.0576 88.5889 66.7337 91.6414 69.4606 93.5654C71.2033 94.7938 73.2716 95.5412 75.4176 95.5412C74.9847 95.1786 74.5481 94.8197 74.1152 94.4571C74.3816 96.3367 74.8219 98.1904 75.4583 99.9775C75.7839 100.891 76.1576 101.787 76.5794 102.66C76.9753 103.481 77.3786 104.325 77.9632 105.032C79.0029 106.29 81.0897 107.47 82.4217 105.968C83.0507 105.261 83.5835 104.443 84.12 103.67C84.6676 102.882 85.193 102.079 85.6999 101.265C86.8617 99.3966 87.9125 97.4578 88.8523 95.4709L88.6414 95.5412H143.191C144.093 95.5412 144.992 95.5634 145.888 95.4302C149.643 94.8715 152.711 91.9337 153.502 88.2337C153.736 87.1422 153.702 86.0433 153.702 84.9407V43.8411C153.702 43.0271 153.706 42.2131 153.702 41.3991C153.687 37.8767 151.723 34.7502 148.792 32.8743C147.172 31.8383 145.285 31.2537 143.361 31.2389C142.957 31.2389 143.183 31.657 143.331 31.8309C143.568 32.1158 144.023 32.4821 144.423 32.4858C146.217 32.4969 148.019 33.026 149.399 34.1915C150.705 35.2904 151.578 36.8814 151.96 38.5501C152.2 39.612 152.163 40.6924 152.163 41.7728V82.5616C152.163 83.4718 152.163 84.382 152.163 85.2922C152.159 88.2226 150.798 90.9791 148.393 92.6848C146.776 93.8318 144.881 94.2869 142.924 94.2869H96.2079C93.4588 94.2869 90.7097 94.2869 87.9606 94.2869H87.5795C87.4981 94.2758 87.4278 94.298 87.3686 94.3572C85.9071 97.443 84.1829 100.399 82.196 103.178C81.7483 103.807 81.3117 104.528 80.7419 105.054C80.3608 105.409 79.6356 105.631 79.2064 105.235C78.6699 104.747 78.3443 103.888 78.0372 103.248C77.6672 102.475 77.3342 101.683 77.0382 100.877C76.387 99.0932 75.9245 97.2469 75.6581 95.371C75.5878 94.8789 74.8552 94.2869 74.3557 94.2869C72.4502 94.2869 70.5336 93.6727 69.1387 92.3851C67.6698 91.0309 66.7966 89.0847 66.6301 87.1015C66.5487 86.158 66.5968 85.1886 66.5968 84.2414V41.573C66.5968 38.4909 68.0509 35.5568 70.6853 33.8807C72.3022 32.8521 74.1078 32.4895 75.9911 32.4895H144.423C144.826 32.4895 144.6 32.0751 144.452 31.8975C144.215 31.6163 143.76 31.2426 143.361 31.2426Z" fill="white"/>
<g opacity="0.11">
<path d="M143.894 31.8643H74.867C69.8757 31.8643 65.8242 35.9121 65.8242 40.9071V85.8732C65.8242 90.8682 69.872 94.916 74.867 94.916H74.8855C75.3184 98.0425 76.2952 101.095 77.7752 103.881C78.1119 104.517 78.493 105.161 79.0665 105.598C79.64 106.034 80.454 106.227 81.0941 105.894C81.4641 105.701 81.7342 105.361 81.9858 105.028C84.376 101.883 86.4258 98.4865 88.1093 94.9123H143.891C148.886 94.9123 152.933 90.8645 152.933 85.8694V40.9071C152.933 35.9121 148.886 31.8643 143.891 31.8643H143.894Z" fill="#231F20"/>
<path d="M143.738 31.054H76.2245C75.5511 31.054 74.874 31.0355 74.2006 31.0688C69.7717 31.2797 66.0347 34.5209 65.1689 38.861C64.9358 40.0339 64.995 41.2475 64.995 42.4389V85.4033C64.995 88.7111 66.4639 91.8042 69.1575 93.769C70.8595 95.0121 72.9278 95.7225 75.0442 95.7225C74.7186 95.4303 74.3967 95.1417 74.0711 94.8494C74.3412 96.7586 74.8074 98.6345 75.4549 100.455C75.7694 101.343 76.132 102.212 76.539 103.06C76.946 103.907 77.3678 104.806 77.9857 105.52C78.6036 106.234 79.3991 106.767 80.3463 106.863C81.2306 106.952 81.9632 106.538 82.5071 105.868C83.7059 104.395 84.753 102.775 85.752 101.165C86.9138 99.2968 87.9646 97.3617 88.9044 95.3711C88.6935 95.4895 88.4789 95.6078 88.268 95.7262H142.817C143.742 95.7262 144.675 95.7522 145.592 95.6153C149.414 95.0455 152.611 92.1077 153.499 88.3485C153.777 87.1682 153.769 86.0101 153.769 84.8113V43.7413C153.769 42.9014 153.769 42.0615 153.769 41.2216C153.754 37.7732 152.037 34.6023 149.159 32.6931C147.564 31.6349 145.651 31.0688 143.742 31.054C142.584 31.0466 143.124 32.6672 144.046 32.6746C147.653 32.7005 150.916 35.0389 151.827 38.5798C152.111 39.6861 152.1 40.7739 152.1 41.8987V82.6578C152.1 83.5939 152.1 84.5264 152.1 85.4625C152.1 88.2227 150.872 90.8792 148.597 92.5036C147.02 93.6246 145.218 94.102 143.305 94.102H87.9609C87.6797 94.102 87.4503 94.187 87.3245 94.4571C85.8556 97.5614 84.1166 100.536 82.1075 103.322C81.6968 103.892 81.2713 104.684 80.6793 105.087C80.1724 105.435 79.573 105.172 79.1993 104.762C78.6924 104.203 78.3705 103.444 78.0486 102.771C77.6897 102.024 77.3641 101.258 77.0792 100.477C76.4206 98.701 75.9803 96.8511 75.7139 94.9752C75.6547 94.5497 75.1737 94.102 74.7408 94.102C70.6708 94.102 67.2409 91.1383 66.7266 87.0868C66.6045 86.1174 66.6637 85.1073 66.6637 84.1342V41.4103C66.6637 38.4762 67.9735 35.7012 70.4673 34.0695C72.0324 33.0483 73.7788 32.6746 75.614 32.6746H144.046C145.204 32.6746 144.663 31.054 143.742 31.054H143.738Z" fill="#231F20"/>
</g>
<path d="M143.695 31.0096H137.63C135.425 31.0096 133.22 31.0096 131.015 31.0096C128.291 31.0096 125.568 31.0096 122.845 31.0096C119.796 31.0096 116.747 31.0096 113.699 31.0096H76.1769C75.5035 31.0096 74.8227 30.9874 74.153 31.0244C69.7981 31.2686 65.9982 34.5283 65.2027 38.8425C64.9807 40.0524 65.0251 41.2771 65.0251 42.5018V48.2886C65.0251 51.0488 65.0251 53.8127 65.0251 56.5729C65.0251 59.6994 65.0251 62.8222 65.0251 65.9487C65.0251 69.0752 65.0251 71.8798 65.0251 74.8472V85.4662C65.0251 88.7333 66.5014 91.8931 69.1765 93.8245C70.9007 95.0714 72.9542 95.7707 75.0854 95.7707C74.7598 95.4895 74.4342 95.2046 74.1086 94.9234C74.375 96.8141 74.8412 98.6604 75.4776 100.462C75.7921 101.35 76.1473 102.22 76.5543 103.071C76.9502 103.903 77.3609 104.784 77.9492 105.498C78.5375 106.212 79.2738 106.749 80.184 106.882C81.1053 107.015 81.8342 106.638 82.4225 105.946C83.6546 104.499 84.7017 102.838 85.7007 101.224C86.844 99.3782 87.88 97.4653 88.8087 95.5006C88.6422 95.5894 88.4757 95.6782 88.3092 95.767H94.2884C98.9874 95.767 103.686 95.767 108.389 95.767C113.95 95.767 119.511 95.767 125.076 95.767H142.862C143.78 95.767 144.682 95.7855 145.593 95.6449C149.422 95.0418 152.619 92.1003 153.485 88.3041C153.755 87.1238 153.74 85.9509 153.74 84.7521C153.74 80.9004 153.74 77.0487 153.74 73.197C153.74 67.6877 153.74 62.1821 153.74 56.6728V43.6784C153.74 42.8385 153.74 41.9986 153.74 41.1587C153.725 37.7066 151.975 34.5098 149.097 32.6117C147.498 31.5572 145.607 31.017 143.698 31.0022C142.614 30.9948 143.184 32.7079 144.094 32.7116C147.702 32.7375 150.969 35.1277 151.875 38.6427C152.156 39.7416 152.138 40.8294 152.138 41.9468C152.138 45.7097 152.138 49.4689 152.138 53.2318C152.138 58.6745 152.138 64.1172 152.138 69.5599C152.138 73.9407 152.138 78.3252 152.138 82.706C152.138 83.6421 152.138 84.5745 152.138 85.5106C152.138 88.2893 150.85 90.8756 148.579 92.4962C146.999 93.621 145.178 94.0465 143.269 94.0465H111.53C106.539 94.0465 101.544 94.0465 96.5528 94.0465C93.8037 94.0465 91.0546 94.0465 88.3055 94.0465H87.9244C87.7542 94.0465 87.5026 94.1464 87.4249 94.3129C85.9523 97.4246 84.2096 100.403 82.2042 103.2C81.9563 103.544 81.7084 103.885 81.4531 104.221C81.2385 104.51 81.0276 104.839 80.7168 105.039C80.2062 105.368 79.5883 105.132 79.1998 104.725C78.6781 104.181 78.3599 103.419 78.0343 102.749C77.6717 102.001 77.3461 101.236 77.0575 100.459C76.3878 98.6641 75.9438 96.7845 75.6737 94.8901C75.6108 94.4498 75.1335 94.0428 74.6969 94.0428C70.6528 94.0428 67.1563 91.031 66.6864 87.0017C66.5717 86.0397 66.6383 85.0296 66.6383 84.0602V69.9669C66.6383 66.8848 66.6383 63.8027 66.6383 60.7206C66.6383 57.7865 66.6383 54.8487 66.6383 51.9146C66.6383 49.6021 66.6383 47.2896 66.6383 44.9734V41.3289C66.6383 38.38 68.0073 35.6716 70.4974 34.0473C72.0625 33.0224 73.8311 32.7005 75.6663 32.7005H100.889C103.975 32.7005 107.057 32.7005 110.143 32.7005C113.214 32.7005 116.289 32.7005 119.36 32.7005H144.102C145.186 32.7005 144.616 30.9911 143.706 30.9911L143.695 31.0096Z" fill="#6E38FF"/>
<path d="M77.3418 57.2722L104.796 83.8086L131.332 56.3509L103.997 40.156L77.3418 57.2722Z" fill="#6E38FF"/>
<path d="M76.8349 57.4571C77.7451 58.3377 78.6553 59.2146 79.5655 60.0952C81.7485 62.2079 83.9352 64.3169 86.1182 66.4296C88.76 68.9863 91.4055 71.5393 94.0473 74.096C96.3339 76.3049 98.6205 78.5138 100.907 80.7227C101.662 81.4516 102.413 82.1805 103.168 82.9094C103.508 83.2387 103.849 83.679 104.245 83.9491C104.263 83.9602 104.278 83.9787 104.293 83.9935C104.478 84.1711 105.133 83.9269 105.284 83.7715C106.165 82.8613 107.042 81.9511 107.922 81.0409C110.035 78.8579 112.144 76.6712 114.257 74.4882C116.813 71.8464 119.366 69.2009 121.923 66.5591C124.132 64.2725 126.341 61.9859 128.55 59.6993C129.279 58.9445 130.008 58.1934 130.737 57.4386C131.066 57.0982 131.506 56.7578 131.776 56.3619C131.787 56.3434 131.806 56.3286 131.821 56.3138C131.854 56.2805 131.906 56.2102 131.839 56.1732C130.936 55.6404 130.034 55.1039 129.131 54.5711L122.589 50.6935C119.962 49.1358 117.335 47.5818 114.708 46.0241C112.436 44.6773 110.161 43.3305 107.889 41.9837C107.134 41.536 106.379 41.0883 105.625 40.6443C105.273 40.4371 104.922 40.1781 104.548 40.0079C104.533 40.0005 104.515 39.9894 104.5 39.9783C104.263 39.8377 103.789 40.0153 103.586 40.1448C102.698 40.7146 101.814 41.2844 100.926 41.8505C98.8092 43.2084 96.6965 44.5663 94.5801 45.9242C92.0086 47.5744 89.4371 49.2283 86.8656 50.8785C84.653 52.2993 82.4404 53.7201 80.2241 55.1409C79.1474 55.8328 78.0078 56.4766 76.9718 57.2277C76.957 57.2388 76.9422 57.2462 76.9237 57.2573C76.7387 57.3757 76.8016 57.4571 76.9866 57.4867C77.216 57.5237 77.5527 57.4053 77.7451 57.2832C78.6331 56.7134 79.5174 56.1436 80.4054 55.5775C82.5218 54.2196 84.6345 52.8617 86.7509 51.5038C89.3224 49.8536 91.8939 48.1997 94.4654 46.5495C96.678 45.1287 98.8906 43.7079 101.107 42.2871C102.18 41.5989 103.338 40.9662 104.359 40.2003C104.374 40.1892 104.389 40.1818 104.407 40.1707C104.104 40.2262 103.797 40.2817 103.493 40.3372C104.396 40.87 105.299 41.4065 106.202 41.9393C108.381 43.2306 110.564 44.5256 112.743 45.8169C115.37 47.3746 117.997 48.9286 120.624 50.4863C122.896 51.8331 125.172 53.1799 127.444 54.5267C128.198 54.9744 128.953 55.4221 129.708 55.8661L130.407 56.2805C130.485 56.3249 130.692 56.5062 130.781 56.5025C130.792 56.5025 130.818 56.5247 130.829 56.5321L130.848 56.3915C129.967 57.3017 129.09 58.2119 128.209 59.1221C126.097 61.3051 123.988 63.4918 121.875 65.6748C119.318 68.3166 116.765 70.9621 114.209 73.6039C112 75.8905 109.791 78.1771 107.582 80.4637C106.853 81.2185 106.124 81.9696 105.395 82.7244C105.055 83.0796 104.666 83.4163 104.356 83.8011C104.341 83.8196 104.326 83.8344 104.311 83.8492L105.303 83.6272C104.393 82.7466 103.482 81.8697 102.572 80.9891C100.389 78.8764 98.2024 76.7674 96.0194 74.6547C93.3776 72.098 90.7321 69.545 88.0903 66.9883C85.8037 64.7794 83.5171 62.5705 81.2305 60.3616C80.4757 59.6327 79.7246 58.9038 78.9698 58.1749C78.6294 57.8456 78.289 57.4053 77.8931 57.1352C77.8746 57.1241 77.8598 57.1056 77.845 57.0908C77.6452 56.8984 76.6721 57.298 76.8349 57.4534V57.4571Z" fill="#6E38FF"/>
<g opacity="0.33">
<path d="M77.3418 57.272L104.796 83.8084L131.332 56.3507L103.997 40.1558L77.3418 57.272Z" fill="#231F20"/>
<path d="M76.8348 57.4533C77.745 58.3339 78.6552 59.2108 79.5654 60.0914C81.7484 62.2041 83.9351 64.3131 86.1181 66.4258C88.7599 68.9825 91.4054 71.5355 94.0472 74.0922C96.3338 76.3011 98.6204 78.51 100.907 80.7189C101.662 81.4478 102.413 82.1767 103.168 82.9056C103.508 83.2349 103.848 83.6789 104.244 83.9453C104.263 83.9564 104.278 83.9749 104.292 83.9897C104.466 84.1599 105.136 83.912 105.28 83.764C106.161 82.8538 107.038 81.9436 107.918 81.0334C110.031 78.8504 112.14 76.6637 114.253 74.4807C116.81 71.8389 119.363 69.1934 121.919 66.5516C124.128 64.265 126.337 61.9784 128.546 59.6918C129.275 58.937 130.004 58.1859 130.733 57.4311C131.062 57.0907 131.499 56.7466 131.772 56.3544C131.783 56.3359 131.802 56.3211 131.817 56.3063C131.85 56.273 131.902 56.2101 131.839 56.1731C130.936 55.6403 130.033 55.1038 129.131 54.571C126.951 53.2797 124.768 51.9847 122.589 50.6934C119.962 49.1357 117.335 47.5817 114.708 46.024C112.436 44.6772 110.161 43.3304 107.889 41.9836C107.134 41.5359 106.379 41.0882 105.624 40.6442C105.273 40.437 104.921 40.1743 104.548 40.0078C104.533 40.0004 104.514 39.9893 104.5 39.9782C104.27 39.8413 103.782 40.0226 103.586 40.1521C102.698 40.7219 101.813 41.2917 100.925 41.8578C98.8091 43.2157 96.6964 44.5736 94.58 45.9315C92.0085 47.5817 89.437 49.2356 86.8655 50.8858C84.6529 52.3066 82.4403 53.7274 80.224 55.1482C79.1436 55.8401 78.0151 56.4913 76.9717 57.235C76.9569 57.2461 76.9421 57.2535 76.9236 57.2646C76.7423 57.3793 76.7978 57.457 76.9828 57.4829C77.2085 57.5162 77.5526 57.4015 77.7413 57.2794C78.6293 56.7096 79.5136 56.1398 80.4016 55.5737C82.518 54.2158 84.6307 52.8579 86.7471 51.5C89.3186 49.8498 91.8901 48.1959 94.4616 46.5457C96.6742 45.1249 98.8868 43.7041 101.103 42.2833C102.176 41.5951 103.334 40.9587 104.355 40.1965C104.37 40.1854 104.385 40.178 104.403 40.1669C104.1 40.2261 103.793 40.2816 103.49 40.3408C104.392 40.8736 105.295 41.4101 106.198 41.9429C108.377 43.2342 110.56 44.5292 112.74 45.8205C115.367 47.3782 117.994 48.9322 120.621 50.4899C122.892 51.8367 125.168 53.1835 127.44 54.5303C128.194 54.978 128.949 55.4257 129.704 55.8697L130.403 56.2841C130.481 56.3285 130.688 56.5098 130.777 56.5061C130.788 56.5061 130.814 56.5283 130.825 56.5357L130.847 56.4025C129.967 57.3127 129.09 58.2229 128.209 59.1331C126.097 61.3161 123.988 63.5028 121.875 65.6858C119.318 68.3276 116.765 70.9731 114.208 73.6149C112 75.9015 109.791 78.1881 107.582 80.4747C106.853 81.2295 106.124 81.9806 105.395 82.7354C105.055 83.0906 104.666 83.4273 104.355 83.8121C104.341 83.8306 104.326 83.8454 104.311 83.8602L105.299 83.6345C104.389 82.7539 103.478 81.877 102.568 80.9964C100.385 78.8837 98.1986 76.7747 96.0156 74.662C93.3738 72.1053 90.7283 69.5523 88.0865 66.9956C85.7999 64.7867 83.5133 62.5778 81.2267 60.3689C80.4719 59.64 79.7208 58.9111 78.966 58.1822C78.6256 57.8529 78.2852 57.4089 77.8893 57.1425C77.8708 57.1314 77.856 57.1129 77.8412 57.0981C77.6488 56.9131 76.6831 57.3127 76.8274 57.457L76.8348 57.4533Z" fill="#231F20"/>
</g>
<path d="M119.403 54.3678H89.2667C87.9997 54.3678 86.9727 55.3949 86.9727 56.6618V79.2947C86.9727 80.5616 87.9997 81.5887 89.2667 81.5887H119.403C120.67 81.5887 121.697 80.5616 121.697 79.2947V56.6618C121.697 55.3949 120.67 54.3678 119.403 54.3678Z" fill="white"/>
<path d="M119.255 80.7783H89.8994C89.6404 80.7783 89.3814 80.7894 89.1224 80.7783C89.4443 80.7894 89.0299 80.7598 88.9966 80.7524C88.8486 80.7228 88.6932 80.6562 88.56 80.5711C88.2788 80.3972 88.0679 80.1123 87.968 79.7978C87.9088 79.6091 87.8977 79.4389 87.894 79.2502C87.8163 75.195 87.894 71.1324 87.894 67.0772V57.5201C87.894 57.1279 87.8459 56.6654 87.9458 56.2843C88.1604 55.474 88.8523 55.178 89.6108 55.178H119.344C119.414 55.178 119.485 55.178 119.555 55.178C119.222 55.1632 119.666 55.1965 119.677 55.2002C119.836 55.2335 119.98 55.3001 120.117 55.3852C120.439 55.585 120.65 55.9143 120.739 56.2769C120.82 56.6173 120.787 56.9836 120.787 57.3314V66.8552C120.787 70.9141 120.802 74.9693 120.787 79.0282C120.787 79.9865 120.291 80.7561 119.263 80.782C118.811 80.7931 118.419 81.2519 118.5 81.6959C118.593 82.2065 119.1 82.41 119.562 82.3989C121.205 82.3545 122.611 81.0077 122.626 79.3501C122.63 78.8987 122.626 78.4473 122.626 77.9959C122.626 75.8166 122.626 73.6373 122.626 71.458C122.626 66.8108 122.626 62.1636 122.626 57.5201C122.626 57.028 122.667 56.4841 122.552 56.0068C122.178 54.4269 120.743 53.5611 119.192 53.5611C118.038 53.5611 116.88 53.5611 115.725 53.5611H100.396C96.7 53.5611 93.0037 53.55 89.3037 53.5611C88.1419 53.5611 87.0652 54.1161 86.4658 55.1336C86.0958 55.7626 86.0625 56.4064 86.0625 57.0946V77.4742C86.0625 77.9959 86.0625 78.5213 86.0625 79.043C86.0699 80.4601 86.8062 81.7551 88.2085 82.2213C89.2445 82.5654 90.6024 82.3989 91.6791 82.3989C96.5483 82.3989 101.418 82.3989 106.287 82.3989C110.479 82.3989 114.675 82.3989 118.867 82.3989H119.555C120.006 82.3989 120.395 81.9179 120.317 81.485C120.225 80.967 119.718 80.782 119.255 80.782V80.7783Z" fill="white"/>
<path d="M77.0898 57.2723L77.593 86.8279L131.583 85.9066L131.576 85.4737L77.0898 57.2723Z" fill="#6E38FF"/>
<path d="M76.5535 57.4167C76.609 60.7652 76.6682 64.1174 76.7237 67.4659C76.8125 72.7606 76.905 78.0516 76.9938 83.3463C77.016 84.5525 77.0345 85.7624 77.0567 86.9686C77.0567 87.0278 77.2232 87.0352 77.2417 87.0352C79.0325 87.0056 80.8196 86.9723 82.6104 86.9427C86.9098 86.8687 91.2055 86.7947 95.5049 86.7244C100.703 86.6356 105.906 86.5468 111.104 86.458C115.6 86.3803 120.095 86.3063 124.591 86.2286C126.774 86.1916 128.96 86.1694 131.143 86.1176C131.173 86.1176 131.206 86.1176 131.236 86.1176C131.417 86.1176 132.128 86.0325 132.12 85.7624C132.12 85.6181 132.116 85.4738 132.113 85.3295L132.083 85.2925C130.263 84.3527 128.446 83.4092 126.626 82.4694C122.289 80.2235 117.949 77.9776 113.613 75.7354C108.37 73.0233 103.131 70.3112 97.8877 67.5954C93.3589 65.2496 88.8301 62.9075 84.2976 60.5617L79.8169 58.2418C79.1102 57.8755 78.4146 57.4648 77.6894 57.1392C77.6561 57.1244 77.6265 57.1059 77.5969 57.0911C77.4045 56.9912 77.0974 57.0911 76.9087 57.1577C76.8606 57.1762 76.4277 57.3686 76.5868 57.45C78.422 58.4009 80.2609 59.3518 82.0961 60.3027C86.4806 62.5745 90.8688 64.8426 95.2533 67.1144C100.537 69.8487 105.817 72.583 111.1 75.3173C115.637 77.6631 120.169 80.0126 124.705 82.3584L129.057 84.6117L130.385 85.2999C130.559 85.3887 130.888 85.4849 131.025 85.6329C131.099 85.7143 131.047 85.8623 131.051 86.0547C131.347 85.9363 131.643 85.8179 131.935 85.6995C130.144 85.7291 128.357 85.7624 126.566 85.792C122.267 85.866 117.971 85.94 113.672 86.0103C108.473 86.0991 103.271 86.1879 98.0727 86.2767C93.5772 86.3544 89.0817 86.4284 84.5862 86.5061L80.1425 86.5801C79.6837 86.5875 79.2249 86.5949 78.7661 86.6023C78.533 86.606 78.2629 86.5727 78.0335 86.6134C78.0039 86.6171 77.9706 86.6134 77.941 86.6134L78.126 86.68C78.0705 83.3315 78.0113 79.9793 77.9558 76.6308C77.867 71.3361 77.7745 66.0451 77.6857 60.7504C77.6635 59.5442 77.645 58.3343 77.6228 57.1281C77.6228 56.969 76.5461 57.1244 76.5498 57.4167H76.5535Z" fill="#6E38FF"/>
<g opacity="0.22">
<path d="M77.0898 57.2723L77.593 86.8279L131.583 85.9066L131.576 85.4737L77.0898 57.2723Z" fill="#231F20"/>
<path d="M76.5459 57.3168C76.6014 60.6653 76.6606 64.0175 76.7161 67.366C76.8049 72.6607 76.8974 77.9517 76.9862 83.2464C77.0084 84.4526 77.0269 85.6625 77.0491 86.8687C77.0528 87.1425 77.3081 87.2054 77.5412 87.2017C79.332 87.1721 81.1191 87.1388 82.9099 87.1092C87.2093 87.0352 91.505 86.9612 95.8044 86.8909C101.003 86.8021 106.205 86.7133 111.404 86.6245C115.899 86.5468 120.395 86.4728 124.89 86.3951C127.069 86.3581 129.267 86.4099 131.443 86.2841C131.472 86.2841 131.506 86.2841 131.535 86.2841C131.735 86.2841 132.135 86.1102 132.127 85.8623C132.127 85.718 132.124 85.5737 132.12 85.4294C132.12 85.3295 132.09 85.2222 131.994 85.1741C130.174 84.2343 128.357 83.2908 126.537 82.351C122.2 80.1051 117.86 77.8592 113.524 75.617C108.281 72.9049 103.042 70.1928 97.7987 67.477C93.2699 65.1312 88.7411 62.7891 84.2086 60.4433C82.0071 59.3037 79.813 58.1456 77.6004 57.0245C77.5708 57.0097 77.5375 56.9912 77.5079 56.9764C77.2674 56.8506 76.9603 56.8839 76.742 57.0467C76.5866 57.1614 76.4349 57.4537 76.6791 57.5795C78.4995 58.5193 80.3162 59.4628 82.1366 60.4026C86.473 62.6485 90.8131 64.8944 95.1495 67.1366C100.392 69.8487 105.632 72.5608 110.875 75.2766C115.403 77.6224 119.932 79.9645 124.465 82.3103L128.945 84.6302C129.415 84.8744 129.881 85.1149 130.351 85.3591C130.577 85.4775 130.829 85.6625 131.073 85.7328C131.106 85.7402 131.136 85.7661 131.165 85.7809L131.039 85.5256L131.047 85.9585L131.639 85.5367C129.848 85.5663 128.061 85.5996 126.27 85.6292C121.971 85.7032 117.675 85.7772 113.376 85.8475C108.177 85.9363 102.975 86.0251 97.7765 86.1139C93.281 86.1916 88.7855 86.2656 84.29 86.3433C82.81 86.3692 81.3263 86.3951 79.8463 86.4173C79.1618 86.4284 78.4181 86.3618 77.7373 86.4543C77.7077 86.458 77.6744 86.4543 77.6448 86.4543L78.1369 86.7873C78.0814 83.4388 78.0222 80.0866 77.9667 76.7381C77.8779 71.4434 77.7854 66.1524 77.6966 60.8577C77.6744 59.6515 77.6559 58.4416 77.6337 57.2354C77.6226 56.6915 76.5422 56.8654 76.5496 57.3242L76.5459 57.3168Z" fill="#231F20"/>
</g>
<path d="M131.08 56.3511L131.583 85.9067L77.5924 86.828L77.585 86.3951L131.08 56.3511Z" fill="#6E38FF"/>
<path d="M130.543 56.4954C130.599 59.8439 130.658 63.1961 130.713 66.5446C130.802 71.8393 130.895 77.1303 130.984 82.425C131.006 83.6312 131.024 84.8411 131.046 86.0473L131.801 85.6366C130.01 85.6662 128.223 85.6995 126.433 85.7291C122.133 85.8031 117.837 85.8771 113.538 85.9474C108.34 86.0362 103.137 86.125 97.9388 86.2138C93.4433 86.2915 88.9478 86.3655 84.4523 86.4432L80.0086 86.5172C79.3241 86.5283 78.5767 86.4543 77.8996 86.5542C77.87 86.5579 77.8367 86.5542 77.8071 86.5542L78.1253 86.6763C78.1253 86.532 78.1216 86.3877 78.1179 86.2434L77.9033 86.5098C79.6904 85.5071 81.4738 84.5044 83.2609 83.5017C87.5196 81.1115 91.7783 78.7176 96.037 76.3274C101.184 73.4377 106.33 70.548 111.473 67.6583C115.921 65.1608 120.368 62.6633 124.816 60.1658C126.976 58.9522 129.159 57.7682 131.302 56.5213C131.331 56.5028 131.365 56.488 131.394 56.4695C131.55 56.3807 131.701 56.2327 131.505 56.1106C131.309 55.9885 130.917 56.1328 130.75 56.2253C128.963 57.228 127.18 58.2307 125.393 59.2334C121.134 61.6236 116.875 64.0175 112.617 66.4077C107.47 69.2974 102.323 72.1871 97.1803 75.0768C92.7329 77.5743 88.2855 80.0718 83.8381 82.5693C81.6773 83.7829 79.4943 84.9669 77.352 86.2138C77.3224 86.2323 77.2891 86.2471 77.2595 86.2656C77.1559 86.3248 77.0449 86.3988 77.0449 86.532L77.0523 86.9649C77.0523 87.0833 77.3039 87.087 77.3705 87.087C79.1613 87.0574 80.9484 87.0241 82.7392 86.9945C87.0386 86.9205 91.3343 86.8465 95.6337 86.7762C100.832 86.6874 106.034 86.5986 111.233 86.5098C115.728 86.4321 120.224 86.3581 124.719 86.2804C126.902 86.2434 129.089 86.2471 131.272 86.1694C131.302 86.1694 131.335 86.1694 131.365 86.1694C131.583 86.1657 132.123 86.0584 132.119 85.7587C132.064 82.4102 132.005 79.058 131.949 75.7095C131.86 70.4148 131.768 65.1238 131.679 59.8291C131.657 58.6229 131.638 57.413 131.616 56.2068C131.613 55.9404 130.54 56.1254 130.543 56.4954Z" fill="#6E38FF"/>
<g opacity="0.11">
<path d="M131.081 56.3508L131.584 85.9064L77.5933 86.8277L77.5859 86.3948L131.081 56.3508Z" fill="#231F20"/>
<path d="M130.544 56.4952C130.599 59.8437 130.658 63.1959 130.714 66.5444C130.803 71.8391 130.895 77.1301 130.984 82.4248C131.006 83.631 131.025 84.8409 131.047 86.0471L131.931 85.6919C130.14 85.7215 128.353 85.7548 126.563 85.7844C122.263 85.8584 117.967 85.9324 113.668 86.0027C108.47 86.0915 103.267 86.1803 98.0689 86.2691C93.5734 86.3468 89.0779 86.4208 84.5824 86.4985C83.1024 86.5244 81.6187 86.5503 80.1387 86.5725C79.6799 86.5799 79.2211 86.5873 78.7623 86.5947C78.5292 86.5984 78.2591 86.5651 78.0297 86.6058C78.0001 86.6095 77.9668 86.6058 77.9372 86.6058L78.1222 86.6724C78.1222 86.5281 78.1185 86.3838 78.1148 86.2395L77.9853 86.3912C79.7724 85.3885 81.5558 84.3858 83.3429 83.3831C87.6016 80.9929 91.8603 78.599 96.119 76.2088C101.266 73.3191 106.412 70.4294 111.555 67.5397C116.003 65.0422 120.45 62.5447 124.898 60.0472C127.058 58.8336 129.256 57.6718 131.384 56.4027C131.413 56.3842 131.447 56.3694 131.476 56.3509C131.669 56.2436 131.591 56.1585 131.417 56.1326C131.18 56.0993 130.862 56.2214 130.658 56.3361C128.871 57.3388 127.088 58.3415 125.301 59.3442C121.042 61.7344 116.783 64.1283 112.525 66.5185C107.378 69.4082 102.231 72.2979 97.0884 75.1876C92.641 77.6851 88.1936 80.1826 83.7462 82.6801C81.5854 83.8937 79.3876 85.0555 77.2601 86.3246C77.2305 86.3431 77.1972 86.3579 77.1676 86.3764C77.1158 86.406 77.0381 86.4578 77.0381 86.5281L77.0455 86.961C77.0455 87.0202 77.212 87.0276 77.2305 87.0276C79.0213 86.998 80.8084 86.9647 82.5992 86.9351C86.8986 86.8611 91.1943 86.7871 95.4937 86.7168C100.692 86.628 105.894 86.5392 111.093 86.4504C115.588 86.3727 120.084 86.2987 124.579 86.221C126.762 86.184 128.949 86.1618 131.132 86.11C131.162 86.11 131.195 86.11 131.225 86.11C131.406 86.11 132.116 86.0249 132.109 85.7548C132.053 82.4063 131.994 79.0541 131.939 75.7056C131.85 70.4109 131.757 65.1199 131.669 59.8252C131.646 58.619 131.628 57.4091 131.606 56.2029C131.606 56.0438 130.529 56.1992 130.533 56.4915L130.544 56.4952Z" fill="#231F20"/>
</g>
<path d="M76.5459 57.313C76.6014 60.6615 76.6606 64.0137 76.7161 67.3622C76.8049 72.6569 76.8974 77.9479 76.9862 83.2426C77.0084 84.4488 77.0269 85.6587 77.0491 86.8649C77.0528 87.1387 77.3044 87.2238 77.5449 87.2201C79.3357 87.1905 81.1228 87.1572 82.9136 87.1276C87.213 87.0536 91.5087 86.9796 95.8081 86.9093C101.007 86.8205 106.209 86.7317 111.407 86.6429C115.903 86.5652 120.398 86.4912 124.894 86.4135C127.073 86.3765 129.271 86.4246 131.447 86.3025C131.476 86.3025 131.509 86.3025 131.539 86.3025C131.746 86.3025 132.135 86.1212 132.131 85.8696L132.124 85.4367C132.124 85.3368 132.094 85.2184 131.994 85.1666C130.174 84.2268 128.357 83.2833 126.537 82.3435C122.2 80.0976 117.86 77.8517 113.524 75.6095C108.281 72.8974 103.042 70.1853 97.7987 67.4695C93.2699 65.1237 88.7411 62.7816 84.2086 60.4358C82.0071 59.2962 79.8056 58.1492 77.6004 57.017C77.5708 57.0022 77.5375 56.9837 77.5079 56.9689C77.2637 56.8431 76.9603 56.8616 76.7383 57.0318C76.5829 57.1539 76.4349 57.461 76.6828 57.5868C78.5032 58.5266 80.3199 59.4701 82.1403 60.4099C86.4767 62.6558 90.8168 64.9017 95.1532 67.1439C100.396 69.856 105.635 72.5681 110.878 75.2839C115.407 77.6297 119.936 79.9718 124.468 82.3176C125.963 83.0909 127.454 83.8642 128.949 84.6375C129.419 84.8817 129.885 85.1222 130.355 85.3664C130.581 85.4848 130.832 85.6661 131.076 85.7401C131.11 85.7512 131.139 85.7734 131.169 85.7882L131.039 85.5181C131.039 85.6624 131.043 85.8067 131.047 85.951L131.639 85.5181C129.848 85.5477 128.061 85.581 126.27 85.6106C121.971 85.6846 117.675 85.7586 113.376 85.8289C108.177 85.9177 102.975 86.0065 97.7765 86.0953C93.281 86.173 88.7855 86.247 84.29 86.3247C82.81 86.3506 81.3263 86.3765 79.8463 86.3987C79.1618 86.4098 78.4181 86.3395 77.7373 86.4357C77.7077 86.4394 77.6744 86.4357 77.6448 86.4357L78.1406 86.7909C78.0851 83.4424 78.0259 80.0902 77.9704 76.7417C77.8816 71.447 77.7891 66.156 77.7003 60.8613C77.6781 59.6551 77.6596 58.4452 77.6374 57.239C77.6263 56.6766 76.5422 56.8357 76.5496 57.3204L76.5459 57.313Z" fill="#6E38FF"/>
<path d="M130.544 56.4954C130.599 59.8439 130.658 63.1961 130.714 66.5446C130.803 71.8393 130.895 77.1303 130.984 82.425C131.006 83.6312 131.025 84.8411 131.047 86.0473C131.298 85.9104 131.55 85.7698 131.802 85.6329C130.011 85.6625 128.224 85.6958 126.433 85.7254C122.133 85.7994 117.838 85.8734 113.538 85.9437C108.34 86.0325 103.138 86.1213 97.9391 86.2101C93.4436 86.2878 88.9481 86.3618 84.4526 86.4395L80.0089 86.5135C79.3281 86.5246 78.577 86.4506 77.8999 86.5505C77.8703 86.5542 77.837 86.5505 77.8074 86.5505L78.1256 86.6763C78.1256 86.532 78.1219 86.3877 78.1182 86.2434L77.9073 86.5135C79.6944 85.5108 81.4778 84.5081 83.2649 83.5054C87.5236 81.1152 91.7823 78.7213 96.041 76.3311C101.188 73.4414 106.334 70.5517 111.477 67.662C115.925 65.1645 120.372 62.667 124.82 60.1695C126.98 58.9559 129.167 57.7756 131.306 56.525C131.335 56.5065 131.369 56.4917 131.398 56.4732C131.554 56.3844 131.702 56.2327 131.506 56.1069C131.309 55.9811 130.921 56.1254 130.751 56.2216C128.964 57.2243 127.18 58.227 125.393 59.2297C121.134 61.6199 116.876 64.0138 112.617 66.404C107.47 69.2937 102.324 72.1834 97.1806 75.0731C92.7332 77.5706 88.2858 80.0681 83.8384 82.5656C81.6776 83.7792 79.4909 84.9595 77.3523 86.2101C77.3227 86.2286 77.2894 86.2434 77.2598 86.2619C77.1525 86.3211 77.0452 86.3988 77.0489 86.532L77.0563 86.9649C77.0563 87.0833 77.3079 87.0944 77.3745 87.0907C79.1653 87.0611 80.9524 87.0278 82.7432 86.9982C87.0426 86.9242 91.3383 86.8502 95.6377 86.7799C100.836 86.6911 106.038 86.6023 111.237 86.5135C115.732 86.4358 120.228 86.3618 124.723 86.2841C126.906 86.2471 129.093 86.2471 131.276 86.1731C131.306 86.1731 131.339 86.1731 131.369 86.1731C131.591 86.1694 132.127 86.0621 132.123 85.7587C132.068 82.4102 132.009 79.058 131.953 75.7095C131.864 70.4148 131.772 65.1238 131.683 59.8291C131.661 58.6229 131.642 57.413 131.62 56.2068C131.617 55.933 130.54 56.1217 130.547 56.4954H130.544Z" fill="#6E38FF"/>
<path d="M121.134 62.6447C121.704 63.714 122.499 64.5724 123.436 65.2791C126.199 67.969 130.247 69.3602 134.073 68.8681C134.117 68.8607 134.166 68.8533 134.21 68.8496C134.325 68.8348 134.439 68.8163 134.55 68.7978C134.665 68.7793 134.776 68.7571 134.891 68.7349C134.935 68.7275 134.98 68.7164 135.028 68.709C138.805 67.9135 142.169 65.2717 143.897 61.8233C144.548 60.8502 145.018 59.7772 145.206 58.5784C145.373 57.5128 145.291 56.4435 145.047 55.4001C144.551 50.9083 141.543 46.6681 137.303 45.0179C135.128 44.1706 132.73 44.0522 130.451 44.5406C128.142 44.8292 125.915 45.7283 124.139 47.2453C120.675 50.1979 119.232 55.1892 120.239 59.5959C120.35 60.6615 120.627 61.6975 121.134 62.6484V62.6447Z" fill="#231F20"/>
<path d="M120.261 62.8518C120.935 64.0839 121.912 64.9164 122.94 65.834C123.939 66.7294 125.071 67.4768 126.289 68.0355C128.816 69.1973 131.676 69.6265 134.429 69.2084C137.096 68.8014 139.609 67.6433 141.644 65.8673C142.606 65.0274 143.449 64.0432 144.141 62.9665C144.5 62.4041 144.826 61.8121 145.155 61.2312C145.484 60.6503 145.765 59.9991 145.943 59.3331C146.143 58.5894 146.235 57.8124 146.206 57.0428C146.176 56.2732 146.013 55.5591 145.902 54.8191C145.721 53.6055 145.355 52.4252 144.844 51.3115C143.815 49.0619 142.18 47.112 140.101 45.7652C137.629 44.1631 134.621 43.6155 131.717 43.9337C128.786 44.2556 125.889 45.0622 123.562 46.9381C121.593 48.5217 120.195 50.775 119.518 53.1985C118.811 55.7256 118.922 58.3415 119.518 60.8797C119.68 61.5679 119.932 62.2228 120.258 62.8481C120.498 63.3106 122.293 62.985 122.004 62.4337C121.394 61.2608 121.205 59.9658 120.998 58.6745C120.813 57.5201 120.79 56.3435 120.924 55.1817C121.179 52.9099 122.056 50.6677 123.473 48.8695C125.023 46.9085 127.221 45.5728 129.663 45.0585C132.268 44.5109 134.88 44.4665 137.329 45.6505C139.357 46.631 141.033 48.222 142.232 50.1238C142.85 51.1006 143.331 52.1588 143.664 53.2651C143.827 53.8016 143.952 54.3492 144.041 54.9042C144.149 55.5702 144.293 56.2325 144.345 56.9059C144.452 58.2971 144.171 59.6587 143.534 60.8982C142.987 61.9638 142.354 63.0553 141.607 63.9914C140.171 65.7896 138.24 67.2178 136.064 67.9874C133.833 68.7755 131.42 68.6978 129.178 67.98C128.016 67.6063 126.914 67.0587 125.904 66.3742C125.371 66.0116 124.883 65.6046 124.409 65.1717C123.958 64.7573 123.477 64.4021 123.066 63.9433C122.655 63.4845 122.3 62.9776 122.004 62.4337C121.752 61.9749 119.962 62.3079 120.258 62.8481L120.261 62.8518Z" fill="#231F20"/>
<path d="M135.024 63.4513H131.28V56.018C131.28 55.685 131.283 55.315 131.295 54.9117C131.302 54.5084 131.317 54.1421 131.335 53.8202C131.172 54.0126 131.021 54.1791 130.884 54.316C130.743 54.4529 130.61 54.5787 130.477 54.6971L128.927 55.9773L127.014 53.6241L131.698 49.8057H135.02V63.4513H135.024Z" fill="white"/>
<path d="M147.934 26.4588C147.934 23.4618 147.934 20.4648 147.934 17.4678C147.934 16.9905 146.857 17.2051 146.857 17.5899C146.857 20.5869 146.857 23.5839 146.857 26.5809C146.857 27.0582 147.934 26.8436 147.934 26.4588Z" fill="#6E38FF"/>
<path d="M155.459 28.7083C155.574 27.1876 156.014 25.7409 156.777 24.42C156.429 24.4274 156.081 24.4385 155.733 24.4459C155.5 25.6743 156.281 26.7732 157.339 27.3282C158.516 27.9424 159.87 27.8462 161.021 27.2209C163.733 25.7446 164.543 22.1334 163.988 19.3103C163.962 19.1771 163.766 19.1142 163.651 19.1179C162.708 19.1401 161.779 19.8172 161.868 20.8495C161.964 21.9262 163.211 22.3961 164.143 22.3406C165.424 22.2629 166.534 21.4341 167.44 20.5942C168.387 19.721 169.168 18.6702 169.745 17.5195C169.993 17.0274 168.916 17.1051 168.735 17.4603C167.984 18.9588 166.87 20.3389 165.446 21.2454C164.798 21.6561 164.003 21.8818 163.355 21.3416C163.1 21.1307 162.926 20.8236 162.945 20.4869C162.952 20.3352 162.993 20.1872 163.067 20.054C163.1 19.9911 163.159 19.9356 163.189 19.8764C163.215 19.8246 163.344 19.7913 163.252 19.7913C163.141 19.7284 163.026 19.6618 162.915 19.5989C163.37 21.9225 162.896 24.9676 160.887 26.492C160.047 27.1321 159.067 27.2579 158.127 26.7436C157.25 26.2663 156.614 25.3598 156.81 24.3312C156.902 23.8428 155.911 24.1129 155.767 24.3571C154.978 25.7261 154.501 27.2431 154.383 28.8193C154.346 29.3003 155.43 29.1116 155.459 28.7046V28.7083Z" fill="#6E38FF"/>
<path d="M161.269 36.0898C161.531 35.3757 161.979 33.9438 162.974 34.0807C163.537 34.1584 163.626 34.6727 163.722 35.1389C163.818 35.6051 164.003 35.9973 164.406 36.2785C165.124 36.7743 166.142 36.7484 166.919 36.4043C167.91 35.964 168.543 35.0501 169.116 34.1769C168.809 34.2583 168.499 34.3434 168.191 34.4248C169.472 35.3646 171.059 35.7679 172.635 35.6014C172.853 35.5792 173.209 35.446 173.231 35.187C173.253 34.928 172.946 34.8466 172.742 34.8688C171.403 35.0131 170.108 34.632 169.024 33.8365C168.743 33.6293 168.269 33.8254 168.099 34.0844C167.614 34.8207 166.933 35.9677 165.916 35.9196C165.498 35.9011 165.098 35.6828 164.917 35.298C164.688 34.8096 164.784 34.2472 164.392 33.8254C163.796 33.189 162.719 33.2408 161.99 33.596C161.039 34.0622 160.603 35.0575 160.255 35.9973C160.048 36.556 161.121 36.5079 161.272 36.0935L161.269 36.0898Z" fill="#6E38FF"/>
<path d="M161.106 43.3086C162.997 43.4196 164.847 43.8118 166.619 44.4704C166.849 44.5555 167.167 44.4593 167.374 44.3483C167.492 44.2854 167.722 44.0967 167.489 44.0116C165.657 43.3308 163.733 42.9238 161.783 42.8091C161.532 42.7943 161.228 42.8498 161.025 43.0126C160.869 43.1347 160.877 43.2938 161.102 43.3086H161.106Z" fill="#6E38FF"/>
</svg>
