<svg width="24" height="25" viewBox="0 0 24 25" fill="none" xmlns="http://www.w3.org/2000/svg">
<path d="M12 4.90625C12.855 4.90625 13.732 4.92825 14.582 4.96425L15.586 5.01225L16.547 5.06925L17.447 5.13025L18.269 5.19425C19.1612 5.26214 20.0008 5.64268 20.64 6.26885C21.2791 6.89502 21.6768 7.72665 21.763 8.61725L21.803 9.04225L21.878 9.95225C21.948 10.8952 22 11.9233 22 12.9062C22 13.8892 21.948 14.9173 21.878 15.8603L21.803 16.7703L21.763 17.1952C21.6768 18.086 21.2789 18.9178 20.6396 19.544C20.0002 20.1701 19.1604 20.5506 18.268 20.6182L17.448 20.6812L16.548 20.7432L15.586 20.8002L14.582 20.8482C13.7218 20.8855 12.861 20.9048 12 20.9062C11.139 20.9048 10.2782 20.8855 9.418 20.8482L8.414 20.8002L7.453 20.7432L6.553 20.6812L5.731 20.6182C4.83881 20.5504 3.9992 20.1698 3.36004 19.5436C2.72089 18.9175 2.32319 18.0859 2.237 17.1952L2.197 16.7703L2.122 15.8603C2.04583 14.8774 2.00514 13.8921 2 12.9062C2 11.9233 2.052 10.8952 2.122 9.95225L2.197 9.04225L2.237 8.61725C2.32316 7.7268 2.72071 6.8953 3.35966 6.26916C3.99861 5.64301 4.83799 5.26237 5.73 5.19425L6.551 5.13025L7.451 5.06925L8.413 5.01225L9.417 4.96425C10.2775 4.92698 11.1387 4.90764 12 4.90625ZM12 6.90625C11.175 6.90625 10.326 6.92825 9.5 6.96225L8.522 7.00925L7.583 7.06425L6.701 7.12425L5.893 7.18725C5.46819 7.21699 5.06769 7.39638 4.76266 7.69353C4.45763 7.99069 4.26784 8.38637 4.227 8.81025C4.11 10.0192 4 11.5243 4 12.9062C4 14.2882 4.11 15.7933 4.227 17.0023C4.312 17.8743 5.004 18.5522 5.893 18.6252L6.701 18.6873L7.583 18.7472L8.522 18.8032L9.5 18.8503C10.326 18.8843 11.175 18.9062 12 18.9062C12.825 18.9062 13.674 18.8843 14.5 18.8503L15.478 18.8032L16.417 18.7482L17.299 18.6882L18.107 18.6252C18.5318 18.5955 18.9323 18.4161 19.2373 18.119C19.5424 17.8218 19.7322 17.4261 19.773 17.0023C19.89 15.7933 20 14.2882 20 12.9062C20 11.5243 19.89 10.0192 19.773 8.81025C19.7322 8.38637 19.5424 7.99069 19.2373 7.69353C18.9323 7.39638 18.5318 7.21699 18.107 7.18725L17.299 7.12525L16.417 7.06525L15.478 7.00925L14.5 6.96225C13.6671 6.9265 12.8336 6.90783 12 6.90625ZM10 10.4812C9.99994 10.3835 10.0237 10.2872 10.0694 10.2008C10.115 10.1144 10.181 10.0404 10.2618 9.98528C10.3425 9.93019 10.4354 9.89564 10.5326 9.88466C10.6297 9.87367 10.728 9.88658 10.819 9.92225L10.9 9.96225L15.1 12.3862C15.1836 12.4345 15.2544 12.5022 15.3063 12.5837C15.3581 12.6651 15.3896 12.7579 15.3979 12.8541C15.4062 12.9503 15.3912 13.0471 15.3542 13.1363C15.3171 13.2254 15.2591 13.3043 15.185 13.3663L15.1 13.4263L10.9 15.8512C10.8154 15.9003 10.72 15.9278 10.6223 15.9316C10.5246 15.9353 10.4274 15.9151 10.3393 15.8727C10.2511 15.8303 10.1747 15.767 10.1166 15.6883C10.0585 15.6097 10.0205 15.518 10.006 15.4213L10 15.3313V10.4812Z" fill="#F4F30E"/>
</svg>
