<svg width="24" height="25" viewBox="0 0 24 25" fill="none" xmlns="http://www.w3.org/2000/svg">
<path fill-rule="evenodd" clip-rule="evenodd" d="M16 3.90625C17.3261 3.90625 18.5979 4.43303 19.5355 5.37072C20.4732 6.3084 21 7.58017 21 8.90625V16.9062C21 18.2323 20.4732 19.5041 19.5355 20.4418C18.5979 21.3795 17.3261 21.9062 16 21.9062H8C6.67392 21.9062 5.40215 21.3795 4.46447 20.4418C3.52678 19.5041 3 18.2323 3 16.9062V8.90625C3 7.58017 3.52678 6.3084 4.46447 5.37072C5.40215 4.43303 6.67392 3.90625 8 3.90625H16ZM16 5.90625H8C7.20435 5.90625 6.44129 6.22232 5.87868 6.78493C5.31607 7.34754 5 8.1106 5 8.90625V16.9062C5 17.7019 5.31607 18.465 5.87868 19.0276C6.44129 19.5902 7.20435 19.9062 8 19.9062H16C16.7956 19.9062 17.5587 19.5902 18.1213 19.0276C18.6839 18.465 19 17.7019 19 16.9062V8.90625C19 8.1106 18.6839 7.34754 18.1213 6.78493C17.5587 6.22232 16.7956 5.90625 16 5.90625ZM12 8.90625C13.0609 8.90625 14.0783 9.32768 14.8284 10.0778C15.5786 10.828 16 11.8454 16 12.9062C16 13.9671 15.5786 14.9845 14.8284 15.7347C14.0783 16.4848 13.0609 16.9062 12 16.9062C10.9391 16.9062 9.92172 16.4848 9.17157 15.7347C8.42143 14.9845 8 13.9671 8 12.9062C8 11.8454 8.42143 10.828 9.17157 10.0778C9.92172 9.32768 10.9391 8.90625 12 8.90625ZM12 10.9062C11.4696 10.9062 10.9609 11.117 10.5858 11.492C10.2107 11.8671 10 12.3758 10 12.9062C10 13.4367 10.2107 13.9454 10.5858 14.3205C10.9609 14.6955 11.4696 14.9062 12 14.9062C12.5304 14.9062 13.0391 14.6955 13.4142 14.3205C13.7893 13.9454 14 13.4367 14 12.9062C14 12.3758 13.7893 11.8671 13.4142 11.492C13.0391 11.117 12.5304 10.9062 12 10.9062ZM16.5 7.40625C16.7652 7.40625 17.0196 7.51161 17.2071 7.69914C17.3946 7.88668 17.5 8.14103 17.5 8.40625C17.5 8.67147 17.3946 8.92582 17.2071 9.11336C17.0196 9.30089 16.7652 9.40625 16.5 9.40625C16.2348 9.40625 15.9804 9.30089 15.7929 9.11336C15.6054 8.92582 15.5 8.67147 15.5 8.40625C15.5 8.14103 15.6054 7.88668 15.7929 7.69914C15.9804 7.51161 16.2348 7.40625 16.5 7.40625Z" fill="#F4F30E"/>
</svg>
