<svg width="54" height="27" viewBox="0 0 54 27" fill="none" xmlns="http://www.w3.org/2000/svg">
<path d="M42.898 18.0399C42.441 18.0399 42.0679 18.4131 42.0679 18.8701C42.0679 19.327 42.441 19.7002 42.898 19.7002C43.355 19.7002 43.7282 19.327 43.7282 18.8701C43.719 18.4124 43.355 18.0399 42.898 18.0399Z" fill="white"/>
<path d="M49.6588 25.0338C49.211 25.0338 48.8477 25.3978 48.8477 25.8449C48.8477 26.2928 49.2117 26.6561 49.6588 26.6561C50.1066 26.6561 50.4699 26.2921 50.4699 25.8449C50.4798 25.3971 50.1066 25.0338 49.6588 25.0338Z" fill="white"/>
<path d="M51.9344 19.6995C51.4965 19.6995 51.1324 20.0536 51.1043 20.4824V20.4916V22.2448C51.086 22.6363 50.7593 22.9165 50.3213 22.9165H48.9504C48.5125 22.9165 48.1858 22.637 48.1674 22.2448V20.4916V20.4824C48.1393 20.0536 47.776 19.6995 47.3373 19.6995C46.8803 19.6995 46.517 20.0909 46.517 20.5479V22.1329C46.4987 22.5525 46.1255 22.9257 45.715 22.9257H40.1103C39.7097 22.9257 39.3365 22.5525 39.3175 22.1329V20.5381C39.3175 20.0811 38.9443 19.7079 38.4873 19.7079C38.0304 19.7079 37.6671 20.0811 37.6671 20.5381C37.6671 21.8808 37.6671 22.1329 37.6671 22.1793C37.6488 22.5898 37.2847 22.9348 36.8742 22.9348H34.4127C33.9557 22.9348 33.5825 23.308 33.5825 23.765C33.5825 24.2128 33.9367 24.548 34.4127 24.548H36.8742C37.4805 24.548 38.0494 24.3332 38.4965 23.9417C38.9443 24.3332 39.5132 24.548 40.1096 24.548H45.7045C46.2917 24.548 46.8515 24.3431 47.2993 23.9607C47.7471 24.3431 48.3252 24.548 48.9497 24.548H50.3206C50.9733 24.548 51.5704 24.3241 52.0274 23.9044C52.4843 23.4848 52.7456 22.8975 52.7547 22.2723V20.5564C52.7547 20.0909 52.3914 19.6995 51.9344 19.6995Z" fill="white"/>
<path fill-rule="evenodd" clip-rule="evenodd" d="M31.8949 19.9888C31.5407 19.7931 31.1302 19.6903 30.7198 19.6903C29.3862 19.6903 28.2856 20.7718 28.2856 22.0962C28.2856 22.7398 28.5377 23.3552 28.9947 23.8213C29.4517 24.2874 30.067 24.5487 30.7106 24.5487H31.8949C32.5758 24.5487 33.1074 23.9988 33.1074 23.3087V22.0406C33.1257 21.9378 33.1532 20.6972 31.8949 19.9888ZM30.7571 22.9165C30.3283 22.9165 29.9833 22.5715 29.9833 22.1427C29.9833 21.7139 30.3283 21.3689 30.7571 21.3689C31.1859 21.3689 31.5309 21.7139 31.5309 22.1427C31.5309 22.5715 31.1859 22.9165 30.7571 22.9165Z" fill="white"/>
<path d="M33.5262 18.5616L33.4706 18.4124L33.3403 18.4961C33.1164 18.6363 32.8925 18.701 32.5475 18.7947C32.3891 18.8412 32.1933 18.8876 31.9694 18.9623C31.1865 19.2045 31.121 20.0628 31.121 20.1001L31.1118 20.2029L31.2048 20.2311C31.6054 20.3613 32.6221 20.3057 33.1819 19.7741C33.7691 19.2333 33.5354 18.5898 33.5262 18.5616Z" fill="white"/>
<path d="M20.6208 6.6911C20.6208 5.75886 19.8843 4.97519 18.9887 4.97519C18.5507 4.97519 17.991 5.18994 17.6833 5.51594C16.9841 5.17093 16.3779 4.94702 15.5942 4.94702C12.8341 4.94702 10.5957 7.25016 10.5957 10.0758C10.5957 12.9478 12.8341 15.2981 15.5942 15.2981C16.3771 15.2981 17.1425 15.0186 17.6833 14.7574C17.991 15.0841 18.4479 15.2981 18.9422 15.2981C19.7724 15.2981 20.4251 14.7757 20.5743 14.0392C20.5927 14.0209 20.5927 13.9554 20.5927 13.9089V6.75588V6.77418V6.6904L20.6208 6.6911ZM15.5942 8.3697C16.5264 8.3697 17.2911 9.15267 17.2911 10.0856C17.2911 11.046 16.5264 11.8297 15.5942 11.8297C14.6619 11.8297 13.8973 11.0467 13.8973 10.1138C13.8973 9.15267 14.6619 8.3697 15.5942 8.3697Z" fill="white"/>
<path d="M3.80736 9.97295C4.34812 10.2807 5.30852 10.3644 5.87744 10.3644C8.63755 10.3644 10.8759 8.09862 10.8759 5.3195C10.8759 2.54037 8.63755 0.274551 5.87744 0.274551C5.15925 0.274551 4.44106 0.423821 3.80736 0.731517C3.49967 0.358339 3.0427 0.162598 2.56742 0.162598C1.65349 0.162598 0.916992 0.899096 0.916992 1.84119V1.88767C0.916992 1.90597 0.916992 1.97146 0.916992 2.01793C0.916992 3.89227 0.916992 13.609 0.916992 13.6562C0.916992 14.5701 1.52323 15.3348 2.41815 15.3348C3.33209 15.3348 3.80736 14.5701 3.80736 13.6562C3.80736 13.5907 3.80736 13.4139 3.80736 13.283C3.80736 13.2837 3.80736 9.97295 3.80736 9.97295ZM5.89575 7.03611C5.06561 7.03611 4.34741 6.42988 4.21715 5.59973V5.08714C4.34741 4.25699 5.06561 3.65076 5.89575 3.65076C6.82799 3.65076 7.59265 4.41542 7.59265 5.34766C7.59336 6.28061 6.80968 7.03611 5.89575 7.03611Z" fill="white"/>
<path d="M31.1206 10.0849C31.1206 7.25927 29.3765 5.03992 26.5791 5.03992C25.8144 5.03992 25.0589 5.23566 24.3597 5.58067C24.052 5.30114 23.6605 5.12371 23.25 5.12371C22.3361 5.12371 21.5996 5.88837 21.5996 6.82061V6.86708C21.5996 6.91355 21.5996 6.95087 21.5996 6.99734V6.97904V13.7582V13.7765C21.6651 14.644 22.1221 15.3432 22.9888 15.3432C23.9028 15.3432 24.49 14.6067 24.49 13.6646V13.6462C24.49 13.6279 24.49 13.5808 24.49 13.5343V13.5526V9.63775C24.5364 8.72382 25.4694 7.98732 26.3833 7.98732C27.2783 7.98732 28.2295 8.72382 28.2767 9.63775C28.2767 9.61945 28.2767 13.7505 28.2767 13.7505V13.7688C28.3232 14.6362 28.8456 15.3354 29.7131 15.3354C30.627 15.3354 31.1304 14.5989 31.1304 13.6568C31.1304 13.6385 31.1304 13.6103 31.1304 13.5913C31.1304 13.5449 31.1304 13.5075 31.1304 13.4611L31.1206 10.0849Z" fill="white"/>
<path d="M41.8822 13.6942V1.8884C41.8822 0.974466 41.3414 0.172485 40.4275 0.172485C39.5136 0.172485 38.9911 0.955455 38.9911 1.8884C38.9911 1.93487 38.9911 1.97219 38.9911 2.03767V5.51597C38.4504 5.32023 37.471 5.14279 36.8837 5.14279C34.1236 5.14279 31.8853 7.40862 31.8853 10.1694C31.8853 12.9486 34.1701 15.3263 36.8837 15.3263C37.6019 15.3263 38.3201 15.1489 38.9911 14.8229C39.2988 15.1306 39.7558 15.3263 40.2311 15.3263C41.1915 15.3263 41.8632 14.6736 41.8632 13.778V13.7597C41.8822 13.7407 41.8822 13.7125 41.8822 13.6942ZM36.9027 8.47182C37.7512 8.47182 38.4877 9.14354 38.5813 9.992V10.3187C38.4975 11.1862 37.7794 11.8389 36.9027 11.8389C35.9705 11.8389 35.2058 11.0742 35.2058 10.142C35.2333 9.23649 35.9698 8.47182 36.9027 8.47182Z" fill="white"/>
<path fill-rule="evenodd" clip-rule="evenodd" d="M50.1258 5.77722C49.3893 5.36673 48.5408 5.14282 47.6917 5.14282C44.9316 5.14282 42.665 7.40865 42.665 10.1878C42.665 11.5397 43.1875 12.8176 44.1479 13.7963C45.1083 14.7757 46.3672 15.3165 47.6917 15.3165H50.1441C51.5333 15.3165 52.643 14.1604 52.643 12.7057V10.0575C52.643 9.84275 52.7085 7.25937 50.1258 5.77722ZM47.7755 11.9128C46.8805 11.9128 46.1623 11.1946 46.1623 10.2807C46.1623 9.36678 46.8805 8.64858 47.7755 8.64858C48.6704 8.64858 49.3886 9.36678 49.3886 10.2807C49.3886 11.1946 48.6429 11.9128 47.7755 11.9128Z" fill="white"/>
<path d="M53.4734 2.77413L53.3614 2.47559L53.0819 2.65302C52.6249 2.96072 52.1679 3.09098 51.4497 3.28742C51.1047 3.37121 50.7316 3.48317 50.2563 3.63244C48.6242 4.15489 48.4939 5.96374 48.4939 6.01937L48.4756 6.23412L48.6713 6.2996C49.5015 6.56083 51.5807 6.44887 52.7559 5.3392C53.9768 4.17319 53.4924 2.8206 53.4734 2.77413Z" fill="white"/>
</svg>
