<svg width="606" height="623" viewBox="0 0 606 623" fill="none" xmlns="http://www.w3.org/2000/svg">
<path opacity="0.5" d="M606 635C606 635 550.86 112.949 0 0V635H606Z" fill="#552DD9"/>
<path d="M189.031 300.646L207.601 338.327C208.798 340.74 210.563 342.826 212.745 344.406C214.927 345.986 217.459 347.012 220.125 347.396L261.693 353.442C264.745 353.904 267.608 355.207 269.962 357.204C272.316 359.201 274.067 361.815 275.02 364.751C275.972 367.687 276.089 370.831 275.356 373.829C274.623 376.828 273.069 379.564 270.87 381.73L240.747 411.204C238.821 413.058 237.38 415.357 236.552 417.899C235.723 420.441 235.533 423.147 235.996 425.78L243.122 467.239C243.632 470.288 243.282 473.418 242.111 476.279C240.941 479.139 238.996 481.617 236.495 483.434C233.995 485.25 231.037 486.334 227.955 486.563C224.873 486.792 221.787 486.157 219.046 484.73L181.797 465.188C179.39 463.835 176.676 463.125 173.915 463.125C171.155 463.125 168.441 463.835 166.034 465.188L128.785 484.73C126.044 486.157 122.959 486.792 119.876 486.563C116.794 486.334 113.836 485.25 111.336 483.434C108.835 481.617 106.89 479.139 105.72 476.279C104.549 473.418 104.199 470.288 104.709 467.239L111.834 425.78C112.27 423.148 112.066 420.449 111.239 417.912C110.412 415.375 108.987 413.075 107.084 411.204L76.9612 381.837C74.7616 379.672 73.2084 376.936 72.4754 373.937C71.7425 370.939 71.8589 367.795 72.8115 364.859C73.7641 361.923 75.5154 359.309 77.8692 357.312C80.2229 355.315 83.0863 354.012 86.1385 353.55L127.706 347.504C130.372 347.12 132.905 346.094 135.086 344.514C137.268 342.934 139.033 340.848 140.23 338.435L158.8 300.754C160.116 297.855 162.237 295.395 164.91 293.666C167.584 291.937 170.697 291.011 173.881 291C177.065 290.989 180.185 291.892 182.87 293.602C185.556 295.312 187.694 297.757 189.031 300.646Z" fill="#6E38FF"/>
</svg>
