<svg width="375" height="635" viewBox="0 0 375 635" fill="none" xmlns="http://www.w3.org/2000/svg">
<path opacity="0.5" d="M606 635C606 635 550.86 112.949 0 0V635H606Z" fill="#552DD9"/>
<path d="M109.031 140.646L127.601 178.327C128.798 180.74 130.563 182.826 132.745 184.406C134.927 185.986 137.459 187.012 140.125 187.396L181.693 193.442C184.745 193.904 187.608 195.207 189.962 197.204C192.316 199.201 194.067 201.815 195.02 204.751C195.972 207.687 196.089 210.831 195.356 213.829C194.623 216.828 193.069 219.564 190.87 221.73L160.747 251.204C158.821 253.058 157.38 255.357 156.552 257.899C155.723 260.441 155.533 263.147 155.996 265.78L163.122 307.239C163.632 310.288 163.282 313.418 162.111 316.279C160.941 319.139 158.996 321.617 156.495 323.434C153.995 325.25 151.037 326.334 147.955 326.563C144.873 326.792 141.787 326.157 139.046 324.73L101.797 305.188C99.3905 303.835 96.6761 303.125 93.9154 303.125C91.1548 303.125 88.4406 303.835 86.0339 305.188L48.7854 324.73C46.0438 326.157 42.9585 326.792 39.8762 326.563C36.7938 326.334 33.8363 325.25 31.3357 323.434C28.835 321.617 26.8901 319.139 25.7195 316.279C24.5489 313.418 24.199 310.288 24.7088 307.239L31.8345 265.78C32.2703 263.148 32.0661 260.449 31.2393 257.912C30.4124 255.375 28.9872 253.075 27.0839 251.204L-3.03875 221.837C-5.23842 219.672 -6.79165 216.936 -7.52457 213.937C-8.2575 210.939 -8.14112 207.795 -7.1885 204.859C-6.23587 201.923 -4.48462 199.309 -2.13084 197.312C0.222931 195.315 3.08628 194.012 6.1385 193.55L47.7056 187.504C50.3717 187.12 52.9045 186.094 55.0862 184.514C57.2678 182.934 59.033 180.848 60.2298 178.435L78.8001 140.754C80.1161 137.855 82.2368 135.395 84.9102 133.666C87.5835 131.937 90.6971 131.011 93.8808 131C97.0646 130.989 100.185 131.892 102.87 133.602C105.556 135.312 107.694 137.757 109.031 140.646Z" fill="#6E38FF"/>
</svg>
