<svg width="346" height="359" viewBox="0 0 346 359" fill="none" xmlns="http://www.w3.org/2000/svg">
<g opacity="0.4">
<path d="M167.414 195.059C178.093 195.059 186.75 186.427 186.75 175.778C186.75 165.129 178.093 156.497 167.414 156.497C156.735 156.497 148.078 165.129 148.078 175.778C148.078 186.427 156.735 195.059 167.414 195.059Z" fill="#C5B3FF"/>
<path d="M18.2076 162.817C15.8287 162.817 13.5472 161.875 11.8651 160.197C10.183 158.52 9.23798 156.245 9.23798 153.873C9.23798 151.501 10.183 149.226 11.8651 147.548C13.5472 145.871 15.8287 144.929 18.2076 144.929C49.7275 144.886 79.9434 132.378 102.226 110.148C124.509 87.9178 137.039 57.7817 137.068 26.351C137.243 24.0914 138.267 21.981 139.935 20.4416C141.603 18.9021 143.792 18.0469 146.064 18.0469C148.337 18.0469 150.526 18.9021 152.194 20.4416C153.862 21.981 154.886 24.0914 155.061 26.351C155.018 62.5309 140.586 97.2169 114.93 122.8C89.2745 148.383 54.4902 162.774 18.2076 162.817Z" fill="#C5B3FF"/>
<path d="M312.646 162.817C276.363 162.774 241.579 148.383 215.923 122.8C190.268 97.2169 175.835 62.5309 175.793 26.351C175.968 24.0914 176.992 21.981 178.66 20.4416C180.328 18.9021 182.517 18.0469 184.789 18.0469C187.062 18.0469 189.251 18.9021 190.919 20.4416C192.587 21.981 193.611 24.0914 193.786 26.351C193.814 57.7817 206.344 87.9178 228.627 110.148C250.91 132.378 281.126 144.886 312.646 144.929C315.025 144.929 317.306 145.871 318.988 147.548C320.671 149.226 321.616 151.501 321.616 153.873C321.616 156.245 320.671 158.52 318.988 160.197C317.306 161.875 315.025 162.817 312.646 162.817Z" fill="#C5B3FF"/>
<path d="M146.037 329.598C143.654 329.584 141.372 328.629 139.692 326.943C138.011 325.258 137.068 322.977 137.068 320.6C137.025 289.178 124.489 259.056 102.207 236.838C79.926 214.619 49.7182 202.118 18.2076 202.076C15.8287 202.076 13.5472 201.134 11.8651 199.456C10.183 197.779 9.23798 195.504 9.23798 193.132C9.23798 190.76 10.183 188.485 11.8651 186.807C13.5472 185.13 15.8287 184.188 18.2076 184.188C54.4809 184.23 89.2571 198.614 114.911 224.185C140.565 249.757 155.004 284.429 155.061 320.6C155.061 322.986 154.11 325.275 152.418 326.962C150.726 328.65 148.431 329.598 146.037 329.598Z" fill="#C5B3FF"/>
<path d="M184.816 329.598C182.423 329.598 180.128 328.65 178.436 326.962C176.744 325.275 175.793 322.986 175.793 320.6C175.85 284.429 190.288 249.757 215.942 224.185C241.596 198.614 276.373 184.23 312.646 184.188C315.025 184.188 317.306 185.13 318.988 186.807C320.671 188.485 321.616 190.76 321.616 193.132C321.616 195.504 320.671 197.779 318.988 199.456C317.306 201.134 315.025 202.076 312.646 202.076C281.135 202.118 250.928 214.619 228.646 236.838C206.365 259.056 193.828 289.178 193.786 320.6C193.786 322.977 192.842 325.258 191.162 326.943C189.481 328.629 187.2 329.584 184.816 329.598Z" fill="#C5B3FF"/>
<path d="M71.3806 40.3843L77.9332 53.5595C78.3516 54.4212 78.9779 55.1659 79.7559 55.7267C80.534 56.2876 81.4395 56.6471 82.3912 56.773L97.1077 58.9154C98.1878 59.0748 99.2017 59.5322 100.035 60.236C100.868 60.9398 101.487 61.8618 101.822 62.898C102.157 63.9342 102.195 65.0433 101.932 66.0999C101.668 67.1564 101.113 68.1184 100.33 68.8772L89.5883 79.2674C88.8728 79.9436 88.3401 80.7891 88.0396 81.7254C87.7392 82.6616 87.6807 83.6584 87.8696 84.6232L90.394 99.2446C90.5787 100.317 90.4588 101.421 90.048 102.429C89.6372 103.438 88.9518 104.312 88.0691 104.952C87.1865 105.593 86.1418 105.975 85.053 106.054C83.9643 106.134 82.8749 105.909 81.9078 105.404L68.6951 98.4948C67.869 98.0541 66.9465 97.8235 66.0096 97.8235C65.0727 97.8235 64.1502 98.0541 63.3241 98.4948L50.1651 105.35C49.1981 105.855 48.1086 106.081 47.0199 106.001C45.9311 105.921 44.8864 105.539 44.0038 104.899C43.1211 104.258 42.4357 103.384 42.0249 102.376C41.6141 101.367 41.4943 100.264 41.679 99.191L44.2033 84.5697C44.3922 83.6049 44.3337 82.6081 44.0333 81.6718C43.7328 80.7355 43.2001 79.8901 42.4846 79.2139L31.7426 68.8236C30.9731 68.0558 30.4336 67.0893 30.1845 66.0327C29.9354 64.976 29.9867 63.871 30.3326 62.8418C30.6785 61.8127 31.3053 60.9 32.1426 60.2064C32.9799 59.5128 33.9946 59.0657 35.0726 58.9154L49.8429 56.773C50.785 56.6388 51.6796 56.2754 52.4476 55.715C53.2157 55.1546 53.8337 54.4144 54.2471 53.5595L60.8534 40.2771C61.344 39.2978 62.1008 38.4757 63.0374 37.9048C63.9741 37.3338 65.0529 37.037 66.1506 37.0482C67.2484 37.0593 68.3208 37.3781 69.2456 37.9679C70.1704 38.5578 70.9102 39.3951 71.3806 40.3843Z" fill="#C5B3FF"/>
<path d="M270.054 40.3837L276.607 53.559C277.02 54.4138 277.638 55.154 278.406 55.7144C279.174 56.2748 280.069 56.6382 281.011 56.7725L295.781 58.9148C296.861 59.0742 297.875 59.5316 298.708 60.2354C299.541 60.9392 300.16 61.8613 300.496 62.8975C300.831 63.9337 300.869 65.0427 300.605 66.0993C300.342 67.1558 299.787 68.1178 299.004 68.8766L288.262 79.2668C287.546 79.9431 287.013 80.7885 286.713 81.7248C286.413 82.6611 286.354 83.6578 286.543 84.6227L289.067 99.244C289.252 100.317 289.132 101.42 288.721 102.429C288.311 103.437 287.625 104.311 286.743 104.952C285.86 105.592 284.815 105.974 283.726 106.054C282.638 106.134 281.548 105.908 280.581 105.403L267.476 98.4406C266.65 97.9999 265.727 97.7694 264.79 97.7694C263.854 97.7694 262.931 97.9999 262.105 98.4406L248.892 105.35C247.925 105.855 246.836 106.08 245.747 106C244.658 105.92 243.614 105.539 242.731 104.898C241.848 104.258 241.163 103.384 240.752 102.375C240.341 101.366 240.221 100.263 240.406 99.1905L242.93 84.5691C243.119 83.6043 243.061 82.6075 242.76 81.6712C242.46 80.735 241.927 79.8895 241.212 79.2133L230.47 68.823C229.687 68.0643 229.132 67.1023 228.868 66.0457C228.605 64.9891 228.643 63.8801 228.978 62.8439C229.313 61.8077 229.932 60.8856 230.765 60.1818C231.598 59.4781 232.612 59.0206 233.692 58.8612L248.463 56.7189C249.405 56.5846 250.299 56.2213 251.067 55.6609C251.835 55.1005 252.453 54.3602 252.867 53.5054L259.473 40.223C259.963 39.2313 260.725 38.3987 261.67 37.8218C262.616 37.245 263.706 36.9477 264.815 36.9645C265.923 36.9814 267.004 37.3116 267.931 37.9169C268.859 38.5222 269.595 39.3776 270.054 40.3837Z" fill="#C5B3FF"/>
<path d="M71.3806 244.225L77.9332 257.508C78.3516 258.369 78.9779 259.114 79.7559 259.675C80.534 260.236 81.4394 260.595 82.3912 260.721L97.1077 262.864C98.1876 263.034 99.1988 263.5 100.029 264.21C100.859 264.919 101.475 265.844 101.809 266.883C102.143 267.921 102.182 269.031 101.921 270.089C101.66 271.148 101.109 272.114 100.33 272.879L89.5883 283.216C88.8728 283.892 88.3401 284.737 88.0396 285.674C87.7392 286.61 87.6807 287.607 87.8696 288.571L90.394 303.193C90.5787 304.266 90.4588 305.369 90.048 306.377C89.6372 307.386 88.9518 308.26 88.0691 308.9C87.1865 309.541 86.1418 309.923 85.053 310.003C83.9643 310.082 82.8748 309.857 81.9078 309.352L68.6951 302.443C67.869 302.002 66.9465 301.772 66.0096 301.772C65.0727 301.772 64.1502 302.002 63.3241 302.443L50.1651 309.191C49.1981 309.696 48.1086 309.922 47.0199 309.842C45.9311 309.762 44.8864 309.38 44.0038 308.74C43.1211 308.099 42.4357 307.225 42.0249 306.217C41.6141 305.208 41.4943 304.105 41.679 303.032L44.2033 288.411C44.3922 287.446 44.3337 286.449 44.0333 285.513C43.7328 284.577 43.2001 283.731 42.4846 283.055L31.85 273.147C31.0713 272.382 30.5207 271.416 30.2596 270.357C29.9985 269.299 30.0371 268.188 30.3711 267.15C30.7051 266.112 31.3215 265.187 32.1515 264.477C32.9816 263.768 33.9928 263.302 35.0726 263.131L49.8429 260.989C50.785 260.855 51.6796 260.491 52.4476 259.931C53.2157 259.371 53.8337 258.63 54.2471 257.776L60.8534 244.493C61.3083 243.496 62.0352 242.647 62.9511 242.042C63.867 241.438 64.935 241.103 66.033 241.075C67.131 241.047 68.2147 241.327 69.1604 241.885C70.106 242.442 70.8754 243.253 71.3806 244.225Z" fill="#C5B3FF"/>
<path d="M270.054 244.223L276.607 257.505C277.02 258.36 277.638 259.101 278.406 259.661C279.174 260.221 280.069 260.585 281.011 260.719L295.781 262.861C296.861 263.032 297.872 263.498 298.702 264.207C299.532 264.917 300.149 265.842 300.483 266.88C300.817 267.918 300.855 269.028 300.594 270.087C300.333 271.146 299.782 272.111 299.004 272.877L288.262 283.213C287.546 283.89 287.013 284.735 286.713 285.671C286.413 286.608 286.354 287.604 286.543 288.569L289.067 303.19C289.252 304.263 289.132 305.366 288.721 306.375C288.311 307.384 287.625 308.258 286.742 308.898C285.86 309.539 284.815 309.921 283.726 310C282.638 310.08 281.548 309.855 280.581 309.35L267.476 302.28C266.65 301.839 265.727 301.609 264.79 301.609C263.853 301.609 262.931 301.839 262.105 302.28L248.892 309.189C247.925 309.694 246.836 309.919 245.747 309.84C244.658 309.76 243.613 309.378 242.731 308.737C241.848 308.097 241.163 307.223 240.752 306.214C240.341 305.206 240.221 304.103 240.406 303.03L242.93 288.408C243.119 287.444 243.061 286.447 242.76 285.511C242.46 284.574 241.927 283.729 241.212 283.053L230.47 272.716C229.691 271.951 229.14 270.985 228.879 269.926C228.618 268.868 228.657 267.758 228.991 266.72C229.325 265.681 229.941 264.756 230.771 264.047C231.601 263.337 232.612 262.871 233.692 262.701L248.463 260.558C249.405 260.424 250.299 260.061 251.067 259.5C251.835 258.94 252.453 258.2 252.867 257.345L259.473 244.062C259.963 243.071 260.725 242.238 261.67 241.661C262.616 241.084 263.706 240.787 264.814 240.804C265.923 240.821 267.004 241.151 267.931 241.756C268.859 242.362 269.595 243.217 270.054 244.223Z" fill="#C5B3FF"/>
</g>
</svg>
