<svg width="16" height="16" viewBox="0 0 16 16" fill="none" xmlns="http://www.w3.org/2000/svg">
<path d="M12.0001 6.33333C12.0001 6.33333 12.0001 6.33333 12.0001 6.33333C12.279 6.33337 12.4303 6.65493 12.2675 6.86653L12.2298 6.90819L8.23569 10.9023C8.23569 10.9023 8.23569 10.9023 8.23568 10.9023C8.17829 10.9597 8.10192 10.9942 8.02092 10.9992C7.94284 11.0042 7.86561 10.9814 7.8027 10.9352L7.7571 10.895L3.77174 6.90961L3.73559 6.86868L3.7198 6.84616L3.69773 6.80693L3.6956 6.80242L3.68715 6.78144L3.67513 6.74088L3.67226 6.72569L3.66879 6.70484L3.66805 6.69432V6.64167L3.66925 6.62774L3.67268 6.60489L3.67496 6.59301L3.68715 6.55189L3.69271 6.5381L3.72042 6.48584L3.73973 6.45911L3.7636 6.43262L3.79804 6.40221L3.82056 6.38641L3.85979 6.36435L3.86429 6.36222L3.88528 6.35376L3.92584 6.34175L3.94103 6.33888L3.96187 6.33541L3.97243 6.33466L12.0001 6.33333Z" fill="#6E38FF" stroke="#6E38FF" stroke-width="0.666667"/>
</svg>
