<svg width="50" height="51" viewBox="0 0 50 51" fill="none" xmlns="http://www.w3.org/2000/svg">
<path d="M18.75 11.084C19.8551 11.084 20.9149 11.523 21.6963 12.3044C22.4777 13.0858 22.9167 14.1456 22.9167 15.2507V27.7507C22.9167 34.2715 19.4792 38.5694 13.0063 40.1881C12.7402 40.2568 12.4631 40.2722 12.191 40.2333C11.9189 40.1945 11.6572 40.1022 11.421 39.9617C11.1848 39.8213 10.9786 39.6355 10.8145 39.415C10.6504 39.1945 10.5315 38.9438 10.4647 38.6772C10.3979 38.4106 10.3846 38.1334 10.4254 37.8616C10.4662 37.5898 10.5604 37.3288 10.7025 37.0936C10.8446 36.8583 11.0319 36.6535 11.2535 36.491C11.4751 36.3284 11.7267 36.2114 11.9938 36.1465C16.6334 34.9861 18.75 32.3402 18.75 27.7507V25.6673H12.5C11.4488 25.6677 10.4364 25.2706 9.66557 24.5559C8.89477 23.8411 8.42263 22.8614 8.34379 21.8131L8.33337 21.5007V15.2507C8.33337 14.1456 8.77236 13.0858 9.55376 12.3044C10.3352 11.523 11.395 11.084 12.5 11.084H18.75ZM37.5 11.084C38.6051 11.084 39.6649 11.523 40.4463 12.3044C41.2277 13.0858 41.6667 14.1456 41.6667 15.2507V27.7507C41.6667 34.2715 38.2292 38.5694 31.7563 40.1881C31.4902 40.2568 31.2131 40.2722 30.941 40.2333C30.6689 40.1945 30.4072 40.1022 30.171 39.9617C29.9348 39.8213 29.7286 39.6355 29.5645 39.415C29.4004 39.1945 29.2815 38.9438 29.2147 38.6772C29.1479 38.4106 29.1346 38.1334 29.1754 37.8616C29.2162 37.5898 29.3104 37.3288 29.4525 37.0936C29.5946 36.8583 29.7819 36.6535 30.0035 36.491C30.2251 36.3284 30.4767 36.2114 30.7438 36.1465C35.3834 34.9861 37.5 32.3402 37.5 27.7507V25.6673H31.25C30.1988 25.6677 29.1864 25.2706 28.4156 24.5559C27.6448 23.8411 27.1726 22.8614 27.0938 21.8131L27.0834 21.5007V15.2507C27.0834 14.1456 27.5224 13.0858 28.3038 12.3044C29.0852 11.523 30.145 11.084 31.25 11.084H37.5Z" fill="#B8C2CC"/>
</svg>
