<svg width="25" height="24" viewBox="0 0 25 24" fill="none" xmlns="http://www.w3.org/2000/svg">
<path d="M18.5 9.5C18.5 9.5 18.5 9.5 18.5 9.5C18.9184 9.50005 19.1454 9.98239 18.9011 10.2998L18.8446 10.3623L12.8534 16.3534C12.8534 16.3534 12.8534 16.3534 12.8534 16.3534C12.7673 16.4395 12.6528 16.4912 12.5313 16.4989C12.4141 16.5062 12.2983 16.4722 12.2039 16.4029L12.1355 16.3425L6.15748 10.3644L6.10326 10.303L6.07957 10.2692L6.04647 10.2104L6.04328 10.2036L6.0306 10.1722L6.01257 10.1113L6.00827 10.0885L6.00306 10.0573L6.00195 10.0415V9.96251L6.00375 9.94162L6.0089 9.90733L6.01232 9.88952L6.0306 9.82784L6.03894 9.80715L6.08051 9.72875L6.10947 9.68866L6.14528 9.64892L6.19694 9.60331L6.23072 9.57962L6.28956 9.54652L6.29632 9.54333L6.32779 9.53064L6.38863 9.51262L6.41142 9.50832L6.44269 9.50311L6.45852 9.502L18.5 9.5Z" fill="#3E4852" stroke="#3E4852"/>
</svg>
