<svg width="16" height="16" viewBox="0 0 16 16" fill="none" xmlns="http://www.w3.org/2000/svg">
<path d="M10 4.66681L5.66671 9.00014C5.4015 9.26536 5.2525 9.62507 5.2525 10.0001C5.2525 10.3752 5.4015 10.7349 5.66671 11.0001C5.93193 11.2654 6.29164 11.4144 6.66671 11.4144C7.04179 11.4144 7.4015 11.2654 7.66671 11.0001L12 6.66681C12.5305 6.13637 12.8285 5.41695 12.8285 4.66681C12.8285 3.91666 12.5305 3.19724 12 2.66681C11.4696 2.13637 10.7502 1.83838 10 1.83838C9.2499 1.83838 8.53048 2.13637 8.00005 2.66681L3.66671 7.00014C2.87106 7.79579 2.42407 8.87492 2.42407 10.0001C2.42407 11.1254 2.87106 12.2045 3.66671 13.0001C4.46236 13.7958 5.54149 14.2428 6.66671 14.2428C7.79193 14.2428 8.87106 13.7958 9.66671 13.0001L14 8.66681" stroke="#8961FF" stroke-width="1.33333" stroke-linecap="round" stroke-linejoin="round"/>
</svg>
