<svg width="50" height="51" viewBox="0 0 50 51" fill="none" xmlns="http://www.w3.org/2000/svg">
<path d="M31.25 39.9971C30.1449 39.9971 29.0851 39.5581 28.3037 38.7767C27.5223 37.9953 27.0833 36.9355 27.0833 35.8304V23.3304C27.0833 16.8096 30.5208 12.5117 36.9937 10.8929C37.2599 10.8242 37.5369 10.8089 37.809 10.8477C38.0811 10.8866 38.3428 10.9789 38.579 11.1193C38.8153 11.2598 39.0214 11.4456 39.1855 11.6661C39.3496 11.8865 39.4685 12.1373 39.5353 12.4039C39.6021 12.6705 39.6155 12.9476 39.5747 13.2194C39.5339 13.4912 39.4397 13.7523 39.2976 13.9875C39.1554 14.2227 38.9682 14.4275 38.7465 14.5901C38.5249 14.7526 38.2733 14.8697 38.0062 14.9346C33.3667 16.095 31.25 18.7408 31.25 23.3304V25.4137H37.5C38.5512 25.4134 39.5637 25.8104 40.3345 26.5252C41.1053 27.24 41.5774 28.2197 41.6562 29.2679L41.6667 29.5804V35.8304C41.6667 36.9355 41.2277 37.9953 40.4463 38.7767C39.6649 39.5581 38.6051 39.9971 37.5 39.9971H31.25ZM12.5 39.9971C11.3949 39.9971 10.3351 39.5581 9.55372 38.7767C8.77232 37.9953 8.33333 36.9355 8.33333 35.8304V23.3304C8.33333 16.8096 11.7708 12.5117 18.2437 10.8929C18.5099 10.8242 18.7869 10.8089 19.059 10.8477C19.3311 10.8866 19.5928 10.9789 19.829 11.1193C20.0653 11.2598 20.2714 11.4456 20.4355 11.6661C20.5996 11.8865 20.7185 12.1373 20.7853 12.4039C20.8521 12.6705 20.8655 12.9476 20.8247 13.2194C20.7839 13.4912 20.6897 13.7523 20.5476 13.9875C20.4054 14.2227 20.2182 14.4275 19.9965 14.5901C19.7749 14.7526 19.5233 14.8697 19.2562 14.9346C14.6167 16.095 12.5 18.7408 12.5 23.3304V25.4137H18.75C19.8012 25.4134 20.8137 25.8104 21.5845 26.5252C22.3553 27.24 22.8274 28.2197 22.9062 29.2679L22.9167 29.5804V35.8304C22.9167 36.9355 22.4777 37.9953 21.6963 38.7767C20.9149 39.5581 19.8551 39.9971 18.75 39.9971H12.5Z" fill="#B8C2CC"/>
</svg>
