<svg width="200" height="200" viewBox="0 0 200 200" fill="none" xmlns="http://www.w3.org/2000/svg">
<g clip-path="url(#clip0_5447_96564)">
<rect width="200" height="200" rx="99" fill="#EAEAEA"/>
<g opacity="0.2">
<path d="M100.5 56.25C108.04 56.25 115.411 58.486 121.681 62.6752C127.951 66.8644 132.837 72.8188 135.723 79.7852C138.609 86.7516 139.364 94.4173 137.892 101.813C136.421 109.208 132.79 116.002 127.458 121.333C122.127 126.665 115.333 130.296 107.938 131.767C100.542 133.239 92.8766 132.484 85.9102 129.598C78.9438 126.712 72.9894 121.826 68.8002 115.556C64.611 109.286 62.375 101.915 62.375 94.375L62.4131 92.7204C62.8395 82.9051 67.0385 73.6333 74.1345 66.8385C81.2304 60.0438 90.6755 56.2506 100.5 56.25ZM115.75 147.75C125.861 147.75 135.559 151.767 142.708 158.917C149.858 166.066 153.875 175.764 153.875 185.875V193.5C153.875 197.545 152.268 201.423 149.408 204.283C146.548 207.143 142.67 208.75 138.625 208.75H62.375C58.3304 208.75 54.4516 207.143 51.5916 204.283C48.7317 201.423 47.125 197.545 47.125 193.5V185.875C47.125 175.764 51.1417 166.066 58.2916 158.917C65.4414 151.767 75.1386 147.75 85.25 147.75H115.75Z" fill="black"/>
</g>
</g>
<defs>
<clipPath id="clip0_5447_96564">
<rect width="200" height="200" rx="99" fill="white"/>
</clipPath>
</defs>
</svg>
