<svg width="78" height="19" viewBox="0 0 78 19" fill="none" xmlns="http://www.w3.org/2000/svg">
<path fill-rule="evenodd" clip-rule="evenodd" d="M8.26815 10.4209H10.7955V18.051C10.7955 18.051 4.69355 19.3206 1.53346 13.4048H4.44283C4.44283 13.4048 5.71793 15.363 8.26815 15.554V10.4209ZM2.2417 4.35625C4.6391 0.355929 9.99986 0.642565 9.99986 0.642565C17.0942 1.12891 18.1506 7.53144 18.1506 7.53144H3.38527C2.2417 9.74331 3.8874 12.7174 3.8874 12.7174H1.14137C-0.514397 8.32432 1.63183 4.99289 1.63183 4.99289H14.043C9.89188 0.980443 5.588 4.35625 5.588 4.35625H2.24147H2.2417ZM11.5911 15.4166C15.4485 14.1353 15.8399 10.3255 15.8399 10.3255H18.402C17.3012 16.9291 11.5916 17.9558 11.5916 17.9558V15.4166H11.5911ZM9.52083 10.2198C8.8126 10.2198 8.23498 9.66897 8.23498 8.98177C8.23498 8.29321 8.8126 7.7316 9.52061 7.7316C10.2183 7.7316 10.7955 8.29343 10.7955 8.98177C10.7955 9.66897 10.2183 10.2198 9.52083 10.2198ZM20.2904 15.0762C21.608 14.7909 21.5534 13.9232 21.5534 13.9232C21.6298 13.2575 21.5753 9.95675 21.5753 9.95675H22.3918V14.1245C22.1305 15.6796 20.2904 15.8379 20.2904 15.8379V15.0764V15.0762ZM22.7514 15.6888C23.0341 13.0347 23.9606 11.607 24.7873 10.8459V12.2416C24.5242 12.5835 24.3184 12.966 24.1782 13.374H24.7871V14.2517H23.8293C23.5571 15.1288 23.5786 15.6888 23.5786 15.6888H22.7514ZM24.7873 10.8459C25.594 10.1166 26.3232 9.99907 26.3232 9.99907V15.6892H25.3972V14.2522H24.7871V13.374L25.3972 13.3742V11.6173C25.3972 11.6173 25.1145 11.8291 24.7871 12.2418V10.8464L24.7873 10.8459ZM26.9553 9.90367H27.8694C28.0552 9.91534 28.2183 9.93547 28.3704 9.97825V10.8768C28.2183 10.8135 28.0323 10.7709 27.7939 10.762V12.983C27.7939 12.983 28.0769 12.983 28.3704 12.8446V14.7808C28.0323 14.3999 27.8916 14.0392 27.8916 14.0392C27.8047 14.0721 27.7823 14.0511 27.7823 14.0511V15.6586H26.9553V9.9039V9.90367ZM28.3704 9.97825C29.6549 10.3283 29.7755 11.6482 29.7755 11.6482C29.8619 13.0455 28.6751 13.6476 28.6751 13.6476C28.9695 14.6006 29.9383 14.8641 29.9383 14.8641V15.6586C29.1981 15.5401 28.687 15.15 28.3704 14.7808V12.8446C28.6648 12.6957 28.9695 12.3894 28.937 11.7344C28.937 11.7344 28.9144 11.141 28.3704 10.8768V9.97825ZM31.3004 9.90367V15.6892H30.4187V9.9039H31.3004V9.90367ZM32.0187 9.90367H32.9435C33.1291 9.91534 33.2929 9.93547 33.434 9.97825V10.8768C33.2812 10.8022 33.0966 10.762 32.8562 10.751V12.983C32.8562 12.983 33.1508 12.983 33.434 12.8446V14.7909C33.0966 14.3997 32.9545 14.0289 32.9545 14.0289C32.8681 14.0721 32.8463 14.0511 32.8463 14.0511V15.6586H32.0189V9.9039L32.0187 9.90367ZM33.434 9.97825C34.7192 10.3173 34.8386 11.6482 34.8386 11.6482C34.9257 13.0352 33.7387 13.6373 33.7387 13.6373C34.0329 14.5894 35.0022 14.8545 35.0022 14.8545V15.6586C34.2617 15.5401 33.76 15.15 33.434 14.7909V12.8446C33.7387 12.6957 34.0439 12.3793 34.0105 11.7241C34.0105 11.7241 33.9903 11.141 33.434 10.8768V9.97825ZM48.4727 12.8023C48.4727 13.9863 49.4641 14.9599 50.6836 14.9599H50.6935V15.7752C49.0173 15.7752 47.667 14.442 47.667 12.8238C47.667 11.1843 49.0173 9.85152 50.6935 9.85152V10.6339H50.6836C49.4643 10.6339 48.4729 11.6077 48.4729 12.8025L48.4727 12.8023ZM50.6935 10.6339V9.85152C52.3707 9.85152 53.7323 11.1843 53.7323 12.8238C53.7323 14.4516 52.3707 15.7752 50.6935 15.7752V14.9599C51.9132 14.9599 52.9056 13.9863 52.9056 12.8023C52.9056 11.6077 51.9132 10.6449 50.6935 10.6339ZM42.1571 12.7705C42.1571 13.9546 43.1481 14.9288 44.3788 14.9288V15.7428C42.712 15.7428 41.3509 14.4086 41.3509 12.7815C41.3509 11.1413 42.712 9.81949 44.3788 9.81949V10.5925C43.1481 10.6025 42.1571 11.5645 42.1571 12.7705ZM44.3788 10.5925V9.81926C46.0556 9.81926 47.4163 11.141 47.4163 12.7815C47.4163 14.4086 46.0558 15.7428 44.3788 15.7428V14.9288C45.5976 14.9288 46.5877 13.9546 46.5877 12.7705C46.5877 11.5642 45.5976 10.5925 44.3788 10.5925ZM55.1589 13.7539V15.616H54.3211V9.9572H55.0722V12.3368C55.0722 12.3368 56.3898 12.2739 56.781 9.9572H57.5439C57.5439 9.9572 57.7944 11.6288 55.8136 13.0148C55.8136 13.0148 56.7053 14.8332 57.7068 14.8643V15.6595C57.7068 15.6595 56.1931 15.5838 55.2787 13.7544H55.1589V13.7539ZM58.4141 14.4738C59.2205 14.9288 59.7439 14.7593 59.7439 14.7593C60.3643 14.5365 60.3965 13.9125 60.3965 13.9125C60.4734 13.2253 59.875 13.0663 59.875 13.0663C59.2207 12.8128 58.7632 12.455 58.7632 12.455C58.1426 11.8289 58.2512 11.1937 58.2512 11.1937C58.3931 10.1574 59.3081 9.89361 59.3081 9.89361C60.3318 9.55619 60.7241 10.0633 60.7241 10.0633L60.6152 10.877C60.2774 10.5501 59.7103 10.6551 59.7103 10.6551C58.6001 11.1937 59.3628 11.8287 59.3628 11.8287C59.8201 12.1462 60.6038 12.485 60.6038 12.485C61.3669 13.0976 61.2796 13.9863 61.2796 13.9863C61.1165 15.5518 59.5593 15.6794 59.5593 15.6794C58.9263 15.7634 58.3395 15.3202 58.3395 15.3202L58.4143 14.4738H58.4141ZM61.4003 11.0573L60.9954 10.2733C61.9969 9.67171 62.912 9.68132 62.912 9.68132C64.5346 9.77786 64.7748 10.3065 64.7748 10.3065L64.5346 11.0784C63.8819 10.5705 63.4022 10.624 63.4022 10.624V15.5625H62.4881V10.6451C61.9208 10.6563 61.4003 11.0578 61.4003 11.0578V11.0573ZM71.0693 15.5518V9.83024C71.0693 9.83024 71.7783 9.71449 72.4858 9.92678V10.8027C72.3433 10.729 72.158 10.6968 71.9299 10.7087V12.9304C71.9299 12.9304 72.2131 12.8869 72.4858 12.7284V14.7488C72.3028 14.5395 72.1454 14.3091 72.0169 14.0625H71.9299V15.552L71.0693 15.5518ZM72.4858 9.92678C73.1275 10.1269 73.782 10.5925 73.9325 11.661C73.9325 11.661 74.01 12.8446 72.801 13.5643C72.801 13.5643 72.6915 14.1465 74.0416 14.8115V15.5614C74.0416 15.5614 73.1931 15.52 72.4858 14.7488V12.7282C72.7683 12.5596 73.0504 12.2633 73.0401 11.7347C73.0401 11.7347 73.0401 11.0479 72.4858 10.8027V9.92678ZM74.2816 12.4635C74.6407 9.67194 77.4517 9.74629 77.4517 9.74629L77.4721 10.5383C75.4146 10.5707 75.2286 12.3148 75.2286 12.3148H77.4721V13.1301H75.2286C75.4798 14.8545 77.4824 14.8856 77.4824 14.8856V15.689C74.1512 15.5835 74.2818 12.4635 74.2818 12.4635H74.2816ZM65.4613 12.7392C65.4613 13.9228 66.4518 14.897 67.6711 14.897V15.7103C66.0051 15.7103 64.6549 14.3787 64.6549 12.7604C64.6549 11.1207 66.0051 9.78769 67.6711 9.78769V10.5705C66.4518 10.5705 65.4613 11.5434 65.4613 12.7392ZM67.6711 10.5705V9.78769H67.6825C69.36 9.78769 70.7109 11.1207 70.7109 12.7604C70.7109 14.3787 69.36 15.7103 67.6828 15.7103H67.6711V14.897C68.8913 14.897 69.8818 13.9225 69.8818 12.7392C69.8818 11.5434 68.8913 10.5705 67.6711 10.5705ZM39.7064 12.5163V12.9384C39.5962 12.8691 39.4747 12.8195 39.3474 12.792C39.3474 12.792 39.533 12.6861 39.7064 12.5163ZM38.3242 10.0208C38.3242 10.0208 39.0425 9.93501 39.7064 10.1793V11.0683C39.5874 10.9825 39.4122 10.9201 39.1839 10.8997V14.8861C39.1839 14.8861 39.4447 14.8753 39.7064 14.7385V15.616C39.5975 15.6469 39.4781 15.6595 39.3474 15.6689C39.3474 15.6689 38.8245 15.7311 38.3565 15.7105L38.3244 10.0208H38.3242ZM39.7064 10.1793C40.1202 10.328 40.5233 10.6021 40.7298 11.0989C40.7298 11.0989 41.0579 12.03 40.5782 12.7071C40.5782 12.7071 40.9918 12.9919 41.0135 13.7544V13.9344C41.0135 14.0827 40.9918 14.2302 40.9586 14.3999C40.9586 14.3999 40.7408 15.361 39.7064 15.616V14.7385C39.9907 14.6006 40.2723 14.3039 40.2293 13.7018C40.2293 13.7018 40.1534 13.2157 39.7064 12.9384V12.5163C39.9031 12.3368 40.0987 12.0735 40.066 11.7768C40.066 11.7768 40.0774 11.3215 39.7064 11.0683V10.1793ZM20.8996 7.50376C22.8607 8.19095 22.8607 6.80581 22.8607 6.80581V4.97573H24.0146V5.54672H32.7699V3.86556H33.9025V6.82731H24.0366C23.6872 8.29687 22.5336 8.45608 22.5336 8.45608C21.1405 8.58236 20.8996 7.50376 20.8996 7.50376ZM29.0242 8.562C28.6216 8.562 28.305 8.24425 28.305 7.85353C28.305 7.46143 28.6214 7.14415 29.0242 7.14415C29.4158 7.14415 29.7425 7.46143 29.7425 7.8533C29.7425 8.24448 29.4158 8.562 29.0242 8.562ZM30.5697 8.55102C30.1776 8.55102 29.8514 8.24425 29.8514 7.85284C29.8514 7.47242 30.1776 7.14392 30.5697 7.14392C30.973 7.14392 31.3001 7.47242 31.3001 7.85284C31.3001 8.24402 30.973 8.55102 30.5697 8.55102ZM47.9172 5.54649C48.0046 5.23034 47.6336 4.99746 47.6336 4.99746C47.0454 4.6573 46.0217 4.58432 46.0217 4.58432C44.6071 4.45851 44.5746 4.02249 44.5746 4.02249C43.964 3.04042 44.4987 2.4063 44.4987 2.4063C44.8679 2.98781 45.3041 3.16716 45.3041 3.16716C46.0551 3.50641 48.0364 3.82232 48.0364 3.82232C49.431 4.37318 49.2678 5.60025 49.2678 5.60025H49.7352V6.80581H38.1604C37.8125 8.27582 36.668 8.3504 36.668 8.3504C35.2748 8.47621 35.034 7.21872 35.034 7.21872C36.5479 8.1699 36.9844 6.96388 36.9844 6.96388V4.92289H38.1378V5.51698L47.9172 5.54649ZM46.6435 8.55102C46.2409 8.55102 45.925 8.23396 45.925 7.85284C45.925 7.46144 46.2411 7.14392 46.6433 7.14392C47.0356 7.14392 47.3614 7.46144 47.3614 7.85284C47.3614 8.23396 47.0356 8.55102 46.6435 8.55102ZM51.1736 6.80604C51.1736 6.80604 51.1412 6.64797 51.1412 6.3929V6.37277C51.1412 5.64211 51.3477 4.15037 52.9378 3.38951V4.76367C52.6981 5.00799 52.4588 5.34632 52.4369 5.74963H52.9378V6.80604H51.1736ZM52.9378 3.38951C53.3402 3.1882 53.8309 3.04042 54.4408 2.96722V5.72652H57.7512V4.1721H58.8396V5.67391H60.812V4.07671H61.8995V5.67391H71.3857C71.3857 5.67391 71.6682 5.41015 71.3194 5.28273H64.1965L64.2518 4.19429C64.2518 4.19429 65.3847 3.422 65.211 1.82434H66.2125C66.2125 1.82434 66.245 3.24196 65.6994 4.19429H71.7551C71.7551 4.19429 72.9644 4.28877 72.8113 5.66293H74.9134C74.9134 5.66293 74.9351 4.50083 76.1981 4.55161H76.253V5.41015C76.2304 5.39825 76.2089 5.39825 76.1981 5.39825C76.1981 5.39825 76.1224 5.41975 76.0572 5.64211H76.2533V6.80604H52.9378V5.74963H53.4498V4.35213C53.4498 4.35213 53.1881 4.50083 52.9378 4.76367V3.38951ZM76.253 4.55161C76.4589 4.55161 77.1989 4.61704 77.4069 5.41975V6.80604H76.2533V5.64211H76.4488C76.4488 5.64211 76.4038 5.46207 76.253 5.41015V4.55161ZM51.0645 3.06239C50.6608 3.06239 50.3462 2.74372 50.3462 2.35323C50.3462 1.96114 50.6608 1.65483 51.0645 1.65483C51.4566 1.65483 51.7824 1.96136 51.7824 2.35323C51.7824 2.74372 51.4566 3.06239 51.0645 3.06239ZM52.8397 3.06239C52.4478 3.06239 52.1209 2.74372 52.1209 2.35323C52.1209 1.96114 52.4478 1.65483 52.8397 1.65483C53.2423 1.65483 53.5591 1.96136 53.5591 2.35323C53.5591 2.74372 53.2423 3.06239 52.8397 3.06239ZM59.9502 3.06239C59.5481 3.06239 59.2317 2.75402 59.2317 2.35323C59.2317 1.97166 59.5481 1.65483 59.9502 1.65483C60.3419 1.65483 60.6692 1.97166 60.6692 2.35323C60.6692 2.75402 60.3419 3.06239 59.9502 3.06239ZM61.9215 3.06239C61.5184 3.06239 61.1913 2.75402 61.1913 2.35323C61.1913 1.97166 61.5184 1.65483 61.9215 1.65483C62.3133 1.65483 62.6398 1.97166 62.6398 2.35323C62.6398 2.75402 62.3133 3.06239 61.9215 3.06239ZM58.2622 8.55102C57.8587 8.55102 57.5338 8.23396 57.5338 7.85284C57.5338 7.46144 57.8587 7.14392 58.2622 7.14392C58.6543 7.14392 58.9812 7.46144 58.9812 7.85284C58.9812 8.23396 58.6541 8.55102 58.2622 8.55102Z" fill="white"/>
</svg>
