<svg width="196" height="87" viewBox="0 0 196 87" fill="none" xmlns="http://www.w3.org/2000/svg">
<path d="M25.0401 36.7801C24.791 36.6456 24.5131 36.5735 24.2301 36.5701C23.9405 36.5719 23.6557 36.644 23.4001 36.7801C23.1434 36.922 22.932 37.1334 22.7901 37.3901C22.654 37.6457 22.5819 37.9305 22.5801 38.2201C22.5819 38.5065 22.654 38.788 22.7901 39.0401C22.9381 39.2869 23.1485 39.4903 23.4001 39.6301C23.6448 39.7869 23.9294 39.8702 24.2201 39.8702C24.5108 39.8702 24.7953 39.7869 25.0401 39.6301C25.2951 39.4985 25.5043 39.2928 25.6401 39.0401C25.7939 38.794 25.8769 38.5103 25.8801 38.2201C25.8767 37.9268 25.7937 37.6399 25.6401 37.3901C25.5109 37.1275 25.3005 36.9136 25.0401 36.7801Z" fill="white"/>
<path d="M25.0299 20.9399C24.8038 20.9016 24.5718 20.9171 24.3528 20.9852C24.1338 21.0533 23.9339 21.172 23.7693 21.3317C23.6047 21.4914 23.4801 21.6876 23.4055 21.9045C23.3309 22.1214 23.3084 22.3528 23.3399 22.5799V31.9999H19.6999H19.5899H18.1999V28.7199C18.1999 23.5199 16.1166 20.9199 11.9499 20.9199H4.12991C3.06991 20.9199 2.52991 21.4899 2.51991 22.5999C2.50991 23.7099 3.03991 24.2599 4.09991 24.2599H11.9799C13.9066 24.2599 14.8699 25.7566 14.8699 28.7499C14.8699 29.1846 14.7843 29.615 14.618 30.0166C14.4516 30.4182 14.2078 30.7831 13.9004 31.0905C13.5931 31.3978 13.2282 31.6416 12.8266 31.808C12.425 31.9743 11.9946 32.0599 11.5599 32.0599H4.28991C4.06579 32.0305 3.8379 32.0539 3.62442 32.1282C3.41095 32.2025 3.2178 32.3258 3.06041 32.488C2.90302 32.6502 2.78575 32.847 2.71794 33.0627C2.65014 33.2783 2.6337 33.5068 2.66991 33.7299V34.8599C2.66991 38.1933 4.37658 39.8599 7.78991 39.8599H7.86991C8.09549 39.8951 8.32618 39.8769 8.54343 39.8067C8.76068 39.7365 8.95846 39.6164 9.12086 39.4559C9.28327 39.2955 9.40578 39.0992 9.47855 38.8828C9.55133 38.6664 9.57235 38.4359 9.53991 38.2099C9.57174 37.9797 9.54961 37.7452 9.47527 37.5249C9.40094 37.3046 9.27642 37.1047 9.11157 36.9408C8.94671 36.7769 8.74601 36.6536 8.52533 36.5805C8.30464 36.5075 8.06999 36.4868 7.83991 36.5199H7.67991C7.3153 36.5733 6.94411 36.4848 6.64275 36.2727C6.34139 36.0607 6.1328 35.7412 6.05991 35.3799H24.9799C25.206 35.4085 25.4357 35.3844 25.651 35.3096C25.8662 35.2347 26.0613 35.1112 26.221 34.9486C26.3807 34.786 26.5007 34.5887 26.5716 34.3721C26.6426 34.1556 26.6625 33.9255 26.6299 33.6999V22.5899C26.6301 22.1609 26.4632 21.7486 26.1644 21.4405C25.8657 21.1325 25.4588 20.9529 25.0299 20.9399Z" fill="white"/>
<path d="M32.5399 33.6801V18.2901C32.5684 18.0653 32.5456 17.8369 32.4732 17.6222C32.4008 17.4075 32.2808 17.2119 32.122 17.0503C31.9632 16.8886 31.7698 16.765 31.5564 16.6888C31.343 16.6125 31.1152 16.5856 30.8899 16.6101H29.1999C28.9694 16.5881 28.7369 16.6187 28.5199 16.6995C28.303 16.7804 28.1072 16.9095 27.9474 17.077C27.7876 17.2446 27.6678 17.4462 27.5973 17.6667C27.5267 17.8872 27.507 18.1209 27.5399 18.3501C27.5399 19.4201 28.0699 19.9601 29.1999 19.9601V33.6801C29.1685 33.9107 29.1908 34.1455 29.2651 34.3661C29.3394 34.5866 29.4637 34.787 29.6283 34.9516C29.7929 35.1162 29.9933 35.2405 30.2139 35.3149C30.4345 35.3892 30.6692 35.4115 30.8999 35.3801C31.1271 35.4076 31.3577 35.3821 31.5734 35.3054C31.7892 35.2288 31.9842 35.1032 32.1431 34.9384C32.3021 34.7736 32.4206 34.5742 32.4895 34.3559C32.5583 34.1376 32.5756 33.9062 32.5399 33.6801Z" fill="white"/>
<path d="M38.2899 20.94C38.0634 20.9094 37.8328 20.932 37.6165 21.0061C37.4003 21.0801 37.2043 21.2036 37.0441 21.3667C36.8839 21.5298 36.764 21.728 36.6938 21.9456C36.6236 22.1631 36.6052 22.3941 36.6399 22.62V34.83C36.6704 35.0565 36.6487 35.287 36.5765 35.5038C36.5043 35.7207 36.3836 35.9182 36.2234 36.0812C36.0633 36.2442 35.868 36.3685 35.6525 36.4446C35.437 36.5206 35.2069 36.5464 34.9799 36.52H33.7099C33.478 36.4731 33.2382 36.4832 33.0111 36.5495C32.784 36.6158 32.5764 36.7363 32.4062 36.9006C32.236 37.0649 32.1083 37.2681 32.034 37.4927C31.9597 37.7173 31.9412 37.9566 31.9799 38.19C31.9495 38.413 31.9715 38.6399 32.0439 38.853C32.1164 39.066 32.2375 39.2592 32.3976 39.4173C32.5577 39.5755 32.7524 39.6942 32.9662 39.7641C33.1801 39.834 33.4073 39.8531 33.6299 39.82H34.9299C38.0499 39.82 39.7099 38.33 39.9299 35.33V22.54C39.9509 22.3212 39.9226 22.1004 39.847 21.894C39.7715 21.6875 39.6505 21.5007 39.4932 21.3472C39.3358 21.1936 39.146 21.0774 38.9378 21.0069C38.7295 20.9364 38.5082 20.9136 38.2899 20.94Z" fill="white"/>
<path d="M85.64 16.6101C85.4165 16.5791 85.1889 16.6001 84.9748 16.6712C84.7607 16.7424 84.5658 16.8619 84.4053 17.0205C84.2448 17.179 84.1229 17.3724 84.0492 17.5857C83.9754 17.7989 83.9518 18.0262 83.98 18.2501V32.0001H80.33C80.2506 32.0003 80.1722 32.0173 80.1 32.0501H77.38V28.8501C77.38 25.4367 75.7133 23.7301 72.38 23.7301H70.2L73.43 19.6201C73.6074 19.4752 73.7483 19.2906 73.8412 19.0812C73.9341 18.8718 73.9764 18.6435 73.9647 18.4147C73.953 18.1859 73.8877 17.9631 73.7739 17.7643C73.6602 17.5654 73.5013 17.3961 73.31 17.2701C73.1595 17.0931 72.9695 16.954 72.7553 16.864C72.541 16.7741 72.3087 16.7359 72.0769 16.7524C71.8452 16.769 71.6206 16.8399 71.4214 16.9593C71.2221 17.0788 71.0538 17.2435 70.93 17.4401L65.79 24.0001C65.6207 24.1746 65.4883 24.3814 65.4006 24.6082C65.313 24.835 65.272 25.0771 65.28 25.3201V25.4701C65.2554 25.6955 65.2832 25.9235 65.3614 26.1363C65.4395 26.3491 65.5659 26.541 65.7305 26.6969C65.8951 26.8528 66.0935 26.9685 66.3103 27.035C66.5271 27.1015 66.7563 27.1169 66.98 27.0801H72.38C72.612 27.0461 72.8487 27.0671 73.0711 27.1412C73.2936 27.2153 73.4955 27.3405 73.6608 27.5067C73.8261 27.673 73.9502 27.8757 74.0229 28.0986C74.0957 28.3215 74.1153 28.5583 74.08 28.7901V32.0601H65.6C65.5318 32.0246 65.4567 32.0042 65.38 32.0001H61.79V18.3101C61.8227 18.0884 61.8037 17.8623 61.7343 17.6492C61.6649 17.4362 61.5472 17.2422 61.3902 17.0823C61.2333 16.9224 61.0414 16.8011 60.8297 16.7279C60.618 16.6546 60.3922 16.6314 60.17 16.6601C59.9452 16.6243 59.7151 16.6413 59.498 16.7096C59.2808 16.7779 59.0825 16.8957 58.9186 17.0538C58.7548 17.2118 58.6299 17.4057 58.5538 17.6203C58.4776 17.8348 58.4524 18.0641 58.48 18.2901V34.8301C58.5118 35.0603 58.4897 35.2949 58.4153 35.5151C58.341 35.7354 58.2165 35.9353 58.0516 36.0992C57.8868 36.2631 57.6861 36.3864 57.4654 36.4595C57.2447 36.5325 57.0101 36.5533 56.78 36.5201H51.15C49.98 36.5201 49.4 35.9901 49.4 34.9101V29.3301C49.4298 29.1028 49.4078 28.8717 49.3357 28.6541C49.2636 28.4366 49.1432 28.2381 48.9835 28.0736C48.8239 27.9091 48.6291 27.7829 48.4137 27.7044C48.1984 27.6258 47.968 27.597 47.74 27.6201C46.63 27.6201 46.08 28.2001 46.09 29.3701V34.8701C46.09 38.2101 47.77 39.8701 51.09 39.8701H56.64C59.86 39.8701 61.56 38.3801 61.74 35.3801H63.36C63.4359 35.3952 63.5141 35.3952 63.59 35.3801H82.03C82.1059 35.3952 82.1841 35.3952 82.26 35.3801H85.64C85.8661 35.4086 86.0957 35.3845 86.311 35.3097C86.5263 35.2349 86.7214 35.1114 86.8811 34.9488C87.0408 34.7862 87.1608 34.5889 87.2317 34.3723C87.3026 34.1557 87.3226 33.9256 87.29 33.7001V18.2901C87.3226 18.0645 87.3026 17.8345 87.2317 17.6179C87.1608 17.4013 87.0408 17.204 86.8811 17.0414C86.7214 16.8788 86.5263 16.7553 86.311 16.6805C86.0957 16.6056 85.8661 16.5816 85.64 16.6101Z" fill="white"/>
<path d="M91.5199 16.6101H89.8399C89.6086 16.5864 89.375 16.6158 89.1568 16.696C88.9385 16.7761 88.7414 16.905 88.5804 17.0727C88.4195 17.2404 88.2988 17.4427 88.2277 17.664C88.1565 17.8853 88.1368 18.12 88.1699 18.3501C88.1699 19.4201 88.7099 19.9601 89.8399 19.9601V33.6801C89.8067 33.9102 89.8275 34.1448 89.9005 34.3655C89.9735 34.5862 90.0969 34.7869 90.2607 34.9517C90.4246 35.1166 90.6246 35.2411 90.8449 35.3154C91.0651 35.3898 91.2996 35.4119 91.5299 35.3801C91.7572 35.4076 91.9877 35.3821 92.2035 35.3054C92.4192 35.2288 92.6142 35.1032 92.7731 34.9384C92.9321 34.7736 93.0506 34.5742 93.1195 34.3559C93.1883 34.1376 93.2056 33.9062 93.1699 33.6801V18.2901C93.1984 18.0653 93.1756 17.8369 93.1032 17.6222C93.0309 17.4075 92.9108 17.2119 92.752 17.0503C92.5932 16.8886 92.3999 16.765 92.1865 16.6888C91.9731 16.6125 91.7452 16.5856 91.5199 16.6101Z" fill="white"/>
<path d="M11.3399 46.1799C11.0715 46.1994 10.8105 46.2776 10.5755 46.4089C10.3405 46.5402 10.1372 46.7215 9.97994 46.9399C9.67994 47.9399 7.83327 52.8566 4.43994 61.6899L2.43994 66.9899V67.0899C2.43994 67.8433 2.90994 68.3033 3.84994 68.4699H4.01994C4.46778 68.4544 4.89741 68.2888 5.23994 67.9999L8.29994 59.8699H14.4399L16.9199 66.2999C17.2299 67.7599 17.8299 68.4799 18.7099 68.4799H18.8099C19.8099 68.3199 20.2299 67.8799 20.2299 67.1499V66.9999C20.1766 66.6799 17.8433 60.5333 13.2299 48.5599C12.8833 46.9733 12.2533 46.1799 11.3399 46.1799ZM11.3399 51.7999L13.3399 57.0199H9.43994L11.3399 51.7999Z" fill="white"/>
<path d="M25.3999 65.6299H24.5799V47.41C24.5799 46.79 24.1299 46.41 23.2199 46.2H22.9799C22.1932 46.2 21.7432 46.7099 21.6299 47.7299V67.05C21.7999 68.05 22.2999 68.47 23.1099 68.47H25.2799C26.1099 68.47 26.5999 68.0099 26.7599 67.0899V67C26.5599 66.09 26.1099 65.6299 25.3999 65.6299Z" fill="white"/>
<path d="M32.59 65.6299H31.77V47.41C31.77 46.79 31.31 46.41 30.4 46.2H30.13C29.3434 46.2 28.8934 46.7099 28.78 47.7299V67.05C28.95 68.05 29.44 68.47 30.25 68.47H32.47C32.6612 68.485 32.8535 68.4607 33.0349 68.3983C33.2163 68.336 33.383 68.2371 33.5246 68.1077C33.6662 67.9783 33.7797 67.8212 33.858 67.6461C33.9363 67.4711 33.9779 67.2817 33.98 67.0899V67C33.75 66.09 33.3 65.6299 32.59 65.6299Z" fill="white"/>
<path d="M63.05 46.0601H62.77C62.5369 46.0783 62.3113 46.1511 62.1115 46.2728C61.9117 46.3944 61.7433 46.5613 61.62 46.76L57.28 61.68C54.96 53.5201 53.6734 49.0834 53.42 48.37C53.19 46.83 52.62 46.0601 51.72 46.0601H51.55C51.3371 46.0672 51.1278 46.1179 50.9352 46.2091C50.7425 46.3002 50.5706 46.4299 50.43 46.59C50.21 46.93 48.72 51.9734 45.96 61.7201L42.03 48.05C41.81 46.72 41.26 46.05 40.39 46.05H40.15C39.45 46.05 39 46.5101 38.79 47.4501C39.0834 48.6367 40.8667 54.8267 44.14 66.02C44.39 67.65 44.94 68.46 45.8 68.46H45.98C46.2316 68.449 46.4774 68.3812 46.6991 68.2617C46.9207 68.1422 47.1125 67.9741 47.26 67.77L51.59 52.7701C52.1434 54.7701 53.4267 59.2034 55.44 66.07C55.68 67.66 56.26 68.45 57.21 68.45H57.27C57.7555 68.4181 58.2085 68.1952 58.53 67.8301L64.37 47.57V47.25C64.41 46.66 63.98 46.2501 63.05 46.0601Z" fill="white"/>
<path d="M68.33 46.1C67.9291 46.0864 67.539 46.2307 67.2435 46.5019C66.9479 46.7731 66.7707 47.1495 66.75 47.55C66.97 48.55 67.45 48.99 68.2 48.99C69.2 48.85 69.74 48.42 69.74 47.71V47.38C69.74 46.76 69.27 46.34 68.33 46.1Z" fill="white"/>
<path d="M68.33 50C67.39 50 66.86 50.53 66.75 51.59V67.05C66.92 68.05 67.41 68.47 68.21 68.47H68.3C69.3 68.31 69.74 67.87 69.74 67.14V51.27C69.74 50.65 69.27 50.22 68.33 50Z" fill="white"/>
<path d="M91.5199 62.4101C91.3067 62.3824 91.09 62.4049 90.887 62.4758C90.684 62.5467 90.5004 62.664 90.3508 62.8185C90.2012 62.9729 90.0897 63.1602 90.0254 63.3653C89.961 63.5705 89.9454 63.7879 89.9799 64.0001V64.1201C90.0275 64.4581 89.9443 64.8015 89.7474 65.0803C89.5504 65.359 89.2544 65.5521 88.9199 65.6201L88.7799 65.6901V53.8601C88.7484 52.0704 88.0861 50.3493 86.9099 49.0001C86.1686 48.1303 85.2495 47.4295 84.2145 46.9448C83.1795 46.46 82.0527 46.2027 80.9099 46.1901C79.0832 46.1052 77.2936 46.7244 75.9099 47.9201V47.4601C75.9099 46.8501 75.4399 46.4601 74.5099 46.1901C73.5699 46.1901 73.0499 46.7201 72.9299 47.7801V67.0501C73.1099 68.0501 73.5899 68.4701 74.3899 68.4701H74.4999C75.4399 68.3101 75.9099 67.8701 75.9099 67.1501V55.0601C75.8544 54.0431 75.9935 53.0249 76.3199 52.0601C76.6821 51.1822 77.294 50.43 78.0797 49.8967C78.8654 49.3634 79.7904 49.0725 80.7399 49.0601H80.9099C81.4001 49.0695 81.8872 49.14 82.3599 49.2701C84.6533 50.1101 85.7999 51.8867 85.7999 54.6001V66.6001C85.7732 67.0046 85.8172 67.4107 85.9299 67.8001C86.0393 68.0899 86.2424 68.3349 86.5069 68.4961C86.7714 68.6574 87.0822 68.7256 87.3899 68.6901H88.3899C91.4599 68.6901 92.9999 67.1101 92.9999 63.9801V64.0001C93.0389 63.7924 93.0285 63.5785 92.9697 63.3755C92.9108 63.1726 92.8052 62.9862 92.6612 62.8316C92.5172 62.6769 92.339 62.5582 92.1407 62.485C91.9425 62.4118 91.7299 62.3861 91.5199 62.4101Z" fill="white"/>
<path d="M153.27 48.34C156.065 48.34 158.33 46.0745 158.33 43.28C158.33 40.4854 156.065 38.22 153.27 38.22C150.475 38.22 148.21 40.4854 148.21 43.28C148.21 46.0745 150.475 48.34 153.27 48.34Z" fill="white"/>
<path d="M114.24 39.88C113.617 39.88 113.019 39.6324 112.578 39.1917C112.137 38.751 111.89 38.1532 111.89 37.53C111.89 36.9067 112.137 36.309 112.578 35.8683C113.019 35.4276 113.617 35.18 114.24 35.18C122.484 35.1694 130.387 31.8891 136.216 26.0587C142.044 20.2283 145.322 12.324 145.33 4.07998C145.33 3.45672 145.577 2.85899 146.018 2.41828C146.459 1.97757 147.057 1.72998 147.68 1.72998C148.303 1.72998 148.901 1.97757 149.342 2.41828C149.782 2.85899 150.03 3.45672 150.03 4.07998C150.019 13.5698 146.246 22.668 139.536 29.3792C132.827 36.0904 123.73 39.8667 114.24 39.88Z" fill="white"/>
<path d="M191.25 39.88C181.76 39.8667 172.663 36.0904 165.954 29.3792C159.244 22.668 155.471 13.5698 155.46 4.07998C155.46 3.45672 155.708 2.85899 156.148 2.41828C156.589 1.97757 157.187 1.72998 157.81 1.72998C158.433 1.72998 159.031 1.97757 159.472 2.41828C159.912 2.85899 160.16 3.45672 160.16 4.07998C160.168 12.324 163.446 20.2283 169.274 26.0587C175.103 31.8891 183.006 35.1694 191.25 35.18C191.873 35.18 192.471 35.4276 192.912 35.8683C193.352 36.309 193.6 36.9067 193.6 37.53C193.6 38.1532 193.352 38.751 192.912 39.1917C192.471 39.6324 191.873 39.88 191.25 39.88Z" fill="white"/>
<path d="M147.68 83.62C147.057 83.62 146.459 83.3724 146.018 82.9317C145.577 82.491 145.33 81.8932 145.33 81.27C145.322 73.0268 142.044 65.1236 136.215 59.2948C130.386 53.466 122.483 50.1879 114.24 50.18C113.617 50.18 113.019 49.9324 112.578 49.4917C112.137 49.051 111.89 48.4532 111.89 47.83C111.89 47.2067 112.137 46.609 112.578 46.1683C113.019 45.7276 113.617 45.48 114.24 45.48C123.729 45.4906 132.826 49.2647 139.536 55.9743C146.245 62.684 150.019 71.7811 150.03 81.27C150.03 81.8932 149.782 82.491 149.342 82.9317C148.901 83.3724 148.303 83.62 147.68 83.62Z" fill="white"/>
<path d="M157.81 83.62C157.187 83.62 156.589 83.3724 156.148 82.9317C155.708 82.491 155.46 81.8932 155.46 81.27C155.471 71.7811 159.245 62.684 165.954 55.9743C172.664 49.2647 181.761 45.4906 191.25 45.48C191.873 45.48 192.471 45.7276 192.912 46.1683C193.352 46.609 193.6 47.2067 193.6 47.83C193.6 48.4532 193.352 49.051 192.912 49.4917C192.471 49.9324 191.873 50.18 191.25 50.18C183.007 50.1879 175.104 53.466 169.275 59.2948C163.446 65.1236 160.168 73.0268 160.16 81.27C160.16 81.8932 159.912 82.491 159.472 82.9317C159.031 83.3724 158.433 83.62 157.81 83.62Z" fill="white"/>
<path d="M128.14 7.76L129.86 11.25C129.971 11.473 130.135 11.6658 130.337 11.812C130.539 11.9582 130.773 12.0536 131.02 12.09L134.87 12.65C135.155 12.6893 135.423 12.808 135.643 12.9925C135.864 13.1771 136.028 13.42 136.116 13.6935C136.205 13.967 136.215 14.2599 136.145 14.5388C136.075 14.8176 135.927 15.071 135.72 15.27L132.98 18C132.8 18.1712 132.666 18.3838 132.587 18.6191C132.509 18.8544 132.489 19.1053 132.53 19.35L133.19 23.19C133.236 23.4698 133.204 23.757 133.096 24.0195C132.989 24.282 132.811 24.5094 132.581 24.6764C132.352 24.8434 132.081 24.9434 131.798 24.9653C131.515 24.9871 131.232 24.9299 130.98 24.8L127.48 23C127.26 22.8818 127.014 22.82 126.765 22.82C126.515 22.82 126.27 22.8818 126.05 23L122.6 24.81C122.347 24.9435 122.061 25.0032 121.775 24.9825C121.49 24.9617 121.216 24.8612 120.985 24.6924C120.753 24.5237 120.574 24.2934 120.467 24.0278C120.36 23.7622 120.33 23.4719 120.38 23.19L121.03 19.35C121.073 19.1062 121.055 18.8555 120.978 18.6201C120.902 18.3846 120.768 18.1717 120.59 18L117.8 15.28C117.596 15.0794 117.452 14.826 117.384 14.5483C117.316 14.2705 117.327 13.9794 117.415 13.7074C117.504 13.4355 117.666 13.1934 117.884 13.0084C118.102 12.8234 118.367 12.7028 118.65 12.66L122.51 12.1C122.756 12.0645 122.989 11.9694 123.189 11.823C123.39 11.6766 123.551 11.4833 123.66 11.26L125.39 7.77C125.515 7.51194 125.709 7.29412 125.952 7.14136C126.194 6.9886 126.475 6.90706 126.762 6.90602C127.048 6.90497 127.33 6.98448 127.573 7.13546C127.817 7.28645 128.013 7.50285 128.14 7.76Z" fill="white"/>
<path d="M180.11 7.75992L181.83 11.2499C181.941 11.4734 182.104 11.6666 182.306 11.813C182.509 11.9593 182.743 12.0543 182.99 12.0899L186.84 12.6499C187.123 12.6927 187.388 12.8134 187.606 12.9983C187.824 13.1833 187.986 13.4254 188.074 13.6973C188.163 13.9693 188.173 14.2605 188.106 14.5382C188.038 14.816 187.894 15.0693 187.69 15.2699L184.9 17.9999C184.722 18.1716 184.588 18.3846 184.511 18.62C184.435 18.8554 184.417 19.1061 184.46 19.3499L185.12 23.1899C185.167 23.4723 185.135 23.7622 185.026 24.0272C184.918 24.2921 184.738 24.5216 184.506 24.6899C184.275 24.8581 184.001 24.9585 183.715 24.9797C183.43 25.0009 183.144 24.9421 182.89 24.8099L179.44 22.9999C179.217 22.8746 178.966 22.8088 178.71 22.8088C178.454 22.8088 178.203 22.8746 177.98 22.9999L174.53 24.8099C174.276 24.9421 173.99 25.0009 173.705 24.9797C173.419 24.9585 173.145 24.8581 172.914 24.6899C172.682 24.5216 172.502 24.2921 172.394 24.0272C172.285 23.7622 172.253 23.4723 172.3 23.1899L172.96 19.3499C173 19.1061 172.981 18.8562 172.905 18.6212C172.828 18.3862 172.696 18.1731 172.52 17.9999L169.73 15.2799C169.526 15.0793 169.382 14.826 169.315 14.5482C169.247 14.2705 169.257 13.9793 169.346 13.7073C169.434 13.4354 169.596 13.1933 169.814 13.0083C170.032 12.8234 170.297 12.7027 170.58 12.6599L174.43 12.0999C174.677 12.0643 174.912 11.9693 175.114 11.823C175.316 11.6766 175.479 11.4834 175.59 11.2599L177.31 7.76992C177.432 7.5014 177.628 7.27352 177.876 7.11337C178.124 6.95321 178.412 6.86752 178.707 6.86646C179.002 6.86541 179.291 6.94905 179.539 7.10743C179.788 7.26581 179.986 7.49228 180.11 7.75992Z" fill="white"/>
<path d="M128.14 61.2299L129.86 64.7199C129.971 64.9429 130.135 65.1357 130.337 65.2819C130.539 65.4282 130.773 65.5235 131.02 65.5599L134.87 66.1199C135.155 66.1592 135.423 66.2779 135.643 66.4625C135.864 66.647 136.028 66.89 136.116 67.1634C136.205 67.4369 136.215 67.7299 136.145 68.0087C136.075 68.2875 135.927 68.5409 135.72 68.7399L132.98 71.4599C132.8 71.6327 132.664 71.8469 132.586 72.084C132.507 72.3211 132.488 72.5737 132.53 72.8199L133.19 76.6499C133.238 76.9305 133.208 77.2191 133.101 77.4831C132.995 77.7472 132.816 77.9763 132.587 78.1447C132.357 78.313 132.085 78.4139 131.801 78.436C131.517 78.4582 131.233 78.4006 130.98 78.2699L127.53 76.4599C127.31 76.3418 127.064 76.2799 126.815 76.2799C126.565 76.2799 126.32 76.3418 126.1 76.4599L122.65 78.2699C122.397 78.4034 122.111 78.4632 121.825 78.4424C121.54 78.4216 121.266 78.3211 121.035 78.1523C120.803 77.9836 120.624 77.7533 120.517 77.4877C120.41 77.2221 120.38 76.9319 120.43 76.6499L121.08 72.8199C121.124 72.5745 121.106 72.3221 121.03 72.085C120.953 71.8478 120.819 71.6332 120.64 71.4599L117.85 68.7399C117.646 68.5393 117.502 68.286 117.434 68.0082C117.367 67.7305 117.377 67.4393 117.466 67.1673C117.554 66.8954 117.716 66.6533 117.934 66.4684C118.152 66.2834 118.417 66.1627 118.7 66.1199L122.56 65.5599C122.806 65.5245 123.039 65.4294 123.239 65.2829C123.44 65.1365 123.601 64.9432 123.71 64.7199L125.44 61.2299C125.57 60.9852 125.765 60.7806 126.003 60.638C126.241 60.4953 126.513 60.4199 126.79 60.4199C127.067 60.4199 127.339 60.4953 127.577 60.638C127.815 60.7806 128.009 60.9852 128.14 61.2299Z" fill="white"/>
<path d="M180.11 61.23L181.83 64.72C181.941 64.9435 182.104 65.1367 182.306 65.2831C182.509 65.4294 182.743 65.5244 182.99 65.56L186.84 66.12C187.123 66.1628 187.388 66.2835 187.606 66.4684C187.824 66.6534 187.986 66.8955 188.074 67.1674C188.163 67.4394 188.173 67.7306 188.106 68.0083C188.038 68.2861 187.894 68.5394 187.69 68.74L184.9 71.46C184.721 71.6332 184.587 71.8479 184.51 72.0851C184.434 72.3222 184.416 72.5746 184.46 72.82L185.12 76.65C185.167 76.9324 185.135 77.2223 185.026 77.4873C184.918 77.7522 184.738 77.9817 184.506 78.15C184.275 78.3182 184.001 78.4186 183.715 78.4398C183.43 78.461 183.144 78.4022 182.89 78.27L179.44 76.46C179.222 76.3419 178.978 76.28 178.73 76.28C178.482 76.28 178.238 76.3419 178.02 76.46L174.57 78.27C174.316 78.4022 174.03 78.461 173.745 78.4398C173.459 78.4186 173.185 78.3182 172.954 78.15C172.722 77.9817 172.542 77.7522 172.434 77.4873C172.325 77.2223 172.293 76.9324 172.34 76.65L173 72.82C173.041 72.5747 173.023 72.323 172.946 72.0863C172.87 71.8496 172.737 71.6348 172.56 71.46L169.77 68.74C169.566 68.5394 169.422 68.2861 169.355 68.0083C169.287 67.7306 169.297 67.4394 169.386 67.1674C169.474 66.8955 169.636 66.6534 169.854 66.4684C170.072 66.2835 170.337 66.1628 170.62 66.12L174.47 65.56C174.717 65.5244 174.952 65.4294 175.154 65.2831C175.356 65.1367 175.519 64.9435 175.63 64.72L177.35 61.23C177.477 60.9728 177.674 60.7564 177.918 60.6051C178.162 60.4537 178.443 60.3735 178.73 60.3735C179.017 60.3735 179.298 60.4537 179.542 60.6051C179.786 60.7564 179.983 60.9728 180.11 61.23Z" fill="white"/>
</svg>
